<svg version="1.1" viewBox="0 0 500 500"
    xmlns="http://www.w3.org/2000/svg">
    <g transform="matrix(3.4277 0 0 3.4277 22.839 -541.62)" fill="#fff">
        <g transform="matrix(1.2324,0,0,1.2324,-13.971,-70.307)" fill="#fff">
            <path d="m36.382 222.18c-1.081 23.448-9.3405 44.505-18.132 47.985-5.1281 6.5018-4.9831 12.831-4.9831 12.831h103.55s.14503-6.3294-4.9831-12.831c-8.7912-3.4798-17.051-24.537-18.132-47.985-.95068-20.621-18.995-25.184-28.614-25.184s-27.759 4.563-28.71 25.184z"/>
            <circle cx="65.104" cy="196.96" r="5.6954" style="paint-order:stroke markers fill"/>
            <path d="m76.998 285.86c1e-6 6.5685-5.3249 11.893-11.893 11.893-6.5685 0-11.893-5.3249-11.893-11.893z" style="paint-order:stroke markers fill"/>
        </g>
    </g>
</svg>
