<?xml version="1.0" encoding="UTF-8"?>
<svg version="1.1" viewBox="0 0 800 500" xmlns="http://www.w3.org/2000/svg">
 <defs>
  <clipPath id="a">
   <path d="m421.51 213.23c10.76-5.7274 40.806 43.568 51.607 81.273 11.738 40.978 23.795 144 12.979 154.82-8.0879 8.0879-44.19-128.55-47.281-141.53-3.0902-12.979-25.727-90.079-17.305-94.561z" fill="#72ffff"/>
   <path d="m250 0c-119.92-0.32-171.52 108.15-149.58 146.78 14.31 25.183 84.992 31.003 149.58 30.215 64.592 0.788 135.27-5.0318 149.58-30.215 21.94-38.62-29.67-147.09-149.58-146.78zm0 33c121.14 0.309 149.88 64.65 126.7 96.17-14.88 20.233-78.182 18.83-126.7 18.83s-111.82 1.4031-126.7-18.83c-23.177-31.52 5.5616-95.861 126.7-96.17z" fill="#72ffff"/>
   <path d="m88.677 249.69c3.81-74.503 87.762-65.762 161.32-66.689 73.554 0.92707 157.51-7.8138 161.32 66.689 6.8586 134.16-70.765 250.31-161.32 250.31s-168.17-116.15-161.32-250.31z" fill="#72ffff"/>
   <path d="m78.491 213.23c-10.76-5.7274-40.806 43.568-51.607 81.273-11.738 40.978-23.795 144-12.979 154.82 8.0879 8.0879 44.19-128.55 47.281-141.53 3.0902-12.979 25.727-90.079 17.305-94.561z" fill="#72ffff"/>
  </clipPath>
  <clipPath id="clipPath2625">
   <path d="m595.53 46.32c-29.059-0.07754-51.235 10.777-66.359 25.113 2.5859 2.5383 4.998 5.1526 7.2344 7.8281 12.609-7.9393 31.847-13.571 59.125-13.641 70.855 0.18074 87.665 37.814 74.107 56.25-8.7034 11.834-45.729 11.014-74.107 11.014-12.036 0-25.615 0.1392-37.941-0.59375-0.26607 5.1199-1.4152 9.6764-3.502 13.35-0.50621 0.89086-1.1391 1.7372-1.834 2.5625 13.558 1.4079 28.674 1.8208 43.277 1.6426 37.78 0.4609 79.12-2.9441 87.49-17.674 12.833-22.589-17.355-86.033-87.49-85.852z" fill="#fff" fill-opacity=".19608" stroke="#fff" stroke-width="5"/>
  </clipPath>
  <clipPath id="clipPath4166">
   <path d="m595.53 153.36c-17.551 0.22119-36.1-0.48397-52.074 1.5508-6.7277 3.5547-15.845 6.1869-26.373 8.127-4.305 2.68-7.9012 6.1014-10.582 10.477 30.558 3.2275 54.416 13.606 56.123 46.992 1.8062 35.331-4.4702 68.916-16.303 97.426 14.496 13.151 31.421 20.842 49.209 20.842 2.89 0 5.7517-0.23763 8.5898-0.63281-9.3219-28.511-20.088-69.472-21.492-75.367-2.248-9.4417-18.715-65.529-12.588-68.789v-2e-3c7.8275-4.1664 29.684 31.694 37.541 59.123 5.3038 18.516 10.691 54.43 12.131 80.883 41.799-16.767 73.557-75.448 70.174-141.62-2.2285-43.577-51.334-38.466-94.355-39.008z" fill="#fff" fill-opacity=".19608" stroke="#fff" stroke-width="5"/>
  </clipPath>
  <clipPath id="clipPath4172">
   <path d="m445.27 171.99c-41.965 0.52886-88.57-3.2561-108.07 21.223 37.368 4.0825 66.458 16.996 68.553 57.949 2.332 45.616-6.2195 88.903-22.143 125.11 18.129 16.609 39.348 26.324 61.658 26.324 4.5174 0 8.9844-0.43343 13.396-1.2051-11.861-35.215-26.384-90.377-28.203-98.016-2.7768-11.663-23.119-80.943-15.551-84.971v-2e-3c9.6689-5.1466 36.669 39.15 46.375 73.031 6.8843 24.033 13.851 71.716 15.186 104.71 51.426-21.454 90.327-93.939 86.15-175.64-2.7716-54.198-63.846-47.839-117.35-48.514z" fill="#fff" fill-opacity=".19608" stroke="#fff" stroke-width="5"/>
  </clipPath>
 </defs>
 <g display="none">
  <path d="m260.65 26.52c-41.624 67.26-53.819 145.96-116.68 222.5l56.932-8.0762c-33.49 41.016-67.384 71.644-107.37 112.42l60.223-9.4863c-32.579 50.225-62.642 60.59-116.68 102.62 70.01-8.624 131.87-14.311 196.48-22.422h54.197c64.62 8.111 126.47 13.799 196.48 22.422-46.035-35.801-74.668-48.644-102.28-82.705 14.228-1.5988 28.442-3.2496 42.822-5.0547h43.887c52.33 6.568 102.41 11.174 159.1 18.156-37.716-29.332-61.008-39.634-83.611-67.957 11.256-1.2672 22.513-2.5776 33.891-4.0059l35.533.002c42.365 5.3179 82.92 9.0453 128.82 14.699-35.432-27.556-55.143-34.353-76.502-67.283l39.486 6.2207c-26.22-26.738-48.442-46.816-70.398-73.709l37.328 5.293c-41.216-50.186-49.211-101.79-76.5-145.88-27.004 43.637-35.139 94.61-75.236 144.29-33.823-52.77-45.28-105.59-73.846-151.74h-.0137c-33.501 54.132-43.479 117.42-93.584 179.04-42.749-65.821-56.842-131.79-92.473-189.35zm295.98 158.34c-7.105 8.7016-14.241 16.686-21.527 24.418-4.9557-6.4641-9.4991-12.942-13.697-19.422zm-158.3 25.592c-8.9724 10.989-17.984 21.051-27.195 30.801-6.3225-8.1438-12.08-16.307-17.416-24.473zm96.773.002 34.24 4.8555c-5.2379 5.4169-10.577 10.777-16.049 16.219-6.1123-6.7356-12.162-13.689-18.191-21.074zm-174.7 30.492 44.939 6.373c-6.8524 7.1029-13.849 14.121-21.025 21.256-8.0436-8.8129-15.991-17.925-23.914-27.629z" fill="#fff" fill-opacity=".19608" stroke-width=".65566"/>
 </g>
 <g>
  <g fill-opacity=".19608">
   <path d="m595.53 153.36c-17.551 0.22119-36.1-0.48397-52.074 1.5508-6.7277 3.5547-15.845 6.1869-26.373 8.127-4.305 2.68-7.9012 6.1014-10.582 10.477 30.558 3.2275 54.416 13.606 56.123 46.992 1.8062 35.331-4.4702 68.916-16.303 97.426 14.496 13.151 31.421 20.842 49.209 20.842 2.89 0 5.7517-0.23763 8.5898-0.63281-9.3219-28.511-20.088-69.472-21.492-75.367-2.248-9.4417-18.715-65.529-12.588-68.789v-2e-3c7.8275-4.1664 29.684 31.694 37.541 59.123 5.3038 18.516 10.691 54.43 12.131 80.883 41.799-16.767 73.557-75.448 70.174-141.62-2.2285-43.577-51.334-38.466-94.355-39.008z" clip-path="url(#clipPath4166)" fill="#fff" stroke="#fff" stroke-width="10"/>
   <path d="m595.53 46.32c-29.059-0.07754-51.235 10.777-66.359 25.113 2.5859 2.5383 4.998 5.1526 7.2344 7.8281 12.609-7.9393 31.847-13.571 59.125-13.641 70.855 0.18074 87.665 37.814 74.107 56.25-8.7034 11.834-45.729 11.014-74.107 11.014-12.036 0-25.615 0.1392-37.941-0.59375-0.26607 5.1199-1.4152 9.6764-3.502 13.35-0.50621 0.89086-1.1391 1.7372-1.834 2.5625 13.558 1.4079 28.674 1.8208 43.277 1.6426 37.78 0.4609 79.12-2.9441 87.49-17.674 12.833-22.589-17.355-86.033-87.49-85.852z" clip-path="url(#clipPath2625)" fill="#fff" stroke="#fff" stroke-width="10"/>
   <path d="m595.53 65.621c-27.278 0.06958-46.516 5.7013-59.125 13.641 14.809 17.717 21.952 37.85 21.184 52.979 12.345 0.73771 25.882 0.64454 37.941 0.64454 28.378 0 65.404 0.82065 74.107-11.014 13.558-18.436-3.2524-56.069-74.107-56.25z" stroke-width=".5849"/>
   <path d="m695.85 171.04c6.2936-3.35 23.868 25.483 30.185 47.537 6.8656 23.968 13.918 84.226 7.5914 90.555-4.7306 4.7306-25.847-75.189-27.655-82.781-1.8075-7.5914-15.048-52.687-10.122-55.309z" fill="#fff" stroke="#fff" stroke-width="5"/>
  </g>
  <circle cx="630.06" cy="94.399" r="12.526" fill="#0ff" stroke-width=".5849" style="paint-order:stroke markers fill"/>
  <circle cx="561.01" cy="94.399" r="12.526" fill="#0ff" stroke-width=".5849" style="paint-order:stroke markers fill"/>
  <g fill-opacity=".19608">
   <path d="m445.27 171.99c-41.965 0.52886-88.57-3.2561-108.07 21.223 37.368 4.0825 66.458 16.996 68.553 57.949 2.332 45.616-6.2195 88.903-22.143 125.11 18.129 16.609 39.348 26.324 61.658 26.324 4.5174 0 8.9844-0.43343 13.396-1.2051-11.861-35.215-26.384-90.377-28.203-98.016-2.7768-11.663-23.119-80.943-15.551-84.971v-2e-3c9.6689-5.1466 36.669 39.15 46.375 73.031 6.8843 24.033 13.851 71.716 15.186 104.71 51.426-21.454 90.327-93.939 86.15-175.64-2.7716-54.198-63.846-47.839-117.35-48.514z" clip-path="url(#clipPath4172)" fill="#fff" stroke="#fff" stroke-width="10"/>
   <path d="m445.28 62.869c-31.948 0.08149-55.021 6.3007-70.703 15.27 18.682 23.006 26.988 49.044 24.627 67.658 15.054 0.8435 31.443 0.73046 46.076 0.73046 35.294 0 81.345 1.0214 92.17-13.697 16.863-22.93-4.0455-69.736-92.17-69.961z" stroke-width=".72746"/>
   <path d="m570.04 193.98c7.8275-4.1664 29.685 31.694 37.542 59.123 8.5389 29.81 17.31 104.75 9.4417 112.63-5.8836 5.8836-32.146-93.515-34.395-102.96-2.248-9.4417-18.715-65.529-12.589-68.789z" fill="#fff" stroke="#fff" stroke-width="5"/>
   <path d="m445.28 38.863c-34.575-0.09226-61.31 12.265-80.035 28.945 3.3543 3.3478 6.4649 6.7994 9.332 10.33 15.682-8.9688 38.755-15.188 70.703-15.27 88.124 0.22478 109.03 47.031 92.17 69.961-10.825 14.719-56.875 13.697-92.17 13.697-14.613 0-31.045 0.1598-46.082-0.67968-0.61896 4.837-1.9141 9.1991-3.9824 12.84-1.3736 2.4174-3.3572 4.6259-5.8184 6.6602 17.384 1.9316 36.972 2.5042 55.883 2.2734 46.988 0.57324 98.404-3.6607 108.81-21.98 15.96-28.094-21.585-107-108.81-106.78z" fill="#fff" stroke="#fff" stroke-width="5"/>
  </g>
  <circle cx="488.21" cy="98.661" r="15.579" fill="#0ff" stroke-width=".72746" style="paint-order:stroke markers fill"/>
  <circle cx="402.34" cy="98.661" r="15.579" fill="#0ff" stroke-width=".72746" style="paint-order:stroke markers fill"/>
  <g>
   <path d="m146.95 142.86c-20.827-28.324 4.9984-86.14 113.85-86.418 108.86 0.27767 134.68 58.094 113.85 86.418-13.371 18.181-70.255 16.921-113.85 16.921-43.597 0-100.48 1.2609-113.85-16.921z" fill-opacity=".19608" stroke-width="15"/>
   <g transform="matrix(.8986 0 0 .8986 36.149 26.792)" clip-path="url(#a)" fill="#fff" fill-opacity=".19608" stroke="#fff" stroke-width="16.693">
    <path d="m421.51 213.23c10.76-5.7274 40.806 43.568 51.607 81.273 11.738 40.978 23.795 144 12.979 154.82-8.0879 8.0879-44.19-128.55-47.281-141.53-3.0902-12.979-25.727-90.079-17.305-94.561z"/>
    <path d="m250 0c-119.92-0.32-171.52 108.15-149.58 146.78 14.31 25.183 84.992 31.003 149.58 30.215 64.592 0.788 135.27-5.0318 149.58-30.215 21.94-38.62-29.67-147.09-149.58-146.78zm0 33c121.14 0.309 149.88 64.65 126.7 96.17-14.88 20.233-78.182 18.83-126.7 18.83s-111.82 1.4031-126.7-18.83c-23.177-31.52 5.5616-95.861 126.7-96.17z"/>
    <path d="m88.677 249.69c3.81-74.503 87.762-65.762 161.32-66.689 73.554 0.92707 157.51-7.8138 161.32 66.689 6.8586 134.16-70.765 250.31-161.32 250.31s-168.17-116.15-161.32-250.31z"/>
    <path d="m78.491 213.23c-10.76-5.7274-40.806 43.568-51.607 81.273-11.738 40.978-23.795 144-12.979 154.82 8.0879 8.0879 44.19-128.55 47.281-141.53 3.0902-12.979 25.727-90.079 17.305-94.561z"/>
   </g>
   <circle cx="313.83" cy="100.66" r="19.244" fill="#0ff" stroke-width="15" style="paint-order:stroke markers fill"/>
   <circle cx="207.76" cy="100.66" r="19.244" fill="#0ff" stroke-width="15" style="paint-order:stroke markers fill"/>
  </g>
 </g>
</svg>
