<?xml version="1.0" encoding="UTF-8"?>
<svg version="1.1" viewBox="0 0 500 500" xmlns="http://www.w3.org/2000/svg">
 <g fill="#ffec00">
  <path d="m421.51 213.23c10.76-5.7274 40.806 43.568 51.607 81.273 11.738 40.978 23.795 144 12.979 154.82-8.0879 8.0879-44.19-128.55-47.281-141.53-3.0902-12.979-25.727-90.079-17.305-94.561z"/>
  <path d="m100.42 146.78c-21.941-38.628 29.665-147.1 149.58-146.78 119.91-.31 171.52 108.16 149.58 146.78-14.31 25.183-84.988 31.003-149.58 30.215-64.588.78777-135.27-5.0316-149.58-30.215z"/>
  <path d="m88.677 249.69c3.81-74.503 87.762-65.762 161.32-66.689 73.554.92707 157.51-7.8138 161.32 66.689 6.8586 134.16-70.765 250.31-161.32 250.31s-168.17-116.15-161.32-250.31z"/>
  <path d="m78.491 213.23c-10.76-5.7274-40.806 43.568-51.607 81.273-11.738 40.978-23.795 144-12.979 154.82 8.0879 8.0879 44.19-128.55 47.281-141.53 3.0902-12.979 25.727-90.079 17.305-94.561z"/>
 </g>
 <path d="m123.3 129.17c-23.177-31.52 5.5624-95.861 126.7-96.17 121.14.309 149.88 64.65 126.7 96.17-14.88 20.233-78.183 18.83-126.7 18.83s-111.82 1.4032-126.7-18.83z"/>
 <circle cx="309.02" cy="82.2" r="21.416" fill="#0ff" style="paint-order:stroke markers fill"/>
 <circle cx="190.98" cy="82.2" r="21.416" fill="#0ff" style="paint-order:stroke markers fill"/>
</svg>
