<?xml version="1.0" encoding="UTF-8" standalone="no"?>
<svg
   version="1.1"
   viewBox="0 0 800 500"
   id="svg882"
   sodipodi:docname="_botsGhost.svg"
   inkscape:version="1.1.1 (3bf5ae0d25, 2021-09-20)"
   xmlns:inkscape="http://www.inkscape.org/namespaces/inkscape"
   xmlns:sodipodi="http://sodipodi.sourceforge.net/DTD/sodipodi-0.dtd"
   xmlns="http://www.w3.org/2000/svg"
   xmlns:svg="http://www.w3.org/2000/svg">
  <defs
     id="defs886">
    <clipPath
       id="a">
      <path
         d="m 421.51,213.23 c 10.76,-5.7274 40.806,43.568 51.607,81.273 11.738,40.978 23.795,144 12.979,154.82 -8.0879,8.0879 -44.19,-128.55 -47.281,-141.53 -3.0902,-12.979 -25.727,-90.079 -17.305,-94.561 z"
         fill="#72ffff"
         id="path2" />
      <path
         d="M 250,0 C 130.08,-0.32 78.48,108.15 100.42,146.78 c 14.31,25.183 84.992,31.003 149.58,30.215 64.592,0.788 135.27,-5.0318 149.58,-30.215 C 421.52,108.16 369.91,-0.31 250,0 Z m 0,33 C 371.14,33.309 399.88,97.65 376.7,129.17 361.82,149.403 298.518,148 250,148 201.482,148 138.18,149.4031 123.3,129.17 100.123,97.65 128.8616,33.309 250,33 Z"
         fill="#72ffff"
         id="path4" />
      <path
         d="m 88.677,249.69 c 3.81,-74.503 87.762,-65.762 161.32,-66.689 73.554,0.92707 157.51,-7.8138 161.32,66.689 C 418.1756,383.85 340.552,500 249.997,500 159.442,500 81.827,383.85 88.677,249.69 Z"
         fill="#72ffff"
         id="path6" />
      <path
         d="m 78.491,213.23 c -10.76,-5.7274 -40.806,43.568 -51.607,81.273 -11.738,40.978 -23.795,144 -12.979,154.82 8.0879,8.0879 44.19,-128.55 47.281,-141.53 3.0902,-12.979 25.727,-90.079 17.305,-94.561 z"
         fill="#72ffff"
         id="path8" />
    </clipPath>
  </defs>
  <sodipodi:namedview
     id="namedview884"
     pagecolor="#ffffff"
     bordercolor="#666666"
     borderopacity="1.0"
     inkscape:pageshadow="2"
     inkscape:pageopacity="0.0"
     inkscape:pagecheckerboard="0"
     showgrid="false"
     inkscape:zoom="2.93"
     inkscape:cx="400"
     inkscape:cy="250.17065"
     inkscape:window-width="3840"
     inkscape:window-height="2276"
     inkscape:window-x="-12"
     inkscape:window-y="-12"
     inkscape:window-maximized="1"
     inkscape:current-layer="layer4" />
  <g
     inkscape:groupmode="layer"
     id="layer3"
     inkscape:label="Layer 3"
     sodipodi:insensitive="true">
    <rect
       style="fill:#ff73ff;fill-opacity:1;stroke:none;stroke-width:25;paint-order:stroke markers fill"
       id="rect1359"
       width="911.26282"
       height="598.29352"
       x="-61.433449"
       y="-49.488056" />
  </g>
  <g
     inkscape:groupmode="layer"
     id="layer2"
     inkscape:label="Layer 2"
     style="display:inline"
     sodipodi:insensitive="true">
    <g
       id="g1335"
       transform="matrix(0.65034797,0,0,0.65034797,425.94097,28.808757)">
      <g
         fill="#ffffff"
         id="g1327"
         transform="matrix(0.89838751,0,0,0.89838751,35.85547,27.133387)">
        <path
           d="m 421.51,213.23 c 10.76,-5.7274 40.806,43.568 51.607,81.273 11.738,40.978 23.795,144 12.979,154.82 -8.0879,8.0879 -44.19,-128.55 -47.281,-141.53 -3.0902,-12.979 -25.727,-90.079 -17.305,-94.561 z"
           id="path1319"
           style="fill:#c8c8f0;fill-opacity:1" />
        <path
           d="M 100.42,146.78 C 78.479,108.152 130.085,-0.32 250,0 369.91,-0.31 421.52,108.16 399.58,146.78 385.27,171.963 314.592,177.783 250,176.995 185.412,177.78277 114.73,171.9634 100.42,146.78 Z"
           id="path1321"
           style="fill:#c8c8f0;fill-opacity:1" />
        <path
           d="m 88.677,249.69 c 3.81,-74.503 87.762,-65.762 161.32,-66.689 73.554,0.92707 157.51,-7.8138 161.32,66.689 C 418.1756,383.85 340.552,500 249.997,500 159.442,500 81.827,383.85 88.677,249.69 Z"
           id="path1323"
           style="fill:#c8c8f0;fill-opacity:1" />
        <path
           d="m 78.491,213.23 c -10.76,-5.7274 -40.806,43.568 -51.607,81.273 -11.738,40.978 -23.795,144 -12.979,154.82 8.0879,8.0879 44.19,-128.55 47.281,-141.53 3.0902,-12.979 25.727,-90.079 17.305,-94.561 z"
           id="path1325" />
      </g>
      <path
         d="m 146.62665,143.1781 c -20.82192,-28.31718 4.99719,-86.120323 113.8257,-86.397924 108.83066,0.277601 134.65032,58.080744 113.8257,86.397924 -13.36801,18.17708 -70.23864,16.91664 -113.8257,16.91664 -43.58706,0 -100.45769,1.26062 -113.8257,-16.91664 z"
         id="path1329"
         style="stroke-width:0.898388" />
      <circle
         cx="313.47516"
         cy="100.98084"
         r="19.239868"
         fill="#00ffff"
         style="stroke-width:0.898388;paint-order:stroke markers fill"
         id="circle1331" />
      <circle
         cx="207.4295"
         cy="100.98084"
         r="19.239868"
         fill="#00ffff"
         style="stroke-width:0.898388;paint-order:stroke markers fill"
         id="circle1333" />
    </g>
    <g
       id="g1317"
       transform="matrix(0.81029666,0,0,0.81029666,235.0743,16.409973)">
      <g
         fill="#ffffff"
         id="g1309"
         transform="matrix(0.89838751,0,0,0.89838751,35.85547,27.133387)">
        <path
           d="m 421.51,213.23 c 10.76,-5.7274 40.806,43.568 51.607,81.273 11.738,40.978 23.795,144 12.979,154.82 -8.0879,8.0879 -44.19,-128.55 -47.281,-141.53 -3.0902,-12.979 -25.727,-90.079 -17.305,-94.561 z"
           id="path1301"
           style="fill:#e6e6ff;fill-opacity:1" />
        <path
           d="M 100.42,146.78 C 78.479,108.152 130.085,-0.32 250,0 369.91,-0.31 421.52,108.16 399.58,146.78 385.27,171.963 314.592,177.783 250,176.995 185.412,177.78277 114.73,171.9634 100.42,146.78 Z"
           id="path1303"
           style="fill:#e6e6ff;fill-opacity:1" />
        <path
           d="m 88.677,249.69 c 3.81,-74.503 87.762,-65.762 161.32,-66.689 73.554,0.92707 157.51,-7.8138 161.32,66.689 C 418.1756,383.85 340.552,500 249.997,500 159.442,500 81.827,383.85 88.677,249.69 Z"
           id="path1305"
           style="fill:#e6e6ff;fill-opacity:1" />
        <path
           d="m 78.491,213.23 c -10.76,-5.7274 -40.806,43.568 -51.607,81.273 -11.738,40.978 -23.795,144 -12.979,154.82 8.0879,8.0879 44.19,-128.55 47.281,-141.53 3.0902,-12.979 25.727,-90.079 17.305,-94.561 z"
           id="path1307" />
      </g>
      <path
         d="m 146.62665,143.1781 c -20.82192,-28.31718 4.99719,-86.120323 113.8257,-86.397924 108.83066,0.277601 134.65032,58.080744 113.8257,86.397924 -13.36801,18.17708 -70.23864,16.91664 -113.8257,16.91664 -43.58706,0 -100.45769,1.26062 -113.8257,-16.91664 z"
         id="path1311"
         style="stroke-width:0.898388" />
      <circle
         cx="313.47516"
         cy="100.98084"
         r="19.239868"
         fill="#00ffff"
         style="stroke-width:0.898388;paint-order:stroke markers fill"
         id="circle1313" />
      <circle
         cx="207.4295"
         cy="100.98084"
         r="19.239868"
         fill="#00ffff"
         style="stroke-width:0.898388;paint-order:stroke markers fill"
         id="circle1315" />
    </g>
    <g
       id="g1299">
      <g
         fill="#ffffff"
         id="g998"
         transform="matrix(0.89838751,0,0,0.89838751,35.85547,27.133387)">
        <path
           d="m 421.51,213.23 c 10.76,-5.7274 40.806,43.568 51.607,81.273 11.738,40.978 23.795,144 12.979,154.82 -8.0879,8.0879 -44.19,-128.55 -47.281,-141.53 -3.0902,-12.979 -25.727,-90.079 -17.305,-94.561 z"
           id="path990" />
        <path
           d="M 100.42,146.78 C 78.479,108.152 130.085,-0.32 250,0 369.91,-0.31 421.52,108.16 399.58,146.78 385.27,171.963 314.592,177.783 250,176.995 185.412,177.78277 114.73,171.9634 100.42,146.78 Z"
           id="path992" />
        <path
           d="m 88.677,249.69 c 3.81,-74.503 87.762,-65.762 161.32,-66.689 73.554,0.92707 157.51,-7.8138 161.32,66.689 C 418.1756,383.85 340.552,500 249.997,500 159.442,500 81.827,383.85 88.677,249.69 Z"
           id="path994" />
        <path
           d="m 78.491,213.23 c -10.76,-5.7274 -40.806,43.568 -51.607,81.273 -11.738,40.978 -23.795,144 -12.979,154.82 8.0879,8.0879 44.19,-128.55 47.281,-141.53 3.0902,-12.979 25.727,-90.079 17.305,-94.561 z"
           id="path996" />
      </g>
      <path
         d="m 146.62665,143.1781 c -20.82192,-28.31718 4.99719,-86.120323 113.8257,-86.397924 108.83066,0.277601 134.65032,58.080744 113.8257,86.397924 -13.36801,18.17708 -70.23864,16.91664 -113.8257,16.91664 -43.58706,0 -100.45769,1.26062 -113.8257,-16.91664 z"
         id="path1000"
         style="stroke-width:0.898388" />
      <circle
         cx="313.47516"
         cy="100.98084"
         r="19.239868"
         fill="#00ffff"
         style="stroke-width:0.898388;paint-order:stroke markers fill"
         id="circle1002" />
      <circle
         cx="207.4295"
         cy="100.98084"
         r="19.239868"
         fill="#00ffff"
         style="stroke-width:0.898388;paint-order:stroke markers fill"
         id="circle1004" />
    </g>
  </g>
  <g
     display="none"
     id="g858">
    <path
       d="m260.65 26.52c-41.624 67.26-53.819 145.96-116.68 222.5l56.932-8.0762c-33.49 41.016-67.384 71.644-107.37 112.42l60.223-9.4863c-32.579 50.225-62.642 60.59-116.68 102.62 70.01-8.624 131.87-14.311 196.48-22.422h54.197c64.62 8.111 126.47 13.799 196.48 22.422-46.035-35.801-74.668-48.644-102.28-82.705 14.228-1.5988 28.442-3.2496 42.822-5.0547h43.887c52.33 6.568 102.41 11.174 159.1 18.156-37.716-29.332-61.008-39.634-83.611-67.957 11.256-1.2672 22.513-2.5776 33.891-4.0059l35.533.002c42.365 5.3179 82.92 9.0453 128.82 14.699-35.432-27.556-55.143-34.353-76.502-67.283l39.486 6.2207c-26.22-26.738-48.442-46.816-70.398-73.709l37.328 5.293c-41.216-50.186-49.211-101.79-76.5-145.88-27.004 43.637-35.139 94.61-75.236 144.29-33.823-52.77-45.28-105.59-73.846-151.74h-.0137c-33.501 54.132-43.479 117.42-93.584 179.04-42.749-65.821-56.842-131.79-92.473-189.35zm295.98 158.34c-7.105 8.7016-14.241 16.686-21.527 24.418-4.9557-6.4641-9.4991-12.942-13.697-19.422zm-158.3 25.592c-8.9724 10.989-17.984 21.051-27.195 30.801-6.3225-8.1438-12.08-16.307-17.416-24.473zm96.773.002 34.24 4.8555c-5.2379 5.4169-10.577 10.777-16.049 16.219-6.1123-6.7356-12.162-13.689-18.191-21.074zm-174.7 30.492 44.939 6.373c-6.8524 7.1029-13.849 14.121-21.025 21.256-8.0436-8.8129-15.991-17.925-23.914-27.629z"
       fill="#fff"
       fill-opacity=".19608"
       stroke-width=".65566"
       id="path856" />
  </g>
  <g
     inkscape:groupmode="layer"
     id="layer1"
     inkscape:label="Layer 1"
     style="display:none;opacity:1"
     sodipodi:insensitive="true">
    <g
       fill="#ffffff"
       id="g876">
      <path
         d="m 259.92,44.805 v 0.0039 c -41.624,67.26001 -33.836,116.62001 -96.697,193.16001 l 56.188,-7.4375 c -33.49,41.017 -53.138,64.202 -93.125,104.98 l 43.428,-3.5332 c -32.579,50.225 -41.915,59.741 -95.953,101.77 70.012,-8.6236 93.182,-9.4208 157.79,-17.531 l 56.004,-2.4453 c 64.619,8.111 90.014,10.824 160.02,19.447 -43.929,-34.164 -56.983,-45.231 -77.828,-75.154 17.714,-2.0633 35.425,-4.1545 53.658,-6.4434 l 45.057,-1.0625 c 52.333,6.568 76.693,10.961 133.38,17.943 -37.963,-29.524 -46.928,-35.946 -65.857,-63.678 14.188,-2.2248 28.304,-4.3466 42.596,-6.1406 l 36.066,-0.10547 c 42.369,5.3177 55.5,6.602 101.4,12.256 -35.432,-27.556 -35.692,-29.675 -57.051,-62.605 l 30.451,4.3047 c -26.22,-26.738 -43.978,-47.029 -65.934,-73.922 l 38.178,7.6328 c -41.217,-50.185 -38.349,-84.099 -65.639,-128.190004 v -0.0039 C 568.761,102.15253 572.544,131.27653 531.329,181.46053 l 34.564,-2.2109 c -18.371,22.499 -32.929,40.465 -52.543,61.389 -9.9018,-11.306 -19.691,-22.962 -30.879,-36.666 l 42.061,3.0312 c -50.903,-61.981 -44.21,-99.351 -77.912,-153.800001 l -0.004,0.0059 C 412.912,107.66973 416.961,147.15373 366.061,209.12973 l 49.82,-8.3457 c -23.168,28.375 -46.217,51.184 -72.623,77.809 -11.893,-13.822 -23.689,-28.067 -36.977,-44.342 l 50.023,0.31445 c -62.864,-76.55 -54.763,-122.51 -96.385,-189.760001 z m 266.13,205.65 c -0.5629,0.86783 -1.1246,1.7086 -1.6856,2.541 -0.64243,-0.70933 -1.2903,-1.423 -1.9277,-2.1309 l 3.6133,-0.41016 z m -154.73,35.373 c -3.1768,4.8975 -6.4763,9.3366 -9.8945,13.432 -3.1149,-3.4662 -6.1879,-6.916 -9.2148,-10.361 l 19.109,-3.0703 z"
         fill-opacity="0.19608"
         stroke-width="0.65566"
         id="path860" />
      <g
         fill-opacity="0.19608"
         stroke="#ffffff"
         id="g868">
        <path
           d="m 578.03,300.61 -0.1337,34.91 37.979,0.21252 -0.39562,-36.341 z"
           stroke-width="4.3379"
           id="path862" />
        <path
           d="m 424.78,354.3 -0.16512,44.542 46.903,0.27115 -0.48857,-46.368 z"
           stroke-width="5.4453"
           id="path864" />
        <path
           d="m 233.55,419.79 -0.20391,53.821 57.925,0.32765 -0.60338,-56.028 z"
           stroke-width="6.6519"
           id="path866" />
      </g>
      <path
         d="m 230,410.05 -0.24486,67.133 65.469,0.34277 -0.44069,-67.672 -18.999,0.2938 0.63658,48.526 -29.086,0.14687 -0.24485,-48.967 z"
         id="path870" />
      <path
         d="m 422.04,347.94 -0.1963,53.816 52.482,0.27475 -0.35331,-54.248 -15.23,0.23549 0.51029,38.9 -23.316,0.11772 -0.19628,-39.253 z"
         id="path872" />
      <path
         d="m 575.74,294.04 -0.15894,43.577 42.496,0.22247 -0.28609,-43.926 -12.332,0.19068 0.41318,31.498 -18.88,0.0952 -0.15893,-31.784 z"
         id="path874" />
    </g>
    <g
       id="g880">
      <path
         d="m 260.81,25.951 c -41.73,67.436 -53.958,146.35 -116.99,223.09 l 57.084,-8.0996 c -33.579,41.124 -67.563,71.834 -107.66,112.72 l 60.381,-9.5137 c -32.661,50.356 -62.805,60.752 -116.99,102.89 70.197,-8.6468 132.22,-14.349 197,-22.48 h 54.342 c 64.792,8.1323 126.81,13.836 197,22.482 -46.631,-36.267 -75.455,-49.041 -103.41,-83.996 14.306,-1.6062 28.598,-3.265 43.057,-5.0801 h 43.658 c 52.054,6.5335 101.88,11.116 158.27,18.062 -37.458,-29.132 -60.614,-39.396 -83.066,-67.469 11.184,-1.2665 23.166,-2.839 34.438,-4.2539 h 35.35 c 42.149,5.2904 82.494,9.0024 128.16,14.627 -35.246,-27.412 -54.855,-34.173 -76.104,-66.934 l 39.281,6.1856 c -26.084,-26.599 -48.191,-46.573 -70.033,-73.326 l 37.135,5.2676 c -41.002,-49.928 -48.955,-101.27 -76.104,-145.13 h -0.0137 c -26.879,43.436 -35.517,94.523 -75.475,143.98 -33.792,-52.595 -45.182,-105.25 -73.654,-151.25 h -0.0176 c -33.299,53.811 -43.237,116.72 -92.984,177.98 -42.808,-65.96 -56.939,-132.06 -92.646,-189.75 z m 0.0117,37.713 c 23.738,48.418 40.095,104.39 77.293,161.52 l -60.564,-8.5918 29.201,35.77 c 22.558,27.629 45.676,51.046 69.637,74.842 l -45.539,-7.1738 22.016,33.943 c 17.403,26.83 35.157,44.071 54.557,59.008 3.6938,2.8441 7.8449,5.6418 11.664,8.4023 -43.708,-4.8219 -86.204,-9.376 -128.85,-14.729 l -1.1191,-0.14063 h -56.598 l -1.1211,0.14063 c -42.638,5.3523 -85.132,9.9064 -128.84,14.729 3.82,-2.761 7.9716,-5.5597 11.666,-8.4043 19.4,-14.937 37.153,-32.177 54.555,-59.006 l 22.016,-33.945 -45.539,7.1738 c 23.96,-23.795 47.074,-47.212 69.633,-74.84 l 29.207,-35.77 -60.568,8.5918 c 37.199,-57.123 53.559,-113.09 77.297,-161.52 z m 185.65,4.3613 c 19.071,38.899 32.213,83.868 62.098,129.76 l -48.658,-6.9023 23.461,28.736 c 18.123,22.197 36.695,41.012 55.945,60.129 l -36.586,-5.7637 17.688,27.27 c 13.981,21.555 28.245,35.406 43.83,47.406 2.9675,2.2849 6.3028,4.5322 9.3711,6.75 -35.115,-3.8739 -69.256,-7.5319 -103.52,-11.832 l -0.89844,-0.11328 h -45.471 l -0.9004,0.11328 c -1.3103,0.16448 -2.6198,0.32237 -3.9297,0.48438 -15.807,-15.902 -30.685,-30.427 -45.023,-44.902 l 16.328,-25.178 -35.355,5.5703 c -0.16779,-0.17735 -0.33623,-0.35373 -0.50391,-0.53125 18.989,-18.868 37.322,-37.487 55.217,-59.402 l 23.465,-28.736 -48.66,6.9023 c 29.885,-45.893 43.029,-90.86 62.1,-129.76 z m 149.15,1.5078 c 15.442,31.498 26.083,67.911 50.281,105.07 l -39.398,-5.5898 18.996,23.27 c 14.675,17.974 29.713,33.208 45.301,48.688 l -29.625,-4.666 14.322,22.08 c 11.321,17.454 22.87,28.67 35.49,38.387 2.4029,1.8502 5.1034,3.669 7.5879,5.4648 -28.433,-3.1368 -56.077,-6.0981 -83.818,-9.5801 l -0.72852,-0.0918 h -36.818 l -0.72851,0.0918 c -0.90713,0.11386 -2.2713,0.32836 -3.2148,0.44922 -12.79,-12.862 -24.865,-24.668 -36.463,-36.389 l 13.26,-20.414 -28.639,4.5352 c -0.14487,-0.15348 -0.29079,-0.30535 -0.43555,-0.45899 15.231,-15.14 30.389,-30.51 44.748,-48.096 l 19,-23.27 -39.402,5.5898 c 24.199,-37.16 34.843,-73.572 50.285,-105.07 z m -38.978,115.33 c -7.0202,8.5976 -14.751,17.127 -21.965,24.785 -4.9776,-6.4723 -9.5342,-12.959 -13.746,-19.447 z m -158.3,25.592 c -8.8912,10.889 -17.823,20.86 -26.949,30.523 -6.2536,-8.0712 -11.957,-16.161 -17.246,-24.254 z m 96.268,0.002 34.658,4.916 c -5.1878,5.3612 -10.785,11.055 -16.205,16.445 -6.2026,-6.8228 -12.337,-13.871 -18.453,-21.361 z m -173.87,30.494 44.6,6.3242 c -6.7213,6.9583 -13.82,14.127 -20.854,21.119 -7.9854,-8.7569 -15.879,-17.807 -23.746,-27.443 z m 211.85,52.422 15.109,2.3789 c -3.7866,0.47082 -8.6025,1.3017 -12.357,1.75 -0.91553,-1.3414 -1.8324,-2.7111 -2.752,-4.1289 z m -164.58,50.785 21.641,3.4082 c -5.987,0.69494 -11.973,1.3898 -17.98,2.0664 -1.2174,-1.7774 -2.4371,-3.589 -3.6602,-5.4746 z"
         fill="#ffffff"
         id="path878" />
    </g>
  </g>
  <g
     inkscape:groupmode="layer"
     id="layer4"
     inkscape:label="Layer 4"
     style="display:none">
    <g
       id="g963"
       transform="matrix(0.89859685,0,0,0.89859685,36.148731,26.79209)">
      <g
         clip-path="url(#a)"
         fill="#ffffff"
         fill-opacity="0.19608"
         stroke="#ffffff"
         stroke-width="25"
         id="g21">
        <path
           d="m 421.51,213.23 c 10.76,-5.7274 40.806,43.568 51.607,81.273 11.738,40.978 23.795,144 12.979,154.82 -8.0879,8.0879 -44.19,-128.55 -47.281,-141.53 -3.0902,-12.979 -25.727,-90.079 -17.305,-94.561 z"
           id="path13" />
        <path
           d="M 250,0 C 130.08,-0.32 78.48,108.15 100.42,146.78 c 14.31,25.183 84.992,31.003 149.58,30.215 64.592,0.788 135.27,-5.0318 149.58,-30.215 C 421.52,108.16 369.91,-0.31 250,0 Z m 0,33 C 371.14,33.309 399.88,97.65 376.7,129.17 361.82,149.403 298.518,148 250,148 201.482,148 138.18,149.4031 123.3,129.17 100.123,97.65 128.8616,33.309 250,33 Z"
           id="path15" />
        <path
           d="m 88.677,249.69 c 3.81,-74.503 87.762,-65.762 161.32,-66.689 73.554,0.92707 157.51,-7.8138 161.32,66.689 C 418.1756,383.85 340.552,500 249.997,500 159.442,500 81.827,383.85 88.677,249.69 Z"
           id="path17" />
        <path
           d="m 78.491,213.23 c -10.76,-5.7274 -40.806,43.568 -51.607,81.273 -11.738,40.978 -23.795,144 -12.979,154.82 8.0879,8.0879 44.19,-128.55 47.281,-141.53 3.0902,-12.979 25.727,-90.079 17.305,-94.561 z"
           id="path19" />
      </g>
      <g
         id="g29">
        <circle
           cx="309.01999"
           cy="82.199997"
           r="21.416"
           fill="#00ffff"
           style="paint-order:stroke markers fill"
           id="circle23" />
        <circle
           cx="190.98"
           cy="82.199997"
           r="21.416"
           fill="#00ffff"
           style="paint-order:stroke markers fill"
           id="circle25" />
        <path
           d="M 123.3,129.17 C 100.123,97.65 128.8624,33.309 250,33 371.14,33.309 399.88,97.65 376.7,129.17 361.82,149.403 298.517,148 250,148 c -48.517,0 -111.82,1.4032 -126.7,-18.83 z"
           fill-opacity="0.19608"
           id="path27" />
      </g>
    </g>
    <g
       id="g1071"
       transform="matrix(0.72745963,0,0,0.72745963,263.41094,38.863906)">
      <g
         clip-path="url(#a)"
         fill="#ffffff"
         fill-opacity="0.19608"
         stroke="#ffffff"
         stroke-width="25"
         id="g1061">
        <path
           d="m 421.51,213.23 c 10.76,-5.7274 40.806,43.568 51.607,81.273 11.738,40.978 23.795,144 12.979,154.82 -8.0879,8.0879 -44.19,-128.55 -47.281,-141.53 -3.0902,-12.979 -25.727,-90.079 -17.305,-94.561 z"
           id="path1053" />
        <path
           d="M 250,0 C 130.08,-0.32 78.48,108.15 100.42,146.78 c 14.31,25.183 84.992,31.003 149.58,30.215 64.592,0.788 135.27,-5.0318 149.58,-30.215 C 421.52,108.16 369.91,-0.31 250,0 Z m 0,33 C 371.14,33.309 399.88,97.65 376.7,129.17 361.82,149.403 298.518,148 250,148 201.482,148 138.18,149.4031 123.3,129.17 100.123,97.65 128.8616,33.309 250,33 Z"
           id="path1055" />
        <path
           d="m 88.677,249.69 c 3.81,-74.503 87.762,-65.762 161.32,-66.689 73.554,0.92707 157.51,-7.8138 161.32,66.689 C 418.1756,383.85 340.552,500 249.997,500 159.442,500 81.827,383.85 88.677,249.69 Z"
           id="path1057" />
        <path
           d="m 78.491,213.23 c -10.76,-5.7274 -40.806,43.568 -51.607,81.273 -11.738,40.978 -23.795,144 -12.979,154.82 8.0879,8.0879 44.19,-128.55 47.281,-141.53 3.0902,-12.979 25.727,-90.079 17.305,-94.561 z"
           id="path1059" />
      </g>
      <g
         id="g1069">
        <circle
           cx="309.01999"
           cy="82.199997"
           r="21.416"
           fill="#00ffff"
           style="paint-order:stroke markers fill"
           id="circle1063" />
        <circle
           cx="190.98"
           cy="82.199997"
           r="21.416"
           fill="#00ffff"
           style="paint-order:stroke markers fill"
           id="circle1065" />
        <path
           d="M 123.3,129.17 C 100.123,97.65 128.8624,33.309 250,33 371.14,33.309 399.88,97.65 376.7,129.17 361.82,149.403 298.517,148 250,148 c -48.517,0 -111.82,1.4032 -126.7,-18.83 z"
           fill-opacity="0.19608"
           id="path1067" />
      </g>
    </g>
    <g
       id="g1091"
       transform="matrix(0.58490239,0,0,0.58490239,449.3085,46.320002)">
      <g
         clip-path="url(#a)"
         fill="#ffffff"
         fill-opacity="0.19608"
         stroke="#ffffff"
         stroke-width="25"
         id="g1081">
        <path
           d="m 421.51,213.23 c 10.76,-5.7274 40.806,43.568 51.607,81.273 11.738,40.978 23.795,144 12.979,154.82 -8.0879,8.0879 -44.19,-128.55 -47.281,-141.53 -3.0902,-12.979 -25.727,-90.079 -17.305,-94.561 z"
           id="path1073" />
        <path
           d="M 250,0 C 130.08,-0.32 78.48,108.15 100.42,146.78 c 14.31,25.183 84.992,31.003 149.58,30.215 64.592,0.788 135.27,-5.0318 149.58,-30.215 C 421.52,108.16 369.91,-0.31 250,0 Z m 0,33 C 371.14,33.309 399.88,97.65 376.7,129.17 361.82,149.403 298.518,148 250,148 201.482,148 138.18,149.4031 123.3,129.17 100.123,97.65 128.8616,33.309 250,33 Z"
           id="path1075" />
        <path
           d="m 88.677,249.69 c 3.81,-74.503 87.762,-65.762 161.32,-66.689 73.554,0.92707 157.51,-7.8138 161.32,66.689 C 418.1756,383.85 340.552,500 249.997,500 159.442,500 81.827,383.85 88.677,249.69 Z"
           id="path1077" />
        <path
           d="m 78.491,213.23 c -10.76,-5.7274 -40.806,43.568 -51.607,81.273 -11.738,40.978 -23.795,144 -12.979,154.82 8.0879,8.0879 44.19,-128.55 47.281,-141.53 3.0902,-12.979 25.727,-90.079 17.305,-94.561 z"
           id="path1079" />
      </g>
      <g
         id="g1089">
        <circle
           cx="309.01999"
           cy="82.199997"
           r="21.416"
           fill="#00ffff"
           style="paint-order:stroke markers fill"
           id="circle1083" />
        <circle
           cx="190.98"
           cy="82.199997"
           r="21.416"
           fill="#00ffff"
           style="paint-order:stroke markers fill"
           id="circle1085" />
        <path
           d="M 123.3,129.17 C 100.123,97.65 128.8624,33.309 250,33 371.14,33.309 399.88,97.65 376.7,129.17 361.82,149.403 298.517,148 250,148 c -48.517,0 -111.82,1.4032 -126.7,-18.83 z"
           fill-opacity="0.19608"
           id="path1087" />
      </g>
    </g>
  </g>
</svg>
