<?xml version="1.0" encoding="UTF-8"?>
<svg version="1.1" viewBox="0 0 800 500" xmlns="http://www.w3.org/2000/svg">
 <g>
  <g transform="matrix(.65035 0 0 .65035 425.94 28.809)">
   <g transform="matrix(.89839 0 0 .89839 35.855 27.133)" fill="#fff">
    <g fill="#c8c8f0">
     <path d="m421.51 213.23c10.76-5.7274 40.806 43.568 51.607 81.273 11.738 40.978 23.795 144 12.979 154.82-8.0879 8.0879-44.19-128.55-47.281-141.53-3.0902-12.979-25.727-90.079-17.305-94.561z"/>
     <path d="m100.42 146.78c-21.941-38.628 29.665-147.1 149.58-146.78 119.91-0.31 171.52 108.16 149.58 146.78-14.31 25.183-84.988 31.003-149.58 30.215-64.588 0.78777-135.27-5.0316-149.58-30.215z"/>
     <path d="m88.677 249.69c3.81-74.503 87.762-65.762 161.32-66.689 73.554 0.92707 157.51-7.8138 161.32 66.689 6.8586 134.16-70.765 250.31-161.32 250.31s-168.17-116.15-161.32-250.31z"/>
    </g>
    <path d="m78.491 213.23c-10.76-5.7274-40.806 43.568-51.607 81.273-11.738 40.978-23.795 144-12.979 154.82 8.0879 8.0879 44.19-128.55 47.281-141.53 3.0902-12.979 25.727-90.079 17.305-94.561z"/>
   </g>
   <g stroke-width=".89839">
    <path d="m146.63 143.18c-20.822-28.317 4.9972-86.12 113.83-86.398 108.83 0.2776 134.65 58.081 113.83 86.398-13.368 18.177-70.239 16.917-113.83 16.917s-100.46 1.2606-113.83-16.917z"/>
    <circle cx="313.48" cy="100.98" r="19.24" fill="#0ff" style="paint-order:stroke markers fill"/>
    <circle cx="207.43" cy="100.98" r="19.24" fill="#0ff" style="paint-order:stroke markers fill"/>
   </g>
  </g>
  <g transform="matrix(.8103 0 0 .8103 235.07 16.41)">
   <g transform="matrix(.89839 0 0 .89839 35.855 27.133)" fill="#fff">
    <g fill="#e6e6ff">
     <path d="m421.51 213.23c10.76-5.7274 40.806 43.568 51.607 81.273 11.738 40.978 23.795 144 12.979 154.82-8.0879 8.0879-44.19-128.55-47.281-141.53-3.0902-12.979-25.727-90.079-17.305-94.561z"/>
     <path d="m100.42 146.78c-21.941-38.628 29.665-147.1 149.58-146.78 119.91-0.31 171.52 108.16 149.58 146.78-14.31 25.183-84.988 31.003-149.58 30.215-64.588 0.78777-135.27-5.0316-149.58-30.215z"/>
     <path d="m88.677 249.69c3.81-74.503 87.762-65.762 161.32-66.689 73.554 0.92707 157.51-7.8138 161.32 66.689 6.8586 134.16-70.765 250.31-161.32 250.31s-168.17-116.15-161.32-250.31z"/>
    </g>
    <path d="m78.491 213.23c-10.76-5.7274-40.806 43.568-51.607 81.273-11.738 40.978-23.795 144-12.979 154.82 8.0879 8.0879 44.19-128.55 47.281-141.53 3.0902-12.979 25.727-90.079 17.305-94.561z"/>
   </g>
   <g stroke-width=".89839">
    <path d="m146.63 143.18c-20.822-28.317 4.9972-86.12 113.83-86.398 108.83 0.2776 134.65 58.081 113.83 86.398-13.368 18.177-70.239 16.917-113.83 16.917s-100.46 1.2606-113.83-16.917z"/>
    <circle cx="313.48" cy="100.98" r="19.24" fill="#0ff" style="paint-order:stroke markers fill"/>
    <circle cx="207.43" cy="100.98" r="19.24" fill="#0ff" style="paint-order:stroke markers fill"/>
   </g>
  </g>
  <g transform="matrix(.89839 0 0 .89839 35.855 27.133)" fill="#fff">
   <path d="m421.51 213.23c10.76-5.7274 40.806 43.568 51.607 81.273 11.738 40.978 23.795 144 12.979 154.82-8.0879 8.0879-44.19-128.55-47.281-141.53-3.0902-12.979-25.727-90.079-17.305-94.561z"/>
   <path d="m100.42 146.78c-21.941-38.628 29.665-147.1 149.58-146.78 119.91-0.31 171.52 108.16 149.58 146.78-14.31 25.183-84.988 31.003-149.58 30.215-64.588 0.78777-135.27-5.0316-149.58-30.215z"/>
   <path d="m88.677 249.69c3.81-74.503 87.762-65.762 161.32-66.689 73.554 0.92707 157.51-7.8138 161.32 66.689 6.8586 134.16-70.765 250.31-161.32 250.31s-168.17-116.15-161.32-250.31z"/>
   <path d="m78.491 213.23c-10.76-5.7274-40.806 43.568-51.607 81.273-11.738 40.978-23.795 144-12.979 154.82 8.0879 8.0879 44.19-128.55 47.281-141.53 3.0902-12.979 25.727-90.079 17.305-94.561z"/>
  </g>
  <g stroke-width=".89839">
   <path d="m146.63 143.18c-20.822-28.317 4.9972-86.12 113.83-86.398 108.83 0.2776 134.65 58.081 113.83 86.398-13.368 18.177-70.239 16.917-113.83 16.917s-100.46 1.2606-113.83-16.917z"/>
   <circle cx="313.48" cy="100.98" r="19.24" fill="#0ff" style="paint-order:stroke markers fill"/>
   <circle cx="207.43" cy="100.98" r="19.24" fill="#0ff" style="paint-order:stroke markers fill"/>
  </g>
 </g>
 <g display="none">
  <path d="m260.65 26.52c-41.624 67.26-53.819 145.96-116.68 222.5l56.932-8.0762c-33.49 41.016-67.384 71.644-107.37 112.42l60.223-9.4863c-32.579 50.225-62.642 60.59-116.68 102.62 70.01-8.624 131.87-14.311 196.48-22.422h54.197c64.62 8.111 126.47 13.799 196.48 22.422-46.035-35.801-74.668-48.644-102.28-82.705 14.228-1.5988 28.442-3.2496 42.822-5.0547h43.887c52.33 6.568 102.41 11.174 159.1 18.156-37.716-29.332-61.008-39.634-83.611-67.957 11.256-1.2672 22.513-2.5776 33.891-4.0059l35.533.002c42.365 5.3179 82.92 9.0453 128.82 14.699-35.432-27.556-55.143-34.353-76.502-67.283l39.486 6.2207c-26.22-26.738-48.442-46.816-70.398-73.709l37.328 5.293c-41.216-50.186-49.211-101.79-76.5-145.88-27.004 43.637-35.139 94.61-75.236 144.29-33.823-52.77-45.28-105.59-73.846-151.74h-.0137c-33.501 54.132-43.479 117.42-93.584 179.04-42.749-65.821-56.842-131.79-92.473-189.35zm295.98 158.34c-7.105 8.7016-14.241 16.686-21.527 24.418-4.9557-6.4641-9.4991-12.942-13.697-19.422zm-158.3 25.592c-8.9724 10.989-17.984 21.051-27.195 30.801-6.3225-8.1438-12.08-16.307-17.416-24.473zm96.773.002 34.24 4.8555c-5.2379 5.4169-10.577 10.777-16.049 16.219-6.1123-6.7356-12.162-13.689-18.191-21.074zm-174.7 30.492 44.939 6.373c-6.8524 7.1029-13.849 14.121-21.025 21.256-8.0436-8.8129-15.991-17.925-23.914-27.629z" fill="#fff" fill-opacity=".19608" stroke-width=".65566"/>
 </g>
</svg>
