<svg version="1.1" viewBox="0 0 500 500" xmlns="http://www.w3.org/2000/svg"><g transform="matrix(.68264 0 0 .68264 -18.961 -.291)" fill="none" stroke="#fff" stroke-width="24.057"><path d="m103.68 128.5v103.2l78.281-.63903"/><path d="m191.22 263.99v103.2l78.281-.63903"/><path d="m191.28 373.84v128.74l78.281-.63903"/><path d="m103.65 240.19v397.82l78.281-.63903"/></g><g transform="matrix(.68264 0 0 .68264 -18.961 -.291)" fill="#fff" stroke-width="35.221"><rect x="65.345" y="54.355" width="480.35" height="77.287" rx="18.995" ry="10.907" style="paint-order:stroke markers fill"/><rect x="153.53" y="193.66" width="480.35" height="77.287" rx="18.995" ry="10.907" style="paint-order:stroke markers fill"/><rect x="241.72" y="328.95" width="480.35" height="77.287" rx="18.995" ry="10.907" style="paint-order:stroke markers fill"/><rect x="241.78" y="464.3" width="480.35" height="77.287" rx="18.995" ry="10.907" style="paint-order:stroke markers fill"/><rect x="154.15" y="599.74" width="480.35" height="77.287" rx="18.995" ry="10.907" style="paint-order:stroke markers fill"/></g></svg>
