<svg version="1.1" viewBox="0 0 300.86 341.6" xmlns="http://www.w3.org/2000/svg"><g transform="translate(-3.7467 -25.479)" stroke="#160000"><path d="m86.631 28.346c-9.1113 2.5768-22.933 14.417-37.119 27.525-13.737 12.694-25.6 33.167-28.496 47.33-5.1055 24.96-1.9762 36.635 0.42812 44.939 1.178 4.0684 3.5267 7.4382 5.3672 11.037 1.8405 3.5989 3.2233 7.3719 2.7773 12.426-0.4488 5.0865-4.0802 12.467-6.842 18.885-2.7617 6.4179-6.9553 12.818-9.2911 15.592-2.5374 3.0131-4.4262 6.2692-6.7665 9.9495s-2.9417 6.8744-2.9423 10.199c-5.41e-4 2.8027 0.78497 5.4702 2.6035 7.6602s4.603 3.8636 8.4395 4.9551c2.1418 0.6094 4.519 0.97062 6.5371 1.4473 2.0182 0.47664 3.4313 1.6665 3.9902 2.3184 0.51985 0.60643 1.2102 1.9903 1.1856 4.373-0.02463 2.3827-0.46929 5.2205-1.2363 7.8066-0.84387 2.845-1.2187 5.3833-0.66211 7.6797 0.55662 2.2964 2.1383 4.2166 4.6562 5.5293 2.4491 1.2768 4.2131 2.0321 5.4453 2.5137-1.014 1.3741-2.2715 3.489-2.5 6.916-0.34582 5.1876 2.3078 8.1327 4.2188 10.979 2.0901 3.1124 4.6055 5.5808 4.3164 10.783-0.14941 2.6894-0.80185 6.0769-1.2734 9.3281s-0.82689 7.0222-0.05859 9.5192c0.57758 1.8771 1.0001 4.2159 3.0332 7.0004s5.6801 5.1802 12.215 6.1602c6.5206 0.97812 15.603 0.69937 23.746 0.21289 8.1426-0.48649 16.6-2.9915 18.83-2.9489-7.3083-0.77143-15.91 0.12034-18.988 0.30828-8.0819 0.48286-17.113 0.72293-23.195-0.18945-6.0688-0.91007-8.0728-4.0955-9.7181-6.2325-2.2838-2.9664-3.7255-8.9803-3.2448-13.449 0.39213-3.6453 1.1312-6.5804 1.2969-9.5625 0.34114-6.14-1.8185-9.2895-3.708-12.103-2.0637-3.0734-4.2102-4.8375-3.9259-9.1023 0.5636-4.9245 0.9982-6.7387 4.7277-8.8843-4.1173-1.2657-6.6696-3.0547-8.8633-4.1978-2.0313-1.059-2.8415-1.9783-3.2226-3.5503-0.38103-1.572-0.53896-3.5551 0.1646-6.3314 0.72262-2.8515 1.0902-6.4514 1.118-9.1353 0.02774-2.6839 0.06667-4.2389-1.3041-5.838-1.3317-1.5535-4.9592-3.0072-7.1291-3.5196-2.1699-0.51249-5.2159-1.0508-7.1173-1.5918-3.4775-0.9894-4.3439-1.2056-5.7381-2.8846s-1.9926-3.6423-1.9922-5.9688c4.073e-4 -2.2846 1.5048-5.7292 3.7324-9.2324 2.2277-3.5033 5.1093-7.1066 7.6133-10.08 2.7058-3.2132 5.999-9.1514 8.8301-15.73 2.8311-6.5791 6.3283-13.723 6.8248-19.35 0.49935-5.6591-1.0078-10.171-2.9502-13.97-1.9425-3.7983-4.3956-8.6784-5.4154-12.2-2.1573-7.4504-3.1836-20.122 1.8827-44.89 2.7053-13.227 13.685-29.696 26.117-43.293 6.9363-8.3012 24.056-23.28 33.604-29.137z" color="#000000" color-rendering="auto" dominant-baseline="auto" fill="#160000" image-rendering="auto" shape-rendering="auto" solid-color="#000000" stop-color="#000000" stroke="none"/></g><g transform="translate(.00068029 2.8661)" display="none"><rect transform="translate(-3.7474,-28.345)" x="-54.972" y="-93.964" width="987.92" height="515.02" display="inline" fill="#2bcfff" stroke="#ff2eff" stroke-linejoin="bevel" stroke-width=".52917"/></g><g transform="translate(-3.7467 -25.479)" fill="none" stroke="#fff" stroke-width=".52917"><path d="m168.52 73.929-29.849-22.123-16.633-13.906-6.4378 21.361m52.92 14.668 15.141-27.031 26.721-6.544-2.9993 32.447-15.815 27.267 40.082-9.816 25.903-34.356-20.177 61.623 21.813 5.4533 27.498-20.069-7.3205-18.104-14.451-11.452-7.0893-17.723-17.178-4.3627-16.633-10.634h-13.906l-9.2707-7.6347-7.9073-0.27267-3.272 2.9993-8.4527-2.9993-22.631-3.5447-5.1807 3.5447-15.542-2.454-14.724 7.6347-18.269-1.636" stroke-linejoin="bevel"/><path d="m224.01 40.627 0.54533 21.541 31.084 25.631 9.2707-14.451-10.634 39.809 25.085-28.357-1.3633 47.989m-36.419 19.255 17.605-29.071m-44.75 3.8531 22.937-9.3065-45.808-17.451 3.0764 15.324m-48.07-34.656-8.7217-50.471 17.178 26.449 3.5447-27.539 21.541 38.446 20.723-34.629-12.815 50.171 76.892-9.816-50.476 53.478" stroke-linejoin="bevel"/><path d="m240.65 51.261-14.313 11.289-18.952 10.252-27.267-5.1807 3.5447-20.723 5.9987-11.179-34.629 20.995 26.176-23.995 13.391 11.194-1.6667-11.194"/><path d="m257.55 55.897-31.218 6.6536-57.815 11.379 7.6084 24.65 50.207-36.029-31.79 52.47"/><path d="m255.64 87.799-1.3633 25.358"/><path d="m194.54 115.02 60.814-25.115"/><path d="m180.12 67.621-25.085-10.907"/><path d="m176.13 98.579 15.44 1.4895"/><path d="m237.38 117.52-2.7818 16.467 24.595-11.014"/><path d="m241.58 152.04 46.596-9.0803-10.177-10.174 7.2124-7.3546 1.4714-22.53"/><path d="m285.22 125.43-30.934-12.277-16.905 4.3627"/><path d="m231.65 90.253 5.726 27.267"/><path d="m188.02 83.163-41.449-2.4264"/><path d="m278 132.79-18.814-9.816"/><path transform="translate(3.7474,28.345)" d="m281.47 97.089 11.558-2.8514-8.5938 20.38z"/><path d="m115.6 59.262 39.43-2.5472"/><path d="m146.57 80.737 21.945-6.8075"/></g><g transform="translate(-3.7467 -25.479)" fill="#0ff"><circle transform="scale(-1,1)" cx="-183.63" cy="47.205" r="4.2034"/><circle transform="scale(-1,1)" cx="-155.09" cy="55.932" r="4.2034"/><circle transform="scale(-1,1)" cx="-168.52" cy="73.284" r="4.2034"/><circle transform="scale(-1,1)" cx="-191.97" cy="99.58" r="4.2034"/><circle transform="scale(-1,1)" cx="-207.32" cy="71.891" r="4.2034"/><circle transform="scale(-1,1)" cx="-231.34" cy="90.406" r="4.2034"/><circle transform="scale(-1,1)" cx="-236.51" cy="117.93" r="4.2034"/><circle transform="scale(-1,1)" cx="-225.83" cy="62.05" r="4.2034"/><circle transform="scale(-1,1)" cx="-255.86" cy="88.738" r="4.2034"/><circle transform="scale(-1,1)" cx="-285.55" cy="125.1" r="4.2034"/><circle transform="scale(-1,1)" cx="-257.92" cy="56.035" r="4.2034"/><circle transform="scale(-1,1)" cx="-278.54" cy="85.824" r="4.2034"/><circle transform="scale(-1,1)" cx="-224.69" cy="41.426" r="4.2034"/><circle transform="scale(-1,1)" cx="-157.95" cy="29.682" r="4.2034"/><circle transform="scale(-1,1)" cx="-123" cy="38.848" r="4.2034"/><circle transform="scale(-1,1)" cx="-193.75" cy="32.833" r="4.2034"/></g><g transform="translate(-3.7467 -25.479)" fill="#16b905" style="fill:#98fc37"><path d="m63.998 149.9c-14.126-3.3812-22.099-17.635-23.756-35.203-1.6397-17.378 6.4909-20.221 13.842-38.318 3.1961-7.8681 12.022-17.304 17.882-19.695 13.267-5.4133 16.087-6.3386 19.877-12.537 4.622-7.5601 13.018-7.887 13.018-7.887l0.10166 0.51312c-9.4775 2.3549-12.254 8.4063-13.84 10.509-5.0756 6.7273-9.3973 5.9035-19.927 12.53-6.1848 3.8924-14.104 16.784-14.104 16.784-8.0243 19.351-15.175 19.954-13.424 37.53 1.1551 11.597 7.7108 28.463 21.346 31.296 9.0886 1.8884 33.583 13.099 44.487 16.042 5.6092 3.5056-3.0577 5.6675-3.0577 5.6675s-28.317-13.851-42.443-17.232z"/><path d="m184.77 258.24c-0.65544-25.562-4.1004-22.891-2.8026-35.638 0.81645-8.0194 6.4076-23.024 6.4076-23.024" stroke="#000" stroke-width="1.3229"/><path d="m174.28 128.14s-0.14785-7.5643-6.0053-13.725c-4.9772-5.2346 2.6004-13.719 7.5195-16.51l1.3018 0.76782s-11.196 8.5828-7.0487 13.227c2.7632 3.0949 7.508 10.708 6.6775 15.378z"/><path d="m150.34 131.88c-4.6658-10.969-5.5522-25.697-12.434-27.008-6.8821-1.3109-21.321 5.0896-27.875-1.1371-6.5544-6.2267-9.0111-18.098-16.039-22.786 7.5058 6.9439 7.3706 20.464 16.087 25.425 6.8784 3.9144 12.672 2.2544 23.733 0.66721 10.989-1.5768 11.617 27.975 13.806 26.568z"/><path d="m287.2 143.17s0.29503 2.392-1.8552 10.456c-2.475 9.2814-20.689 1.4862-29.209 1.4862-8.5207 0-22.613-8.5207-31.789-5.2435s-1.5166 15.14-1.5166 15.14l3.9832-0.52924c-3.4786-3.6473-6.903-7.2966-2.8801-11.212 2.7652-2.6912 8.116-3.0297 15.12-0.30858 14.298 5.5545 16.252 2.7772 23.246 4.8344s12.13 3.2228 16.766 2.7772c3.0476-0.29291 6.8681-2.9118 7.691-5.5861 1.2284-3.9922 2.0393-12.757 2.0393-12.757z"/><path d="m184.77 258.24c0.32772-8.8484-10.138-47.558-10.138-53.784 2.0594-5.6952 20.465-3.9899 36.195 14.644 0 0-15.789 31.055-17.883 61.422-1.2272 17.797-0.79257 23.024 11.86 39.946 6.627 8.863 12.93 12.65 25.816 17.804l-2.8717 1.7171c-5.8783-0.82568-10.366-1.0454-20.137-5.425-7.8136-3.5021-9.9901-6.3658-14.443-10.684-1.21-1.1736-2.3058-3.1945-3.0054-3.1603-0.69959 0.0342-0.59077 2.7374-0.51819 3.7252 1.3043 17.75 19.874 42.63 19.874 42.63l-3.617 4e-3c-3.0464-3.3897-25.799-23.136-27.235-36.958-0.15168-1.4608 0.0149-4.0579-1.5261-4.073-8.4082 13.598-32.646 24.655-38.997 26.773l-3.3337-0.88871c22.99-11.624 36.535-29.255 35.542-34.935-18.415 10.975-28.701 9.4252-44.013 10.689l-0.4512-2.5002s48.548-5.6816 48.779-39.628c-0.18629-8.9421 1.31-29.889-0.79382-43.545-2.7281-17.708-0.51507-27.633-1.2301-28.016-3.2424-1.7346-5.6102-6.6591-8.1207-11.524-1.1209-2.1722-7.6686-0.23951-10.887-0.27368-10.22-0.10851-36.19-1.9437-44.103-10.416-7.8635-8.4184-6.6401-16.304-3.4163-25.306 6.77-18.904 23.849-14.464 33.1-28.184 9.2511-13.72 33.741-3.1186 47.539-19.315 3.4628-4.0648 5.3254-4.5398 7.377-5.1987l0.8796 1.5294s-2.776 0.8045-6.3146 4.5614c-20.082 21.321-36.693 5.0571-48.043 21.912-8.21 12.191-26.536 11.554-30.232 27.889-2.425 10.717 0.74814 14.841 8.0854 18.866 14.93 8.1903 32.574 3.678 43.356 3.9841 11.601 0.32934 21.199 2.0806 25.183 5.8303s-1.3959 7.2937-1.1616 12.215l3.6326 49.801c-3.0113 5.9804-4.8524 2.4566-4.7486-2.1292z"/><path d="m137.74 106.03c4.9106-9.1819 7.9995-13.866 7.4869-20.572-0.16767-4.5088-0.0822-4.7699-0.0822-4.7699l1.4312 0.04847s-0.32237-0.77765 0.53961 4.1819c1.5038 8.6521-7.6032 22.644-7.4869 22.528z"/><path d="m145.9 79.758c0.30057 0.42938-3.8126 1.2484-6.4761 0.7096-5.066-1.0248-10.489-5.6208-11.264-6.9473-4.1134-7.0414-7.1059-5.082-9.9825-4.5191 2.9833-0.19023 6.2592-0.41619 8.0939 3.305 1.0122 2.0529 5.6688 7.2497 11.736 9.0382 4.4693 1.3174 8.5661-0.60704 8.5661-0.60704z"/><path d="m129.63 147.33c-5.7433 0.35895-4.8154 0.9194-12.353-0.87537-7.538-1.7948-8.2559-11.487-18.307-12.922-10.051-1.4358-19.384 2.5127-19.384 2.5127-0.39441-0.65735 13.444-2.3926 19.188-0.82288 9.0045 2.4608 7.9353 11.093 17.492 13.695 9.2417 2.5161 12.137 1.1272 12.137 1.1272z"/><path d="m69.634 148.3s-12.657-15.56-5.1765-38.832c2.2486-6.9949 7.3615-4.9162 12.746-17.121 5.3843-12.204 9.1504-23.762 21.764-26.304 10.73-2.1628 13.015-4.0296 17.26-6.5377l-0.87875-0.87441s-11.407 5.0599-18.136 5.9027c-15.721 1.5018-17.684 19.431-22.921 28.584-6.4261 11.232-11.067 5.571-13.886 18.202-1.7149 7.6834-2.3255 16.916-1.123 22.973 1.018 5.1282 2.0403 12.111 2.0403 12.111z"/><path d="m60.69 125.39s0.92575 8.3317 6.7888 5.7602c5.863-2.5715 3.2967-9.3826 8.9488-12.343 2.1601-1.1315 9.0517 2.2629 12.755-1.0286 3.4053-3.0269 9.7074-9.2291 13.989-7.8174 3.6372 1.1992 8.0644 10.852 8.126 12.138 0 0-3.6001-12.549-7.4059-13.578 0 0-3.1887-3.703-12.549 4.8344s-15.308-1.9058-19.646 6.4802c-4.0353 7.8004-3.4972 9.7717-6.1716 9.6689-3.2843-0.12633-4.7316-7.0974-4.7316-7.0974z"/><path d="m176.91 201.96c-6.5544-19.335-40.975-18.434-30.488-33.509s16.058-5.899 22.285-12.781c6.2267-6.8821 12.331 2.4998 17.575-7.3318s21.172 1.1624 25.356-4.4661c5.289-7.1141 22.855-11.081 22.855-11.081l0.50149 1.2978s-17.208 5.4825-21.815 11.444c-3.4973 4.5259-11.869 2.9945-19.183 2.2809-4.2173-0.41143-1.6458 1.0286-6.7888 5.863s-12.755 0.82288-15.738 4.1144c-2.983 3.2915-3.7908 3.8821-11.418 5.3488-6.5473 1.2591-5.1564 1.9099-9.8746 7.3031-3.2825 3.7521 0.64493 6.4201 5.6573 8.3317 5.0105 1.9109 19.143 9.1324 21.189 12.652 1.2966 2.2302 4.0116 10.8 4.0116 10.8z"/><path d="m192.24 238.61c-1.3109-18.68-5.5789-14.659-3.9403-24.818s0.35245-21.239 21.048-21.094c21.084 0.14772 37.694-10.456 51.124-14.092 13.428-3.6357 27.045 7.8917 30.15 1.3109 3.026-6.4132 8.193-3.2772 10.487-21.629 2.294-18.352 6.8821-21.629-0.65544-31.133s1.6386-15.731-13.764-24.251c0 0 6.0056 5.5143 7.4969 9.1112 1.7486 4.2173 0 10.492 2.1601 13.166s5.7602 8.0231 5.7602 12.755-3.1887 14.503-3.3944 18.926-1.2343 8.846-3.0858 11.726-4.5528 4.1501-6.8916 8.126c-2.859 4.86-13.102-3.5715-25.921-1.9544-9.7719 1.2328-34.956 12.339-41.761 12.755-11.599 0.70812-22.835-3e-3 -31.475 4.9373-5.7857 3.308-8.2275 15.009-7.8174 15.12l-0.92574 33.018s1.1315 13.269 1.5429 13.166 10.903-1.44 10.903-1.44z"/><path d="m165.54 177.35c12.367-4.0099 27.524 5.5765 36.049-0.65544 8.5196-6.2282 4.5881-10.487 21.629-12.453 17.041-1.9663 29.167 4.9158 29.167 4.9158-5.8272-2.3826-16.97-3.8908-24.033-3.651-4.9516 0.16816-14.092 0.61717-17.281 4.5259-3.1887 3.9087-8.189 9.274-12.035 10.492-6.1716 1.9544-17.486-0.61716-24.275-1.8515-6.7888-1.2343-14.4 4.8344-14.4 4.8344l-4.9373-2.1601s0.44669-0.86138 10.116-3.9966z"/><path d="m161.7 159.74c-17.898-5.6573-11.001-3.6231-15.326-5.143-3.2917-1.1567-3.703-9.6689-3.703-9.6689-0.90416 6.505 1.2309 10.413 5.7602 11.932 1.8276 0.61272 8.6937 3.3283 7.6117 4.3201z"/><path d="m191.94 144.62c4.8344-6.7888 2.3452-11.578 8.2288-12.549 7.1498-1.1804 15.061-5.8242 14.456-5.9819l0.79317 0.60147s-5.9014 3.9244-10.231 5.2834c-4.6634 1.4637-5.8406 0.61127-7.795 3.6971-1.9543 3.0858-2.0572 9.566-2.0572 9.566z"/><path d="m82.394 75.602s-5.5545 7.8174-11.006 9.2574c-5.4516 1.44-6.1716 5.143-8.3317 8.4346s-7.9202 7.9202-7.9202 7.9202c-0.19585 0.58755 9.0276-4.6594 11.212-10.492 1.0184-2.7194 4.1144-2.983 7.0974-4.3201 2.983-1.3372 6.9945-5.3487 6.9945-5.3487z"/><path d="m213.41 213.58c-10.927-7.0394-24.57-16.051-24.57-16.051l-0.8814 3.0816c0.1628-0.89542 8.2684 2.9822 14.092 8.1966 5.8216 5.213 12.173 9.4039 14.384 11.805 10.08 10.947 35.54 5.0136 38.817-2.1962-8.294 6.9696-20.018 7.9578-26.076 6.438-9.6649-2.4246-11.829-6.0688-16.149-8.7431-4.3201-2.6744-21.776-19.203-21.776-19.203l1.6151-1.4718s6.7888 6.7888 8.846 8.4346 13.572 10.994 27.361 12.858c10.548 1.426 31.466-7.3483 31.466-7.3483s-27.903 16.585-47.128 4.2z"/><path d="m191.25 196.91 30.725 9.3285s16.355 4.0116 20.161 1.8515c3.8058-2.1601 22.218-5.7602 22.218-5.7602s5.7156 0.10286 9.7717-7.6117c4.4805-8.5217 3.2915-9.9775 3.2915-9.9775l-2.4686 6.1716s-3.9087 8.3317-9.6689 9.7717-13.578 2.2629-20.366 4.7316-9.0517 2.1601-17.075 0.5143c-8.0231-1.6458-15.738-4.6287-20.984-5.9659s-13.989-4.5259-13.989-4.5259z"/><path d="m194.61 195.33s4.9373 0.5143 17.383 1.44c12.446 0.92574 21.395 2.7772 30.55-2.0572s11.006-3.703 21.704-5.7602c10.697-2.0572 12.755-5.6573 12.755-5.6573s-7.7495 3.5767-10.286 4.0116c-3.6001 0.61717-15.943 2.0572-18.412 3.0858-2.4686 1.0286-9.7717 4.6287-15.12 5.863-5.3487 1.2343-12.755-1.0286-18.206-0.82288s-19.955-1.6458-19.955-1.6458z"/></g><g transform="translate(.00068029 2.8661)" fill="#0ff"><circle transform="scale(-1,1)" cx="-211.55" cy="98.337" r="4.2034"/><circle transform="scale(-1,1)" cx="-231.22" cy="105.06" r="4.2034"/><circle transform="scale(-1,1)" cx="-238.6" cy="124.24" r="4.2034"/><circle transform="scale(-1,1)" cx="-283.67" cy="114.07" r="4.2034"/><circle transform="scale(-1,1)" cx="-293.67" cy="95.223" r="4.2034"/><circle transform="scale(-1,1)" cx="-282.2" cy="74.734" r="4.2034"/><circle transform="scale(-1,1)" cx="-190.73" cy="85.88" r="4.2034"/><circle transform="scale(-1,1)" cx="-172.37" cy="69.816" r="4.2034"/><circle transform="scale(-1,1)" cx="-142.71" cy="52.769" r="4.2034"/><circle transform="scale(-1,1)" cx="-111.56" cy="30.64" r="4.2034"/><circle transform="scale(-1,1)" cx="-101.23" cy="9.3314" r="4.2034"/></g></svg>
