<svg version="1.1" viewBox="0 0 500 500" xmlns="http://www.w3.org/2000/svg"><g transform="matrix(1.1703 0 0 1.0474 -25.847 -14.835)"><path d="m334.54 109.14c11.062-9.3859 28.158-36.203 20.113-50.282-8.0451-14.079-2.3465-42.907-2.3465-42.907l22.124 1.0056-2.0113 36.203 2.6817 17.431s-2.3465 14.749-16.761 31.845c-14.414 17.096-16.761 20.113-16.761 20.113z" fill="#1cc300"/><path d="m373.76 58.526c16.425-16.09 38.885-32.851 38.885-32.851l11.732 16.761-52.293 45.589s-19.778 34.862-24.135 42.237c-4.3578 7.3747-15.755-6.369-15.755-6.369z" fill="#c1ee00"/><path d="m360.69 131.27s12.068-14.414 21.454-17.431c9.3859-3.0169 65.702-16.761 66.707-32.18 1.0056-15.42-3.6873-25.811-3.6873-25.811l-15.085-9.3859s1.3408 19.107-5.3634 24.135c-6.7042 5.0282-32.851 11.062-47.6 22.459-14.749 11.397-35.532 29.499-35.532 29.499z" fill="#63ff6b"/><path d="m28.158 485.25c-13.363-6.3358 6.2931-50.704 30.4-97.277 1.8758-3.6239 107.78 23.592 9.1318-18.256-10.419-4.4199 5.2633-13.464 10.75-22.909 7.2573-12.493 13.954-13.845 21.262-34.667 1.3579-3.8688 75.412 40.011 75.766 39.135 2.1989-5.4363-51.476-50.419-63.811-52.467-11.324-1.88 14.799-30.405 43.018-60.073 126.17 51.86 54.729 8.188 8.6794-9.1042 14.243-14.926 36.65-25.446 31.617-38.488-3.4194-8.86 66.086 24.438 69.933 25.278 8.0592 1.7607-52.84-41.85-55.397-40.236-21.73 13.718 61.009-83.803 81.121-82.797 20.113 1.0056 34.192 11.732 44.918 17.766 10.727 6.0338 51.623 16.425 61.679 34.192 4.658 8.2292 9.8901 29.617-5.9837 39.049-3.1207 1.8542-73.934-36.569-71.441-32.486 1.0948 1.7931 65.07 46.526 60.341 52.443-10.447 13.072-20.472 29.083-33.534 43.234-5.8914 6.3824-15.437 30.851-22.014 21.349-3.054-4.4122-65.903-29.837-62.492-25.074.84485 1.1797 52.659 36.198 45.676 39.823-25.064 13.013-45.346 34.64-69.6 48.52-1.9925 1.1402-41.544-25.05-44.272-22.439-2.1368 2.0459 37.333 29.837 28.224 41.256-12.06 15.119-23.617 26.25-28.715 33.666-18.437 26.817-55.645 59.333-84.809 76.428-23.566 13.815-49.418 38.849-80.451 24.135z" fill="#ffac00"/></g></svg>
