<svg version="1.1" viewBox="0 0 500 500" xmlns="http://www.w3.org/2000/svg"><path d="m258.67 231.85c4.7255 15.74 2.6494 33.363-7.1539 48.606l-90.746 141.1c-17.831 27.726-53.422 35.456-81.148 17.626-27.726-17.831-35.456-53.422-17.626-81.148l90.746-141.1c11.472-17.838 30.294-27.4 49.644-27.203l29.242-46c-44.87-12.514-94.785 4.8782-121.22 45.979l-90.746 141.1c-32.442 50.446-17.713 118.26 32.734 150.7 50.446 32.442 118.26 17.713 150.7-32.734l90.746-141.1c25.073-38.987 21.97-88.35-4.0205-123.74l-31.156 47.909" color="#000000" color-rendering="auto" dominant-baseline="auto" fill="#f00" image-rendering="auto" shape-rendering="auto" solid-color="#000000" stroke-width="1.6777" style="font-feature-settings:normal;font-variant-alternates:normal;font-variant-caps:normal;font-variant-ligatures:normal;font-variant-numeric:normal;font-variant-position:normal;isolation:auto;mix-blend-mode:normal;paint-order:stroke markers fill;shape-padding:0;text-decoration-color:#000000;text-decoration-line:none;text-decoration-style:solid;text-indent:0;text-orientation:mixed;text-transform:none;white-space:normal"/><path d="m270.24 364.06c44.722 12.21 94.329-5.2076 120.65-46.135l90.746-141.1c32.442-50.446 17.713-118.26-32.734-150.7-50.446-32.442-118.26-17.713-150.7 32.734l-90.746 141.1c-25.077 38.993-21.968 88.363 4.031 123.75l31.012-48.374c-4.5519-15.625-2.4214-33.057 7.2884-48.155l90.746-141.1c17.831-27.726 53.422-35.456 81.148-17.626s35.456 53.422 17.626 81.148l-90.746 141.1c-11.311 17.587-29.765 27.128-48.828 27.205l-29.491 46.155" color="#000000" color-rendering="auto" dominant-baseline="auto" fill="#f00" image-rendering="auto" shape-rendering="auto" solid-color="#000000" stroke-width="1.6777" style="font-feature-settings:normal;font-variant-alternates:normal;font-variant-caps:normal;font-variant-ligatures:normal;font-variant-numeric:normal;font-variant-position:normal;isolation:auto;mix-blend-mode:normal;paint-order:stroke markers fill;shape-padding:0;text-decoration-color:#000000;text-decoration-line:none;text-decoration-style:solid;text-indent:0;text-orientation:mixed;text-transform:none;white-space:normal"/></svg>
