<svg version="1.1" viewBox="0 0 500 500" xmlns="http://www.w3.org/2000/svg"><path d="m120.5 354.97c-32.554-56.775-13.341-175.8 28.74-214.96 91.408-85.053 263.25-81.804 288.95-138.16 11.42 30.079 5.4054 142.22-16.212 212.79-21.542 70.323-57.597 152.65-139.76 168.88-82.159 16.221-142.83 3.4313-176 28.291-17.176 12.873-101.1 58.704-106.21 70.189v-44.38s113.98-34.424 131.34-69.926c29.416-60.157 69.441-111.94 111.47-148.55 42.707-37.204 122.02-59.367 145.64-106.33-32.033 43.194-115.15 64.871-161.89 104.69-39.344 33.528-79.754 76.112-106.08 137.48z" fill="#16b905" stroke-width=".99264"/></svg>


