<svg version="1.1" viewBox="0 0 1100 500" xmlns="http://www.w3.org/2000/svg"><g><g fill="#0ff"><path d="m757.47 13.055c-37.228 60.161-48.307 130.5-103.98 198.98.22201.34188.44065.68352.66406 1.0254l49.551-7.0273c-9.9602 12.198-19.965 23.368-30.189 34.191 2.2419 2.8882 4.5384 5.7749 6.9062 8.6582l-13.365-1.8965c-7.6077 7.8859-15.373 15.679-23.34 23.6 28.844 31.604 58.819 59.637 92.748 94.234l-66.914-10.541c5.3768 8.2896 10.693 15.584 16.043 22.18 15.771-1.7726 31.529-3.6047 47.469-5.6055l-.15235 44.549 52.133.32617-.4336-44.545c57.166 7.1182 112.08 12.207 174.09 19.846-48.633-37.824-75.688-47.153-105.01-92.355l54.199 8.5371c-35.992-36.701-66.494-64.264-96.633-101.18l51.238 7.2676c-56.574-68.89-67.548-139.73-105.01-200.25z" fill-opacity=".50196" stroke-width=".81"/><path d="m343.47 13.055c-37.458 60.531-48.435 131.36-105.01 200.25l51.24-7.2676c-30.141 36.913-60.645 64.475-96.633 101.18l54.199-8.5371c-29.317 45.2-56.376 54.531-105.01 92.357 62.999-7.76 118.66-12.879 176.8-20.176l-.15235 44.549 52.133.32617-.4336-44.545c15.198 1.8924 30.241 3.6365 45.297 5.3281 5.3643-6.6092 10.693-13.921 16.084-22.232l-66.912 10.539c33.818-34.487 63.71-62.45 92.471-93.932-8.0491-7.9999-15.893-15.869-23.574-23.83l-12.855 1.8242c2.2759-2.7711 4.489-5.5446 6.6484-8.3203-10.335-10.928-20.443-22.203-30.506-34.527l50.078 7.1035c.15324-.23435.30445-.46876.45703-.70312-55.957-68.618-67.002-139.11-104.3-199.38z" fill-opacity=".50196" stroke-width=".81"/><g transform="translate(301.2 -.87405)"><path d="m219.46 433.04-.22657 66.225 64.361.40316-.67042-68.94z"/><path d="m249.58 2.538c46.247 74.717 59.795 162.17 129.64 247.22l-63.258-8.9724c37.208 45.573 74.866 79.6 119.3 124.91l-66.913-10.54c36.197 55.806 69.599 67.324 129.64 114.02-77.785-9.5813-146.51-15.901-218.31-24.913l-60.22-6e-4c-71.788 9.0115-140.52 15.331-218.31 24.913 60.042-46.699 93.446-58.217 129.64-114.02l-66.913 10.54c44.43-45.309 82.089-79.338 119.3-124.91l-63.258 8.9724c69.846-85.043 83.396-172.49 129.64-247.22"/></g><path d="m923.1 19.135c-30.179 48.77-39.151 105.79-84.344 161.31.15339.24163.30476.48299.45899.72461l40.33-5.7207c-8.1758 10.013-16.39 19.17-24.787 28.047 2.4842 3.2726 5.0627 6.5415 7.7441 9.8066l-15.094-2.1406c-5.5444 5.6992-11.211 11.366-16.996 17.115 24.09 26.675 49.075 49.966 77.484 78.936l-54.199-8.5371c3.5343 5.449 7.0366 10.366 10.547 14.885 12.982-1.4573 25.961-2.9585 39.082-4.6055l-.12305 36.084 42.227.26367-.34961-36.082c46.304 5.7657 90.784 9.889 141.01 16.076-39.393-30.637-61.308-38.194-85.057-74.809l43.902 6.916c-29.153-29.728-53.861-52.053-78.273-81.953l41.504 5.8867c-45.825-55.801-54.714-113.18-85.057-162.2z" fill-opacity=".25098" stroke-width=".6561"/><path d="m176.1 19.135c-30.341 49.03-39.231 106.4-85.057 162.2l41.502-5.8867c-24.414 29.9-49.121 52.228-78.271 81.955l43.9-6.916c-23.747 36.612-45.663 44.169-85.057 74.809 51.029-6.2856 96.118-10.431 143.21-16.342l-.12305 36.084 42.227.26367-.34961-36.084c12.917 1.6071 25.715 3.0875 38.51 4.5195 3.5561-4.567 7.1035-9.5448 10.684-15.064l-49.221 7.7539-.041-4.2109c26.044-26.34 49.296-48.292 71.713-73.02-6.0342-5.9919-11.941-11.89-17.711-17.816l-13.547 1.9219c2.4011-2.9236 4.7147-5.8516 6.957-8.7812-8.7362-9.1964-17.268-18.671-25.758-29.07l41.504 5.8867c-45.825-55.801-54.714-113.18-85.057-162.2z" fill-opacity=".25098" stroke-width=".6561"/></g></g></svg>
