<svg version="1.1" viewBox="0 0 800 500" xmlns="http://www.w3.org/2000/svg"><defs><clipPath id="a"><path d="m249.58 2.538c46.247 74.717 59.795 162.17 129.64 247.22l-63.258-8.9724c37.208 45.573 74.866 79.6 119.3 124.91l-66.913-10.54c36.197 55.806 69.599 67.324 129.64 114.02-77.785-9.5813-146.51-15.901-218.31-24.913l-60.22-6e-4c-71.788 9.0115-140.52 15.331-218.31 24.913 60.042-46.699 93.446-58.217 129.64-114.02l-66.913 10.54c44.43-45.309 82.089-79.338 119.3-124.91l-63.258 8.9724c69.846-85.043 83.396-172.49 129.64-247.22" fill="#16b905"/></clipPath></defs><g display="none"><path d="m260.65 26.52c-41.624 67.26-53.819 145.96-116.68 222.5l56.932-8.0762c-33.49 41.016-67.384 71.644-107.37 112.42l60.223-9.4863c-32.579 50.225-62.642 60.59-116.68 102.62 70.01-8.624 131.87-14.311 196.48-22.422h54.197c64.62 8.111 126.47 13.799 196.48 22.422-46.035-35.801-74.668-48.644-102.28-82.705 14.228-1.5988 28.442-3.2496 42.822-5.0547h43.887c52.33 6.568 102.41 11.174 159.1 18.156-37.716-29.332-61.008-39.634-83.611-67.957 11.256-1.2672 22.513-2.5776 33.891-4.0059l35.533.002c42.365 5.3179 82.92 9.0453 128.82 14.699-35.432-27.556-55.143-34.353-76.502-67.283l39.486 6.2207c-26.22-26.738-48.442-46.816-70.398-73.709l37.328 5.293c-41.216-50.186-49.211-101.79-76.5-145.88-27.004 43.637-35.139 94.61-75.236 144.29-33.823-52.77-45.28-105.59-73.846-151.74h-.0137c-33.501 54.132-43.479 117.42-93.584 179.04-42.749-65.821-56.842-131.79-92.473-189.35zm295.98 158.34c-7.105 8.7016-14.241 16.686-21.527 24.418-4.9557-6.4641-9.4991-12.942-13.697-19.422zm-158.3 25.592c-8.9724 10.989-17.984 21.051-27.195 30.801-6.3225-8.1438-12.08-16.307-17.416-24.473zm96.773.002 34.24 4.8555c-5.2379 5.4169-10.577 10.777-16.049 16.219-6.1123-6.7356-12.162-13.689-18.191-21.074zm-174.7 30.492 44.939 6.373c-6.8524 7.1029-13.849 14.121-21.025 21.256-8.0436-8.8129-15.991-17.925-23.914-27.629z" fill="#fff" fill-opacity=".19608" stroke-width=".65566"/></g><g display="none"><path d="m596.05 58.055c27.29 44.09 24.422 78.005 65.639 128.19l-38.178-7.6331c21.956 26.893 39.714 47.184 65.934 73.922l-30.45-4.3063c21.359 32.93 21.618 35.051 57.05 62.607-45.9-5.6539-59.031-6.9383-101.4-12.256l-36.066.10595c-42.361 5.3176-83.134 13.405-129.03 19.059 35.431-27.557 55.142-34.353 76.502-67.284l-24.816 2.8182c26.218-26.736 42.7-47.136 64.658-74.028l-34.564 2.212c41.215-50.184 37.43-79.308 64.721-123.41z" display="inline" fill="#168c05" stroke-width=".65566"/><path d="m446.62 53.203c33.702 54.45 27.008 91.819 77.911 153.8l-42.06-3.031c27.115 33.212 45.949 54.501 78.33 87.522l-34.307-.98449c26.378 40.669 31.588 43.961 75.346 77.992-56.686-6.9824-81.047-11.375-133.38-17.943l-45.055 1.0625c-52.316 6.5672-100.18 11.598-156.87 18.581 43.756-34.032 78.41-43.702 104.79-84.37l-41.854 6.7244c32.379-33.019 59.292-58.562 86.409-91.774l-49.819 8.3457c50.9-61.976 46.85-101.46 80.554-155.92z" display="inline" fill="#00d200" stroke-width=".80973"/><path d="m259.92 44.805c41.622 67.245 33.52 113.21 96.384 189.76l-50.023-.31564c33.487 41.016 57.494 69.195 97.485 109.98l-50.124-10.336c32.577 50.225 39.892 57.297 93.933 99.325-70.006-8.6232-95.401-11.335-160.02-19.446l-56.005 2.4442c-64.609 8.1104-87.778 8.9084-157.79 17.532 54.038-42.029 63.373-51.545 95.952-101.77l-43.427 3.5335c39.987-40.778 59.636-63.963 93.126-104.98l-56.188 7.4374c62.861-76.539 55.072-125.9 96.696-193.16z" display="inline" fill="#168c05"/></g><g><path d="m577.94 297.72-.13301 38.877 37.782.23667-.39356-40.47z" fill="#bb3000" stroke="#ffee46" stroke-width="4.1093"/><path transform="matrix(.58704 0 0 .58704 449.11 43.51)" d="m249.58 2.538c46.247 74.717 59.795 162.17 129.64 247.22l-63.258-8.9724c37.208 45.573 74.866 79.6 119.3 124.91l-66.913-10.54c36.197 55.806 69.599 67.324 129.64 114.02-77.785-9.5813-146.51-15.901-218.31-24.913l-60.22-6e-4c-71.788 9.0115-140.52 15.331-218.31 24.913 60.042-46.699 93.446-58.217 129.64-114.02l-66.913 10.54c44.43-45.309 82.089-79.338 119.3-124.91l-63.258 8.9724c69.846-85.043 83.396-172.49 129.64-247.22" clip-path="url(#a)" fill="#00b900" stroke="#0f0" stroke-width="20"/><path d="m424.62 349.83-.16426 48.012 46.66.29228-.48604-49.98z" fill="#bb3000" stroke="#ffee46" stroke-width="5.0749"/><path transform="matrix(.72498 0 0 .72498 265.52 35.887)" d="m249.58 2.538c46.247 74.717 59.795 162.17 129.64 247.22l-63.258-8.9724c37.208 45.573 74.866 79.6 119.3 124.91l-66.913-10.54c36.197 55.806 69.599 67.324 129.64 114.02-77.785-9.5813-146.51-15.901-218.31-24.913l-60.22-6e-4c-71.788 9.0115-140.52 15.331-218.31 24.913 60.042-46.699 93.446-58.217 129.64-114.02l-66.913 10.54c44.43-45.309 82.089-79.338 119.3-124.91l-63.258 8.9724c69.846-85.043 83.396-172.49 129.64-247.22" clip-path="url(#a)" fill="#0f0" stroke="#fff" stroke-width="20"/><path d="m233.57 415.29-.2049 59.893 58.207.36461-.60632-62.348z" fill="#bb3000" stroke="#ffee46" stroke-width="6.3307"/><path transform="matrix(.90438 0 0 .90438 35.093 23.656)" d="m249.58 2.538c46.247 74.717 59.795 162.17 129.64 247.22l-63.258-8.9724c37.208 45.573 74.866 79.6 119.3 124.91l-66.913-10.54c36.197 55.806 69.599 67.324 129.64 114.02-77.785-9.5813-146.51-15.901-218.31-24.913l-60.22-6e-4c-71.788 9.0115-140.52 15.331-218.31 24.913 60.042-46.699 93.446-58.217 129.64-114.02l-66.913 10.54c44.43-45.309 82.089-79.338 119.3-124.91l-63.258 8.9724c69.846-85.043 83.396-172.49 129.64-247.22" clip-path="url(#a)" fill="#00b900" stroke="#0f0" stroke-width="20"/></g><g display="none"><g fill="#bb3000" stroke="#fff"><path d="m578.03 300.61-.1337 34.91 37.979.21252-.39562-36.341z" display="inline" stroke-width="4.3379"/><path d="m424.78 354.3-.16512 44.542 46.903.27115-.48857-46.368z" display="inline" stroke-width="5.4453"/><path d="m233.55 419.79-.20391 53.821 57.925.32765-.60338-56.028z" display="inline" stroke-width="6.6519"/></g><g fill="#ff0"><path d="m230 410.05-.24486 67.133 65.469.34277-.44069-67.672-18.999.2938.63658 48.526-29.086.14687-.24485-48.967z"/><path d="m422.04 347.94-.1963 53.816 52.482.27475-.35331-54.248-15.23.23549.51029 38.9-23.316.11772-.19628-39.253z"/><path d="m575.74 294.04-.15894 43.577 42.496.22247-.28609-43.926-12.332.19068.41318 31.498-18.88.0952-.15893-31.784z"/></g><path d="m260.81 25.951c-41.73 67.436-53.958 146.35-116.99 223.09l57.084-8.0996c-33.579 41.124-67.563 71.834-107.66 112.72l60.381-9.5137c-32.661 50.356-62.805 60.752-116.99 102.89 70.197-8.6468 132.22-14.349 197-22.48h54.342c64.792 8.1323 126.81 13.836 197 22.482-46.631-36.267-75.455-49.041-103.41-83.996 14.306-1.6062 28.598-3.265 43.057-5.0801h43.658c52.054 6.5335 101.88 11.116 158.27 18.062-37.458-29.132-60.614-39.396-83.066-67.469 11.184-1.2665 23.166-2.839 34.438-4.2539h35.35c42.149 5.2904 82.494 9.0024 128.16 14.627-35.246-27.412-54.855-34.173-76.104-66.934l39.281 6.1856c-26.084-26.599-48.191-46.573-70.033-73.326l37.135 5.2676c-41.002-49.928-48.955-101.27-76.104-145.13h-.0137c-26.879 43.436-35.517 94.523-75.475 143.98-33.792-52.595-45.182-105.25-73.654-151.25h-.0176c-33.299 53.811-43.237 116.72-92.984 177.98-42.808-65.96-56.939-132.06-92.646-189.75zm.0117 37.713c23.738 48.418 40.095 104.39 77.293 161.52l-60.564-8.5918 29.201 35.77c22.558 27.629 45.676 51.046 69.637 74.842l-45.539-7.1738 22.016 33.943c17.403 26.83 35.157 44.071 54.557 59.008 3.6938 2.8441 7.8449 5.6418 11.664 8.4023-43.708-4.8219-86.204-9.376-128.85-14.729l-1.1191-.14063h-56.598l-1.1211.14063c-42.638 5.3523-85.132 9.9064-128.84 14.729 3.82-2.761 7.9716-5.5597 11.666-8.4043 19.4-14.937 37.153-32.177 54.555-59.006l22.016-33.945-45.539 7.1738c23.96-23.795 47.074-47.212 69.633-74.84l29.207-35.77-60.568 8.5918c37.199-57.123 53.559-113.09 77.297-161.52zm185.65 4.3613c19.071 38.899 32.213 83.868 62.098 129.76l-48.658-6.9023 23.461 28.736c18.123 22.197 36.695 41.012 55.945 60.129l-36.586-5.7637 17.688 27.27c13.981 21.555 28.245 35.406 43.83 47.406 2.9675 2.2849 6.3028 4.5322 9.3711 6.75-35.115-3.8739-69.256-7.5319-103.52-11.832l-.89844-.11328h-45.471l-.9004.11328c-1.3103.16448-2.6198.32237-3.9297.48438-15.807-15.902-30.685-30.427-45.023-44.902l16.328-25.178-35.355 5.5703c-.16779-.17735-.33623-.35373-.50391-.53125 18.989-18.868 37.322-37.487 55.217-59.402l23.465-28.736-48.66 6.9023c29.885-45.893 43.029-90.86 62.1-129.76zm149.15 1.5078c15.442 31.498 26.083 67.911 50.281 105.07l-39.398-5.5898 18.996 23.27c14.675 17.974 29.713 33.208 45.301 48.688l-29.625-4.666 14.322 22.08c11.321 17.454 22.87 28.67 35.49 38.387 2.4029 1.8502 5.1034 3.669 7.5879 5.4648-28.433-3.1368-56.077-6.0981-83.818-9.5801l-.72852-.0918h-36.818l-.72851.0918c-.90713.11386-2.2713.32836-3.2148.44922-12.79-12.862-24.865-24.668-36.463-36.389l13.26-20.414-28.639 4.5352c-.14487-.15348-.29079-.30535-.43555-.45899 15.231-15.14 30.389-30.51 44.748-48.096l19-23.27-39.402 5.5898c24.199-37.16 34.843-73.572 50.285-105.07zm-38.978 115.33c-7.0202 8.5976-14.751 17.127-21.965 24.785-4.9776-6.4723-9.5342-12.959-13.746-19.447zm-158.3 25.592c-8.8912 10.889-17.823 20.86-26.949 30.523-6.2536-8.0712-11.957-16.161-17.246-24.254zm96.268.002 34.658 4.916c-5.1878 5.3612-10.785 11.055-16.205 16.445-6.2026-6.8228-12.337-13.871-18.453-21.361zm-173.87 30.494 44.6 6.3242c-6.7213 6.9583-13.82 14.127-20.854 21.119-7.9854-8.7569-15.879-17.807-23.746-27.443zm211.85 52.422 15.109 2.3789c-3.7866.47082-8.6025 1.3017-12.357 1.75-.91553-1.3414-1.8324-2.7111-2.752-4.1289zm-164.58 50.785 21.641 3.4082c-5.987.69494-11.973 1.3898-17.98 2.0664-1.2174-1.7774-2.4371-3.589-3.6602-5.4746z" fill="#0f0"/></g></svg>
