<svg version="1.1" viewBox="0 0 1100 500" xmlns="http://www.w3.org/2000/svg"><g fill="#fff"><g fill-opacity=".50196" stroke-width=".729"><path d="m736.69 36.772c-33.506 54.145-43.477 117.45-93.586 179.08.1998.30769.39658.61517.59765.92285l44.596-6.3246c-8.9642 10.978-17.969 21.031-27.17 30.772 2.0177 2.5994 4.0846 5.1974 6.2156 7.7924l-12.029-1.7068c-6.8469 7.0973-13.835 14.111-21.006 21.24 25.959 28.444 52.937 53.673 83.473 84.811l-60.223-9.4869c4.8392 7.4607 9.6237 14.026 14.439 19.962 14.193-1.5953 28.376-3.2442 42.722-5.0449l-.13712 40.094 46.92.29356-.39024-40.09c51.45 6.4063 100.87 10.986 156.68 17.861-43.77-34.041-68.119-42.437-94.507-83.12l48.779 7.6834c-32.392-33.031-59.845-57.837-86.97-91.06l46.114 6.5408c-50.917-62.001-60.793-125.75-94.507-180.22z"/><path d="m364.09 36.772c-33.712 54.478-43.591 118.23-94.509 180.22l46.116-6.5408c-27.127 33.222-54.58 58.028-86.97 91.058l48.779-7.6834c-26.385 40.68-50.738 49.078-94.509 83.122 56.699-6.984 106.8-11.591 159.12-18.158l-.13712 40.094 46.92.29356-.39024-40.09c13.678 1.7032 27.217 3.2728 40.767 4.7953 4.8279-5.9483 9.6238-12.529 14.476-20.009l-60.221 9.4852c30.437-31.039 57.339-56.205 83.224-84.538-7.2442-7.1999-14.304-14.282-21.217-21.447l-11.57 1.6418c2.0483-2.494 4.0401-4.9902 5.9836-7.4883-9.3011-9.8353-18.399-19.982-27.455-31.075l45.07 6.3932c.13792-.21092.27401-.42189.41133-.63281-50.362-61.756-60.302-125.2-93.874-179.44z"/></g><g transform="matrix(.9 0 0 .9 326.04 24.236)"><path d="m219.46 433.04-.22657 66.225 64.361.40316-.67042-68.94z"/><path d="m249.58 2.538c46.247 74.717 59.795 162.17 129.64 247.22l-63.258-8.9724c37.208 45.573 74.866 79.6 119.3 124.91l-66.913-10.54c36.197 55.806 69.599 67.324 129.64 114.02-77.785-9.5813-146.51-15.901-218.31-24.913l-60.22-6e-4c-71.788 9.0115-140.52 15.331-218.31 24.913 60.042-46.699 93.446-58.217 129.64-114.02l-66.913 10.54c44.43-45.309 82.089-79.338 119.3-124.91l-63.258 8.9724c69.846-85.043 83.396-172.49 129.64-247.22"/></g><g fill-opacity=".25098" stroke-width=".59049"><path d="m885.75 42.244c-27.161 43.893-35.235 95.215-75.909 145.18.13805.21747.27428.43469.41309.65215l36.297-5.1486c-7.3583 9.0116-14.751 17.253-22.308 25.242 2.2358 2.9454 4.5564 5.8873 6.9697 8.826l-13.584-1.9266c-4.99 5.1293-10.09 10.229-15.296 15.404 21.681 24.008 44.167 44.969 69.736 71.042l-48.779-7.6834c3.1809 4.9041 6.3329 9.329 9.4922 13.396 11.684-1.3116 23.365-2.6627 35.174-4.1449l-.11075 32.476 38.004.2373-.31465-32.474c41.674 5.1891 81.705 8.9001 126.91 14.469-35.454-27.574-55.177-34.375-76.551-67.328l39.512 6.2244c-26.238-26.755-48.475-46.847-70.446-73.758l37.354 5.298c-41.243-50.221-49.243-101.86-76.551-145.98z"/><path d="m213.45 42.244c-27.307 44.127-35.308 95.764-76.551 145.98l37.352-5.298c-21.973 26.91-44.209 47.005-70.444 73.76l39.51-6.2244c-21.372 32.951-41.097 39.752-76.551 67.328 45.926-5.6571 86.506-9.388 128.89-14.708l-.11075 32.476 38.004.2373-.31465-32.476c11.625 1.4464 23.143 2.7788 34.659 4.0676 3.2004-4.1103 6.3932-8.5903 9.6152-13.558l-44.299 6.9785-.0369-3.7898c23.439-23.706 44.366-43.463 64.542-65.718-5.4307-5.3927-10.747-10.701-15.94-16.035l-12.192 1.7297c2.161-2.6312 4.2432-5.2664 6.2613-7.9031-7.8625-8.2768-15.541-16.804-23.182-26.163l37.354 5.298c-41.243-50.221-49.243-101.86-76.551-145.98z"/></g></g></svg>
