<svg version="1.1" viewBox="0 0 500 500" xmlns="http://www.w3.org/2000/svg"><path d="m250.31 1.3978a248.91 248.91 0 0 0-248.91 248.91 248.91 248.91 0 0 0 248.91 248.91 248.91 248.91 0 0 0 248.91-248.91 248.91 248.91 0 0 0-248.91-248.91zm0 58.103c105.38 1e-6 190.81 85.427 190.81 190.81 0 40.16-12.406 77.422-33.55 107.98l-265.21-265.36c30.676-21.066 67.87-33.423 107.95-33.423zm-157.69 83.276 265.21 265.13c-30.551 20.955-67.602 33.209-107.52 33.209-105.38 1e-5-190.81-85.427-190.81-190.81 0-39.775 12.17-76.706 32.99-107.27z" fill="#0ff" style="paint-order:stroke markers fill"/></svg>
