<svg version="1.1" viewBox="0 0 500 500" xmlns="http://www.w3.org/2000/svg"><defs><clipPath id="a"><path d="m128.64 155.94c-4.5665 99.051-39.457 188-76.595 202.7-21.663 27.466-21.05 54.202-21.05 54.202h437.43s.61265-26.737-21.05-54.202c-37.137-14.7-72.028-103.65-76.595-202.7-4.016-87.109-80.241-106.38-120.87-106.38-40.634 0-117.26 19.275-121.28 106.38z" fill="#fff" stroke-width="4.2243"/></clipPath></defs><path d="m128.64 155.94c-4.5665 99.051-39.457 188-76.595 202.7-21.663 27.466-21.05 54.202-21.05 54.202h437.43s.61265-26.737-21.05-54.202c-37.137-14.7-72.028-103.65-76.595-202.7-4.016-87.109-80.241-106.38-120.87-106.38-40.634 0-117.26 19.275-121.28 106.38z" clip-path="url(#a)" fill="none" stroke="#fff" stroke-width="40"/><path d="m226.01 51.605c-.0656-.72411-.0991-1.4575-.0991-2.1987 0-13.287 10.772-24.059 24.059-24.059 13.287-3e-6 24.059 10.772 24.059 24.059 0 .69507-.0295 1.3833-.0872 2.0634z" fill="#fff" stroke-width="4.2243" style="paint-order:stroke markers fill"/><path d="m300.21 424.95c1e-5 27.747-22.494 50.24-50.24 50.24-27.747 0-50.24-22.494-50.24-50.24z" fill="#fff" stroke-width="4.2243" style="paint-order:stroke markers fill"/></svg>
