<svg version="1.1" viewBox="0 0 500 500" xmlns="http://www.w3.org/2000/svg"><defs><clipPath id="a"><path d="m128.64 155.94c-4.5665 99.051-39.457 188-76.595 202.7-21.663 27.466-21.05 54.202-21.05 54.202h437.43s.61265-26.737-21.05-54.202c-37.137-14.7-72.028-103.65-76.595-202.7-4.016-87.109-80.241-106.38-120.87-106.38-40.634 0-117.26 19.275-121.28 106.38z" fill="#fff" stroke-width="4.2243"/></clipPath></defs><path transform="matrix(.9999 0 0 .9999 .024971 .025026)" d="m128.64 155.94c-4.5665 99.051-39.457 188-76.595 202.7-21.663 27.466-21.05 54.202-21.05 54.202h437.43s.61265-26.737-21.05-54.202c-37.137-14.7-72.028-103.65-76.595-202.7-4.016-87.109-80.241-106.38-120.87-106.38-40.634 0-117.26 19.275-121.28 106.38z" clip-path="url(#a)" fill="none" stroke="#fff" stroke-width="50.005"/><path d="m226.01 51.625c-.0656-.72404-.0991-1.4573-.0991-2.1985 0-13.286 10.771-24.057 24.057-24.057s24.057 10.771 24.057 24.057c0 .695-.0295 1.3831-.0872 2.0632z" fill="#fff" style="paint-order:stroke markers fill"/><path d="m300.21 424.93c1e-5 27.745-22.492 50.235-50.235 50.235-27.745 0-50.235-22.492-50.235-50.235z" fill="#fff" style="paint-order:stroke markers fill"/></svg>
