<svg version="1.1" viewBox="0 0 500 500" xmlns="http://www.w3.org/2000/svg"><defs><clipPath id="a"><path d="m128.64 155.94c-4.5665 99.051-39.457 188-76.595 202.7-21.663 27.466-21.05 54.202-21.05 54.202h437.43s.61265-26.737-21.05-54.202c-37.137-14.7-72.028-103.65-76.595-202.7-4.016-87.109-80.241-106.38-120.87-106.38-40.634 0-117.26 19.275-121.28 106.38z" fill="#fff" stroke-width="4.2243"/></clipPath></defs><path transform="matrix(1.111 0 0 1.111 -27.717 -27.78)" d="m128.64 155.94c-4.5665 99.051-39.457 188-76.595 202.7-21.663 27.466-21.05 54.202-21.05 54.202h437.43s.61265-26.737-21.05-54.202c-37.137-14.7-72.028-103.65-76.595-202.7-4.016-87.109-80.241-106.38-120.87-106.38-40.634 0-117.26 19.275-121.28 106.38z" clip-path="url(#a)" fill="#00b9ff" fill-opacity=".19608" stroke="#0ff" stroke-width="36.004"/><path d="m223.38 29.554c-.0729-.80449-.1101-1.6193-.1101-2.4427 0-14.762 11.967-26.73 26.73-26.73 14.762-3.34e-6 26.73 11.967 26.73 26.73 0 .77222-.0328 1.5368-.0969 2.2924z" fill="#0ff" style="paint-order:stroke markers fill"/><path d="m305.82 444.34c1e-5 30.827-24.991 55.816-55.816 55.816-30.827 0-55.816-24.991-55.816-55.816z" fill="#0ff" style="paint-order:stroke markers fill"/></svg>
