<svg version="1.1" viewBox="0 0 500 500" xmlns="http://www.w3.org/2000/svg"><path d="m52 127.2-29.7 39.6v17.01h-19.8v19.8h19.8v79.2h-19.8v19.8h19.8v62.19h59.4v-62.19h39.6v62.19h59.4v-62.19h39.6v62.19h59.4v-62.19h39.6v62.19h59.4v-62.19h39.6v62.19h59.4v-62.19h19.8v-19.8h-19.8v-79.2h19.8v-19.8h-19.8v-17.01l-29.7-39.6-29.7 39.6v17.01h-39.6v-17.01l-29.7-39.6-29.7 39.6v17.01h-39.6v-17.01l-29.7-39.6-29.7 39.6v17.01h-39.6v-17.01l-29.7-39.6-29.7 39.6v17.01h-39.6v-17.01zm29.7 76.41h39.6v79.2h-39.6zm99 0h39.6v79.2h-39.6zm99 0h39.6v79.2h-39.6zm99 0h39.6v79.2h-39.6z" fill="#ff0" style="paint-order:normal"/></svg>
