<svg version="1.1" viewBox="0 0 700 500" xmlns="http://www.w3.org/2000/svg"><defs><clipPath id="a"><rect x="379" y="38.732" width="327.91" height="52.759" rx="12.967" ry="7.4456" fill="#ff27ff" stroke-width="24.043" style="paint-order:stroke markers fill"/></clipPath></defs><g transform="matrix(1.4888 0 0 1.4888 -22.759 -52.872)" fill="none" stroke="#0f0" stroke-width="16.422"><path d="m51.815 87.428v70.448l38.438-.43623"/><path d="m111.57 179.92v70.448l38.438-.43623"/><path d="m111.61 254.91v87.883l38.438-.43623"/></g><g transform="matrix(1.4888 0 0 1.4888 -22.759 -52.872)" fill="#0a0"><rect x="25.646" y="36.814" width="327.91" height="52.759" rx="12.967" ry="7.4456" style="paint-order:stroke markers fill"/><rect x="85.845" y="131.91" width="327.91" height="52.759" rx="12.967" ry="7.4456" style="paint-order:stroke markers fill"/><rect x="146.05" y="224.26" width="327.91" height="52.759" rx="12.967" ry="7.4456" style="paint-order:stroke markers fill"/><rect x="146.09" y="316.66" width="327.91" height="52.759" rx="12.967" ry="7.4456" style="paint-order:stroke markers fill"/></g><g transform="matrix(1.4888 0 0 1.4888 -22.759 -52.872)" fill="none" stroke="#0f0" stroke-width="26.868"><rect transform="translate(-353.35,-1.9183)" x="379" y="38.732" width="327.91" height="52.759" rx="12.967" ry="7.4456" clip-path="url(#a)" style="paint-order:stroke markers fill"/><rect transform="translate(-293.15,93.177)" x="379" y="38.732" width="327.91" height="52.759" rx="12.967" ry="7.4456" clip-path="url(#a)" style="paint-order:stroke markers fill"/><rect transform="translate(-232.95,185.53)" x="379" y="38.732" width="327.91" height="52.759" rx="12.967" ry="7.4456" clip-path="url(#a)" style="paint-order:stroke markers fill"/><rect transform="translate(-232.91,277.93)" x="379" y="38.732" width="327.91" height="52.759" rx="12.967" ry="7.4456" clip-path="url(#a)" style="paint-order:stroke markers fill"/></g></svg>
