<svg version="1.1" viewBox="0 0 500 500" xmlns="http://www.w3.org/2000/svg"><g transform="matrix(1.3345 0 0 1.3345 .00053284 -79.551)" fill="#fff" shape-rendering="auto"><path d="m72.373 301.44c-2.7334-11.642.71493-24.256 10.216-33.239l72.665-68.7c9.186-8.6848 21.444-11.53 32.614-8.6532m-119.77 155.13c24.799 18.235 60.081 16.744 83.195-5.109l72.665-68.7c20.077-18.982 25.331-47.991 15.343-72.183l-24.872 23.276m-26.558-32.412 23.491-22.445c-24.18-13.649-55.549-10.712-76.715 9.2988l-72.665 68.7c-17.762 16.792-23.921 41.432-18.192 63.642 13.106 1.4245 20.217-2.7337 28.586-8.6035m142.05-78.181c.48704 9.7838-3.2311 19.685-11.082 27.107l-72.665 68.7c-8.7523 8.2747-20.293 11.249-31.025 9.0224-8.5931 9.1781-17.069 15.406-31.56 17.886" color="#000000" color-rendering="auto" dominant-baseline="auto" image-rendering="auto" solid-color="#000000" style="font-feature-settings:normal;font-variant-alternates:normal;font-variant-caps:normal;font-variant-ligatures:normal;font-variant-numeric:normal;font-variant-position:normal;isolation:auto;mix-blend-mode:normal;paint-order:stroke markers fill;shape-padding:0;text-decoration-color:#000000;text-decoration-line:none;text-decoration-style:solid;text-indent:0;text-orientation:mixed;text-transform:none;white-space:normal"/><path d="m202.25 301.43c24.138 13.453 55.332 10.456 76.409-9.4704l72.665-68.7c25.978-24.561 27.138-65.909 2.5773-91.888-24.561-25.978-65.909-27.138-91.888-2.5773l-72.665 68.7c-20.08 18.984-25.332 47.999-15.339 72.193l24.855-23.566c-.40295-9.6925 3.3188-19.476 11.094-26.827l72.665-68.7c14.278-13.499 35.979-12.891 49.478 1.3878s12.891 35.979-1.3878 49.478l-72.665 68.7c-9.0567 8.5625-21.099 11.449-32.141 8.7713l-23.658 22.499" color="#000000" color-rendering="auto" dominant-baseline="auto" image-rendering="auto" solid-color="#000000" style="font-feature-settings:normal;font-variant-alternates:normal;font-variant-caps:normal;font-variant-ligatures:normal;font-variant-numeric:normal;font-variant-position:normal;isolation:auto;mix-blend-mode:normal;paint-order:stroke markers fill;shape-padding:0;text-decoration-color:#000000;text-decoration-line:none;text-decoration-style:solid;text-indent:0;text-orientation:mixed;text-transform:none;white-space:normal"/><path d="m-2.3922e-6 344.71 50.069.07049c35.751.0503 65.041-29.158 65.091-64.909.015-10.708-2.595-20.837-7.2196-29.774m-107.94-5.3874 50.21.07042c2.1869.003 4.3203.1962 6.3849.56415l24.252-22.815c-9.1269-4.9265-19.549-7.7335-30.595-7.749l-50.251-.07049-.00047904 30m107.94 5.3874-23.599 21.954c.54021 2.4942.82246 5.0961.8187 7.7777-.02756 19.649-15.4 34.978-35.049 34.951l-50.111-.0703 2.1321e-5 30" color="#000000" color-rendering="auto" dominant-baseline="auto" image-rendering="auto" solid-color="#000000" style="font-feature-settings:normal;font-variant-alternates:normal;font-variant-caps:normal;font-variant-ligatures:normal;font-variant-numeric:normal;font-variant-position:normal;isolation:auto;mix-blend-mode:normal;paint-order:stroke markers fill;shape-padding:0;text-decoration-color:#000000;text-decoration-line:none;text-decoration-style:solid;text-indent:0;text-orientation:mixed;text-transform:none;white-space:normal"/></g></svg>
