<svg version="1.1" viewBox="0 0 700 500" xmlns="http://www.w3.org/2000/svg"><g transform="matrix(1.6599 -.4096 .4096 1.6599 6.7611 -54.93)" fill="#ffa5ff"><g transform="rotate(46.607,249.93,348.42)" fill="#ffa5ff" shape-rendering="auto"><path d="m134.59 288.23c7.444 6.3676 12.085 15.872 12.085 26.675v100c0 19.649-15.351 35-35 35s-35-15.351-35-35v-100c0-12.642 6.3536-23.504 16.118-29.644l-.17132-32.49c-26.53 8.193-45.947 33.006-45.947 62.134v100c0 35.751 29.249 65 65 65s65-29.249 65-65v-100c0-27.63-17.471-51.377-41.911-60.739l-.17328 34.064" color="#000000" color-rendering="auto" dominant-baseline="auto" image-rendering="auto" solid-color="#000000" style="font-feature-settings:normal;font-variant-alternates:normal;font-variant-caps:normal;font-variant-ligatures:normal;font-variant-numeric:normal;font-variant-position:normal;isolation:auto;mix-blend-mode:normal;paint-order:stroke markers fill;shape-padding:0;text-decoration-color:#000000;text-decoration-line:none;text-decoration-style:solid;text-indent:0;text-orientation:mixed;text-transform:none;white-space:normal"/><path d="m183.02 350.78c26.358-8.2977 45.612-33.024 45.612-62.029v-100c0-35.751-29.249-65-65-65s-65 29.249-65 65v100c0 27.634 17.476 51.383 41.921 60.743l-.0489-34.251c-7.3199-6.366-11.872-15.792-11.872-26.492v-100c0-19.649 15.351-35 35-35s35 15.351 35 35v100c0 12.464-6.176 23.197-15.708 29.382l.0958 32.648" color="#000000" color-rendering="auto" dominant-baseline="auto" image-rendering="auto" solid-color="#000000" style="font-feature-settings:normal;font-variant-alternates:normal;font-variant-caps:normal;font-variant-ligatures:normal;font-variant-numeric:normal;font-variant-position:normal;isolation:auto;mix-blend-mode:normal;paint-order:stroke markers fill;shape-padding:0;text-decoration-color:#000000;text-decoration-line:none;text-decoration-style:solid;text-indent:0;text-orientation:mixed;text-transform:none;white-space:normal"/></g></g><g transform="translate(0,-94.668)"><path d="m.39064 244.07h136.31" fill="none" stroke="#a5e5ff" stroke-width="90.438"/><path d="m220.33 244.07-95.596-95.596v191.19z" fill="#a5e5ff"/></g></svg>
