<svg version="1.1" viewBox="0 0 500 500" xmlns="http://www.w3.org/2000/svg"><path d="m100 0a100 100 0 0 0-100 100 100 100 0 0 0 100 100 100 100 0 0 0 100-100 100 100 0 0 0-100-100zm44.283 49.918h.00391a12.815 12.815 0 0 1 9.3281 21.992l-69.26 69.361a12.815 12.815 0 0 1-10.252 5.3496 12.815 12.815 0 0 1-.027344 0 12.815 12.815 0 0 1-.40039-.00781 12.815 12.815 0 0 1-10.402-5.3633l-26.826-26.842a12.815 12.815 0 0 1 8.9355-22.002 12.815 12.815 0 0 1 9.1914 3.8867l19.246 19.258 61.658-61.75a12.815 12.815 0 0 1 8.8047-3.8828z" style="paint-order:stroke fill markers"/><path d="m400 5e-6a100 100 0 0 0-100 100 100 100 0 0 0 100 100 100 100 0 0 0 100-100 100 100 0 0 0-100-100zm-52.652 33.771 8e-4 8e-4a13.513 13.513 0 0 1 9.6952 4.0936l42.952 42.952 42.952-42.952a13.513 13.513 0 0 1 9.2884-4.0884 13.513 13.513 0 0 1 9.8196 23.197l-42.952 42.952 42.952 42.952a13.513 13.513 0 1 1-19.108 19.108l-42.952-42.952-42.952 42.952a13.513 13.513 0 1 1-19.109-19.108l42.952-42.952-42.952-42.952a13.513 13.513 0 0 1 9.4132-23.203z" stroke-width=".4" style="paint-order:normal"/><path d="m165.69 216 268.99 101.5-80.681 41.11 70.984 71.607-41.908 43.839-72.23-72.23-43.664 81.304z" fill="none" stroke="#000" stroke-linecap="round" stroke-linejoin="round" stroke-width="27"/></svg>
