<svg version="1.1" viewBox="0 0 500 500" xmlns="http://www.w3.org/2000/svg"><g transform="matrix(1.0937 0 0 1.0937 -12.48 -24.036)"><path transform="matrix(.91434 0 0 .91434 11.411 21.977)" d="m244.83 148.33c-4.9674-.04146-9.99.00995-15.068.16211-162.51 4.8691-228.24 100.43-228.24 100.43s27.7 28.024 75.996 54.822l70.387-55.119a88.862 88.862 0 0 1-.31054-7.0059 88.862 88.862 0 0 1 88.863-88.861 88.862 88.862 0 0 1 27.994 4.6016l9.7988-7.6738c-9.5691-.79975-19.379-1.2678-29.42-1.3516zm152.71 31.822-72.389 56.686a88.862 88.862 0 0 1 .16993 4.7773 88.862 88.862 0 0 1-88.861 88.861 88.862 88.862 0 0 1-25.928-3.8828l-23.217 18.182c23.235 4.732 48.218 7.4162 74.707 7.0039 156.42-2.4346 236.76-110.77 236.76-110.77s-37.231-34.032-101.24-60.854z" fill="#fff"/></g><path d="m401.41 81.859-361.73 283.26 30.828 39.365 361.73-283.26z" color="#000000" color-rendering="auto" dominant-baseline="auto" fill="#fff" image-rendering="auto" shape-rendering="auto" solid-color="#000000" style="font-feature-settings:normal;font-variant-alternates:normal;font-variant-caps:normal;font-variant-ligatures:normal;font-variant-numeric:normal;font-variant-position:normal;isolation:auto;mix-blend-mode:normal;shape-padding:0;text-decoration-color:#000000;text-decoration-line:none;text-decoration-style:solid;text-indent:0;text-orientation:mixed;text-transform:none;white-space:normal"/></svg>
