<svg version="1.1" viewBox="0 0 500 500" xmlns="http://www.w3.org/2000/svg"><path d="m245.92 95.17c-155.37-.31-244.34 111.28-244.68 148.24-.39 41.79 90.199 152.29 250.88 151.96 149.47-.31 247.16-109.17 247.47-149.48.31-40.32-90.47-150.39-253.67-150.72zm4.0293 25.41a124.38 124.38 0 0 1 124.38 124.38 124.38 124.38 0 0 1-124.38 124.38 124.38 124.38 0 0 1-124.38-124.38 124.38 124.38 0 0 1 124.38-124.38zm0 47.232a77.147 77.147 0 0 0-77.146 77.148 77.147 77.147 0 0 0 77.146 77.146 77.147 77.147 0 0 0 77.148-77.146 77.147 77.147 0 0 0-77.148-77.148z" fill="#fff"/><path d="m16.797 16.199 465.83 467.05" fill="none" stroke="#fff" stroke-width="43.218"/></svg>
