<svg version="1.1" viewBox="0 0 500 500" xmlns="http://www.w3.org/2000/svg"><path d="m170 250c148.89 0 70.33-140.43 220-140h50" fill="none" stroke="#ff6400" stroke-width="60"/><path d="m500 110-70-55v110z" fill="#ff6400" stroke-width=".78568"/><path d="m170 250c148.89 0 70.33 140.43 220 140h50" fill="none" stroke="#ff6400" stroke-width="60"/><path d="m500 250-70-55v110z" fill="#00c800" stroke-width=".78568"/><path d="m500 390-70-55v110z" fill="#ff6400" stroke-width=".78568"/><path d="m148.44 250h291.56" fill="none" stroke="#00c800" stroke-width="60"/><path d="m88 163.57a86.426 86.426 0 0 0-86.426 86.426 86.426 86.426 0 0 0 86.426 86.426 86.426 86.426 0 0 0 86.426-86.426 86.426 86.426 0 0 0-86.426-86.426zm0 56.168a30.26 30.26 0 0 1 30.26 30.258 30.26 30.26 0 0 1-30.26 30.26 30.26 30.26 0 0 1-30.26-30.26 30.26 30.26 0 0 1 30.26-30.258z" fill="#00c800" stroke-width="1.7285" style="paint-order:stroke markers fill"/></svg>
