<svg version="1.1" viewBox="0 0 114.09 15.475" xmlns="http://www.w3.org/2000/svg"><g transform="matrix(.039679 0 0 .039679 94.251 -2.1824)"><path d="m170 250c148.89 0 70.33-140.43 220-140h50" fill="none" stroke="#ff6400" stroke-width="60"/><path d="m500 110-70-55v110z" fill="#ff6400" stroke-width=".78568"/><path d="m170 250c148.89 0 70.33 140.43 220 140h50" fill="none" stroke="#ff6400" stroke-width="60"/><path d="m500 250-70-55v110z" fill="#00c800" stroke-width=".78568"/><path d="m500 390-70-55v110z" fill="#ff6400" stroke-width=".78568"/><path d="m50 250h390" fill="none" stroke="#00c800" stroke-width="60"/><g transform="matrix(.88474 0 0 .88474 0 29.32)"><circle cx="56.514" cy="249.43" r="56.514" fill="#00c800" style="paint-order:stroke markers fill"/><circle cx="56.514" cy="249.43" r="31.272" fill="#fff" style="paint-order:stroke markers fill"/></g></g><g fill="#00b200"><path d="m44.84 5.004h1.664v5.7387h-1.664zm.832-.8q-.45867 0-.74667-.26667t-.288-.66133q0-.39467.288-.66133t.74667-.26667q.45867 0 .74667.256t.288.64q0 .416-.288.69333-.288.26667-.74667.26667z"/><path d="m3.2172 10.828q-.91733 0-1.6533-.37333-.72533-.384-1.1413-1.056-.40533-.672-.40533-1.5253 0-.85333.40533-1.5253.416-.672 1.1413-1.0453.736-.384 1.6533-.384.90667 0 1.5787.384.68267.37333.992 1.0773l-1.2907.69333q-.448-.78933-1.2907-.78933-.65067 0-1.0773.42667-.42667.42667-.42667 1.1627 0 .736.42667 1.1627.42667.42667 1.0773.42667.85333 0 1.2907-.78933l1.2907.704q-.30933.68267-.992 1.0667-.672.384-1.5787.384z"/><path d="m9.4037 10.828q-.90667 0-1.632-.37333-.71467-.384-1.12-1.056-.40533-.672-.40533-1.5253 0-.85333.40533-1.5253.40533-.672 1.12-1.0453.72533-.384 1.632-.384.90667 0 1.6213.384.71467.37333 1.12 1.0453.40533.672.40533 1.5253 0 .85333-.40533 1.5253-.40533.672-1.12 1.056-.71467.37333-1.6213.37333zm0-1.3653q.64 0 1.0453-.42667.416-.43733.416-1.1627 0-.72533-.416-1.152-.40533-.43733-1.0453-.43733-.64 0-1.056.43733-.416.42667-.416 1.152 0 .72533.416 1.1627.416.42667 1.056.42667z"/><path d="m21.002 4.9187q1.0773 0 1.7067.64.64.62933.64 1.8987v3.2853h-1.664v-3.0293q0-.68267-.288-1.0133-.27733-.34133-.8-.34133-.58667 0-.928.384-.34133.37333-.34133 1.12v2.88h-1.664v-3.0293q0-1.3547-1.088-1.3547-.576 0-.91733.384-.34133.37333-.34133 1.12v2.88h-1.664v-5.7387h1.5893v.66133q.32-.36267.77867-.55467.46933-.192 1.024-.192.608 0 1.0987.24533.49067.23467.78933.69333.352-.448.88533-.69333.544-.24533 1.184-.24533z"/><path d="m28.232 4.9187q.8 0 1.4507.37333.66133.36267 1.0347 1.0347.37333.66133.37333 1.5467 0 .88533-.37333 1.5573-.37333.66133-1.0347 1.0347-.65067.36267-1.4507.36267-1.0987 0-1.728-.69333v2.6773h-1.664v-7.808h1.5893v.66133q.61867-.74667 1.8027-.74667zm-.288 4.544q.64 0 1.0453-.42667.416-.43733.416-1.1627 0-.72533-.416-1.152-.40533-.43733-1.0453-.43733-.64 0-1.056.43733-.40533.42667-.40533 1.152 0 .72533.40533 1.1627.416.42667 1.056.42667z"/><path d="m34.925 10.828q-.90667 0-1.632-.37333-.71467-.384-1.12-1.056-.40533-.672-.40533-1.5253 0-.85333.40533-1.5253.40533-.672 1.12-1.0453.72533-.384 1.632-.384t1.6213.384q.71467.37333 1.12 1.0453.40533.672.40533 1.5253 0 .85333-.40533 1.5253-.40533.672-1.12 1.056-.71467.37333-1.6213.37333zm0-1.3653q.64 0 1.0453-.42667.416-.43733.416-1.1627 0-.72533-.416-1.152-.40533-.43733-1.0453-.43733t-1.056.43733q-.416.42667-.416 1.152 0 .72533.416 1.1627.416.42667 1.056.42667z"/><path d="m41.104 10.828q-.71467 0-1.3973-.17067-.68267-.18133-1.088-.448l.55467-1.1947q.384.24533.928.40533.544.14933 1.0667.14933 1.056 0 1.056-.52267 0-.24533-.288-.352t-.88533-.18133q-.704-.10667-1.1627-.24533t-.8-.49067q-.33067-.352-.33067-1.0027 0-.544.30933-.96.32-.42667.91733-.66133.608-.23467 1.4293-.23467.608 0 1.2053.13867.608.128 1.0027.36267l-.55467 1.184q-.75733-.42667-1.6533-.42667-.53333 0-.8.14933-.26667.14933-.26667.384 0 .26667.288.37333.288.10667.91733.20267.704.11733 1.152.256.448.128.77867.48t.33067.98133q0 .53333-.32.94933-.32.416-.93867.65067-.608.224-1.4507.224z"/><path d="m51.749 10.465q-.24533.18133-.608.27733-.352.08533-.74667.08533-1.024 0-1.5893-.52267-.55467-.52266-.55467-1.536v-2.3573h-.88533v-1.28h.88533v-1.3973h1.664v1.3973h1.4293v1.28h-1.4293v2.336q0 .36267.18133.56533.192.192.53333.192.39467 0 .672-.21333z"/><path d="m58.128 7.8947q0 .032-.032.448h-4.3413q.11733.53333.55467.84267.43733.30933 1.088.30933.448 0 .78933-.128.352-.13867.65067-.42667l.88533.96q-.81067.928-2.368.928-.97067 0-1.7173-.37333-.74667-.384-1.152-1.056-.40533-.672-.40533-1.5253 0-.84267.39467-1.5147.40533-.68267 1.0987-1.056.704-.384 1.568-.384.84267 0 1.5253.36267.68267.36267 1.0667 1.0453.39467.672.39467 1.568zm-2.976-1.7173q-.56533 0-.94933.32t-.46933.87467h2.8267q-.08533-.544-.46933-.864-.384-.33067-.93867-.33067z"/></g><g fill="#ff6400"><path d="m61.081 4.6627v1.9733h3.456v1.3867h-3.456v2.72h-1.728v-7.4667h5.6427v1.3867z"/><path d="m66.048 2.828h1.664v7.9147h-1.664z"/><path d="m71.987 10.828q-.90667 0-1.632-.37333-.71467-.384-1.12-1.056-.40533-.672-.40533-1.5253 0-.85333.40533-1.5253.40533-.672 1.12-1.0453.72533-.384 1.632-.384t1.6213.384q.71467.37333 1.12 1.0453.40533.672.40533 1.5253 0 .85333-.40533 1.5253-.40533.672-1.12 1.056-.71467.37333-1.6213.37333zm0-1.3653q.64 0 1.0453-.42667.416-.43733.416-1.1627 0-.72533-.416-1.152-.40533-.43733-1.0453-.43733t-1.056.43733q-.416.42667-.416 1.152 0 .72533.416 1.1627.416.42667 1.056.42667z"/><path d="m85.285 5.004-2.08 5.7387h-1.6l-1.2907-3.5627-1.3333 3.5627h-1.6l-2.0693-5.7387h1.568l1.3547 3.8827 1.408-3.8827h1.408l1.3653 3.8827 1.3973-3.8827z"/><path d="m87.916 10.828q-.71467 0-1.3973-.17067-.68267-.18133-1.088-.448l.55467-1.1947q.384.24533.928.40533.544.14933 1.0667.14933 1.056 0 1.056-.52267 0-.24533-.288-.352t-.88533-.18133q-.704-.10667-1.1627-.24533t-.8-.49067q-.33067-.352-.33067-1.0027 0-.544.30933-.96.32-.42667.91733-.66133.608-.23467 1.4293-.23467.608 0 1.2053.13867.608.128 1.0027.36267l-.55467 1.184q-.75733-.42667-1.6533-.42667-.53333 0-.8.14933-.26667.14933-.26667.384 0 .26667.288.37333.288.10667.91733.20267.704.11733 1.152.256.448.128.77867.48.33067.352.33067.98133 0 .53333-.32.94933-.32.416-.93867.65067-.608.224-1.4507.224z"/></g></svg>
