<svg version="1.1" viewBox="0 0 500 500" xmlns="http://www.w3.org/2000/svg"><g><path d="m430 55v25h-39.914c-42.101-.12096-73.722 10.515-95.668 28.48-21.946 17.965-32.643 40.295-41.496 57.848-8.8528 17.552-15.885 30.335-25.9 38.617-10.015 8.2826-24.515 15.055-57.021 15.055v60c41.938 0 73.453-10.782 95.26-28.816 21.807-18.035 32.407-40.332 41.234-57.834s15.858-30.197 25.93-38.441c10.072-8.2447 24.756-15.002 57.49-14.908h.04297 40.043v25l70-55-70-55z" color="#000000" color-rendering="auto" dominant-baseline="auto" fill="#ff6400" image-rendering="auto" shape-rendering="auto" solid-color="#000000" style="font-feature-settings:normal;font-variant-alternates:normal;font-variant-caps:normal;font-variant-ligatures:normal;font-variant-numeric:normal;font-variant-position:normal;isolation:auto;mix-blend-mode:normal;shape-padding:0;text-decoration-color:#000000;text-decoration-line:none;text-decoration-style:solid;text-indent:0;text-orientation:mixed;text-transform:none;white-space:normal"/><path d="m170 220v60c32.507 0 47.006 6.7721 57.021 15.055 10.015 8.2826 17.048 21.065 25.9 38.617 8.8528 17.552 19.55 39.883 41.496 57.848s53.567 28.601 95.668 28.48h39.914v25l70-55-70-55v25h-40.043-.04297c-32.734.094-47.419-6.6635-57.49-14.908-10.072-8.2447-17.102-20.94-25.93-38.441-8.8272-17.502-19.427-39.799-41.234-57.834-21.807-18.035-53.321-28.816-95.26-28.816z" color="#000000" color-rendering="auto" dominant-baseline="auto" fill="#ff6400" image-rendering="auto" shape-rendering="auto" solid-color="#000000" style="font-feature-settings:normal;font-variant-alternates:normal;font-variant-caps:normal;font-variant-ligatures:normal;font-variant-numeric:normal;font-variant-position:normal;isolation:auto;mix-blend-mode:normal;shape-padding:0;text-decoration-color:#000000;text-decoration-line:none;text-decoration-style:solid;text-indent:0;text-orientation:mixed;text-transform:none;white-space:normal"/><path d="m97.898 150.4a97.436 97.436 0 0 0-97.436 97.436 97.436 97.436 0 0 0 97.436 97.438 97.436 97.436 0 0 0 91.859-65.273h240.24v25l70-55-70-55v25h-238.77a97.436 97.436 0 0 0-93.328-69.6zm0 67.34a30.1 30.1 0 0 1 30.102 30.098 30.1 30.1 0 0 1-30.102 30.1 30.1 30.1 0 0 1-30.1-30.1 30.1 30.1 0 0 1 30.1-30.098z" fill="#00c800"/></g></svg>
