<svg version="1.1" viewBox="0 0 500 500" xmlns="http://www.w3.org/2000/svg"><defs><linearGradient id="a" x1="248.34" x2="438.28" y1="245.93" y2="248.98" gradientUnits="userSpaceOnUse"><stop stop-color="#ffc800" stop-opacity=".47059" offset="0"/><stop stop-color="#ff6400" offset="1"/></linearGradient></defs><path d="m430 55.002v24.998h-39.914c-.09384-.00027-.18557.002116-.2793.001953l36.326 60h3.8672v25l70-55-70-55zm-53.82 25.373c-5.5622.31825-10.925.83561-16.082 1.5508l35.16 58.076h17.021l-36.1-59.627zm-29.828 4.0176c-4.6471 1.033-9.1053 2.2401-13.379 3.6133l32.432 53.568c4.382-.65373 9.2714-1.1191 14.742-1.3633l-33.795-55.818zm-26.992 8.8164c-3.7266 1.6718-7.2813 3.4904-10.668 5.4453l31.008 51.215c3.1364-1.8218 6.7411-3.4794 11-4.8965l-31.34-51.764zm-23.74 14.312c-.40131.31861-.80613.63561-1.2012.95899-2.3918 1.9579-4.6426 3.9697-6.7793 6.0195l32.736 54.072c2.2037-3.2481 4.4722-6.1726 6.8906-8.7812l-31.646-52.27zm-20.078 20.502c-1.9855 2.5684-3.8408 5.1538-5.5781 7.7441l35.773 59.088c.24821-.49344.51255-1.0177.75781-1.5039 1.3551-2.6868 2.6593-5.2221 3.9473-7.6836l-34.9-57.645zm-16.562 26.457c-1.3018 2.4789-2.5489 4.897-3.7422 7.2617l36.027 59.506c1.4347-2.2466 2.7864-4.4869 4.0742-6.7109l-36.359-60.057zm-15.146 28.963c-.96023 1.664-1.9211 3.2734-2.8867 4.8086l30.598 50.539-19.756 11.961-26.771-44.221c-9.9628 7.5434-24.611 13.469-55.014 13.469v60c32.507 0 47.005 6.7718 57.02 15.055 10.015 8.2826 17.048 21.065 25.9 38.617 8.8528 17.552 19.55 39.883 41.496 57.848s53.567 28.601 95.668 28.48h39.914v25l70-55-70-55v25h-40.086c-32.734.094-47.419-6.6637-57.49-14.908-10.072-8.2447-17.102-20.94-25.93-38.441-8.6355-17.121-18.974-38.829-39.836-56.648 7.0455-6.0181 12.869-12.484 17.854-19.062l-8.7266 5.2832-31.953-52.779z" color="#000000" color-rendering="auto" dominant-baseline="auto" fill="url(#a)" image-rendering="auto" shape-rendering="auto" solid-color="#000000" style="font-feature-settings:normal;font-variant-alternates:normal;font-variant-caps:normal;font-variant-ligatures:normal;font-variant-numeric:normal;font-variant-position:normal;isolation:auto;mix-blend-mode:normal;shape-padding:0;text-decoration-color:#000000;text-decoration-line:none;text-decoration-style:solid;text-indent:0;text-orientation:mixed;text-transform:none;white-space:normal"/><path d="m64 187.14a62.858 62.858 0 0 0-62.857 62.857 62.858 62.858 0 0 0 62.857 62.857 62.858 62.858 0 0 0 55.164-32.855h310.84v25l70-55-70-55v25h-310.77a62.858 62.858 0 0 0-55.229-32.859zm0 32.6a30.26 30.26 0 0 1 30.26 30.258 30.26 30.26 0 0 1-30.26 30.26 30.26 30.26 0 0 1-30.26-30.26 30.26 30.26 0 0 1 30.26-30.258z" fill="#00dc00"/></svg>
