<?xml version="1.0" encoding="UTF-8" standalone="no"?>
<svg
   xmlns:dc="http://purl.org/dc/elements/1.1/"
   xmlns:cc="http://creativecommons.org/ns#"
   xmlns:rdf="http://www.w3.org/1999/02/22-rdf-syntax-ns#"
   xmlns:svg="http://www.w3.org/2000/svg"
   xmlns="http://www.w3.org/2000/svg"
   xmlns:sodipodi="http://sodipodi.sourceforge.net/DTD/sodipodi-0.dtd"
   xmlns:inkscape="http://www.inkscape.org/namespaces/inkscape"
   version="1.1"
   viewBox="0 0 113.89 15.475"
   id="svg1015"
   sodipodi:docname="compositeFlowsLogo14.svg"
   inkscape:version="0.92.3 (2405546, 2018-03-11)">
  <metadata
     id="metadata1021">
    <rdf:RDF>
      <cc:Work
         rdf:about="">
        <dc:format>image/svg+xml</dc:format>
        <dc:type
           rdf:resource="http://purl.org/dc/dcmitype/StillImage" />
      </cc:Work>
    </rdf:RDF>
  </metadata>
  <defs
     id="defs1019" />
  <sodipodi:namedview
     pagecolor="#ffffff"
     bordercolor="#666666"
     borderopacity="1"
     objecttolerance="10"
     gridtolerance="10"
     guidetolerance="10"
     inkscape:pageopacity="0"
     inkscape:pageshadow="2"
     inkscape:window-width="3000"
     inkscape:window-height="1895"
     id="namedview1017"
     showgrid="false"
     inkscape:measure-start="0,0"
     inkscape:measure-end="0,0"
     inkscape:zoom="5.9130492"
     inkscape:cx="163.87389"
     inkscape:cy="20.130459"
     inkscape:window-x="-13"
     inkscape:window-y="-13"
     inkscape:window-maximized="1"
     inkscape:current-layer="svg1015" />
  <g
     transform="matrix(.039679 0 0 .039679 0 -2.1824)"
     id="g979">
    <path
       d="m170 250c148.89 0 70.33-140.43 220-140h50"
       fill="none"
       stroke="#ff6400"
       stroke-width="60"
       id="path961" />
    <path
       d="m500 110-70-55v110z"
       fill="#ff6400"
       stroke-width=".78568"
       id="path963" />
    <path
       d="m170 250c148.89 0 70.33 140.43 220 140h50"
       fill="none"
       stroke="#ff6400"
       stroke-width="60"
       id="path965" />
    <path
       d="m500 250-70-55v110z"
       fill="#00c800"
       stroke-width=".78568"
       id="path967" />
    <path
       d="m500 390-70-55v110z"
       fill="#ff6400"
       stroke-width=".78568"
       id="path969" />
    <path
       d="m50 250h390"
       fill="none"
       stroke="#00c800"
       stroke-width="60"
       id="path971" />
    <g
       transform="matrix(.88474 0 0 .88474 0 29.32)"
       id="g977">
      <circle
         cx="56.514"
         cy="249.43"
         r="56.514"
         fill="#00c800"
         style="paint-order:stroke markers fill"
         id="circle973" />
      <circle
         cx="56.514"
         cy="249.43"
         r="31.272"
         fill="#fff"
         style="paint-order:stroke markers fill"
         id="circle975" />
    </g>
  </g>
  <g
     transform="translate(24.749)"
     id="g1013">
    <g
       fill="#00c800"
       id="g999">
      <path
         d="m3.1639 10.817q-.88533 0-1.5893-.37333-.704-.37333-1.0987-1.0347-.39467-.672-.39467-1.5147t.39467-1.504q.39467-.66133 1.088-1.0347.704-.37333 1.6-.37333.84267 0 1.472.34133.64.34133.96.98133l-1.024.59733q-.24533-.39467-.61867-.58667-.36267-.20267-.8-.20267-.74667 0-1.2373.49067-.49067.48-.49067 1.2907t.48 1.3013q.49067.48 1.248.48.43733 0 .8-.192.37333-.20267.61867-.59733l1.024.59733q-.33067.64-.97067.992-.62933.34133-1.4613.34133z"
         id="path981" />
      <path
         d="m9.2147 10.817q-.864 0-1.5573-.37333-.69333-.37333-1.088-1.0347-.384-.672-.384-1.5147t.384-1.504q.39467-.66133 1.088-1.0347.69333-.37333 1.5573-.37333.87467 0 1.568.37333.69333.37333 1.0773 1.0347.39467.66133.39467 1.504t-.39467 1.5147q-.384.66133-1.0773 1.0347-.69333.37333-1.568.37333zm0-1.1413q.736 0 1.216-.49067.48-.49067.48-1.2907 0-.8-.48-1.2907-.48-.49067-1.216-.49067-.736 0-1.216.49067-.46933.49067-.46933 1.2907 0 .8.46933 1.2907.48.49067 1.216.49067z"
         id="path983" />
      <path
         d="m20.719 4.9827q1.0773 0 1.7067.62933.62933.61867.62933 1.8667v3.264h-1.3333v-3.0933q0-.74667-.33067-1.12-.33067-.384-.94933-.384-.672 0-1.0773.448-.40533.43733-.40533 1.2587v2.8907h-1.3333v-3.0933q0-.74667-.33067-1.12-.33067-.384-.94933-.384-.68267 0-1.088.43733-.39467.43733-.39467 1.2693v2.8907h-1.3333v-5.696h1.2693v.72533q.32-.384.8-.58667.48-.20267 1.0667-.20267.64 0 1.1307.24533.50133.23467.78933.704.352-.448.90667-.69333.55467-.256 1.2267-.256z"
         id="path985" />
      <path
         d="m27.916 4.9827q.832 0 1.4827.36267.66133.36267 1.0347 1.024.37333.66133.37333 1.5253 0 .864-.37333 1.536-.37333.66133-1.0347 1.024-.65067.36267-1.4827.36267-1.152 0-1.824-.768v2.7627h-1.3333v-7.7653h1.2693v.74667q.33067-.40533.81067-.608.49067-.20267 1.0773-.20267zm-.14933 4.6933q.736 0 1.2053-.49067.48-.49067.48-1.2907 0-.8-.48-1.2907-.46933-.49067-1.2053-.49067-.48 0-.864.224-.384.21333-.608.61867-.224.40533-.224.93867 0 .53333.224.93867.224.40533.608.62933.384.21333.864.21333z"
         id="path987" />
      <path
         d="m34.631 10.817q-.864 0-1.5573-.37333-.69333-.37333-1.088-1.0347-.384-.672-.384-1.5147t.384-1.504q.39467-.66133 1.088-1.0347.69333-.37333 1.5573-.37333.87467 0 1.568.37333.69333.37333 1.0773 1.0347.39467.66133.39467 1.504t-.39467 1.5147q-.384.66133-1.0773 1.0347-.69333.37333-1.568.37333zm0-1.1413q.736 0 1.216-.49067t.48-1.2907q0-.8-.48-1.2907-.48-.49067-1.216-.49067t-1.216.49067q-.46933.49067-.46933 1.2907 0 .8.46933 1.2907.48.49067 1.216.49067z"
         id="path989" />
      <path
         d="m40.706 10.817q-.69333 0-1.3547-.18133-.66133-.18133-1.056-.45867l.512-1.0133q.384.256.91733.416.544.14933 1.0667.14933 1.1947 0 1.1947-.62933 0-.29867-.30933-.416-.29867-.11733-.97067-.224-.704-.10667-1.152-.24533-.43733-.13867-.768-.48-.32-.352-.32-.97067 0-.81067.672-1.2907.68267-.49067 1.8347-.49067.58667 0 1.1733.13867.58667.128.96.352l-.512 1.0133q-.72533-.42667-1.632-.42667-.58667 0-.896.18133-.29867.17067-.29867.45867 0 .32.32.45867.33067.128 1.0133.24533.68267.10667 1.12.24533.43733.13867.74667.46933.32.33067.32.93867 0 .8-.69333 1.28-.69333.48-1.888.48z"
         id="path991" />
      <path
         d="m44.446 5.0467h1.3333v5.696h-1.3333zm.672-.93867q-.36267 0-.608-.224-.24533-.23467-.24533-.576 0-.34133.24533-.56533.24533-.23467.608-.23467t.608.224q.24533.21333.24533.544 0 .352-.24533.59733-.23467.23467-.608.23467z"
         id="path993" />
      <path
         d="m50.954 10.433q-.23467.192-.576.288-.33067.096-.704.096-.93867 0-1.4507-.49067-.512-.49067-.512-1.4293v-2.7413h-.93867v-1.0667h.93867v-1.3013h1.3333v1.3013h1.5253v1.0667h-1.5253v2.7093q0 .416.20267.64.20267.21333.58667.21333.448 0 .74667-.23467z"
         id="path995" />
      <path
         d="m57.218 7.9267q0 .13867-.02133.39467h-4.4693q.11733.62933.608 1.0027.50133.36267 1.2373.36267.93867 0 1.5467-.61867l.71467.82133q-.384.45867-.97067.69333-.58667.23467-1.3227.23467-.93867 0-1.6533-.37333t-1.1093-1.0347q-.384-.672-.384-1.5147 0-.832.37333-1.4933.384-.672 1.056-1.0453.672-.37333 1.5147-.37333.832 0 1.4827.37333.66133.36267 1.024 1.0347.37333.66133.37333 1.536zm-2.88-1.8773q-.64 0-1.088.384-.43733.37333-.53333 1.0027h3.232q-.08533-.61867-.52267-1.0027-.43733-.384-1.088-.384z"
         id="path997" />
    </g>
    <g
       fill="#ff6400"
       id="g1011">
      <path
         d="m60.003 4.4387v2.272h3.6053v1.1733h-3.6053v2.8587h-1.3867v-7.4667h5.4507v1.1627z"
         id="path1001" />
      <path
         d="m65.28 2.828h1.3333v7.9147h-1.3333z"
         id="path1003" />
      <path
         d="m70.923 10.817q-.864 0-1.5573-.37333-.69333-.37333-1.088-1.0347-.384-.672-.384-1.5147t.384-1.504q.39467-.66133 1.088-1.0347.69333-.37333 1.5573-.37333.87467 0 1.568.37333.69333.37333 1.0773 1.0347.39467.66133.39467 1.504t-.39467 1.5147q-.384.66133-1.0773 1.0347-.69333.37333-1.568.37333zm0-1.1413q.736 0 1.216-.49067t.48-1.2907q0-.8-.48-1.2907-.48-.49067-1.216-.49067t-1.216.49067q-.46933.49067-.46933 1.2907 0 .8.46933 1.2907.48.49067 1.216.49067z"
         id="path1005" />
      <path
         d="m83.957 5.0467-2.1013 5.696h-1.28l-1.472-3.9253-1.4933 3.9253h-1.28l-2.0907-5.696h1.2587l1.504 4.2027 1.568-4.2027h1.12l1.536 4.224 1.5467-4.224z"
         id="path1007" />
      <path
         d="m86.561 10.817q-.69333 0-1.3547-.18133-.66133-.18133-1.056-.45867l.512-1.0133q.384.256.91733.416.544.14933 1.0667.14933 1.1947 0 1.1947-.62933 0-.29867-.30933-.416-.29867-.11733-.97067-.224-.704-.10667-1.152-.24533-.43733-.13867-.768-.48-.32-.352-.32-.97067 0-.81067.672-1.2907.68267-.49067 1.8347-.49067.58667 0 1.1733.13867.58667.128.96.352l-.512 1.0133q-.72533-.42667-1.632-.42667-.58667 0-.896.18133-.29867.17067-.29867.45867 0 .32.32.45867.33067.128 1.0133.24533.68267.10667 1.12.24533.43733.13867.74667.46933.32.33067.32.93867 0 .8-.69333 1.28-.69333.48-1.888.48z"
         id="path1009" />
    </g>
  </g>
  <text
     xml:space="preserve"
     style="font-style:normal;font-variant:normal;font-weight:normal;font-stretch:normal;font-size:74.66666412px;line-height:1.25;font-family:Montserrat;-inkscape-font-specification:Montserrat;letter-spacing:0px;word-spacing:0px;fill:#000000;fill-opacity:1;stroke:none"
     x="24.151136"
     y="10.692864"
     id="text1568"><tspan
       sodipodi:role="line"
       id="tspan1566"
       x="24.151136"
       y="10.692864"
       style="font-style:normal;font-variant:normal;font-weight:600;font-stretch:normal;font-size:10.66666698px;font-family:Montserrat;-inkscape-font-specification:'Montserrat Semi-Bold'">compositeflows</tspan></text>
</svg>
