<svg version="1.1" viewBox="0 0 110.47 15.589" xmlns="http://www.w3.org/2000/svg"><g transform="translate(-24.476 -85.021)" fill="#00c800"><path d="m27.767 95.912q-.9525 0-1.7039-.381t-1.1748-1.0583q-.41275-.67733-.41275-1.5346t.41275-1.524q.42333-.67733 1.1748-1.0478.75142-.381 1.7039-.381.97367 0 1.6828.42333.70908.41275 1.0054 1.1536l-1.5558.79375q-.39158-.77258-1.143-.77258-.53975 0-.89958.35983-.34925.35983-.34925.99483 0 .64558.34925 1.016.35983.35983.89958.35983.75142 0 1.143-.77258l1.5558.79375q-.29633.74083-1.0054 1.1642-.70908.41275-1.6828.41275z"/><path d="m34.04 95.912q-.92075 0-1.6616-.381t-1.1642-1.0583q-.41275-.67733-.41275-1.5346 0-.84667.41275-1.524.42333-.67733 1.1536-1.0478.74083-.381 1.6722-.381.93133 0 1.6722.381.74083.37042 1.1536 1.0478.41275.66675.41275 1.524t-.41275 1.5346q-.41275.67733-1.1536 1.0583t-1.6722.381zm0-1.5981q.52917 0 .86783-.35983.33867-.37042.33867-1.016 0-.635-.33867-.99483t-.86783-.35983q-.52917 0-.86783.35983-.33867.35983-.33867.99483 0 .64558.33867 1.016.33867.35983.86783.35983z"/><path d="m45.682 89.985q1.0583 0 1.6828.635.635.635.635 1.9156v3.2808h-2.0108v-2.9528q0-.60325-.23283-.889-.22225-.28575-.635-.28575-.45508 0-.73025.3175t-.27517.96308v2.8469h-2.0108v-2.9528q0-1.1748-.86783-1.1748-.46567 0-.74083.3175-.27517.3175-.27517.96308v2.8469h-2.0108v-5.7362h1.9156v.60325q.3175-.34925.75142-.51858.4445-.17992.96308-.17992.60325 0 1.0795.22225t.77258.67733q.33867-.43392.85725-.66675t1.1324-.23283z"/><path d="m52.877 89.985q.78317 0 1.4182.37042.64558.35983 1.016 1.0372.381.66675.381 1.5558t-.381 1.5663q-.37042.66675-1.016 1.0372-.635.35983-1.4182.35983-1.0054 0-1.5981-.60325v2.5612h-2.0108v-7.7893h1.9156v.5715q.56092-.66675 1.6933-.66675zm-.42333 4.3286q.52917 0 .86783-.35983.33867-.37042.33867-1.0054t-.33867-.99483q-.33867-.37042-.86783-.37042-.52917 0-.86783.37042-.33867.35983-.33867.99483t.33867 1.0054q.33867.35983.86783.35983z"/><path d="m59.506 95.912q-.92075 0-1.6616-.381-.74083-.381-1.1642-1.0583-.41275-.67733-.41275-1.5346 0-.84667.41275-1.524.42333-.67733 1.1536-1.0478.74083-.381 1.6722-.381t1.6722.381q.74083.37042 1.1536 1.0478.41275.66675.41275 1.524t-.41275 1.5346q-.41275.67733-1.1536 1.0583-.74083.381-1.6722.381zm0-1.5981q.52917 0 .86783-.35983.33867-.37042.33867-1.016 0-.635-.33867-.99483t-.86783-.35983-.86783.35983-.33867.99483q0 .64558.33867 1.016.33867.35983.86783.35983z"/><path d="m65.761 95.912q-.71967 0-1.4182-.15875-.6985-.16933-1.1218-.43392l.60325-1.3758q.39158.24342.93133.39158.53975.13758 1.0689.13758.48683 0 .68792-.09525.21167-.10583.21167-.29633t-.254-.26458q-.24342-.08467-.78317-.15875-.68792-.08467-1.1748-.22225-.47625-.13758-.8255-.508t-.34925-1.0372q0-.55033.32808-.97367.32808-.43392.9525-.67733.635-.254 1.5134-.254.62442 0 1.2382.127.61383.127 1.0266.35983l-.60325 1.3652q-.762-.42333-1.651-.42333-.47625 0-.6985.11642-.22225.10583-.22225.28575 0 .20108.24342.28575.24342.07408.80433.15875.70908.10583 1.1748.24342.46567.13758.80433.508.34925.35983.34925 1.016 0 .53975-.32808.97367-.32808.42333-.97367.66675-.635.24342-1.5346.24342z"/><path d="m69.464 90.08h2.0108v5.7362h-2.0108zm1.0054-.635q-.55033 0-.889-.30692t-.33867-.762.33867-.762.889-.30692.889.29633q.33867.28575.33867.74083 0 .47625-.33867.79375-.33867.30692-.889.30692z"/><path d="m76.729 95.584q-.254.15875-.62442.24342-.35983.08467-.77258.08467-1.1218 0-1.7251-.55033-.60325-.55033-.60325-1.6404v-1.9262h-.83608v-1.5028h.83608v-1.4922h2.0108v1.4922h1.3123v1.5028h-1.3123v1.905q0 .30692.15875.48683.16933.16933.4445.16933.34925 0 .61383-.17992z"/><path d="m83.202 92.959q0 .02117-.03175.49742h-4.1698q.127.4445.48683.68792.37042.23283.92075.23283.41275 0 .70908-.11642.30692-.11642.61383-.381l1.0583 1.1007q-.83608.93133-2.4448.93133-1.0054 0-1.7674-.381t-1.1853-1.0583q-.41275-.67733-.41275-1.5346 0-.84667.40217-1.5134.41275-.67733 1.1324-1.0583t1.6192-.381q.85725 0 1.5558.35983.6985.34925 1.1007 1.0266.41275.66675.41275 1.5875zm-3.0586-1.5452q-.46567 0-.78317.26458-.30692.26458-.39158.71967h2.3495q-.08467-.45508-.40217-.71967-.30692-.26458-.77258-.26458z"/></g><g transform="translate(-24.476 -85.021)" fill="#ff6400"><path d="m86.33 90.027v1.6298h3.2702v1.6192h-3.2702v2.54h-2.0955v-7.4083h5.8102v1.6192z"/><path d="m90.94 87.964h2.0108v7.8528h-2.0108z"/><path d="m97.126 95.912q-.92075 0-1.6616-.381t-1.1642-1.0583q-.41275-.67733-.41275-1.5346 0-.84667.41275-1.524.42333-.67733 1.1536-1.0478.74083-.381 1.6722-.381.93133 0 1.6722.381.74083.37042 1.1536 1.0478.41275.66675.41275 1.524t-.41275 1.5346q-.41275.67733-1.1536 1.0583t-1.6722.381zm0-1.5981q.52917 0 .86783-.35983.33867-.37042.33867-1.016 0-.635-.33867-.99483t-.86783-.35983q-.52917 0-.86783.35983-.33867.35983-.33867.99483 0 .64558.33867 1.016.33867.35983.86783.35983z"/><path d="m110.63 90.08-2.0426 5.7362h-1.9473l-1.0795-3.1221-1.1218 3.1221h-1.9473l-2.0426-5.7362h1.905l1.1748 3.4713 1.2171-3.4713h1.7145l1.1853 3.5031 1.2171-3.5031z"/><path d="m113.22 95.912q-.71967 0-1.4182-.15875-.6985-.16933-1.1218-.43392l.60325-1.3758q.39158.24342.93133.39158.53975.13758 1.0689.13758.48683 0 .68791-.09525.21167-.10583.21167-.29633t-.254-.26458q-.24342-.08467-.78317-.15875-.68791-.08467-1.1748-.22225-.47625-.13758-.8255-.508t-.34925-1.0372q0-.55033.32809-.97367.32808-.43392.9525-.67733.635-.254 1.5134-.254.62442 0 1.2382.127.61384.127 1.0266.35983l-.60325 1.3652q-.762-.42333-1.651-.42333-.47625 0-.6985.11642-.22225.10583-.22225.28575 0 .20108.24341.28575.24342.07408.80434.15875.70908.10583 1.1748.24342.46566.13758.80433.508.34925.35983.34925 1.016 0 .53975-.32808.97367-.32809.42333-.97367.66675-.635.24342-1.5346.24342z"/></g><g transform="matrix(.037389 0 0 .037389 91.76 -1.5094)"><path d="m153.38 250.58c156.56 0 72.369-147.63 229.74-147.18h44.155" fill="none" stroke="#ff6400" stroke-width="66.089"/><path d="m153.38 250.58c156.56 0 72.369 147.63 229.74 147.18h44.155" fill="none" stroke="#ff6400" stroke-width="66.089"/><path d="m498.87 103.4-73.591-58.872v117.74z" fill="#ff6400" stroke-width=".82611"/><path d="m498.87 397.76-73.591-58.872v117.74z" fill="#ff6400" stroke-width=".82611"/><path d="m46.955 250.58h380.32" fill="none" stroke="#00c800" stroke-width="66.089"/><path d="m498.87 250.58-73.591-58.872v117.74z" fill="#00c800" stroke-width=".82611"/></g></svg>
