<svg version="1.1" viewBox="0 0 500 500" xmlns="http://www.w3.org/2000/svg"><path d="m430 55v25h-39.914c-42.101-.12096-73.722 10.515-95.668 28.48-21.946 17.965-32.643 40.296-41.496 57.848-8.8528 17.552-15.885 30.335-25.9 38.617-10.015 8.2826-24.515 15.055-57.021 15.055v60c32.507 0 47.006 6.7721 57.021 15.055 10.015 8.2826 17.048 21.065 25.9 38.617 8.8528 17.552 19.55 39.883 41.496 57.848s53.567 28.601 95.668 28.48h39.914v25l70-55-70-55v25h-40.043-.04297c-32.734.094-47.419-6.6635-57.49-14.908-10.072-8.2447-17.102-20.94-25.93-38.441-8.6355-17.121-18.974-38.831-39.836-56.65 20.862-17.82 31.2-39.529 39.836-56.65 8.8272-17.502 15.858-30.197 25.93-38.441 10.072-8.2447 24.756-15.002 57.49-14.908h.04297 40.043v25l70-55-70-55z" color="#000000" color-rendering="auto" dominant-baseline="auto" fill="#0ff" image-rendering="auto" shape-rendering="auto" solid-color="#000000" style="font-feature-settings:normal;font-variant-alternates:normal;font-variant-caps:normal;font-variant-ligatures:normal;font-variant-numeric:normal;font-variant-position:normal;isolation:auto;mix-blend-mode:normal;shape-padding:0;text-decoration-color:#000000;text-decoration-line:none;text-decoration-style:solid;text-indent:0;text-orientation:mixed;text-transform:none;white-space:normal"/><path d="m64 187.14a62.858 62.858 0 0 0-62.857 62.857 62.858 62.858 0 0 0 62.857 62.857 62.858 62.858 0 0 0 55.164-32.855h310.84v25l70-55-70-55v25h-310.77a62.858 62.858 0 0 0-55.229-32.859zm0 32.6a30.26 30.26 0 0 1 30.26 30.258 30.26 30.26 0 0 1-30.26 30.26 30.26 30.26 0 0 1-30.26-30.26 30.26 30.26 0 0 1 30.26-30.258z" fill="#f0f"/></svg>
