<svg version="1.1" viewBox="0 0 500 500" xmlns="http://www.w3.org/2000/svg"><path d="m430 55.002v24.998h-39.914c-42.101-.12096-73.722 10.515-95.668 28.48-12.62 10.331-21.508 22.103-28.477 33.582h96.484c7.459-1.3267 16.424-2.0923 27.488-2.0606h40.086v25l70-55-70-55zm-166.64 91.449c-1.037 1.8138-2.0272 3.6117-2.9863 5.3926h76.17c2.8989-1.9636 6.1938-3.7916 10.113-5.3926h-83.297zm-5.5352 10.221c-.881 1.702-1.6709 3.2856-2.502 4.9297h70.336c1.5182-1.7738 3.0903-3.4182 4.7422-4.9297h-72.576zm-5.1992 10.24c-.77086 1.5259-1.5146 2.9704-2.2617 4.4238h68.223c.97491-1.5331 1.9551-3.0198 2.9531-4.4238h-68.914zm-5.3281 10.266c-.71118 1.3278-1.416 2.6075-2.1191 3.8672h67.73c.72287-1.3235 1.4427-2.6143 2.1602-3.8672h-67.771zm-5.8965 10.293c-.69288 1.1199-1.3906 2.1966-2.0918 3.252h68.539c.55597-1.0799 1.1209-2.1889 1.6719-3.252h-68.119zm-7.3086 10.32c-.74306.89518-1.505 1.7467-2.2754 2.5781h71.127c.43504-.85651.89105-1.7377 1.3144-2.5781h-70.166zm-11.326 10.354c-.92448.62944-1.9065 1.2381-2.9199 1.8359h78.039c.33443-.61058.68978-1.2297 1.0156-1.8359h-76.135zm-29.525 10.389c-6.5489.9365-14.187 1.4668-23.236 1.4668v60c32.507 0 47.005 6.7718 57.02 15.055 10.015 8.2826 17.048 21.065 25.9 38.617 8.8528 17.552 19.55 39.883 41.496 57.848s53.567 28.601 95.668 28.48h39.914v25l70-55-70-55v25h-40.086c-32.734.094-47.419-6.6637-57.49-14.908-10.072-8.2447-17.102-20.94-25.93-38.441-8.6355-17.121-18.974-38.829-39.836-56.648 11.466-9.7943 19.737-20.745 26.301-31.469h-99.721z" fill="#ff6400" style="font-feature-settings:normal;font-variant-alternates:normal;font-variant-caps:normal;font-variant-ligatures:normal;font-variant-numeric:normal;font-variant-position:normal;isolation:auto;mix-blend-mode:normal;shape-padding:0;text-decoration-color:#000000;text-decoration-line:none;text-decoration-style:solid;text-indent:0;text-orientation:mixed;text-transform:none;white-space:normal"/><path d="m64 187.14a62.858 62.858 0 0 0-62.857 62.857 62.858 62.858 0 0 0 62.857 62.857 62.858 62.858 0 0 0 55.164-32.855h310.84v25l70-55-70-55v25h-310.77a62.858 62.858 0 0 0-55.229-32.859zm0 32.6a30.26 30.26 0 0 1 30.26 30.258 30.26 30.26 0 0 1-30.26 30.26 30.26 30.26 0 0 1-30.26-30.26 30.26 30.26 0 0 1 30.26-30.258z" fill="#00dc00"/></svg>
