<svg version="1.1" viewBox="0 0 275.02 27.635" xmlns="http://www.w3.org/2000/svg"><g transform="matrix(2.678 0 0 2.678 -21.604 -6.5831)"><g fill="#00c800"><path d="m27.639 10.768q-.88533 0-1.5893-.37333-.704-.37333-1.0987-1.0347-.39467-.672-.39467-1.5147t.39467-1.504q.39467-.66133 1.088-1.0347.704-.37333 1.6-.37333.84267 0 1.472.34133.64.34133.96.98133l-1.024.59733q-.24533-.39467-.61867-.58667-.36267-.20267-.8-.20267-.74667 0-1.2373.49067-.49067.48-.49067 1.2907t.48 1.3013q.49067.48 1.248.48.43733 0 .8-.192.37333-.20267.61867-.59733l1.024.59733q-.33067.64-.97067.992-.62933.34133-1.4613.34133z"/><path d="m33.69 10.768q-.864 0-1.5573-.37333-.69333-.37333-1.088-1.0347-.384-.672-.384-1.5147t.384-1.504q.39467-.66133 1.088-1.0347.69333-.37333 1.5573-.37333.87467 0 1.568.37333t1.0773 1.0347q.39467.66133.39467 1.504t-.39467 1.5147q-.384.66133-1.0773 1.0347-.69333.37333-1.568.37333zm0-1.1413q.736 0 1.216-.49067t.48-1.2907q0-.8-.48-1.2907t-1.216-.49067-1.216.49067q-.46933.49067-.46933 1.2907 0 .8.46933 1.2907.48.49067 1.216.49067z"/><path d="m45.194 4.9329q1.0773 0 1.7067.62933.62933.61867.62933 1.8667v3.264h-1.3333v-3.0933q0-.74667-.33067-1.12-.33067-.384-.94933-.384-.672 0-1.0773.448-.40533.43733-.40533 1.2587v2.8907h-1.3333v-3.0933q0-.74667-.33067-1.12-.33067-.384-.94933-.384-.68267 0-1.088.43733-.39467.43733-.39467 1.2693v2.8907h-1.3333v-5.696h1.2693v.72533q.32-.384.8-.58667t1.0667-.20267q.64 0 1.1307.24533.50133.23467.78933.704.352-.448.90667-.69333.55467-.256 1.2267-.256z"/><path d="m52.391 4.9329q.832 0 1.4827.36267.66133.36267 1.0347 1.024.37333.66133.37333 1.5253 0 .864-.37333 1.536-.37333.66133-1.0347 1.024-.65067.36267-1.4827.36267-1.152 0-1.824-.768v2.7627h-1.3333v-7.7653h1.2693v.74667q.33067-.40533.81067-.608.49067-.20267 1.0773-.20267zm-.14933 4.6933q.736 0 1.2053-.49067.48-.49067.48-1.2907 0-.8-.48-1.2907-.46933-.49067-1.2053-.49067-.48 0-.864.224-.384.21333-.608.61867-.224.40533-.224.93867 0 .53333.224.93867.224.40533.608.62933.384.21333.864.21333z"/><path d="m59.107 10.768q-.864 0-1.5573-.37333-.69333-.37333-1.088-1.0347-.384-.672-.384-1.5147t.384-1.504q.39467-.66133 1.088-1.0347.69333-.37333 1.5573-.37333.87467 0 1.568.37333t1.0773 1.0347q.39467.66133.39467 1.504t-.39467 1.5147q-.384.66133-1.0773 1.0347-.69333.37333-1.568.37333zm0-1.1413q.736 0 1.216-.49067t.48-1.2907q0-.8-.48-1.2907t-1.216-.49067-1.216.49067q-.46933.49067-.46933 1.2907 0 .8.46933 1.2907.48.49067 1.216.49067z"/><path d="m65.182 10.768q-.69333 0-1.3547-.18133-.66133-.18133-1.056-.45867l.512-1.0133q.384.256.91733.416.544.14933 1.0667.14933 1.1947 0 1.1947-.62933 0-.29867-.30933-.416-.29867-.11733-.97067-.224-.704-.10667-1.152-.24533-.43733-.13867-.768-.48-.32-.352-.32-.97067 0-.81067.672-1.2907.68267-.49067 1.8347-.49067.58667 0 1.1733.13867.58667.128.96.352l-.512 1.0133q-.72533-.42667-1.632-.42667-.58667 0-.896.18133-.29867.17067-.29867.45867 0 .32.32.45867.33067.128 1.0133.24533.68267.10667 1.12.24533.43733.13867.74667.46933.32.33067.32.93867 0 .8-.69333 1.28t-1.888.48z"/><path d="m68.922 4.9969h1.3333v5.696h-1.3333zm.672-.93867q-.36267 0-.608-.224-.24533-.23467-.24533-.576t.24533-.56533q.24533-.23467.608-.23467t.608.224q.24533.21333.24533.544 0 .352-.24533.59733-.23467.23467-.608.23467z"/><path d="m75.429 10.384q-.23467.192-.576.288-.33067.096-.704.096-.93867 0-1.4507-.49067-.512-.49067-.512-1.4293v-2.7413h-.93867v-1.0667h.93867v-1.3013h1.3333v1.3013h1.5253v1.0667h-1.5253v2.7093q0 .416.20267.64.20267.21333.58667.21333.448 0 .74667-.23467z"/><path d="m81.693 7.8769q0 .13867-.02133.39467h-4.4693q.11733.62933.608 1.0027.50133.36267 1.2373.36267.93867 0 1.5467-.61867l.71467.82133q-.384.45867-.97067.69333-.58667.23467-1.3227.23467-.93867 0-1.6533-.37333-.71467-.37333-1.1093-1.0347-.384-.672-.384-1.5147 0-.832.37333-1.4933.384-.672 1.056-1.0453.672-.37333 1.5147-.37333.832 0 1.4827.37333.66133.36267 1.024 1.0347.37333.66133.37333 1.536zm-2.88-1.8773q-.64 0-1.088.384-.43733.37333-.53333 1.0027h3.232q-.085334-.61867-.52267-1.0027-.43733-.384-1.088-.384z"/></g><g fill="#ff6400"><path d="m85.278 3.7809q-.84267 0-.84267.91733v.34133h1.568v1.0667h-1.5253v4.5867h-1.3333v-4.5867h-.93867v-1.0667h.93867v-.36267q0-.91733.53333-1.44.53333-.53333 1.504-.53333.768 0 1.2053.30933l-.37333 1.0027q-.34133-.23467-.736-.23467zm1.6213-1.0027h1.3333v7.9147h-1.3333z"/><path d="m92.544 10.768q-.864 0-1.5573-.37333-.69333-.37333-1.088-1.0347-.384-.672-.384-1.5147t.384-1.504q.39467-.66133 1.088-1.0347.69333-.37333 1.5573-.37333.87467 0 1.568.37333t1.0773 1.0347q.39467.66133.39467 1.504t-.39467 1.5147q-.384.66133-1.0773 1.0347-.69333.37333-1.568.37333zm0-1.1413q.736 0 1.216-.49067t.48-1.2907q0-.8-.48-1.2907t-1.216-.49067-1.216.49067q-.46933.49067-.46933 1.2907 0 .8.46933 1.2907.48.49067 1.216.49067z"/><path d="m105.58 4.9969-2.1013 5.696h-1.28l-1.472-3.9253-1.4933 3.9253h-1.28l-2.0907-5.696h1.2587l1.504 4.2027 1.568-4.2027h1.12l1.536 4.224 1.5467-4.224z"/><path d="m108.18 10.768q-.69333 0-1.3547-.18133-.66133-.18133-1.056-.45867l.512-1.0133q.384.256.91734.416.544.14933 1.0667.14933 1.1947 0 1.1947-.62933 0-.29867-.30933-.416-.29867-.11733-.97067-.224-.704-.10667-1.152-.24533-.43733-.13867-.768-.48-.32-.352-.32-.97067 0-.81067.672-1.2907.68267-.49067 1.8347-.49067.58666 0 1.1733.13867.58667.128.96.352l-.512 1.0133q-.72533-.42667-1.632-.42667-.58667 0-.896.18133-.29867.17067-.29867.45867 0 .32.32.45867.33067.128 1.0133.24533.68266.10667 1.12.24533.43733.13867.74666.46933.32.33067.32.93867 0 .8-.69333 1.28t-1.888.48z"/></g></g><g transform="translate(-.081271)" display="none"><g transform="matrix(.067907 0 0 .067907 0 -2.6593)"><path d="m170 250c148.89 0 70.33-140.43 220-140h50" fill="none" stroke="#ff6400" stroke-width="60"/><path d="m500 110-70-55v110z" fill="#ff6400" stroke-width=".78568"/><path d="m170 250c148.89 0 70.33 140.43 220 140h50" fill="none" stroke="#ff6400" stroke-width="60"/><path d="m500 250-70-55v110z" fill="#00c800" stroke-width=".78568"/><path d="m500 390-70-55v110z" fill="#ff6400" stroke-width=".78568"/><path d="m50 250h390" fill="none" stroke="#00c800" stroke-width="60"/><g transform="matrix(.88474 0 0 .88474 0 29.32)"><circle cx="56.514" cy="249.43" r="56.514" fill="#00c800" style="paint-order:stroke markers fill"/><circle cx="56.514" cy="249.43" r="31.272" fill="#fff" style="paint-order:stroke markers fill"/></g></g></g><path d="m12.013 13.855c10.521 0 4.9698-9.9233 15.546-9.893h3.5332" fill="none" stroke="#ff6400" stroke-width="4.2398"/><path d="m35.332 3.9621-4.9465-3.8865v7.773z" fill="#ff6400" stroke-width=".055519"/><path d="m12.013 13.855c10.521 0 4.9698 9.9233 15.546 9.893h3.5332" fill="none" stroke="#ff6400" stroke-width="4.2398"/><path d="m35.332 13.855-4.9465-3.8865v7.773z" fill="#00c800" stroke-width=".055519"/><path d="m35.332 23.748-4.9465-3.8865v7.773z" fill="#ff6400" stroke-width=".055519"/><path d="m5.8655 13.855h25.227" fill="none" stroke="#00c800" stroke-width="4.24"/><path d="m3.5332 10.322a3.5332 3.5332 0 0 0-3.5332 3.5332 3.5332 3.5332 0 0 0 3.5332 3.5332 3.5332 3.5332 0 0 0 3.5332-3.5332 3.5332 3.5332 0 0 0-3.5332-3.5332zm0 1.5781a1.9551 1.9551 0 0 1 1.9551 1.9551 1.9551 1.9551 0 0 1-1.9551 1.9551 1.9551 1.9551 0 0 1-1.9551-1.9551 1.9551 1.9551 0 0 1 1.9551-1.9551z" fill="#00c800" stroke-width=".062519" style="paint-order:stroke markers fill"/></svg>
