<svg version="1.1" viewBox="0 0 500 500" xmlns="http://www.w3.org/2000/svg"><path d="m170 250c148.89 0 70.33-140.43 220-140h50" fill="none" stroke="#fff" stroke-width="50"/><path d="m500 110-70-55v110z" fill="#fff" stroke-width=".78568"/><path d="m170 250c148.89 0 70.33 140.43 220 140h50" fill="none" stroke="#fff" stroke-width="50"/><g fill="#fff"><path d="m500 250-70-55v110z" stroke-width=".78568"/><path d="m500 390-70-55v110z" stroke-width=".78568"/><path d="m102.44 250h337.56" stroke="#fff" stroke-width="50"/><path d="m64 187.14a62.858 62.858 0 0 0-62.857 62.857 62.858 62.858 0 0 0 62.857 62.857 62.858 62.858 0 0 0 62.857-62.857 62.858 62.858 0 0 0-62.857-62.857zm0 32.6a30.26 30.26 0 0 1 30.26 30.258 30.26 30.26 0 0 1-30.26 30.26 30.26 30.26 0 0 1-30.26-30.26 30.26 30.26 0 0 1 30.26-30.258z" stroke-width="1.2572" style="paint-order:stroke markers fill"/></g></svg>
