<svg version="1.1" viewBox="0 0 500 500" xmlns="http://www.w3.org/2000/svg"><path d="m170 250c148.89 0 70.33-140.43 220-140h50" fill="none" stroke="#ff6400" stroke-width="60"/><path d="m500 110-70-55v110z" fill="#ff6400" stroke-width=".78568"/><path d="m170 250c148.89 0 70.33 140.43 220 140h50" fill="none" stroke="#ff6400" stroke-width="60"/><path d="m500 250-70-55v110z" fill="#00c800" stroke-width=".78568"/><path d="m500 390-70-55v110z" fill="#ff6400" stroke-width=".78568"/><path d="m83.24 250h356.76" fill="none" stroke="#00c800" stroke-width="60"/><path d="m50 200a50 50 0 0 0-50 50 50 50 0 0 0 50 50 50 50 0 0 0 50-50 50 50 0 0 0-50-50zm0 22.334a27.668 27.668 0 0 1 27.668 27.666 27.668 27.668 0 0 1-27.668 27.668 27.668 27.668 0 0 1-27.668-27.668 27.668 27.668 0 0 1 27.668-27.666z" fill="#00c800" stroke-width=".88474" style="paint-order:stroke markers fill"/></svg>
