<svg version="1.1" viewBox="0 0 500 500" xmlns="http://www.w3.org/2000/svg"><path d="m484.31 2.8089a479.82 479.82 0 0 0-10.959.38837 112.78 112.78 0 0 1-112.41 105.54 112.78 112.78 0 0 1-95.557-52.989 479.82 479.82 0 0 0-31.266 18.06 112.78 112.78 0 0 1 11.878 50.279 112.78 112.78 0 0 1-112.78 112.78 112.78 112.78 0 0 1-52.369-12.985 479.82 479.82 0 0 0-21.343 37.111 112.78 112.78 0 0 1 52.441 95.127 112.78 112.78 0 0 1-106.94 112.57 479.82 479.82 0 0 0-.51594 13.944 479.82 479.82 0 0 0 479.82 479.82 479.82 479.82 0 0 0 479.82-479.82 479.82 479.82 0 0 0-479.82-479.82zm0 235.12a244.7 244.7 0 0 1 244.7 244.7 244.7 244.7 0 0 1-244.7 244.7 244.7 244.7 0 0 1-244.7-244.7 244.7 244.7 0 0 1 244.7-244.7z" fill="#00c800" style="paint-order:normal"/></svg>
