<svg version="1.1" viewBox="0 0 500 500" xmlns="http://www.w3.org/2000/svg"><defs><clipPath id="b"><path d="m282.92 439.3-32.398.9707a144.96 144.96 0 0 1-31.254 46.488l-.0371 8.8516 64.359.33008z" fill="#3e2f29" stroke="#fff" stroke-width="6.3449"/></clipPath><clipPath id="a"><path d="m249.58 2.5371c-44.465 71.855-58.732 155.47-121.85 237.39a144.96 144.96 0 0 1 27.561 4.8105l27.889-3.9551c-2.9366 3.5965-5.8789 7.0986-8.8242 10.562a144.96 144.96 0 0 1 87.428 132.99 144.96 144.96 0 0 1-13.117 59.92h31.018c71.8 9.012 140.52 15.333 218.31 24.914-60.041-46.696-93.442-58.214-129.64-114.02l66.912 10.539c-44.434-45.31-82.091-79.337-119.3-124.91l63.258 8.9726c-69.845-85.05-83.394-172.5-129.64-247.22z" fill="#16b905"/></clipPath></defs><g fill="#fff"><path d="m282.92 439.3-32.398.9707a144.96 144.96 0 0 1-31.254 46.488l-.0371 8.8516 64.359.33008-.66992-56.641z" clip-path="url(#b)" fill-opacity=".19608" stroke="#fff" stroke-width="10"/><path d="m249.58 2.5371c-44.465 71.855-58.732 155.47-121.85 237.39a144.96 144.96 0 0 1 27.561 4.8105l27.889-3.9551c-2.9366 3.5965-5.8789 7.0986-8.8242 10.562a144.96 144.96 0 0 1 87.428 132.99 144.96 144.96 0 0 1-13.117 59.92h31.018c71.8 9.012 140.52 15.333 218.31 24.914-60.041-46.696-93.442-58.214-129.64-114.02l66.912 10.539c-44.434-45.31-82.091-79.337-119.3-124.91l63.258 8.9726c-69.845-85.05-83.394-172.5-129.64-247.22z" clip-path="url(#a)" fill-opacity=".19608" stroke="#fff" stroke-width="27"/><path d="m116.82 269.04a115.31 115.31 0 0 0-115.31 115.31 115.31 115.31 0 0 0 115.31 115.3 115.31 115.31 0 0 0 115.3-115.3 115.31 115.31 0 0 0-115.3-115.31zm-16.189 29.449h32.379v69.668h69.666v32.379h-69.666v69.666h-32.379v-69.666h-69.668v-32.379h69.668v-69.668z" stroke-width=".46122" style="paint-order:normal"/></g></svg>
