<svg version="1.1" viewBox="0 0 500 500" xmlns="http://www.w3.org/2000/svg"><circle cx="250" cy="250" r="250" fill="#fff" style="paint-order:normal"/><path d="m250 0a250 250 0 0 0-250 250 250 250 0 0 0 250 250 250 250 0 0 0 250-250 250 250 0 0 0-250-250zm-131.63 84.428.002.002a33.783 33.783 0 0 1 24.238 10.234l107.38 107.38 107.38-107.38a33.783 33.783 0 0 1 23.221-10.221 33.783 33.783 0 0 1 24.549 57.992l-107.38 107.38 107.38 107.38a33.783 33.783 0 1 1-47.771 47.771l-107.38-107.38-107.38 107.38a33.783 33.783 0 1 1-47.773-47.771l107.38-107.38-107.38-107.38a33.783 33.783 0 0 1 23.533-58.008z" fill="#00c800" style="paint-order:normal"/></svg>
