<svg version="1.1" viewBox="0 0 500 500" xmlns="http://www.w3.org/2000/svg"><defs><clipPath id="a"><path d="m51.252.091797a51.01 51.01 0 0 0-35.531 87.588l162.14 162.14-162.14 162.14a51.01 51.01 0 1 0 72.133 72.133l162.14-162.14 162.14 162.14a51.01 51.01 0 1 0 72.131-72.133l-162.14-162.14 162.14-162.14a51.01 51.01 0 0 0-37.068-87.564 51.01 51.01 0 0 0-35.062 15.432l-162.14 162.14-162.14-162.14a51.01 51.01 0 0 0-36.6-15.455z" color="#000000" color-rendering="auto" dominant-baseline="auto" fill="#fff" image-rendering="auto" shape-rendering="auto" solid-color="#000000" style="font-feature-settings:normal;font-variant-alternates:normal;font-variant-caps:normal;font-variant-ligatures:normal;font-variant-numeric:normal;font-variant-position:normal;isolation:auto;mix-blend-mode:normal;shape-padding:0;text-decoration-color:#000000;text-decoration-line:none;text-decoration-style:solid;text-indent:0;text-orientation:mixed;text-transform:none;white-space:normal"/></clipPath></defs><path d="m51.252.091797a51.01 51.01 0 0 0-35.531 87.588l162.14 162.14-162.14 162.14a51.01 51.01 0 1 0 72.133 72.133l162.14-162.14 162.14 162.14a51.01 51.01 0 1 0 72.131-72.133l-162.14-162.14 162.14-162.14a51.01 51.01 0 0 0-37.068-87.564 51.01 51.01 0 0 0-35.062 15.432l-162.14 162.14-162.14-162.14a51.01 51.01 0 0 0-36.6-15.455z" clip-path="url(#a)" color="#000000" color-rendering="auto" dominant-baseline="auto" fill="#fff" fill-opacity=".19608" image-rendering="auto" shape-rendering="auto" solid-color="#000000" stroke="#fffffd" stroke-linecap="round" stroke-linejoin="round" stroke-width="30" style="font-feature-settings:normal;font-variant-alternates:normal;font-variant-caps:normal;font-variant-ligatures:normal;font-variant-numeric:normal;font-variant-position:normal;isolation:auto;mix-blend-mode:normal;shape-padding:0;text-decoration-color:#000000;text-decoration-line:none;text-decoration-style:solid;text-indent:0;text-orientation:mixed;text-transform:none;white-space:normal"/></svg>
