<svg version="1.1" viewBox="0 0 500 500" xmlns="http://www.w3.org/2000/svg" xmlns:xlink="http://www.w3.org/1999/xlink"><defs><clipPath id="b"><path d="m249.31 15.596a25 25 0 0 0-25 25 25 25 0 0 0 13.953 22.395l-57.211 115.97-127.96 18.613a25 25 0 0 0-24.717-21.404 25 25 0 0 0-25 25 25 25 0 0 0 25 25 25 25 0 0 0 17.887-7.5684l92.609 90.242-21.838 127.45a25 25 0 0 0-4.2188-.38476 25 25 0 0 0-25 25 25 25 0 0 0 25 25 25 25 0 0 0 25-25 25 25 0 0 0-2.8848-11.631l114.43-60.186 114.46 60.148a25 25 0 0 0-2.8848 11.623 25 25 0 0 0 25 25 25 25 0 0 0 25-25 25 25 0 0 0-25-25 25 25 0 0 0-4.2305.36132l-21.875-127.42 92.562-90.256a25 25 0 0 0 17.898 7.5488 25 25 0 0 0 25-25 25 25 0 0 0-25-25 25 25 0 0 0-24.711 21.414l-127.97-18.574-57.238-115.93a25 25 0 0 0 13.938-22.406 25 25 0 0 0-25-25z" fill="#ffb100" style="paint-order:normal"/></clipPath><radialGradient id="a" cx="249.33" cy="250.75" r="245.96" gradientTransform="matrix(1 0 0 .95608 0 11.013)" gradientUnits="userSpaceOnUse"><stop stop-color="#fffe00" offset="0"/><stop stop-color="#ff9b00" offset="1"/></radialGradient></defs><path d="m249.31 15.596a25 25 0 0 0-25 25 25 25 0 0 0 13.953 22.395l-57.211 115.97-127.96 18.613a25 25 0 0 0-24.717-21.404 25 25 0 0 0-25 25 25 25 0 0 0 25 25 25 25 0 0 0 17.887-7.5684l92.609 90.242-21.838 127.45a25 25 0 0 0-4.2188-.38476 25 25 0 0 0-25 25 25 25 0 0 0 25 25 25 25 0 0 0 25-25 25 25 0 0 0-2.8848-11.631l114.43-60.186 114.46 60.148a25 25 0 0 0-2.8848 11.623 25 25 0 0 0 25 25 25 25 0 0 0 25-25 25 25 0 0 0-25-25 25 25 0 0 0-4.2305.36132l-21.875-127.42 92.562-90.256a25 25 0 0 0 17.898 7.5488 25 25 0 0 0 25-25 25 25 0 0 0-25-25 25 25 0 0 0-24.711 21.414l-127.97-18.574-57.238-115.93a25 25 0 0 0 13.938-22.406 25 25 0 0 0-25-25z" clip-path="url(#b)" fill="url(#a)" stroke="#ffbe00" stroke-linecap="round" stroke-linejoin="round" stroke-width="40" style="paint-order:normal"/></svg>
