<svg version="1.1" viewBox="0 0 500 500" xmlns="http://www.w3.org/2000/svg"><defs><clipPath id="c"><path d="m297.75 1.8691c-14.695 101.79-35.673 193.28-79.062 270.91-22.569 40.379-51.119 77.222-88.451 110.24-1.5116.84656-3.0224 1.6871-4.5352 2.541l.53906.95507c-33.676 29.054-74.342 55.093-124.02 77.889l16.344 35.617c52.78-24.22 96.788-52.533 133.52-84.316 105.14-58.608 200.07-94.546 308.61-76.889l6.293-38.682c-23.105-3.7588-45.652-5.3004-67.768-4.9141-60.387 1.0548-117.56 16.5-174.09 40.477 10.132-14.171 19.372-28.778 27.77-43.803 47.138-84.339 68.672-180.75 83.641-284.43z" color="#000000" color-rendering="auto" dominant-baseline="auto" fill="#ffaf46" image-rendering="auto" shape-rendering="auto" solid-color="#000000" style="font-feature-settings:normal;font-variant-alternates:normal;font-variant-caps:normal;font-variant-ligatures:normal;font-variant-numeric:normal;font-variant-position:normal;isolation:auto;mix-blend-mode:normal;shape-padding:0;text-decoration-color:#000000;text-decoration-line:none;text-decoration-style:solid;text-indent:0;text-orientation:mixed;text-transform:none;white-space:normal"/></clipPath><clipPath id="b"><path d="m494.28 4.2363c-18.799 20.978-58.288 7.787-114.78 42.303-55.981 34.206-49.61 75.595-49.629 75.57-16.639 8.9408-23.263 6.8993-31.926 6.7129v.004c-3.6898 3.5419-5.3662 7.8175-2.4434 13.77l39.707-11.039s44.364 26.84 98.184 2.957c47.629-21.143 60.885-130.28 60.885-130.28zm-54.551 165.79c-33.817.0557-75.502 3.2988-106.96 16.051-62.926 25.504-57.715 78.594-57.715 78.594l-31.922 10.039c-14.067 5.9933-8.0023 10.944-8.3555 16.188l44.062-17.992s60.535 15.653 109.69-1.8809 110.97-97.922 110.97-97.922-25.951-3.1318-59.768-3.0762zm-178.05 214.65c-3.5132.0247-6.9249.1311-10.211.32226-47.594 2.7692-102.74 50.389-102.74 50.389l-22.686-1.6016h-.008c-22.16 3.085-17.441 8.9693-17.488 14.357 0 0 20.979-4.3952 44.166-3.5039 11.05 24.475 72.837 40.789 116.92 37.275 44.091-3.5139 88.575-50.583 125.99-59.064-6.0464-20.707-81.244-38.545-133.94-38.174z" fill="#16b905" stroke-width=".97972"/></clipPath><clipPath id="a"><path d="m123.91 3.7012s-15.983 52.426 48.613 128.96c51.679 61.233 87.834 29.738 87.834 29.738l2.7598 4.0625c1.9697-6.4189 3.8645-12.897 5.6777-19.443 3.5978-45.782-7.1562-68.6-32.254-92.91-26.53-25.697-67.18-31.269-112.63-50.412zm-54.469 106.8c8.5462 26.794 11.376 96.345 25.182 180.28 11.099 67.484 58.348 43.877 58.348 43.877l-1.709 28.42c3.129-3.1778 6.1783-6.3914 9.1699-9.6328l1.4434-22.367s38.084-33.014 32.859-98.5c-6.9066-86.539-125.29-122.08-125.29-122.08zm-41.852 161.45s-28.559 55.517-23.031 95.215c5.5272 39.698 57.119 55.516 57.119 55.516l-1.6973 11.414c2.3481-1.4075 4.6683-2.8252 6.9668-4.252.25623-2.5167.52864-5.1299.87305-8.0566 3.6159-30.728 13.511-54.919 7.0625-92.527-6.4494-37.608-47.293-57.309-47.293-57.309z" fill="#16b905" stroke-width=".97972"/></clipPath></defs><g fill="#fff" fill-opacity=".19608" stroke="#fff" stroke-width="20"><path d="m297.75 1.8691c-14.695 101.79-35.673 193.28-79.062 270.91-22.569 40.379-51.119 77.222-88.451 110.24-1.5116.84656-3.0224 1.6871-4.5352 2.541l.53906.95507c-33.676 29.054-74.342 55.093-124.02 77.889l16.344 35.617c52.78-24.22 96.788-52.533 133.52-84.316 105.14-58.608 200.07-94.546 308.61-76.889l6.293-38.682c-23.105-3.7588-45.652-5.3004-67.768-4.9141-60.387 1.0548-117.56 16.5-174.09 40.477 10.132-14.171 19.372-28.778 27.77-43.803 47.138-84.339 68.672-180.75 83.641-284.43l-38.785-5.5996z" clip-path="url(#c)" color="#000000" color-rendering="auto" dominant-baseline="auto" image-rendering="auto" shape-rendering="auto" solid-color="#000000" style="font-feature-settings:normal;font-variant-alternates:normal;font-variant-caps:normal;font-variant-ligatures:normal;font-variant-numeric:normal;font-variant-position:normal;isolation:auto;mix-blend-mode:normal;shape-padding:0;text-decoration-color:#000000;text-decoration-line:none;text-decoration-style:solid;text-indent:0;text-orientation:mixed;text-transform:none;white-space:normal"/><path d="m494.28 4.2363c-18.799 20.978-58.288 7.787-114.78 42.303-55.981 34.206-49.61 75.595-49.629 75.57-16.639 8.9408-23.263 6.8993-31.926 6.7129v.0039c-3.6898 3.5419-5.3662 7.8175-2.4434 13.77l39.707-11.039s44.364 26.84 98.184 2.957c47.629-21.143 60.885-130.28 60.885-130.28zm-54.551 165.79c-33.817.05566-75.502 3.2988-106.96 16.051-62.926 25.504-57.715 78.594-57.715 78.594l-31.922 10.039c-14.067 5.9933-8.0023 10.944-8.3555 16.188l44.062-17.992s60.535 15.653 109.69-1.8809 110.97-97.922 110.97-97.922-25.951-3.1318-59.768-3.0762zm-178.05 214.65c-3.5132.02475-6.9249.1311-10.211.32226-47.594 2.7692-102.74 50.389-102.74 50.389l-22.686-1.6016h-.00781c-22.16 3.085-17.441 8.9693-17.488 14.357 0 0 20.979-4.3952 44.166-3.5039 11.05 24.475 72.837 40.789 116.92 37.275 44.091-3.5139 88.575-50.583 125.99-59.064-6.0464-20.707-81.244-38.545-133.94-38.174z" clip-path="url(#b)"/><path d="m123.91 3.7012s-15.983 52.426 48.613 128.96c51.679 61.233 87.834 29.738 87.834 29.738l2.7598 4.0625c1.9697-6.4189 3.8645-12.897 5.6777-19.443 3.5978-45.782-7.1562-68.6-32.254-92.91-26.53-25.697-67.18-31.269-112.63-50.412zm-54.469 106.8c8.5462 26.794 11.376 96.345 25.182 180.28 11.099 67.484 58.348 43.877 58.348 43.877l-1.709 28.42c3.129-3.1778 6.1783-6.3914 9.1699-9.6328l1.4434-22.367s38.084-33.014 32.859-98.5c-6.9066-86.539-125.29-122.08-125.29-122.08zm-41.852 161.45s-28.559 55.517-23.031 95.215c5.5272 39.698 57.119 55.516 57.119 55.516l-1.6973 11.414c2.3481-1.4075 4.6683-2.8252 6.9668-4.252.25623-2.5167.52864-5.1299.87305-8.0566 3.6159-30.728 13.511-54.919 7.0625-92.527-6.4494-37.608-47.293-57.309-47.293-57.309z" clip-path="url(#a)"/></g></svg>
