<svg version="1.1" viewBox="0 0 500 500" xmlns="http://www.w3.org/2000/svg"><g transform="matrix(.75472 0 0 .75472 61.32 114.07)"><path d="m175-100s-1.6253-39.124 75-40c76.479-.87405 75 40 75 40" fill="none" stroke="#fff" stroke-width="20"/><path d="m50 0h400l-25 500h-350z" fill="#fff" fill-opacity=".19608" stroke="#fff" stroke-linecap="round" stroke-linejoin="round" stroke-width="20" style="paint-order:normal"/><g fill="#fff" shape-rendering="auto"><path d="m249.75 63.203a16.564 16.564 0 0 0-16.312 16.797v340a16.564 16.564 0 1 0 33.125 0v-340a16.564 16.564 0 0 0-16.812-16.797z" color="#000000" color-rendering="auto" dominant-baseline="auto" image-rendering="auto" solid-color="#000000" style="font-feature-settings:normal;font-variant-alternates:normal;font-variant-caps:normal;font-variant-ligatures:normal;font-variant-numeric:normal;font-variant-position:normal;isolation:auto;mix-blend-mode:normal;shape-padding:0;text-decoration-color:#000000;text-decoration-line:none;text-decoration-style:solid;text-indent:0;text-orientation:mixed;text-transform:none;white-space:normal"/><path d="m350.49 63.209a16.564 16.564 0 0 0-17.037 16.061l-15 340a16.564 16.564 0 1 0 33.094 1.4609l15-340a16.564 16.564 0 0 0-16.057-17.521z" color="#000000" color-rendering="auto" dominant-baseline="auto" image-rendering="auto" solid-color="#000000" style="font-feature-settings:normal;font-variant-alternates:normal;font-variant-caps:normal;font-variant-ligatures:normal;font-variant-numeric:normal;font-variant-position:normal;isolation:auto;mix-blend-mode:normal;shape-padding:0;text-decoration-color:#000000;text-decoration-line:none;text-decoration-style:solid;text-indent:0;text-orientation:mixed;text-transform:none;white-space:normal"/><path d="m150.67 63.215a16.564 16.564 0 0 0-17.213 17.516l15 340a16.564 16.564 0 1 0 33.094-1.4609l-15-340a16.564 16.564 0 0 0-15.881-16.055z" color="#000000" color-rendering="auto" dominant-baseline="auto" image-rendering="auto" solid-color="#000000" style="font-feature-settings:normal;font-variant-alternates:normal;font-variant-caps:normal;font-variant-ligatures:normal;font-variant-numeric:normal;font-variant-position:normal;isolation:auto;mix-blend-mode:normal;shape-padding:0;text-decoration-color:#000000;text-decoration-line:none;text-decoration-style:solid;text-indent:0;text-orientation:mixed;text-transform:none;white-space:normal"/></g><path d="m39.614-58.069c144.62-64.793 284.3-56.283 420.77 0v30.772h-420.77z" fill="#fff" fill-opacity=".19608" stroke="#fff" stroke-linecap="round" stroke-linejoin="round" stroke-width="19.228" style="paint-order:normal"/></g></svg>
