<svg version="1.1" viewBox="0 0 1500 500" xmlns="http://www.w3.org/2000/svg"><defs><clipPath id="c"><path d="m13.293 1.7114h473c6.8956 0 12.447 5.5514 12.447 12.447v473c0 6.8956-5.5514 12.447-12.447 12.447h-473c-6.8956 0-12.447-5.5514-12.447-12.447v-473c0-6.8956 5.5514-12.447 12.447-12.447z" fill="#fff" style="paint-order:normal"/></clipPath><clipPath id="b"><path d="m1225.3 253.8c-8.9906 67.169-278.26 148.69-338.36 128.84-69.237-22.86-135.43-115.76-131.31-140.58 4.1147-24.83 162.48-223.28 263.99-199.86 101.51 23.414 218.84 143.58 205.69 211.61z" fill="none" stroke="#0f0" stroke-width="1.5024px"/></clipPath><clipPath id="a"><path d="m1226.5 237.22-.4219.0176c.468 5.7891.2335 11.34-.7793 16.578v-.01c-8.9945 67.169-278.26 148.69-338.37 128.84-59.426-19.621-116.61-90.836-129.02-126.32l-1.1582.0469s30.529 101.97 38.424 125.62c7.8915 23.648 75.271 105.83 123.98 110.95 76.676 8.0455 319.27-68.454 316.17-125.07-1.1126-20.277-8.8281-130.65-8.8281-130.65z" fill="none" stroke="#000" stroke-width="1.5024px"/></clipPath></defs><g fill="#fff" fill-opacity=".19608"><path d="m1218.4 206.62c-12.049-29.66-30.608-51.51-50.339-71.952l69.894-33.301c23.265 13.135 43.02 30.505 37.516 78.363z" stroke="#fff" stroke-linecap="round" stroke-linejoin="round" stroke-width="19.802" style="paint-order:normal"/><rect transform="rotate(244.42)" x="-704.14" y="1078.5" width="67.823" height="240.68" style="paint-order:normal"/><path d="m1226.5 237.22-.4219.01758c.468 5.7891.2335 11.34-.7793 16.578l-.0039-.00976c-8.9906 67.169-278.26 148.69-338.36 128.84-59.426-19.621-116.61-90.836-129.02-126.32l-1.1582.04688s30.529 101.97 38.424 125.62c7.8915 23.648 75.271 105.83 123.98 110.95 76.676 8.0455 319.27-68.454 316.17-125.07-1.1126-20.277-8.8281-130.65-8.8281-130.65z" clip-path="url(#a)" stroke="#fff" stroke-width="27"/></g><path d="m1225.3 253.8c-8.9906 67.169-278.26 148.69-338.36 128.84-69.237-22.86-135.43-115.76-131.31-140.58 4.1147-24.83 162.48-223.28 263.99-199.86 101.51 23.414 218.84 143.58 205.69 211.61z" clip-path="url(#b)" fill-opacity=".19608" stroke="#fff" stroke-width="27"/><path d="m1225.3 253.8c-8.9906 67.169-278.26 148.69-338.36 128.84-69.237-22.86-135.43-115.76-131.31-140.58 4.1147-24.83 162.48-223.28 263.99-199.86 101.51 23.414 218.84 143.58 205.69 211.61z" fill="none"/><path d="m13.293 1.7114h473c6.8956 0 12.447 5.5514 12.447 12.447v473c0 6.8956-5.5514 12.447-12.447 12.447h-473c-6.8956 0-12.447-5.5514-12.447-12.447v-473c0-6.8956 5.5514-12.447 12.447-12.447z" clip-path="url(#c)" fill="#fff" fill-opacity=".19608" stroke="#fff" stroke-width="27" style="paint-order:normal"/><g stroke="#fff" stroke-width="5"><rect x="221.91" y="121.01" width="54.511" height="111.18" style="paint-order:normal"/><rect x="94.748" y="330.14" width="97.237" height="47.656" style="paint-order:normal"/><rect x="306.35" y="330.14" width="97.237" height="47.656" style="paint-order:normal"/></g><path d="m1107.2 283.3-42.231-38.075-15.206-108.16 42.231 38.075z" fill="#ff0" stroke-width="0"/><path d="m1107.2 283.3 29.161-13.967-15.206-108.16-29.161 13.967z" fill="#ffdc00"/><path d="m1049.7 137.06 42.231 38.075 29.161-13.967-45.05-36.945-26.342 12.837" fill="#ffb900"/><path d="m965.16 150.52-38.579-34.782-13.892-98.807 38.579 34.782z" fill="#ff0" stroke-width="0"/><path d="m965.16 150.52 26.639-12.76-13.892-98.807-26.639 12.76z" fill="#ffdc00" stroke-width="1.5024"/><path d="m912.7 16.928 38.579 34.782 26.639-12.76-41.153-33.75-24.064 11.726" fill="#ffb900" stroke-width="1.5024"/><path d="m871.97 282.32 60.616-29.026-15.206-108.16-60.616 29.026z" fill="#ffdc00"/><path d="m835.3 154.66 21.467 19.499 60.616-29.026-24.286-18.369-57.798 27.896" fill="#ffb900"/><path d="m871.97 282.32-21.467-19.499-15.206-108.16 21.467 19.499z" fill="#ff0" stroke-width="0"/></svg>
