<svg version="1.1" viewBox="0 0 500 500" xmlns="http://www.w3.org/2000/svg"><defs><clipPath id="a"><path d="m13.293 1.7114h473c6.8956 0 12.447 5.5514 12.447 12.447v473c0 6.8956-5.5514 12.447-12.447 12.447h-473c-6.8956 0-12.447-5.5514-12.447-12.447v-473c0-6.8956 5.5514-12.447 12.447-12.447z" fill="#fff" style="paint-order:normal"/></clipPath></defs><path d="m13.293 1.7114h473c6.8956 0 12.447 5.5514 12.447 12.447v473c0 6.8956-5.5514 12.447-12.447 12.447h-473c-6.8956 0-12.447-5.5514-12.447-12.447v-473c0-6.8956 5.5514-12.447 12.447-12.447z" clip-path="url(#a)" fill="#fff" fill-opacity=".19608" stroke="#fff" stroke-width="27" style="paint-order:normal"/><g stroke="#fff" stroke-width="5"><rect x="221.91" y="121.01" width="54.511" height="111.18" style="paint-order:normal"/><rect x="94.748" y="330.14" width="97.237" height="47.656" style="paint-order:normal"/><rect x="306.35" y="330.14" width="97.237" height="47.656" style="paint-order:normal"/></g></svg>
