<svg version="1.1" viewBox="0 0 500 500" xmlns="http://www.w3.org/2000/svg" xmlns:xlink="http://www.w3.org/1999/xlink"><defs><clipPath id="c"><path d="m133.12 377.86c-37.741-24.703-9.291-209.79 19.9-240.17 33.624-34.996 108.42-48.034 122.14-38.427 13.724 9.6068 87.344 161.72 44.113 215.93-43.231 54.21-149.1 90.114-186.16 62.666z" fill="none" stroke="#0f0" stroke-width="1px"/></clipPath><clipPath id="b"><path d="m142.73 383.35s-68.479-27.091-80.972-32.251c-34.884-14.41-11.085-182.04 15.783-225.76 17.07-27.773 85.775-44.603 102.24-42.544 16.469 2.0586 86.461 13.038 86.461 13.038z" fill="none" stroke="#000" stroke-width="1px"/></clipPath><linearGradient id="a" x1="250.26" x2="247.86" y1="366.9" y2="495.22" gradientUnits="userSpaceOnUse"><stop stop-color="#00e600" offset="0"/><stop stop-color="#00e600" stop-opacity="0" offset="1"/></linearGradient></defs><g><rect x="225.55" y="353.35" width="45.143" height="160.2" fill="url(#a)" style="paint-order:normal"/><g stroke="#0f0"><path d="m219.75 191.34h57.828v158.25c-14.572 10.192-30.678 17.06-57.828 0z" fill="#00e600" stroke-linecap="round" stroke-linejoin="round" stroke-width="13.18" style="paint-order:normal"/><path transform="translate(56.586 -79.699)" d="m142.73 383.35s-68.479-27.091-80.972-32.251c-34.884-14.41-11.085-182.04 15.783-225.76 17.07-27.773 85.775-44.603 102.24-42.544 16.469 2.0586 86.461 13.038 86.461 13.038z" clip-path="url(#b)" fill="#00e600" stroke-width="20"/><path transform="translate(56.586 -79.699)" d="m133.12 377.86c-37.741-24.703-9.291-209.79 19.9-240.17 33.624-34.996 108.42-48.034 122.14-38.427 13.724 9.6068 87.344 161.72 44.113 215.93-43.231 54.21-149.1 90.114-186.16 62.666z" clip-path="url(#c)" fill="#00b200" stroke-width="20"/></g><path d="m205.93 218.79 34.996-14.41 69.306 21.958-34.996 14.41z" fill="#ff0" stroke-width="0"/><path d="m205.93 218.79.004 21.521 69.306 21.958-.004-21.521z" fill="#ffdc00"/><path d="m310.24 226.33-34.996 14.41.004 21.521 35.127-16.427-.13535-19.504" fill="#ffb900"/></g><g><path d="m326.47 171.69 31.97-13.164 63.312 20.059-31.97 13.164z" fill="#ff0" stroke-width="0"/><path d="m326.47 171.69.004 19.66 63.312 20.059-.004-19.66z" fill="#ffdc00"/><path d="m421.75 178.59-31.97 13.164.004 19.66 32.09-15.006-.12364-17.817" fill="#ffb900"/></g><g><path d="m274.12 77.86.004 44.734 69.306 21.958-.004-44.734z" fill="#ffdc00"/><path d="m361.31 92.535-17.876 7.2837.004 44.734 18.008-9.3006-.13535-42.717" fill="#ffb900"/><path d="m274.12 77.86 17.876-7.2837 69.306 21.958-17.876 7.2837z" fill="#ff0" stroke-width="0"/></g></svg>
