<svg version="1.1" viewBox="0 0 1500 500" xmlns="http://www.w3.org/2000/svg"><defs><clipPath id="d"><path d="m142.73 383.35s-68.479-27.091-80.972-32.251c-34.884-14.41-11.085-182.04 15.783-225.76 17.07-27.773 85.775-44.603 102.24-42.544 16.469 2.0586 86.461 13.038 86.461 13.038z" fill="none" stroke="#000" stroke-width="1px"/></clipPath><clipPath id="c"><path d="m133.12 377.86c-37.741-24.703-9.291-209.79 19.9-240.17 33.624-34.996 108.42-48.034 122.14-38.427 13.724 9.6068 87.344 161.72 44.113 215.93s-149.1 90.114-186.16 62.666z" fill="none" stroke="#0f0" stroke-width="1px"/></clipPath></defs><rect x=".84635" y="1.7114" width="497.89" height="497.89" rx="12.447" ry="12.447" fill="#0ff" style="paint-order:normal"/><g stroke="#fff" stroke-width="5"><rect x="221.91" y="121.01" width="54.511" height="111.18" style="paint-order:normal"/><rect x="94.748" y="330.14" width="97.237" height="47.656" style="paint-order:normal"/><rect x="306.35" y="330.14" width="97.237" height="47.656" style="paint-order:normal"/></g><g transform="translate(195.97 -2.1186)"><rect transform="rotate(244.42)" x="-621.44" y="900.81" width="67.823" height="240.68" fill="#fff" style="paint-order:normal"/><g stroke="#0ff"><path d="m865.06 284.51-37.516-78.363 214.44-102.66c23.265 13.135 43.02 30.505 37.516 78.363z" fill="#00d2ff" stroke-linecap="round" stroke-linejoin="round" stroke-width="19.802" style="paint-order:normal"/><path transform="matrix(-.64875 -1.3551 1.3551 -.64875 603.62 681.45)" d="m142.73 383.35s-68.479-27.091-80.972-32.251c-34.884-14.41-11.085-182.04 15.783-225.76 17.07-27.773 85.775-44.603 102.24-42.544 16.469 2.0586 86.461 13.038 86.461 13.038z" clip-path="url(#d)" fill="#00d2ff" stroke-width="20"/><path transform="matrix(-.64875 -1.3551 1.3551 -.64875 603.62 681.45)" d="m133.12 377.86c-37.741-24.703-9.291-209.79 19.9-240.17 33.624-34.996 108.42-48.034 122.14-38.427 13.724 9.6068 87.344 161.72 44.113 215.93s-149.1 90.114-186.16 62.666z" clip-path="url(#c)" stroke-width="20"/></g><path d="m911.21 285.42-42.231-38.075-15.206-108.16 42.231 38.075z" fill="#ff0" stroke-width="0"/><path d="m911.21 285.42 29.161-13.967-15.206-108.16-29.161 13.967z" fill="#ffdc00"/><path d="m853.77 139.18 42.231 38.075 29.161-13.967-45.05-36.945-26.342 12.837" fill="#ffb900"/><g transform="matrix(-.64875 -1.3551 1.3551 -.64875 748.33 706.42)"><path d="m326.47 171.69 31.97-13.164 63.312 20.059-31.97 13.164z" fill="#ff0" stroke-width="0"/><path d="m326.47 171.69.004 19.66 63.312 20.059-.004-19.66z" fill="#ffdc00"/><path d="m421.75 178.59-31.97 13.164.004 19.66 32.09-15.006-.12364-17.817" fill="#ffb900"/></g><path d="m676 284.44 60.616-29.026-15.206-108.16-60.616 29.026z" fill="#ffdc00"/><path d="m639.33 156.78 21.467 19.499 60.616-29.026-24.286-18.369-57.798 27.896" fill="#ffb900"/><path d="m676 284.44-21.467-19.499-15.206-108.16 21.467 19.499z" fill="#ff0" stroke-width="0"/></g></svg>
