<svg version="1.1" viewBox="0 0 500 500" xmlns="http://www.w3.org/2000/svg"><g transform="matrix(1.3345 0 0 1.3345 -71.414 -77.331)"><path d="m241.41 430.33c1.5541-.1537-.50125-7.8902-8.8477-16.863-5.3266-5.7264-14.133-11.039-23.215-18.188-19.658-15.474-28.57-41.28-47.729-49.933-7.3155-3.3038-14.536-7.2124-21.511-9.5974-11.294-3.8613-21.109-5.9594-23.402-11.69-3.7083-9.2707 6.734-21.39 21.261-21.766 13.033-.33754 29.693 11.216 43.94 15.618 14.775 4.5644 29.118 2.886 27.608-18.16-1.598-22.27-.69353-136.51-.0755-142.07.61804-5.5624 2.7785-23.728 13.285-24.346 10.507-.61805 17.024 8.1195 17.821 24.63.4284 8.8769 1.2853 68.655 1.6233 76.183.61804 7.4166.72016 14.925 3.1924 14.306 1.8579-.87098 5.6391-17.017 16.698-16.617 9.2008.33254 15.289 12.267 18.531 12.291 3.805.0284 7.4971-12.025 18.541-11.125 13.221 1.0771 15.451 16.069 19.778 16.069s8.9966-6.5567 15.795-5.3206 27.468 22.626 28.704 57.855-2.2116 72.407-12.979 90.235c-9.7151 16.086-13.487 32.756-12.979 32.756z" fill="#00cd00"/><path d="m197.66 223.16a81.787 81.787 0 0 1-54.157-76.979 81.787 81.787 0 0 1 81.787-81.787 81.787 81.787 0 0 1 81.787 81.787v0a81.787 81.787 0 0 1-55.235 77.357" fill="none" stroke="#0ff" stroke-linecap="round" stroke-linejoin="round" stroke-width="10" style="paint-order:normal"/><path d="m197.66 170.75a36.971 36.971 0 0 1-9.3428-24.567 36.971 36.971 0 0 1 36.971-36.971 36.971 36.971 0 0 1 36.971 36.971v0a36.971 36.971 0 0 1-10.423 25.73" fill="none" stroke="#0ff" stroke-linecap="round" stroke-linejoin="round" stroke-width="10" style="paint-order:normal"/></g></svg>
