<svg version="1.1" viewBox="0 0 500 500" xmlns="http://www.w3.org/2000/svg"><path d="m250.55 472.2c1.8665-.1846-.60203-9.477-10.626-20.254-6.3975-6.8776-16.974-13.258-27.883-21.845-23.611-18.585-34.314-49.579-57.326-59.972-8.7862-3.968-17.458-8.6624-25.836-11.527-13.564-4.6377-25.354-7.1575-28.107-14.041-4.4538-11.135 8.0879-25.69 25.536-26.142 15.654-.4054 35.663 13.471 52.775 18.758 17.745 5.4821 34.972 3.4663 33.159-21.811-1.9192-26.747-.83297-163.95-.0907-170.64.7423-6.6808 3.3372-28.498 15.956-29.24 12.619-.74231 20.447 9.7524 21.405 29.582.51453 10.661 1.5438 82.458 1.9497 91.503.7423 8.9077.86496 17.925 3.8342 17.183 2.2315-1.0461 6.7729-20.438 20.056-19.958 11.05.39941 18.364 14.733 22.256 14.762 4.57.0341 9.0045-14.442 22.27-13.361 15.88 1.2937 18.558 19.3 23.754 19.3 5.1962 0 10.805-7.8749 18.971-6.3903 8.1653 1.4846 32.99 27.175 34.475 69.486s-2.6563 86.964-15.589 108.38c-11.668 19.32-16.199 39.343-15.588 39.343z" fill="#fff" stroke-width=".9"/><path d="m197.99 223.37a98.235 98.235 0 0 1-65.046-92.457 98.235 98.235 0 0 1 98.235-98.235 98.235 98.235 0 0 1 98.235 98.235v0a98.235 98.235 0 0 1-66.34 92.907" fill="none" stroke="#c88cff" stroke-linecap="round" stroke-linejoin="round" stroke-width="12.01" style="paint-order:normal"/><path d="m197.99 160.42a44.404 44.404 0 0 1-11.221-29.506 44.404 44.404 0 0 1 44.404-44.404 44.404 44.404 0 0 1 44.405 44.404v0a44.404 44.404 0 0 1-12.518 30.903" fill="none" stroke="#c88cff" stroke-linecap="round" stroke-linejoin="round" stroke-width="12.01" style="paint-order:normal"/></svg>
