<svg version="1.1" viewBox="0 0 500 500" xmlns="http://www.w3.org/2000/svg"><path d="m250.76 496.95c2.0739-.20512-.66892-10.53-11.807-22.504-7.1083-7.6418-18.86-14.731-30.981-24.272-26.234-20.65-38.127-55.088-63.695-66.636-9.7625-4.4089-19.398-9.6249-28.707-12.808-15.071-5.153-28.171-7.9528-31.23-15.601-4.9487-12.372 8.9866-28.545 28.373-29.047 17.393-.45045 39.626 14.968 58.639 20.842 19.717 6.0912 38.858 3.8514 36.843-24.234-2.1325-29.719-.92552-182.17-.10075-189.6.82478-7.4231 3.708-31.665 17.729-32.489 14.021-.82479 22.719 10.836 23.783 32.869.5717 11.846 1.7153 91.62 2.1663 101.67.82478 9.8974.96106 19.917 4.2602 19.092 2.4794-1.1623 7.5254-22.709 22.284-22.176 12.278.44378 20.404 16.37 24.729 16.402 5.0778.0379 10.005-16.047 24.744-14.846 17.644 1.4374 20.62 21.444 26.393 21.444 5.7735 0 12.006-8.7499 21.079-7.1003 9.0726 1.6496 36.656 30.194 38.306 77.207s-2.9514 96.627-17.321 120.42c-12.965 21.467-17.999 43.714-17.32 43.714z" fill="#0ff"/><path d="m192.36 220.47a109.15 109.15 0 0 1-72.273-102.73 109.15 109.15 0 0 1 109.15-109.15 109.15 109.15 0 0 1 109.15 109.15v0a109.15 109.15 0 0 1-73.711 103.23" fill="none" stroke="#00cd00" stroke-linecap="round" stroke-linejoin="round" stroke-width="13.345" style="paint-order:normal"/><path d="m192.37 150.53a49.338 49.338 0 0 1-12.468-32.785 49.338 49.338 0 0 1 49.338-49.338 49.338 49.338 0 0 1 49.339 49.338v0a49.338 49.338 0 0 1-13.909 34.337" fill="none" stroke="#00cd00" stroke-linecap="round" stroke-linejoin="round" stroke-width="13.345" style="paint-order:normal"/></svg>
