<svg version="1.1" viewBox="0 0 1700 500" xmlns="http://www.w3.org/2000/svg"><g transform="matrix(.56479 -.3278 .32146 .57592 645.63 228.24)" fill="#009b00" stroke="#0f0" stroke-width="15.238"><g transform="matrix(-.18642 -.98247 -.98247 .18642 539.53 273.95)" fill="#009b00" stroke="#0f0" stroke-width="15.238"><path d="m175.08 472.36c65.424-.92147 76.828-111.26 76.828-111.26-14.961-.7021-55.821 9.3028-124.74 7.139 0 0-23.037 100.44 47.916 104.13z"/><path d="m182.59 313.98c-66.461-4.272-66.625-93.367-60.412-157.27 6.2129-63.904 9.0908-102.94 55.244-95.844 46.153 7.1005 94.207 123.14 92.432 181.72-1.7108 56.458-30.285 75.061-87.265 71.398z"/></g></g><g fill="#007aff" stroke="#0ff"><g><path d="m18.002 423.29c-5.4004 30.826 39.901 40.319 39.901 40.319.8173-18.202.0466-36.558 13.301-53.551 0 0-45.144-19.781-53.202 13.232z" stroke-width="10"/><path d="m90.262 440.26c8.2364-32.028 51.091-25.745 81.692-16.799s54.872 15.795 47.136 37.654c-7.7364 21.859-55.892 29.769-84.306 23.48-27.386-6.0609-51.584-16.876-44.522-44.336z" stroke-width="10"/><g transform="matrix(-.089163 -.46991 -.46991 .089163 472.22 315.96)" stroke-width="20.908"><path d="m175.08 472.36c65.424-.92147 65.707-86.125 65.707-86.125-29.683 3.2439-52.019-3.2252-113.62-18.001 0 0-23.037 100.44 47.916 104.13z"/><path d="m196.64 306.12c-66.461-4.272-68.557-102.97-62.345-166.87 6.2129-63.905 9.0908-102.94 55.244-95.844 46.153 7.1005 79.881 99.407 78.105 157.99-1.7108 56.458-14.025 108.39-71.005 104.73z"/></g><path d="m412.53 440.83c5.8178 30.75 51.557 23.656 51.557 23.656-1.7014-16.089-4.4596-31.612-6.4391-54.801 0 0-49.22-2.589-45.118 31.145z" stroke-width="10"/><path d="m493.85 434.39c-3.5882-32.875 37.578-40.509 69.368-42.929 31.791-2.4204 56.917-4.5716 57.387 18.612.46965 23.183-45.49 40.543-70.609 51.704-25.632 11.388-53.07.79993-56.146-27.386z" stroke-width="10"/><g transform="matrix(.035092 -.47701 -.47701 -.035092 1594 158.25)" stroke-width="20.908"><path d="m175.08 472.36c65.424-.92147 65.707-86.125 65.707-86.125-29.683 3.2439-52.019-3.2252-113.62-18.001 0 0-23.037 100.44 47.916 104.13z"/><path d="m204.58 299.93c-66.461-4.272-68.557-102.97-62.345-166.87 6.2129-63.904 9.0908-102.94 55.244-95.844 46.153 7.1005 79.881 99.407 78.105 157.99-1.7108 56.458-14.025 108.39-71.005 104.73z"/></g></g><g stroke-width="10"><path d="m1414.4 161.84c-10.378 29.524 32.756 46.312 32.756 46.312 6.5923-14.775 11.986-29.59 21.896-50.648 0 0-41.293-26.911-54.652 4.3359z"/><path d="m1484.7 199.77c13.373-30.246 52.821-16.218 81.543-2.3781 28.722 13.84 51.543 24.573 40.329 44.869-11.214 20.296-59.685 12.282-87.014 9.3487-27.888-2.9931-46.323-25.908-34.858-51.839z"/><path d="m1116.5 208.69c5.226 30.856 51.093 24.643 51.093 24.643-1.3919-16.119-3.8515-31.692-5.3851-54.915 0 0-49.161-3.5342-45.708 30.272z"/></g><g transform="matrix(.1249 .4617 -.4617 .1249 1329.7 77.156)" stroke-width="20.908"><path d="m187.98 339.66c-69-4.4352-72.796-94.911-66.346-161.26 6.4503-66.346 11.058-118.87 58.974-111.5 47.916 7.3718 82.932 103.2 81.089 164.02-1.7762 58.615-14.561 112.54-73.718 108.73z" fill="#007aff" stroke="#0ff" stroke-width="20.908"/></g></g><path d="m839.32 22.406c-89.669 1.6931-173.14 58.433-204.46 147.83-40.079 114.43 20.02 240.37 134.25 280.98 106.9 38.004 224.33-11.832 272.68-111.9l70.945 24.844a23.246 23.246 0 0 0 14.371 30.189l211.53 74.08 31.06-88.689-211.53-74.08a23.246 23.246 0 0 0-30.086 14.619l-70.602-24.725c26.814-109.46-33.958-223.73-142.39-261.14-25.069-8.6485-50.662-12.49-75.77-12.016zm9.1641 46.43c17.088.55434 34.398 3.6527 51.443 9.5332 90.915 31.364 139.12 129.76 108.15 220.87a23.246 23.246 0 0 0-.1621.54297l-.9023 2.5c-32.649 90.529-131.71 137.35-222.33 105.13-90.612-32.213-137.76-130.98-105.94-221.81 25.848-73.801 95.697-119.17 169.74-116.77z" color="#000000" color-rendering="auto" dominant-baseline="auto" fill="#009b00" image-rendering="auto" shape-rendering="auto" solid-color="#000000" stroke="#0f0" stroke-linecap="round" stroke-width="10" style="font-feature-settings:normal;font-variant-alternates:normal;font-variant-caps:normal;font-variant-ligatures:normal;font-variant-numeric:normal;font-variant-position:normal;isolation:auto;mix-blend-mode:normal;shape-padding:0;text-decoration-color:#000000;text-decoration-line:none;text-decoration-style:solid;text-indent:0;text-orientation:mixed;text-transform:none;white-space:normal"/></svg>
