<svg version="1.1" viewBox="0 0 1500 500" xmlns="http://www.w3.org/2000/svg"><g transform="rotate(33.209 447.07 222.83)" fill="#ff14ff"><path d="m69.719 419.53c19.668 19.123 55.501 5.6665 66.135-9.7737 11.949-17.349-2.9697-81.883 23.131-112.07 54.081-62.551 122.82-18.57 146.28-44.307 12.74-13.978 3.0346-35.674-4.2352-49.194-15.476-28.781-45.61-40.724-86.334-36.163-40.724 4.561-64.18 78.189-82.099 107.51-17.918 29.321-105.77 102.3-62.877 144z"/><path d="m346.21 179.69c-15.368 12.9-25.136 21.016-19.315 30.695 4.2901 7.1338 20.55 11.666 41.794.97398 17.118-8.6151 28.633-17.204 20.108-31.164-5.9813-9.795-28.752-12.118-42.587-.50488z"/><path d="m319.25 156.9c-8.6687 9.0682-14.187 14.786-9.386 19.48 3.5384 3.4593 14.604 4.0105 27.331-4.5403 10.255-6.8901 16.863-13.084 9.8538-19.838-4.9175-4.7387-19.995-3.265-27.799 4.8986z"/><path d="m288.05 144.84c-7.0105 6.8012-11.473 11.089-7.5905 14.61 2.8615 2.5945 11.811 3.0079 22.103-3.4052 8.2933-5.1676 13.637-9.8129 7.9689-14.878-3.9769-3.554-16.17-2.4488-22.481 3.674z"/><path d="m255.32 139.01c-5.5474 6.3688-9.0824 10.388-5.362 13.039 2.7418 1.954 10.632 1.5357 19.094-4.7861 6.8183-5.0939 11.095-9.4917 5.6702-13.3-3.806-2.6717-14.408-.68705-19.402 5.0465z"/><path d="m225.53 137.32c-4.0356 6.4247-6.611 10.482-3.2351 12.633 2.488 1.5849 9.0635.50892 15.547-6.1251 5.2246-5.3456 8.3851-9.8206 3.4684-12.902-3.4497-2.1621-12.148.61106-15.781 6.3948z"/></g><g transform="matrix(.72043 -.69353 -.69353 -.72043 577.08 638.58)" fill="#ff14ff"><path d="m69.719 419.53c19.668 19.123 55.501 5.6665 66.135-9.7737 11.949-17.349-2.9697-81.883 23.131-112.07 54.081-62.551 122.82-18.57 146.28-44.307 12.74-13.978 3.0346-35.674-4.2352-49.194-15.476-28.781-45.61-40.724-86.334-36.163-40.724 4.561-64.18 78.189-82.099 107.51-17.918 29.321-105.77 102.3-62.877 144z"/><path d="m346.21 179.69c-15.368 12.9-25.136 21.016-19.315 30.695 4.2901 7.1338 20.55 11.666 41.794.97398 17.118-8.6151 28.633-17.204 20.108-31.164-5.9813-9.795-28.752-12.118-42.587-.50488z"/><path d="m319.25 156.9c-8.6687 9.0682-14.187 14.786-9.386 19.48 3.5384 3.4593 14.604 4.0105 27.331-4.5403 10.255-6.8901 16.863-13.084 9.8538-19.838-4.9175-4.7387-19.995-3.265-27.799 4.8986z"/><path d="m288.05 144.84c-7.0105 6.8012-11.473 11.089-7.5905 14.61 2.8615 2.5945 11.811 3.0079 22.103-3.4052 8.2933-5.1676 13.637-9.8129 7.9689-14.878-3.9769-3.554-16.17-2.4488-22.481 3.674z"/><path d="m255.32 139.01c-5.5474 6.3688-9.0824 10.388-5.362 13.039 2.7418 1.954 10.632 1.5357 19.094-4.7861 6.8183-5.0939 11.095-9.4917 5.6702-13.3-3.806-2.6717-14.408-.68705-19.402 5.0465z"/><path d="m225.53 137.32c-4.0356 6.4247-6.611 10.482-3.2351 12.633 2.488 1.5849 9.0635.50892 15.547-6.1251 5.2246-5.3456 8.3851-9.8206 3.4684-12.902-3.4497-2.1621-12.148.61106-15.781 6.3948z"/></g><g transform="rotate(45.664 732.56 1045.3)" fill="#ff14ff"><path d="m69.719 419.53c19.668 19.123 55.501 5.6665 66.135-9.7737 11.949-17.349-2.9697-81.883 23.131-112.07 54.081-62.551 122.82-18.57 146.28-44.307 12.74-13.978 3.0346-35.674-4.2352-49.194-15.476-28.781-45.61-40.724-86.334-36.163-40.724 4.561-64.18 78.189-82.099 107.51-17.918 29.321-105.77 102.3-62.877 144z"/><path d="m346.21 179.69c-15.368 12.9-25.136 21.016-19.315 30.695 4.2901 7.1338 20.55 11.666 41.794.97398 17.118-8.6151 28.633-17.204 20.108-31.164-5.9813-9.795-28.752-12.118-42.587-.50488z"/><path d="m319.25 156.9c-8.6687 9.0682-14.187 14.786-9.386 19.48 3.5384 3.4593 14.604 4.0105 27.331-4.5403 10.255-6.8901 16.863-13.084 9.8538-19.838-4.9175-4.7387-19.995-3.265-27.799 4.8986z"/><path d="m288.05 144.84c-7.0105 6.8012-11.473 11.089-7.5905 14.61 2.8615 2.5945 11.811 3.0079 22.103-3.4052 8.2933-5.1676 13.637-9.8129 7.9689-14.878-3.9769-3.554-16.17-2.4488-22.481 3.674z"/><path d="m255.32 139.01c-5.5474 6.3688-9.0824 10.388-5.362 13.039 2.7418 1.954 10.632 1.5357 19.094-4.7861 6.8183-5.0939 11.095-9.4917 5.6702-13.3-3.806-2.6717-14.408-.68705-19.402 5.0465z"/><path d="m225.53 137.32c-4.0356 6.4247-6.611 10.482-3.2351 12.633 2.488 1.5849 9.0635.50892 15.547-6.1251 5.2246-5.3456 8.3851-9.8206 3.4684-12.902-3.4497-2.1621-12.148.61106-15.781 6.3948z"/></g><g transform="matrix(.85527 -.51819 -.51819 -.85527 1253.3 726.46)" fill="#ff14ff"><path d="m69.719 419.53c19.668 19.123 55.501 5.6665 66.135-9.7737 11.949-17.349-2.9697-81.883 23.131-112.07 54.081-62.551 122.82-18.57 146.28-44.307 12.74-13.978 3.0346-35.674-4.2352-49.194-15.476-28.781-45.61-40.724-86.334-36.163-40.724 4.561-64.18 78.189-82.099 107.51-17.918 29.321-105.77 102.3-62.877 144z"/><path d="m346.21 179.69c-15.368 12.9-25.136 21.016-19.315 30.695 4.2901 7.1338 20.55 11.666 41.794.97398 17.118-8.6151 28.633-17.204 20.108-31.164-5.9813-9.795-28.752-12.118-42.587-.50488z"/><path d="m319.25 156.9c-8.6687 9.0682-14.187 14.786-9.386 19.48 3.5384 3.4593 14.604 4.0105 27.331-4.5403 10.255-6.8901 16.863-13.084 9.8538-19.838-4.9175-4.7387-19.995-3.265-27.799 4.8986z"/><path d="m288.05 144.84c-7.0105 6.8012-11.473 11.089-7.5905 14.61 2.8615 2.5945 11.811 3.0079 22.103-3.4052 8.2933-5.1676 13.637-9.8129 7.9689-14.878-3.9769-3.554-16.17-2.4488-22.481 3.674z"/><path d="m255.32 139.01c-5.5474 6.3688-9.0824 10.388-5.362 13.039 2.7418 1.954 10.632 1.5357 19.094-4.7861 6.8183-5.0939 11.095-9.4917 5.6702-13.3-3.806-2.6717-14.408-.68705-19.402 5.0465z"/><path d="m225.53 137.32c-4.0356 6.4247-6.611 10.482-3.2351 12.633 2.488 1.5849 9.0635.50892 15.547-6.1251 5.2246-5.3456 8.3851-9.8206 3.4684-12.902-3.4497-2.1621-12.148.61106-15.781 6.3948z"/></g></svg>
