<svg version="1.1" viewBox="0 0 1700 500" xmlns="http://www.w3.org/2000/svg"><g fill="#0a0"><g transform="matrix(-.089163 .46991 -.46991 -.089163 255.58 383.14)"><path d="m175.08 472.36c65.424-.92147 67.267-97.676 67.267-97.676-37.707 5.4154-75.112 14.153-115.18-6.4503 0 0-23.037 100.44 47.916 104.13z"/><path d="m187.98 339.66c-69-4.4352-72.796-94.911-66.346-161.26 6.4503-66.346 11.058-118.87 58.974-111.5 47.916 7.3718 82.932 103.2 81.089 164.02-1.7762 58.615-14.561 112.54-73.718 108.73z"/></g><g transform="matrix(.4783 0 0 .4783 214.16 200.59)"><g transform="matrix(-.18642 -.98247 -.98247 .18642 539.53 273.95)" fill="#0a0"><path d="m175.08 472.36c65.424-.92147 65.707-86.125 65.707-86.125-29.683 3.2439-52.019-3.2252-113.62-18.001 0 0-23.037 100.44 47.916 104.13z"/><path d="m202.03 334.52c-66.461-4.272-68.557-102.97-62.345-166.87 6.2129-63.904 9.0908-102.94 55.244-95.844 46.153 7.1005 79.881 99.407 78.105 157.99-1.7108 56.458-14.025 108.39-71.005 104.73z"/></g></g><g transform="rotate(24.202 336.98 44.768)"><path d="m568.26 375.05c17.913 25.662 56.723.44104 56.723.44104-8.1478-13.978-17.027-27.006-28.339-47.345 0 0-45.955 17.816-28.384 46.904z"/><path d="m624.66 342.64c-16.75-28.515 17.668-52.354 45.672-67.594s50.04-27.503 59.973-6.5505c9.9325 20.953-24.87 55.629-43.206 76.106-18.711 20.895-48.077 22.486-62.438-1.9609z"/></g></g><g transform="matrix(.66946 -.38103 .38103 .66946 619.34 221.05)" fill="#0f0"><g transform="matrix(-.18642 -.98247 -.98247 .18642 539.53 273.95)" fill="#0f0"><path d="m175.08 472.36c65.424-.92147 76.828-111.26 76.828-111.26-14.961-.7021-55.821 9.3028-124.74 7.139 0 0-23.037 100.44 47.916 104.13z"/><path d="m179.35 331.63c-66.461-4.272-66.625-93.367-60.412-157.27s9.0908-102.94 55.244-95.844c46.153 7.1005 94.207 123.14 92.432 181.72-1.7108 56.458-30.285 75.061-87.265 71.398z"/></g></g><g fill="#0a0"><g transform="matrix(.4621 .1234 -.1234 .4621 1378.5 -34.927)"><g transform="matrix(-.18642 -.98247 -.98247 .18642 539.53 273.95)" fill="#0a0"><path d="m175.08 472.36c65.424-.92147 65.707-86.125 65.707-86.125-29.683 3.2439-52.019-3.2252-113.62-18.001 0 0-23.037 100.44 47.916 104.13z"/><path d="m202.03 334.52c-66.461-4.272-68.557-102.97-62.345-166.87 6.2129-63.904 9.0908-102.94 55.244-95.844 46.153 7.1005 79.881 99.407 78.105 157.99-1.7108 56.458-14.025 108.39-71.005 104.73z"/></g></g><g transform="matrix(-.16496 .44895 -.44895 -.16496 1655.4 161.16)"><path d="m175.08 472.36c65.424-.92147 67.267-97.676 67.267-97.676-33.749-2.2833-66.712-2.1861-115.18-6.4503 0 0-23.037 100.44 47.916 104.13z"/><path d="m185.1 336.72c-69-4.4352-69.915-91.965-63.465-158.31 6.4503-66.346 11.058-118.87 58.974-111.5 47.916 7.3718 67.139 108.27 81.089 164.02 14.235 56.888-17.442 109.59-76.599 105.79z"/></g><g transform="rotate(15.893 1323.5 512.47)"><path d="m1041.2 277c13.476 28.245 55.888 9.709 55.888 9.709-5.7529-15.122-12.383-29.426-20.218-51.341 0 0-48.249 10.063-35.67 41.632z"/><g transform="matrix(.24656 .40985 -.40985 .24656 1195.1 96.399)"><path d="m187.98 339.66c-69-4.4352-72.796-94.911-66.346-161.26 6.4503-66.346 11.058-118.87 58.974-111.5 47.916 7.3718 82.932 103.2 81.089 164.02-1.7762 58.615-14.561 112.54-73.718 108.73z" fill="#0a0"/></g></g></g><path d="m1030.1 306.73a197.57 197.57 0 1 0-1.2073 3.4471l293.01 102.61m-171.41-85.182 189.6 66.397-15.694 44.813-189.6-66.397" fill="none" stroke="#0ff" stroke-linecap="round" stroke-width="46.488"/></svg>
