<svg version="1.1" viewBox="0 0 1700 500" xmlns="http://www.w3.org/2000/svg"><defs><clipPath id="clipPath3860"><path d="m1236.8-0.96289v172.91c-25.616-28.707-61.168-43.062-106.66-43.062-33.566 0-64.04 7.5092-91.422 22.525-26.941 15.016-48.142 36.436-63.6 64.26-15.458 27.824-23.186 60.066-23.186 96.723s7.7277 68.897 23.186 96.721c15.458 27.824 36.659 49.244 63.6 64.26 27.382 15.016 57.856 22.525 91.422 22.525 48.582 0 85.679-15.457 111.29-46.373v41.072h98.709v-491.56zm-885.12 27.824v463.73h100.7v-272.28l135.81 223.25h48.361l136.47-229.22 0.66407 278.24h100.7l-1.3242-463.73h-88.109l-170.92 288.18-173.57-288.18zm796.35 186.82c26.057 0 47.698 9.0524 64.922 27.16 17.224 17.666 25.836 41.516 25.836 71.549s-8.6114 54.101-25.836 72.209c-17.224 17.666-38.864 26.5-64.922 26.5-26.499 0-48.362-8.8339-65.586-26.5-17.224-18.108-25.836-42.177-25.836-72.209s8.6116-53.883 25.836-71.549c17.224-18.108 39.087-27.16 65.586-27.16z" style="fill:#fff;stroke-width:25;stroke:#fff"/></clipPath><clipPath id="clipPath3917"><path d="m12.486 2.2624a9.534 9.534 0 0 0-9.4468 10.348l11.669 136.26a9.534 9.534 0 0 0 16.233 5.9355l40.743-40.657 57.637 58.32 44.517-43.998-57.848-58.532 39.338-39.252a9.534 9.534 0 0 0-5.8857-16.244l-136.06-12.141a9.534 9.534 0 0 0-0.89795-0.038086z" style="color:#000000;fill:none;stroke-linecap:round;stroke-linejoin:round;stroke-width:25;stroke:#fff"/></clipPath></defs><path transform="matrix(.75 0 0 .75 211.49 61.867)" d="m1236.8-0.96289v172.91c-25.616-28.707-61.168-43.062-106.66-43.062-33.566 0-64.04 7.5092-91.422 22.525-26.941 15.016-48.142 36.436-63.6 64.26-15.458 27.824-23.186 60.066-23.186 96.723s7.7277 68.897 23.186 96.721c15.458 27.824 36.659 49.244 63.6 64.26 27.382 15.016 57.856 22.525 91.422 22.525 48.582 0 85.679-15.457 111.29-46.373v41.072h98.709v-491.56zm-885.12 27.824v463.73h100.7v-272.28l135.81 223.25h48.361l136.47-229.22 0.66407 278.24h100.7l-1.3242-463.73h-88.109l-170.92 288.18-173.57-288.18zm796.35 186.82c26.057 0 47.698 9.0524 64.922 27.16 17.224 17.666 25.836 41.516 25.836 71.549s-8.6114 54.101-25.836 72.209c-17.224 17.666-38.864 26.5-64.922 26.5-26.499 0-48.362-8.8339-65.586-26.5-17.224-18.108-25.836-42.177-25.836-72.209s8.6116-53.883 25.836-71.549c17.224-18.108 39.087-27.16 65.586-27.16z" clip-path="url(#clipPath3860)" style="fill:none;stroke-width:33.333;stroke:#fff"/><path transform="matrix(0 1.2 -1.2 0 1702.6 -1.0503)" d="m12.486 2.2624a9.534 9.534 0 0 0-9.4468 10.348l11.669 136.26a9.534 9.534 0 0 0 16.233 5.9355l40.743-40.657 57.637 58.32 44.517-43.998-57.848-58.532 39.338-39.252a9.534 9.534 0 0 0-5.8857-16.244l-136.06-12.141a9.534 9.534 0 0 0-0.89795-0.038086z" clip-path="url(#clipPath3917)" style="color:#000000;fill:none;stroke-linecap:round;stroke-linejoin:round;stroke-width:20.833;stroke:#fff"/><path transform="matrix(-1.2 0 0 -1.2 1703.8 501.09)" d="m12.486 2.2624a9.534 9.534 0 0 0-9.4468 10.348l11.669 136.26a9.534 9.534 0 0 0 16.233 5.9355l40.743-40.657 57.637 58.32 44.517-43.998-57.848-58.532 39.338-39.252a9.534 9.534 0 0 0-5.8857-16.244l-136.06-12.141a9.534 9.534 0 0 0-0.89795-0.038086z" clip-path="url(#clipPath3917)" style="color:#000000;fill:none;stroke-linecap:round;stroke-linejoin:round;stroke-width:20.833;stroke:#fff"/><path transform="matrix(1.2 0 0 1.2 -1.1677 .47489)" d="m12.486 2.2624a9.534 9.534 0 0 0-9.4468 10.348l11.669 136.26a9.534 9.534 0 0 0 16.233 5.9355l40.743-40.657 57.637 58.32 44.517-43.998-57.848-58.532 39.338-39.252a9.534 9.534 0 0 0-5.8857-16.244l-136.06-12.141a9.534 9.534 0 0 0-0.89795-0.038086z" clip-path="url(#clipPath3917)" style="color:#000000;fill:none;stroke-linecap:round;stroke-linejoin:round;stroke-width:20.833;stroke:#fff"/><path transform="matrix(0 -1.2 1.2 0 .09919 500.62)" d="m12.486 2.2624a9.534 9.534 0 0 0-9.4468 10.348l11.669 136.26a9.534 9.534 0 0 0 16.233 5.9355l40.743-40.657 57.637 58.32 44.517-43.998-57.848-58.532 39.338-39.252a9.534 9.534 0 0 0-5.8857-16.244l-136.06-12.141a9.534 9.534 0 0 0-0.89795-0.038086z" clip-path="url(#clipPath3917)" style="color:#000000;fill:none;stroke-linecap:round;stroke-linejoin:round;stroke-width:20.833;stroke:#fff"/></svg>
