<svg version="1.1" viewBox="0 0 1600 500"
    xmlns="http://www.w3.org/2000/svg">
    <defs>
        <clipPath id="clipPath3042">
            <g style="fill:#fff;white-space:pre" aria-label="Md">
                <path d="m227.84 325.72-0.25333-106.4-52.187 87.653h-18.493l-51.933-85.373v104.12h-38.507v-177.33h33.947l66.373 110.2 65.36-110.2h33.693l0.50667 177.33z"/>
                <path d="m444.45 137.74v187.97h-37.747v-15.707q-14.693 17.733-42.56 17.733-19.253 0-34.96-8.6133-15.453-8.6133-24.32-24.573-8.8667-15.96-8.8667-36.987 0-21.027 8.8667-36.987 8.8666-15.96 24.32-24.573 15.707-8.6133 34.96-8.6133 26.093 0 40.787 16.467v-66.12zm-73.467 157.57q14.947 0 24.827-10.133 9.88-10.387 9.88-27.613 0-17.227-9.88-27.36-9.88-10.387-24.827-10.387-15.2 0-25.08 10.387-9.88 10.133-9.88 27.36 0 17.227 9.88 27.613 9.88 10.133 25.08 10.133z"/>
            </g>
        </clipPath>
        <clipPath id="clipPath3059">
            <path transform="translate(2.5734 1.0792)" d="m13.752 2.0293a12.712 12.712 0 0 0-12.596 13.797l15.559 181.68a12.712 12.712 0 0 0 21.645 7.9141l54.324-54.209 76.85 77.76 59.355-58.664-77.131-78.043 52.451-52.336a12.712 12.712 0 0 0-7.8476-21.658l-181.41-16.187a12.712 12.712 0 0 0-1.1973-0.050781z" style="color:#000000;fill:#0f0;stroke-linecap:round;stroke-linejoin:round;stroke-width:25.421"/>
        </clipPath>
    </defs>
    <g transform="translate(-2.5734 -1.0792)" clip-path="url(#clipPath3059)" style="fill:none;stroke-width:25;stroke:#fff">
        <path transform="translate(2.5734 1.0792)" d="m13.752 2.0293a12.712 12.712 0 0 0-12.596 13.797l15.559 181.68a12.712 12.712 0 0 0 21.645 7.9141l54.324-54.209 76.85 77.76 59.355-58.664-77.131-78.043 52.451-52.336a12.712 12.712 0 0 0-7.8476-21.658l-181.41-16.187a12.712 12.712 0 0 0-1.1973-0.050781l-0.001953-0.0019531z" style="color:#000000;stroke-linecap:round;stroke-linejoin:round"/>
    </g>
    <g transform="matrix(2.615 0 0 2.615 126.71 -360.57)" clip-path="url(#clipPath3042)" style="fill:#fff;stroke-width:9.5601;stroke:#fff;white-space:pre" aria-label="Md">
        <path d="m227.84 325.72-0.25333-106.4-52.187 87.653h-18.493l-51.933-85.373v104.12h-38.507v-177.33h33.947l66.373 110.2 65.36-110.2h33.693l0.50667 177.33z"/>
        <path d="m444.45 137.74v187.97h-37.747v-15.707q-14.693 17.733-42.56 17.733-19.253 0-34.96-8.6133-15.453-8.6133-24.32-24.573-8.8667-15.96-8.8667-36.987 0-21.027 8.8667-36.987 8.8666-15.96 24.32-24.573 15.707-8.6133 34.96-8.6133 26.093 0 40.787 16.467v-66.12zm-73.467 157.57q14.947 0 24.827-10.133 9.88-10.387 9.88-27.613 0-17.227-9.88-27.36-9.88-10.387-24.827-10.387-15.2 0-25.08 10.387-9.88 10.133-9.88 27.36 0 17.227 9.88 27.613 9.88 10.133 25.08 10.133z"/>
    </g>
    <g transform="translate(-1.4639 -1.2154)" display="none">
        <g transform="matrix(.78109 -.78109 .78109 .78109 -138.8 251.8)">
            <rect transform="matrix(.0031937 .99999 -.99999 -.0032134 0 0)" x="178.78" y="-521" width="133.27" height="481.57" rx="47.288" ry="28.13" fill="#ffe600" stroke-width="1.4759" style="paint-order:stroke markers fill"/>
            <rect transform="matrix(.0031937 .99999 -.99999 -.0032134 0 0)" x="178.22" y="-462.63" width="134.39" height="19.331" stroke-width="1.4759" style="paint-order:stroke markers fill"/>
            <g stroke="#000">
                <path d="m83.456 216.55 363.58 0.21769" fill="none" stroke-width="4.9394"/>
                <path d="m83.012 274.58 365.77 0.14507" fill="none" stroke-width="4.9428"/>
                <path d="m66.141 304.71 22.37-29.578-23.297-29.905 23.111-29.401-23.346-29.724m0.0493 9.3e-4 -122.42 61.138 123.53 57.472" fill="#fff" stroke-linecap="round" stroke-linejoin="round" stroke-width="13.976"/>
            </g>
            <path d="m-3.1794 220.4 0.35364 56.687-52.04-28.509z" stroke-width="1.4759"/>
        </g>
    </g>
    <g transform="rotate(90 801.53 800.05)" clip-path="url(#clipPath3059)" style="fill:none;stroke-width:25;stroke:#fff">
        <path transform="translate(2.5734 1.0792)" d="m13.752 2.0293a12.712 12.712 0 0 0-12.596 13.797l15.559 181.68a12.712 12.712 0 0 0 21.645 7.9141l54.324-54.209 76.85 77.76 59.355-58.664-77.131-78.043 52.451-52.336a12.712 12.712 0 0 0-7.8476-21.658l-181.41-16.187a12.712 12.712 0 0 0-1.1973-0.050781z" style="color:#000000;stroke-linecap:round;stroke-linejoin:round"/>
    </g>
    <g transform="rotate(180 800.99 251.33)" clip-path="url(#clipPath3059)" style="fill:none;stroke-width:25;stroke:#fff">
        <path transform="translate(2.5734 1.0792)" d="m13.752 2.0293a12.712 12.712 0 0 0-12.596 13.797l15.559 181.68a12.712 12.712 0 0 0 21.645 7.9141l54.324-54.209 76.85 77.76 59.355-58.664-77.131-78.043 52.451-52.336a12.712 12.712 0 0 0-7.8476-21.658l-181.41-16.187a12.712 12.712 0 0 0-1.1973-0.050781z" style="color:#000000;stroke-linecap:round;stroke-linejoin:round"/>
    </g>
    <g transform="rotate(-90 250.45 251.44)" clip-path="url(#clipPath3059)" style="fill:none;stroke-width:25;stroke:#fff">
        <path transform="translate(2.5734 1.0792)" d="m13.752 2.0293a12.712 12.712 0 0 0-12.596 13.797l15.559 181.68a12.712 12.712 0 0 0 21.645 7.9141l54.324-54.209 76.85 77.76 59.355-58.664-77.131-78.043 52.451-52.336a12.712 12.712 0 0 0-7.8476-21.658l-181.41-16.187a12.712 12.712 0 0 0-1.1973-0.050781z" style="color:#000000;stroke-linecap:round;stroke-linejoin:round"/>
    </g>
</svg>
