<svg version="1.1" viewBox="0 0 500 500" xmlns="http://www.w3.org/2000/svg"><g display="none"><g transform="matrix(.78109 -.78109 .78109 .78109 -138.8 251.8)"><rect transform="matrix(.0031937 .99999 -.99999 -.0032134 0 0)" x="178.78" y="-521" width="133.27" height="481.57" rx="47.288" ry="28.13" fill="#ffe600" stroke-width="1.4759" style="paint-order:stroke markers fill"/><rect transform="matrix(.0031937 .99999 -.99999 -.0032134 0 0)" x="178.22" y="-462.63" width="134.39" height="19.331" stroke-width="1.4759" style="paint-order:stroke markers fill"/><g stroke="#000"><path d="m83.456 216.55 363.58 0.21769" fill="none" stroke-width="4.9394"/><path d="m83.012 274.58 365.77 0.14507" fill="none" stroke-width="4.9428"/><path d="m66.141 304.71 22.37-29.578-23.297-29.905 23.111-29.401-23.346-29.724m0.0493 9.3e-4 -122.42 61.138 123.53 57.472" fill="#fff" stroke-linecap="round" stroke-linejoin="round" stroke-width="13.976"/></g><path d="m-3.1794 220.4 0.35364 56.687-52.04-28.509z" stroke-width="1.4759"/></g></g><text transform="matrix(4.2191 0 0 4.2191 -317.28 -280.59)" style="font-family:Montserrat;font-size:80px;line-height:1.25;shape-inside:url(#rect865);white-space:pre" xml:space="preserve"><tspan x="0" y="0"><tspan style="font-weight:600">Md</tspan></tspan></text><g style="fill:#0f0"><path d="m15.642 3.0001a12.712 12.712 0 0 0-12.596 13.795l15.559 181.68a12.712 12.712 0 0 0 21.643 7.9141l54.326-54.209 76.85 77.76 59.357-58.664-77.133-78.045 52.449-52.334a12.712 12.712 0 0 0-7.8477-21.658l-181.41-16.187a12.712 12.712 0 0 0-1.1973-0.050781z" style="color:#000000;stroke-linecap:round;stroke-linejoin:round;stroke-width:25.421"/><path d="m496.16 15.642a12.712 12.712 0 0 0-13.795-12.596l-181.68 15.559a12.712 12.712 0 0 0-7.9141 21.643l54.209 54.326-77.76 76.85 58.664 59.357 78.045-77.133 52.334 52.449a12.712 12.712 0 0 0 21.658-7.8477l16.188-181.41a12.712 12.712 0 0 0 0.0508-1.1973z" style="color:#000000;stroke-linecap:round;stroke-linejoin:round;stroke-width:25.421"/><path d="m484.36 496.16a12.712 12.712 0 0 0 12.596-13.795l-15.559-181.68a12.712 12.712 0 0 0-21.643-7.9141l-54.326 54.209-76.85-77.76-59.357 58.664 77.133 78.045-52.449 52.334a12.712 12.712 0 0 0 7.8477 21.658l181.41 16.188a12.712 12.712 0 0 0 1.1973 0.0508z" style="color:#000000;stroke-linecap:round;stroke-linejoin:round;stroke-width:25.421"/><path d="m3.0002 484.36a12.712 12.712 0 0 0 13.795 12.596l181.68-15.559a12.712 12.712 0 0 0 7.9141-21.643l-54.209-54.326 77.76-76.85-58.664-59.358-78.045 77.133-52.334-52.449a12.712 12.712 0 0 0-21.658 7.8477l-16.188 181.41a12.712 12.712 0 0 0-0.0508 1.1973z" style="color:#000000;stroke-linecap:round;stroke-linejoin:round;stroke-width:25.421"/></g></svg>
