<svg version="1.1" viewBox="0 0 1700 500" xmlns="http://www.w3.org/2000/svg"><defs><clipPath id="clipPath3860"><path d="m1236.8-0.96289v172.91c-25.616-28.707-61.168-43.062-106.66-43.062-33.566 0-64.04 7.5092-91.422 22.525-26.941 15.016-48.142 36.436-63.6 64.26-15.458 27.824-23.186 60.066-23.186 96.723s7.7277 68.897 23.186 96.721c15.458 27.824 36.659 49.244 63.6 64.26 27.382 15.016 57.856 22.525 91.422 22.525 48.582 0 85.679-15.457 111.29-46.373v41.072h98.709v-491.56zm-885.12 27.824v463.73h100.7v-272.28l135.81 223.25h48.361l136.47-229.22 0.66407 278.24h100.7l-1.3242-463.73h-88.109l-170.92 288.18-173.57-288.18zm796.35 186.82c26.057 0 47.698 9.0524 64.922 27.16 17.224 17.666 25.836 41.516 25.836 71.549s-8.6114 54.101-25.836 72.209c-17.224 17.666-38.864 26.5-64.922 26.5-26.499 0-48.362-8.8339-65.586-26.5-17.224-18.108-25.836-42.177-25.836-72.209s8.6116-53.883 25.836-71.549c17.224-18.108 39.087-27.16 65.586-27.16z" style="fill:#fff;stroke-width:25;stroke:#fff"/></clipPath></defs><path d="m1236.8-0.96289v172.91c-25.616-28.707-61.168-43.062-106.66-43.062-33.566 0-64.04 7.5092-91.422 22.525-26.941 15.016-48.142 36.436-63.6 64.26-15.458 27.824-23.186 60.066-23.186 96.723s7.7277 68.897 23.186 96.721c15.458 27.824 36.659 49.244 63.6 64.26 27.382 15.016 57.856 22.525 91.422 22.525 48.582 0 85.679-15.457 111.29-46.373v41.072h98.709v-491.56h-103.35zm-885.12 27.824v463.73h100.7v-272.28l135.81 223.25h48.361l136.47-229.22 0.66407 278.24h100.7l-1.3242-463.73h-88.109l-170.92 288.18-173.57-288.18h-88.771zm796.35 186.82c26.057 0 47.698 9.0524 64.922 27.16 17.224 17.666 25.836 41.516 25.836 71.549s-8.6114 54.101-25.836 72.209c-17.224 17.666-38.864 26.5-64.922 26.5-26.499 0-48.362-8.8339-65.586-26.5-17.224-18.108-25.836-42.177-25.836-72.209s8.6116-53.883 25.836-71.549c17.224-18.108 39.087-27.16 65.586-27.16z" clip-path="url(#clipPath3860)" style="fill:none;stroke-width:25;stroke:#fff"/><g transform="translate(48.637 -1.6761)" style="fill:none;stroke-width:25;stroke:#fff"><path transform="translate(2.5734 1.0792)" d="m13.752 2.0293a12.712 12.712 0 0 0-12.596 13.797l15.559 181.68a12.712 12.712 0 0 0 21.645 7.9141l54.324-54.209 76.85 77.76 59.355-58.664-77.131-78.043 52.451-52.336a12.712 12.712 0 0 0-7.8476-21.658l-181.41-16.187a12.712 12.712 0 0 0-1.1973-0.050781z" style="color:#000000;stroke-linecap:round;stroke-linejoin:round"/></g><g transform="translate(48.637 -1.6761)"><path transform="translate(2.5734 1.0792)" d="m13.752 2.0293a12.712 12.712 0 0 0-12.596 13.797l15.559 181.68a12.712 12.712 0 0 0 21.645 7.9141l54.324-54.209 76.85 77.76 59.355-58.664-77.131-78.043 52.451-52.336a12.712 12.712 0 0 0-7.8476-21.658l-181.41-16.187a12.712 12.712 0 0 0-1.1973-0.050781z" style="color:#000000;fill:#0f0;stroke-linecap:round;stroke-linejoin:round;stroke-width:25.421"/></g><g transform="rotate(90 827.43 825.35)" style="fill:none;stroke-width:25;stroke:#fff"><path transform="translate(2.5734 1.0792)" d="m13.752 2.0293a12.712 12.712 0 0 0-12.596 13.797l15.559 181.68a12.712 12.712 0 0 0 21.645 7.9141l54.324-54.209 76.85 77.76 59.355-58.664-77.131-78.043 52.451-52.336a12.712 12.712 0 0 0-7.8476-21.658l-181.41-16.187a12.712 12.712 0 0 0-1.1973-0.050781z" style="color:#000000;stroke-linecap:round;stroke-linejoin:round"/></g><g transform="rotate(180 826.6 251.04)" style="fill:none;stroke-width:25;stroke:#fff"><path transform="translate(2.5734 1.0792)" d="m13.752 2.0293a12.712 12.712 0 0 0-12.596 13.797l15.559 181.68a12.712 12.712 0 0 0 21.645 7.9141l54.324-54.209 76.85 77.76 59.355-58.664-77.131-78.043 52.451-52.336a12.712 12.712 0 0 0-7.8476-21.658l-181.41-16.187a12.712 12.712 0 0 0-1.1973-0.050781z" style="color:#000000;stroke-linecap:round;stroke-linejoin:round"/></g><g transform="rotate(-90 275.76 225.54)" style="fill:none;stroke-width:25;stroke:#fff"><path transform="translate(2.5734 1.0792)" d="m13.752 2.0293a12.712 12.712 0 0 0-12.596 13.797l15.559 181.68a12.712 12.712 0 0 0 21.645 7.9141l54.324-54.209 76.85 77.76 59.355-58.664-77.131-78.043 52.451-52.336a12.712 12.712 0 0 0-7.8476-21.658l-181.41-16.187a12.712 12.712 0 0 0-1.1973-0.050781z" style="color:#000000;stroke-linecap:round;stroke-linejoin:round"/></g></svg>
