<svg version="1.1" viewBox="0 0 500 500" xmlns="http://www.w3.org/2000/svg"><g display="none"><g transform="matrix(.78109 -.78109 .78109 .78109 -138.8 251.8)"><rect transform="matrix(.0031937 .99999 -.99999 -.0032134 0 0)" x="178.78" y="-521" width="133.27" height="481.57" rx="47.288" ry="28.13" fill="#ffe600" stroke-width="1.4759" style="paint-order:stroke markers fill"/><rect transform="matrix(.0031937 .99999 -.99999 -.0032134 0 0)" x="178.22" y="-462.63" width="134.39" height="19.331" stroke-width="1.4759" style="paint-order:stroke markers fill"/><g stroke="#000"><path d="m83.456 216.55 363.58 0.21769" fill="none" stroke-width="4.9394"/><path d="m83.012 274.58 365.77 0.14507" fill="none" stroke-width="4.9428"/><path d="m66.141 304.71 22.37-29.578-23.297-29.905 23.111-29.401-23.346-29.724m0.0493 9.3e-4 -122.42 61.138 123.53 57.472" fill="#fff" stroke-linecap="round" stroke-linejoin="round" stroke-width="13.976"/></g><path d="m-3.1794 220.4 0.35364 56.687-52.04-28.509z" stroke-width="1.4759"/></g></g><text transform="matrix(4.2191 0 0 4.2191 -317.28 -280.59)" style="font-family:Montserrat;font-size:80px;line-height:1.25;shape-inside:url(#rect865);white-space:pre" xml:space="preserve"><tspan x="0" y="0"><tspan style="font-weight:600">Md</tspan></tspan></text><g transform="translate(-.68422 -.10923)"><path d="m16.326 3.1094a12.712 12.712 0 0 0-12.596 13.795l15.559 181.68a12.712 12.712 0 0 0 21.643 7.9141l82.922-82.744 82.928-82.748a12.712 12.712 0 0 0-7.8477-21.658l-181.41-16.187a12.712 12.712 0 0 0-1.1973-0.050781z" style="color:#000000;fill:#0f0;stroke-linecap:round;stroke-linejoin:round;stroke-width:25.421"/><path d="m154.33 93.34-59.074 58.949 76.85 77.76 59.357-58.664z" style="color:#000000;fill:#fff;stroke-linejoin:round;stroke-width:83.454"/></g><g transform="rotate(-90 250.71 250.82)"><path d="m16.326 3.1094a12.712 12.712 0 0 0-12.596 13.795l15.559 181.68a12.712 12.712 0 0 0 21.643 7.9141l82.922-82.744 82.928-82.748a12.712 12.712 0 0 0-7.8477-21.658l-181.41-16.187a12.712 12.712 0 0 0-1.1973-0.050781z" style="color:#000000;fill:#0f0;stroke-linecap:round;stroke-linejoin:round;stroke-width:25.421"/><path d="m154.33 93.34-59.074 58.949 76.85 77.76 59.357-58.664z" style="color:#000000;fill:#fff;stroke-linejoin:round;stroke-width:83.454"/></g><g transform="matrix(0 1 -1 0 500.11 -.68423)"><path d="m16.326 3.1094a12.712 12.712 0 0 0-12.596 13.795l15.559 181.68a12.712 12.712 0 0 0 21.643 7.9141l82.922-82.744 82.928-82.748a12.712 12.712 0 0 0-7.8477-21.658l-181.41-16.187a12.712 12.712 0 0 0-1.1973-0.050781z" style="color:#000000;fill:#0f0;stroke-linecap:round;stroke-linejoin:round;stroke-width:25.421"/><path d="m154.33 93.34-59.074 58.949 76.85 77.76 59.357-58.664z" style="color:#000000;fill:#fff;stroke-linejoin:round;stroke-width:83.454"/></g><g transform="rotate(180 250.76 250.05)"><path d="m16.326 3.1094a12.712 12.712 0 0 0-12.596 13.795l15.559 181.68a12.712 12.712 0 0 0 21.643 7.9141l82.922-82.744 82.928-82.748a12.712 12.712 0 0 0-7.8477-21.658l-181.41-16.187a12.712 12.712 0 0 0-1.1973-0.050781z" style="color:#000000;fill:#0f0;stroke-linecap:round;stroke-linejoin:round;stroke-width:25.421"/><path d="m154.33 93.34-59.074 58.949 76.85 77.76 59.357-58.664z" style="color:#000000;fill:#fff;stroke-linejoin:round;stroke-width:83.454"/></g></svg>
