<svg version="1.1" viewBox="0 0 1700 500" xmlns="http://www.w3.org/2000/svg"><path transform="matrix(.75 0 0 .75 211.49 61.867)" d="m1236.8-0.96289v172.91c-25.616-28.707-61.168-43.062-106.66-43.062-33.566 0-64.04 7.5092-91.422 22.525-26.941 15.016-48.142 36.436-63.6 64.26-15.458 27.824-23.186 60.066-23.186 96.723s7.7277 68.897 23.186 96.721c15.458 27.824 36.659 49.244 63.6 64.26 27.382 15.016 57.856 22.525 91.422 22.525 48.582 0 85.679-15.457 111.29-46.373v41.072h98.709v-491.56zm-885.12 27.824v463.73h100.7v-272.28l135.81 223.25h48.361l136.47-229.22 0.66407 278.24h100.7l-1.3242-463.73h-88.109l-170.92 288.18-173.57-288.18zm796.35 186.82c26.057 0 47.698 9.0524 64.922 27.16 17.224 17.666 25.836 41.516 25.836 71.549s-8.6114 54.101-25.836 72.209c-17.224 17.666-38.864 26.5-64.922 26.5-26.499 0-48.362-8.8339-65.586-26.5-17.224-18.108-25.836-42.177-25.836-72.209s8.6116-53.883 25.836-71.549c17.224-18.108 39.087-27.16 65.586-27.16z" style="fill:none;stroke-width:33.333;stroke:#fff"/><path d="m1139.1 61.145v129.68c-19.212-21.531-45.876-32.297-79.994-32.297-25.174 0-48.03 5.6319-68.566 16.894-20.206 11.262-36.106 27.327-47.7 48.195-11.593 20.868-17.389 45.049-17.389 72.542 0 27.493 5.7958 51.672 17.389 72.541 11.593 20.868 27.494 36.933 47.7 48.195 20.537 11.262 43.392 16.894 68.566 16.894 36.436 0 64.259-11.593 83.471-34.78v30.804h74.032v-368.67zm-663.84 20.868v347.8h75.521v-204.21l101.86 167.44h36.271l102.35-171.91 0.49806 208.68h75.521l-0.99317-347.8h-66.082l-128.19 216.13-130.18-216.13zm597.26 140.12c19.543 0 35.773 6.7893 48.691 20.37 12.918 13.25 19.377 31.137 19.377 53.662s-6.4585 40.576-19.377 54.157c-12.918 13.25-29.148 19.875-48.691 19.875-19.874 0-36.271-6.6254-49.19-19.875-12.918-13.581-19.377-31.633-19.377-54.157s6.4587-40.412 19.377-53.662c12.918-13.581 29.315-20.37 49.19-20.37z" style="fill:#fff;stroke-width:18.75"/><path transform="matrix(0 1.2 -1.2 0 1702.6 -1.0503)" d="m12.486 2.2624a9.534 9.534 0 0 0-9.4468 10.348l11.669 136.26a9.534 9.534 0 0 0 16.233 5.9355l40.743-40.657 57.637 58.32 44.517-43.998-57.848-58.532 39.338-39.252a9.534 9.534 0 0 0-5.8857-16.244l-136.06-12.141a9.534 9.534 0 0 0-0.89795-0.038086z" style="color:#000000;fill:#0f0;stroke-linecap:round;stroke-linejoin:round;stroke-width:20.833"/><path transform="matrix(-1.2 0 0 -1.2 1703.8 501.09)" d="m12.486 2.2624a9.534 9.534 0 0 0-9.4468 10.348l11.669 136.26a9.534 9.534 0 0 0 16.233 5.9355l40.743-40.657 57.637 58.32 44.517-43.998-57.848-58.532 39.338-39.252a9.534 9.534 0 0 0-5.8857-16.244l-136.06-12.141a9.534 9.534 0 0 0-0.89795-0.038086z" style="color:#000000;fill:none;stroke-linecap:round;stroke-linejoin:round;stroke-width:20.833;stroke:#fff"/><path d="m1688.9 498.38a11.441 11.441 0 0 0 11.336-12.417l-14.003-163.51a11.441 11.441 0 0 0-19.48-7.1226l-48.892 48.788-69.165-69.984-53.42 52.798 69.418 70.239-47.206 47.102a11.441 11.441 0 0 0 7.0629 19.492l163.27 14.569a11.441 11.441 0 0 0 1.0775 0.0457z" style="color:#000000;fill:#0f0;stroke-linecap:round;stroke-linejoin:round;stroke-width:30"/><path transform="matrix(1.2 0 0 1.2 -1.1677 .47489)" d="m12.486 2.2624a9.534 9.534 0 0 0-9.4468 10.348l11.669 136.26a9.534 9.534 0 0 0 16.233 5.9355l40.743-40.657 57.637 58.32 44.517-43.998-57.848-58.532 39.338-39.252a9.534 9.534 0 0 0-5.8857-16.244l-136.06-12.141a9.534 9.534 0 0 0-0.89795-0.038086z" style="color:#000000;fill:#0f0;stroke-linecap:round;stroke-linejoin:round;stroke-width:20.833"/><path transform="matrix(0 -1.2 1.2 0 .09919 500.62)" d="m12.486 2.2624a9.534 9.534 0 0 0-9.4468 10.348l11.669 136.26a9.534 9.534 0 0 0 16.233 5.9355l40.743-40.657 57.637 58.32 44.517-43.998-57.848-58.532 39.338-39.252a9.534 9.534 0 0 0-5.8857-16.244l-136.06-12.141a9.534 9.534 0 0 0-0.89795-0.038086z" style="color:#000000;fill:#0f0;stroke-linecap:round;stroke-linejoin:round;stroke-width:20.833"/></svg>
