<svg version="1.1" viewBox="0 0 500 500" xmlns="http://www.w3.org/2000/svg"><path d="m161.34 143.48 104 113.26-88.684 30.63" fill="none" stroke="#000" stroke-linecap="round" stroke-linejoin="round" stroke-width="20"/><circle cx="265.34" cy="256.74" r="19.945" style="paint-order:stroke markers fill"/><g stroke="#000"><path d="m465.15 256.74a199.81 199.81 0 0 1-199.81 199.81 199.81 199.81 0 0 1-199.81-199.81 199.81 199.81 0 0 1 199.81-199.81 199.81 199.81 0 0 1 199.81 199.81z" fill="none" stroke-linecap="round" stroke-linejoin="round" stroke-width="10" style="paint-order:stroke markers fill"/><path d="m263.56 56.577 72.657 133.92 100.79-161.7z" stroke-width="1px"/><path d="m76.575 192.99c-16.968 58.282-8.9197 110.01 14.625 150.85 47.445 82.287 163.16 123.53 253.21 78.519 79.378-39.677 118.6-193.4 11.397-276.38l54.849-79.78s48.79 31.447 71.589 94.739c23.863 66.246 6.3996 157.56-19.233 202.3-60.191 105.07-191.32 119.74-281.37 79.419-47.043-21.064-89.281-65.898-102.59-102.04-21.591-58.646-16.074-97.966-2.4818-147.62z" stroke-width="1px"/></g></svg>
