<svg version="1.1" viewBox="0 0 500 500" xmlns="http://www.w3.org/2000/svg"><path d="m250.55 304.36a249.72 97.311 0 0 0-249.72 97.311 249.72 97.311 0 0 0 249.72 97.311 249.72 97.311 0 0 0 249.72-97.311 249.72 97.311 0 0 0-249.72-97.311zm-87.862 54.717a106.73 41.731 0 0 1 106.73 41.73 106.73 41.731 0 0 1-106.73 41.73 106.73 41.731 0 0 1-106.73-41.73 106.73 41.731 0 0 1 106.73-41.73z" fill="#f00" style="paint-order:normal"/><path d="m147.95 125.97c7.6372 1.0106 13.881 3.2039 31.703 2.7677l-.0408 293.5c-10.618 3.1129-21.236 2.6587-31.854 0z" fill="#00dcff" style="paint-order:normal"/><path d="m147.95 2.314c29.916 22.946 76.455 39.445 132.45 52.279-29.84 33.29-79.861 64.852-132.45 51.78z" fill="#f00"/></svg>
