<svg version="1.1" viewBox="0 0 500 500" xmlns="http://www.w3.org/2000/svg"><path d="m250-150a50 50 0 0 0-4.2695.21289 50 50 0 0 0-2.4531.29883 50 50 0 0 0-2.4922.375 50 50 0 0 0-2.4453.55078 50 50 0 0 0-2.3965.61133 50 50 0 0 0-2.4023.79883 50 50 0 0 0-2.3223.84765 50 50 0 0 0-2.2754 1.0176 50 50 0 0 0-2.2656 1.0938 50 50 0 0 0-2.1406 1.2285 50 50 0 0 0-2.1465 1.3164 50 50 0 0 0-2.0488 1.4648 50 50 0 0 0-1.9629 1.4941 50 50 0 0 0-1.8926 1.6602 50 50 0 0 0-1.8203 1.6953 50 50 0 0 0-1.6953 1.8203 50 50 0 0 0-1.6602 1.8926 50 50 0 0 0-1.4941 1.9629 50 50 0 0 0-1.4648 2.0488 50 50 0 0 0-1.3164 2.1465 50 50 0 0 0-1.2285 2.1406 50 50 0 0 0-1.0938 2.2656 50 50 0 0 0-1.0176 2.2754 50 50 0 0 0-.84765 2.3223 50 50 0 0 0-.79883 2.4023 50 50 0 0 0-.61133 2.3965 50 50 0 0 0-.55078 2.4453 50 50 0 0 0-.375 2.4922 50 50 0 0 0-.29883 2.4531 50 50 0 0 0-.21289 4.2695 50 50 0 0 0 .21289 4.2695 50 50 0 0 0 .29492 2.4297 50 50 0 0 0 .38477 2.5371 50 50 0 0 0 .53125 2.3613 50 50 0 0 0 .63281 2.4844 50 50 0 0 0 .77148 2.3164 50 50 0 0 0 .87696 2.4062 50 50 0 0 0 .98437 2.1973 50 50 0 0 0 1.1309 2.3418 50 50 0 0 0 1.1856 2.0684 50 50 0 0 0 1.3594 2.2168 50 50 0 0 0 1.4199 1.9844 50 50 0 0 0 1.5391 2.0254 50 50 0 0 0 1.6035 1.8262 50 50 0 0 0 1.7656 1.8945 50 50 0 0 0 1.7285 1.6074 50 50 0 0 0 1.9863 1.7461 50 50 0 0 0 1.8496 1.4062 50 50 0 0 0 2.1777 1.5566 50 50 0 0 0 1.9961 1.2227 50 50 0 0 0 2.293 1.3164 50 50 0 0 0 2.123 1.0254 50 50 0 0 0 2.4082 1.0781 50 50 0 0 0 2.1992.80274 50 50 0 0 0 2.5293.83984 50 50 0 0 0 4.0156 1.0254v91.256c-50.405 2.3708-96.199 22.559-131.21 54.406l-64.605-64.605a50 50 0 0 0-6.3184-62.885 50 50 0 0 0-70.709 0 50 50 0 0 0 0 70.709 50 50 0 0 0 62.922 6.3555l64.568 64.568c-31.848 35.01-52.035 80.804-54.406 131.21h-91.307a50 50 0 0 0-48.936-40 50 50 0 0 0-50 50 50 50 0 0 0 50 50 50 50 0 0 0 48.986-40h91.256c2.3708 50.405 22.559 96.199 54.406 131.21l-64.605 64.605a50 50 0 0 0-62.885 6.3184 50 50 0 0 0 0 70.709 50 50 0 0 0 70.709 0 50 50 0 0 0 6.3555-62.922l64.568-64.568c35.01 31.848 80.804 52.035 131.21 54.406v91.307a50 50 0 0 0-4.8008 1.2324 50 50 0 0 0-.13281.04296 50 50 0 0 0-4.543 1.666 50 50 0 0 0-.17774.08008 50 50 0 0 0-4.293 2.0801 50 50 0 0 0-.26171.15039 50 50 0 0 0-3.9727 2.4434 50 50 0 0 0-.33789.24218 50 50 0 0 0-3.5879 2.7344 50 50 0 0 0-.48047.42187 50 50 0 0 0-3.1523 2.9453 50 50 0 0 0-.53516.57421 50 50 0 0 0-2.7422 3.1309 50 50 0 0 0-.56836.74805 50 50 0 0 0-2.3242 3.2598 50 50 0 0 0-.59179.96679 50 50 0 0 0-1.873 3.2754 50 50 0 0 0-.61914 1.2793 50 50 0 0 0-1.4277 3.2031 50 50 0 0 0-.55859 1.5293 50 50 0 0 0-1.041 3.1465 50 50 0 0 0-.44727 1.7539 50 50 0 0 0-.67773 3.0371 50 50 0 0 0-.3086 2.0449 50 50 0 0 0-.33789 2.8203 50 50 0 0 0-.20703 4.127 50 50 0 0 0 .21289 4.2695 50 50 0 0 0 .29883 2.4531 50 50 0 0 0 .375 2.4922 50 50 0 0 0 .55078 2.4453 50 50 0 0 0 .61133 2.3965 50 50 0 0 0 .79883 2.4023 50 50 0 0 0 .84765 2.3223 50 50 0 0 0 1.0176 2.2754 50 50 0 0 0 1.0938 2.2656 50 50 0 0 0 1.2285 2.1406 50 50 0 0 0 1.3164 2.1465 50 50 0 0 0 1.4648 2.0488 50 50 0 0 0 1.4941 1.9629 50 50 0 0 0 1.6602 1.8926 50 50 0 0 0 1.6953 1.8203 50 50 0 0 0 1.8203 1.6953 50 50 0 0 0 1.8926 1.6602 50 50 0 0 0 1.9629 1.4941 50 50 0 0 0 2.0488 1.4648 50 50 0 0 0 2.1465 1.3164 50 50 0 0 0 2.1406 1.2285 50 50 0 0 0 2.2656 1.0938 50 50 0 0 0 2.2754 1.0176 50 50 0 0 0 2.3223.84765 50 50 0 0 0 2.4023.79883 50 50 0 0 0 2.3965.61133 50 50 0 0 0 2.4453.55078 50 50 0 0 0 2.4922.375 50 50 0 0 0 2.4531.29883 50 50 0 0 0 4.2695.21289 50 50 0 0 0 4.2695-.21289 50 50 0 0 0 2.4531-.29883 50 50 0 0 0 2.4922-.375 50 50 0 0 0 2.4453-.55078 50 50 0 0 0 2.3965-.61133 50 50 0 0 0 2.4023-.79883 50 50 0 0 0 2.3223-.84765 50 50 0 0 0 2.2754-1.0176 50 50 0 0 0 2.2656-1.0938 50 50 0 0 0 2.1406-1.2285 50 50 0 0 0 2.1465-1.3164 50 50 0 0 0 2.0488-1.4648 50 50 0 0 0 1.9629-1.4941 50 50 0 0 0 1.8926-1.6602 50 50 0 0 0 1.8203-1.6953 50 50 0 0 0 1.6953-1.8203 50 50 0 0 0 1.6602-1.8926 50 50 0 0 0 1.4941-1.9629 50 50 0 0 0 1.4648-2.0488 50 50 0 0 0 1.3164-2.1465 50 50 0 0 0 1.2285-2.1406 50 50 0 0 0 1.0938-2.2656 50 50 0 0 0 1.0176-2.2754 50 50 0 0 0 .84765-2.3223 50 50 0 0 0 .79883-2.4023 50 50 0 0 0 .61133-2.3965 50 50 0 0 0 .55078-2.4453 50 50 0 0 0 .375-2.4922 50 50 0 0 0 .29883-2.4531 50 50 0 0 0 .21289-4.2695 50 50 0 0 0-.21289-4.2695 50 50 0 0 0-.29492-2.4297 50 50 0 0 0-.38477-2.5371 50 50 0 0 0-.53125-2.3613 50 50 0 0 0-.63281-2.4844 50 50 0 0 0-.77148-2.3164 50 50 0 0 0-.87696-2.4062 50 50 0 0 0-.98437-2.1973 50 50 0 0 0-1.1309-2.3418 50 50 0 0 0-1.1856-2.0684 50 50 0 0 0-1.3594-2.2168 50 50 0 0 0-1.4199-1.9844 50 50 0 0 0-1.5391-2.0254 50 50 0 0 0-1.6035-1.8262 50 50 0 0 0-1.7656-1.8945 50 50 0 0 0-1.7285-1.6074 50 50 0 0 0-1.9863-1.7461 50 50 0 0 0-1.8496-1.4062 50 50 0 0 0-2.1777-1.5566 50 50 0 0 0-1.9961-1.2227 50 50 0 0 0-2.293-1.3164 50 50 0 0 0-2.123-1.0254 50 50 0 0 0-2.4082-1.0781 50 50 0 0 0-2.1992-.80273 50 50 0 0 0-2.5293-.83985 50 50 0 0 0-3.9746-1.0156 50 50 0 0 0-.04102-.00977v-91.256c50.405-2.3708 96.199-22.559 131.21-54.406l64.605 64.605a50 50 0 0 0 6.3184 62.885 50 50 0 0 0 70.709 0 50 50 0 0 0 0-70.709 50 50 0 0 0-62.922-6.3555l-64.568-64.568c31.848-35.01 52.035-80.804 54.406-131.21h91.307a50 50 0 0 0 48.936 40 50 50 0 0 0 50-50 50 50 0 0 0-50-50 50 50 0 0 0-48.986 40h-91.256c-2.3708-50.405-22.559-96.199-54.406-131.21l64.605-64.605a50 50 0 0 0 62.885-6.3184 50 50 0 0 0 0-70.709 50 50 0 0 0-70.709 0 50 50 0 0 0-6.3555 62.922l-64.568 64.568c-35.01-31.848-80.804-52.035-131.21-54.406v-91.307a50 50 0 0 0 4.8008-1.2324 50 50 0 0 0 .13281-.042969 50 50 0 0 0 4.543-1.666 50 50 0 0 0 .17774-.080079 50 50 0 0 0 4.293-2.0801 50 50 0 0 0 .26171-.15039 50 50 0 0 0 3.9727-2.4434 50 50 0 0 0 .33789-.24219 50 50 0 0 0 3.5879-2.7344 50 50 0 0 0 .48047-.42188 50 50 0 0 0 3.1523-2.9453 50 50 0 0 0 .53516-.57422 50 50 0 0 0 2.7422-3.1309 50 50 0 0 0 .56836-.74805 50 50 0 0 0 2.3242-3.2598 50 50 0 0 0 .59179-.9668 50 50 0 0 0 1.873-3.2754 50 50 0 0 0 .61914-1.2793 50 50 0 0 0 1.4277-3.2031 50 50 0 0 0 .55859-1.5293 50 50 0 0 0 1.041-3.1465 50 50 0 0 0 .44727-1.7539 50 50 0 0 0 .67773-3.0371 50 50 0 0 0 .3086-2.0449 50 50 0 0 0 .33789-2.8203 50 50 0 0 0 .20703-4.127 50 50 0 0 0-.21289-4.2695 50 50 0 0 0-.29883-2.4531 50 50 0 0 0-.375-2.4922 50 50 0 0 0-.55078-2.4453 50 50 0 0 0-.61133-2.3965 50 50 0 0 0-.79883-2.4023 50 50 0 0 0-.84765-2.3223 50 50 0 0 0-1.0176-2.2754 50 50 0 0 0-1.0938-2.2656 50 50 0 0 0-1.2285-2.1406 50 50 0 0 0-1.3164-2.1465 50 50 0 0 0-1.4648-2.0488 50 50 0 0 0-1.4941-1.9629 50 50 0 0 0-1.6602-1.8926 50 50 0 0 0-1.6953-1.8203 50 50 0 0 0-1.8203-1.6953 50 50 0 0 0-1.8926-1.6602 50 50 0 0 0-1.9629-1.4941 50 50 0 0 0-2.0488-1.4648 50 50 0 0 0-2.1465-1.3164 50 50 0 0 0-2.1406-1.2285 50 50 0 0 0-2.2656-1.0938 50 50 0 0 0-2.2754-1.0176 50 50 0 0 0-2.3223-.84765 50 50 0 0 0-2.4023-.79883 50 50 0 0 0-2.3965-.61133 50 50 0 0 0-2.4453-.55078 50 50 0 0 0-2.4922-.375 50 50 0 0 0-2.4531-.29883 50 50 0 0 0-4.2695-.21289zm0 210c105.05 0 190 84.947 190 190s-84.947 190-190 190-190-84.947-190-190 84.947-190 190-190z" color="#000000" color-rendering="auto" dominant-baseline="auto" fill="#ff16ff" image-rendering="auto" shape-rendering="auto" solid-color="#000000" style="font-feature-settings:normal;font-variant-alternates:normal;font-variant-caps:normal;font-variant-ligatures:normal;font-variant-numeric:normal;font-variant-position:normal;isolation:auto;mix-blend-mode:normal;paint-order:stroke markers fill;shape-padding:0;text-decoration-color:#000000;text-decoration-line:none;text-decoration-style:solid;text-indent:0;text-orientation:mixed;text-transform:none;white-space:normal"/></svg>
