<svg version="1.1" viewBox="0 0 500 220" xmlns="http://www.w3.org/2000/svg"><text style="font-family:sans-serif;font-size:4px;line-height:1.25;shape-inside:url(#rect873);white-space:pre" xml:space="preserve"/><text style="font-family:sans-serif;font-size:4px;line-height:1.25;shape-inside:url(#rect893);white-space:pre" xml:space="preserve"/><text style="font-family:sans-serif;font-size:4px;line-height:1.25;shape-inside:url(#rect903);white-space:pre" xml:space="preserve"/><rect x="6.4285" y="8.6017" width="487.2" height="203" rx="50.75" ry="50.75" style="fill:none;stroke-linejoin:round;stroke-width:10.15;stroke:#0ff"/><g transform="matrix(1.015 0 0 1.015 4.3903 -122.62)" style="fill:#0ff;white-space:pre" aria-label="text"><path d="m117 181.12v87.724h-14.187v-8.1577q-3.665 4.4926-9.1035 6.7389-5.3202 2.2463-11.823 2.2463-9.1035 0-16.434-4.0197-7.2118-4.0197-11.35-11.35-4.138-7.4483-4.138-17.025 0-9.5764 4.138-16.906 4.1379-7.3301 11.35-11.35 7.3301-4.0197 16.434-4.0197 6.266 0 11.468 2.1281 5.202 2.1281 8.867 6.3843v-32.394zm-33.34 75.902q5.3202 0 9.5764-2.3645 4.2562-2.4828 6.7389-6.9754 2.4828-4.4926 2.4828-10.404t-2.4828-10.404-6.7389-6.8572q-4.2562-2.4828-9.5764-2.4828t-9.5764 2.4828q-4.2562 2.3645-6.7389 6.8572t-2.4828 10.404 2.4828 10.404q2.4828 4.4926 6.7389 6.9754 4.2562 2.3645 9.5764 2.3645z"/><path d="m160.57 205q13.951 0 21.281 6.7389 7.4483 6.6207 7.4483 20.099v37.005h-13.951v-7.6848q-2.7192 4.1379-7.803 6.3843-4.9655 2.1281-12.059 2.1281t-12.414-2.3645q-5.3202-2.4828-8.2759-6.7389-2.8374-4.3744-2.8374-9.8128 0-8.5123 6.266-13.596 6.3842-5.202 19.98-5.202h16.315v-0.94582q0-6.6207-4.0197-10.168-3.9015-3.5468-11.704-3.5468-5.3202 0-10.522 1.6552-5.0838 1.6552-8.6306 4.6109l-5.7931-10.759q4.9655-3.7833 11.941-5.7931 6.9754-2.0099 14.778-2.0099zm-2.0099 53.912q5.5567 0 9.8128-2.4828 4.3744-2.601 6.1478-7.3301v-7.3301h-15.251q-12.769 0-12.769 8.3941 0 4.0197 3.1921 6.3843t8.867 2.3645z"/><path d="m246.22 265.42q-2.601 2.1281-6.3842 3.1921-3.665 1.064-7.803 1.064-10.404 0-16.079-5.4384-5.6749-5.4384-5.6749-15.842v-30.384h-10.404v-11.823h10.404v-14.424h14.778v14.424h16.906v11.823h-16.906v30.03q0 4.6109 2.2463 7.0936 2.2463 2.3645 6.5025 2.3645 4.9655 0 8.2759-2.601z"/><path d="m282.49 205q13.951 0 21.281 6.7389 7.4483 6.6207 7.4483 20.099v37.005h-13.951v-7.6848q-2.7192 4.1379-7.803 6.3843-4.9655 2.1281-12.059 2.1281t-12.414-2.3645q-5.3202-2.4828-8.2759-6.7389-2.8374-4.3744-2.8374-9.8128 0-8.5123 6.266-13.596 6.3843-5.202 19.98-5.202h16.315v-0.94582q0-6.6207-4.0197-10.168-3.9015-3.5468-11.704-3.5468-5.3202 0-10.522 1.6552-5.0838 1.6552-8.6306 4.6109l-5.7931-10.759q4.9655-3.7833 11.941-5.7931 6.9754-2.0098 14.778-2.0098zm-2.0099 53.912q5.5567 0 9.8128-2.4828 4.3744-2.601 6.1478-7.3301v-7.3301h-15.251q-12.769 0-12.769 8.3941 0 4.0197 3.1921 6.3843t8.867 2.3645z"/><text style="font-family:sans-serif;font-size:105.09px;line-height:1.25;shape-inside:url(#rect863)" xml:space="preserve"><tspan x="50.949219" y="384.7183" style="visibility:hidden"><tspan dx="0 66.70752 64.449722 41.256027">data</tspan></tspan></text><text style="font-family:sans-serif;font-size:3.9409px;line-height:1.25;shape-inside:url(#rect873)" xml:space="preserve"/><text style="font-family:Montserrat;font-size:105.09px;line-height:1.25;shape-inside:url(#rect879)" xml:space="preserve"/><text style="font-family:sans-serif;font-size:3.9409px;line-height:1.25;shape-inside:url(#rect885)" xml:space="preserve"/></g><path d="m378.32 33.327h-20.3l-10.15 10.15v131.95l10.15 10.15h20.3m-60.9-152.25h20.3l10.15 10.15v131.95l-10.15 10.15h-20.3" style="fill:none;stroke-width:5.075;stroke:#0ff"/></svg>
