<svg version="1.1" viewBox="0 0 500 500" xmlns="http://www.w3.org/2000/svg"><path d="m120.38 407.8c-42.677-50.005-44.971-170.78-10.081-217.03 75.787-100.46 247.66-128.58 263.12-188.79 16.802 27.554 31.011 139.14 22.178 212.61-8.8018 73.213-29.907 160.9-108.88 191.86-78.969 30.956-123.66 13.267-132.4 27.894-11.429 19.135-40.66 52.726-43.685 64.973-25.539-15.988-49.733-11.226-49.733-11.226s61.677-31.593 72.584-69.735c18.482-64.632 49.047-122.95 84.345-166.68 35.865-44.439 110.93-80.732 126.01-131.31-24.147 48.396-103.09 84.903-142.5 132.65-33.176 40.205-65.782 89.526-80.969 154.79z" fill="#fff"/></svg>
