<svg version="1.1" viewBox="0 0 500 500" xmlns="http://www.w3.org/2000/svg" xmlns:xlink="http://www.w3.org/1999/xlink"><defs><linearGradient id="b" x1="328.21" x2="70.798" y1="316.89" y2="90.07" gradientTransform="matrix(.99404 0 0 .99404 1.4911 1.4911)" gradientUnits="userSpaceOnUse"><stop stop-color="#caffff" offset="0"/><stop stop-color="#b9ffff" stop-opacity="0" offset="1"/></linearGradient><linearGradient id="a" x1="269.83" x2="420.84" y1="243.83" y2="372.75" gradientUnits="userSpaceOnUse"><stop stop-color="#ceffff" offset="0"/><stop stop-color="#8dffff" offset="1"/></linearGradient></defs><ellipse cx="250" cy="250" rx="248.51" ry="248.51" fill="url(#b)" stroke="#0ff" stroke-linecap="square" stroke-width="2.9821" style="paint-order:stroke fill markers"/><path d="m250 10a240 240 0 0 0-240 240 240 240 0 0 0 14.184 80.564 240 240 0 0 0 5.791.28907 240 240 0 0 0 240-240 240 240 0 0 0-14.184-80.564 240 240 0 0 0-5.791-.28906z" fill="#eff" style="paint-order:stroke fill markers"/><path d="m27.25 250c0-12.689 1.061-25.13 3.0991-37.24 15.227-90.473 84.996-162.43 174.33-180.9" fill="none" stroke="#fff" stroke-linecap="square" stroke-width="10" style="paint-order:stroke fill markers"/><circle cx="250" cy="250" r="250" fill="none" style="paint-order:stroke fill markers"/><path d="m250 448.81c109.8 0 198.81-89.009 198.81-198.81 0-47.185-16.438-90.531-43.901-124.62l-111.3 76.222c13.227 11.923 21.542 29.192 21.542 48.402 0 35.979-29.166 65.145-65.145 65.145-6.9128 0-13.574-1.0767-19.825-3.0716l-11.472 134.28c10.196 1.6123 20.649 2.4495 31.298 2.4495z" fill="url(#a)" style="paint-order:stroke fill markers"/></svg>
