<svg version="1.1" viewBox="0 0 500 500" xmlns="http://www.w3.org/2000/svg"><defs><clipPath id="a"><path d="m250 0c-137.96 0-250 112.04-250 250s112.04 250 250 250 250-112.04 250-250-112.04-250-250-250zm0 63.139c103.29 0 186.86 83.569 186.86 186.86 0 29.728-6.9337 57.815-19.256 82.754l-250.36-250.36c24.938-12.322 53.026-19.256 82.754-19.256zm-167.61 104.11 250.36 250.36c-24.938 12.322-53.026 19.256-82.754 19.256-103.29 0-186.86-83.569-186.86-186.86 0-29.728 6.9337-57.815 19.256-82.754z" color="#000000" color-rendering="auto" dominant-baseline="auto" fill="#0f0" image-rendering="auto" shape-rendering="auto" solid-color="#000000" style="font-feature-settings:normal;font-variant-alternates:normal;font-variant-caps:normal;font-variant-ligatures:normal;font-variant-numeric:normal;font-variant-position:normal;isolation:auto;mix-blend-mode:normal;paint-order:normal;shape-padding:0;text-decoration-color:#000000;text-decoration-line:none;text-decoration-style:solid;text-indent:0;text-orientation:mixed;text-transform:none;white-space:normal"/></clipPath></defs><path d="m250 0c-137.96 0-250 112.04-250 250s112.04 250 250 250 250-112.04 250-250-112.04-250-250-250zm0 63.139c103.29 0 186.86 83.569 186.86 186.86 0 29.728-6.9337 57.815-19.256 82.754l-250.36-250.36c24.938-12.322 53.026-19.256 82.754-19.256zm-167.61 104.11 250.36 250.36c-24.938 12.322-53.026 19.256-82.754 19.256-103.29 0-186.86-83.569-186.86-186.86 0-29.728 6.9337-57.815 19.256-82.754z" clip-path="url(#a)" color="#000000" color-rendering="auto" dominant-baseline="auto" fill="#fff" fill-opacity=".19608" image-rendering="auto" shape-rendering="auto" solid-color="#000000" stroke="#fff" stroke-linecap="round" stroke-linejoin="round" stroke-width="20" style="font-feature-settings:normal;font-variant-alternates:normal;font-variant-caps:normal;font-variant-ligatures:normal;font-variant-numeric:normal;font-variant-position:normal;isolation:auto;mix-blend-mode:normal;paint-order:normal;shape-padding:0;text-decoration-color:#000000;text-decoration-line:none;text-decoration-style:solid;text-indent:0;text-orientation:mixed;text-transform:none;white-space:normal"/></svg>
