<?xml version="1.0" encoding="UTF-8"?>
<svg version="1.1" viewBox="0 0 500 500" xmlns="http://www.w3.org/2000/svg">
 <path d="m384.83 2.6934-86.371 35.676 86.371 32.295v-24.32h38.627c30.824 0 54.943 23.314 54.943 52.117v328.55c0 28.803-24.119 52.115-54.943 52.115h-346.61c-30.824 0-54.943-23.312-54.943-52.115v-328.55c0-28.803 24.119-52.117 54.943-52.117h79.564v-18.887h-79.564c-40.516 0-73.83 31.599-73.83 71.004v328.55c0 39.405 33.314 71.002 73.83 71.002h346.61c40.516 0 73.83-31.597 73.83-71.002v-328.55c0-39.405-33.314-71.004-73.83-71.004h-38.627v-24.764z" color="#000000" fill="#fff" stroke-linejoin="round" style="-inkscape-stroke:none;paint-order:stroke fill markers"/>
 <g transform="matrix(.78023 0 0 .78023 50.001 60.078)">
  <path d="m223.25 397.21-0.19347 56.091 54.958 0.34147-0.57247-58.391z" fill="#bb3000" stroke="#ffaf46" stroke-width="5.953"/>
  <path d="m249.56 32.886c39.49 63.284 51.059 137.35 110.7 209.39l-54.016-7.5994c31.772 38.599 63.928 67.419 101.87 105.8l-57.137-8.9272c30.908 47.266 59.43 57.022 110.7 96.572-66.42-8.1152-125.1-13.468-186.41-21.101l-51.422-5e-4c-61.3 7.6325-119.99 12.985-186.41 21.101 51.27-39.553 79.793-49.309 110.7-96.572l-57.137 8.9272c37.939-38.376 70.096-67.198 101.87-105.8l-54.016 7.5994c59.641-72.03 71.212-146.1 110.7-209.39" fill="#16b905" stroke-width=".85043"/>
 </g>
</svg>
