<?xml version="1.0" encoding="UTF-8"?>
<svg version="1.1" viewBox="0 0 500 500" xmlns="http://www.w3.org/2000/svg">
 <defs>
  <clipPath id="clipPath3892">
   <path d="m244.72 85.737c30.811 49.376 39.838 107.16 86.371 163.37l-42.145-5.9293c24.789 30.116 49.879 52.602 79.482 82.548l-44.58-6.9653c24.115 36.878 46.369 44.49 86.371 75.348-51.823-6.3317-97.607-10.508-145.44-16.464l-40.121-3.9e-4c-47.828 5.9551-93.62 10.131-145.44 16.464 40.002-30.86 62.257-38.472 86.371-75.348l-44.58 6.9653c29.601-29.942 54.691-52.43 79.482-82.548l-42.145 5.9293c46.534-56.2 55.562-113.99 86.371-163.37" fill="#16b905" stroke-width=".66353"/>
  </clipPath>
 </defs>
 <g fill="#fff">
  <path d="m224.19 369.99-0.15095 43.764 42.88 0.26642-0.44666-45.558z" fill-opacity=".2" stroke="#fff" stroke-width="4.6447"/>
  <path d="m244.72 85.737c30.811 49.376 39.838 107.16 86.371 163.37l-42.145-5.9293c24.789 30.116 49.879 52.602 79.482 82.548l-44.58-6.9653c24.115 36.878 46.369 44.49 86.371 75.348-51.823-6.3317-97.607-10.508-145.44-16.464l-40.121-3.9e-4c-47.828 5.9551-93.62 10.131-145.44 16.464 40.002-30.86 62.257-38.472 86.371-75.348l-44.58 6.9653c29.601-29.942 54.691-52.43 79.482-82.548l-42.145 5.9293c46.534-56.2 55.562-113.99 86.371-163.37" clip-path="url(#clipPath3892)" fill-opacity=".2" stroke="#fff" stroke-width="27"/>
  <path d="m384.83 2.6934-86.371 35.676 86.371 32.295v-24.32h38.627c30.824 0 54.943 23.314 54.943 52.117v328.55c0 28.803-24.119 52.115-54.943 52.115h-346.61c-30.824 0-54.943-23.312-54.943-52.115v-328.55c0-28.803 24.119-52.117 54.943-52.117h79.564v-18.887h-79.564c-40.516 0-73.83 31.599-73.83 71.004v328.55c0 39.405 33.314 71.002 73.83 71.002h346.61c40.516 0 73.83-31.597 73.83-71.002v-328.55c0-39.405-33.314-71.004-73.83-71.004h-38.627v-24.764z" color="#000000" stroke-linejoin="round" style="-inkscape-stroke:none;paint-order:stroke fill markers"/>
 </g>
</svg>
