<?xml version="1.0" encoding="UTF-8" standalone="no"?>
<svg
   version="1.1"
   viewBox="0 0 500 500"
   id="svg12"
   sodipodi:docname="loopTreeWhite.svg"
   inkscape:version="1.1.1 (3bf5ae0d25, 2021-09-20)"
   inkscape:dataloss="true"
   xmlns:inkscape="http://www.inkscape.org/namespaces/inkscape"
   xmlns:sodipodi="http://sodipodi.sourceforge.net/DTD/sodipodi-0.dtd"
   xmlns="http://www.w3.org/2000/svg"
   xmlns:svg="http://www.w3.org/2000/svg">
  <defs
     id="defs16">
    <clipPath
       clipPathUnits="userSpaceOnUse"
       id="clipPath1143">
      <g
         id="g1149">
        <path
           d="m 223.25,397.21 -0.19347,56.091 54.958,0.34147 -0.57247,-58.391 z"
           fill="#bb3000"
           stroke="#ffaf46"
           stroke-width="5.953"
           id="path1145" />
        <path
           d="m 249.56,32.886 c 39.49,63.284 51.059,137.35 110.7,209.39 l -54.016,-7.5994 c 31.772,38.599 63.928,67.419 101.87,105.8 l -57.137,-8.9272 c 30.908,47.266 59.43,57.022 110.7,96.572 -66.42,-8.1152 -125.1,-13.468 -186.41,-21.101 l -51.422,-5e-4 c -61.3,7.6325 -119.99,12.985 -186.41,21.101 51.27,-39.553 79.793,-49.309 110.7,-96.572 l -57.137,8.9272 c 37.939,-38.376 70.096,-67.198 101.87,-105.8 l -54.016,7.5994 c 59.641,-72.03 71.212,-146.1 110.7,-209.39"
           fill="#16b905"
           stroke-width="0.85043"
           id="path1147" />
      </g>
    </clipPath>
  </defs>
  <sodipodi:namedview
     id="namedview14"
     pagecolor="#ffffff"
     bordercolor="#666666"
     borderopacity="1.0"
     inkscape:pageshadow="2"
     inkscape:pageopacity="0.0"
     inkscape:pagecheckerboard="0"
     showgrid="false"
     inkscape:zoom="1.438"
     inkscape:cx="257.99722"
     inkscape:cy="404.03338"
     inkscape:window-width="3840"
     inkscape:window-height="2276"
     inkscape:window-x="-12"
     inkscape:window-y="-12"
     inkscape:window-maximized="1"
     inkscape:current-layer="svg12" />
  <g
     id="g1525">
    <path
       d="m 224.18826,378.1371 -0.15095,35.67048 42.87999,0.21715 -0.44666,-37.13313 z"
       fill="#bb3000"
       stroke="#ffaf46"
       stroke-width="5.953"
       id="path1137"
       style="fill:#ffffff;fill-opacity:0.2;stroke:#ffffff;stroke-width:9.02809;stroke-miterlimit:4;stroke-dasharray:none;stroke-opacity:1" />
    <path
       d="m 244.71616,85.737072 c 30.81137,49.376198 39.83787,107.164868 86.37169,163.372778 l -42.14501,-5.9293 c 24.78953,30.11618 49.87867,52.60247 79.48223,82.54855 l -44.58012,-6.96529 c 24.11541,36.87845 46.36919,44.49039 86.37169,75.34857 -51.82301,-6.33174 -97.60703,-10.50817 -145.44305,-16.46368 l -40.12109,-3.9e-4 c -47.82822,5.95512 -93.62004,10.13132 -145.443048,16.46368 40.002498,-30.86052 62.257048,-38.47246 86.371678,-75.34857 l -44.58011,6.96529 c 29.60122,-29.94218 54.69114,-52.43003 79.48223,-82.54855 l -42.14501,5.9293 c 46.53382,-56.20011 55.56188,-113.9919 86.37168,-163.372779"
       fill="#16b905"
       stroke-width="0.85043"
       id="path1139"
       style="fill:#ffffff;fill-opacity:0.2;stroke:#ffffff;stroke-width:15;stroke-miterlimit:4;stroke-dasharray:none;stroke-opacity:1" />
    <path
       d="m349.83 36.901h73.629c35.67 0 64.386 27.455 64.386 61.559v328.55c0 34.104-28.716 61.559-64.386 61.559h-346.61c-35.67 0-64.386-27.455-64.386-61.559v-328.55c0-34.104 28.716-61.559 64.386-61.559h79.565"
       fill="none"
       stroke="#0f0"
       stroke-linejoin="round"
       stroke-width="18.887"
       style="paint-order:stroke fill markers;stroke:#ffffff;stroke-opacity:1"
       id="path2" />
    <path
       d="M 298.46,38.369402 384.83251,2.6929485 V 70.663508 Z"
       fill="#00ff00"
       id="path4"
       style="stroke-width:1.15163;fill:#ffffff;fill-opacity:1" />
  </g>
</svg>
