<svg version="1.1" viewBox="0 0 500 500" xmlns="http://www.w3.org/2000/svg"><defs><clipPath id="a"><path d="m461.07 25.758a12.712 12.712 0 0 0-.57227.03711l-181.68 15.559a12.712 12.712 0 0 0-7.9141 21.643l54.234 54.352-133.32 131.88 58.688 59.332 133.58-132.13 52.311 52.426a12.712 12.712 0 0 0 21.656-7.8477l16.189-181.41a12.712 12.712 0 0 0-13.174-13.83z" color="#000000" color-rendering="auto" dominant-baseline="auto" fill="#0f0" image-rendering="auto" shape-rendering="auto" solid-color="#000000" style="font-feature-settings:normal;font-variant-alternates:normal;font-variant-caps:normal;font-variant-ligatures:normal;font-variant-numeric:normal;font-variant-position:normal;isolation:auto;mix-blend-mode:normal;shape-padding:0;text-decoration-color:#000000;text-decoration-line:none;text-decoration-style:solid;text-indent:0;text-orientation:mixed;text-transform:none;white-space:normal"/></clipPath></defs><path d="m461.07 25.758a12.712 12.712 0 0 0-.57227.03711l-181.68 15.559a12.712 12.712 0 0 0-7.9141 21.643l54.234 54.352-133.32 131.88 58.688 59.332 133.58-132.13 52.311 52.426a12.712 12.712 0 0 0 21.656-7.8477l16.189-181.41a12.712 12.712 0 0 0-13.174-13.83z" clip-path="url(#a)" color="#000000" color-rendering="auto" dominant-baseline="auto" fill-opacity=".23529" image-rendering="auto" shape-rendering="auto" solid-color="#000000" stroke="#000" stroke-linecap="round" stroke-width="40" style="font-feature-settings:normal;font-variant-alternates:normal;font-variant-caps:normal;font-variant-ligatures:normal;font-variant-numeric:normal;font-variant-position:normal;isolation:auto;mix-blend-mode:normal;shape-padding:0;text-decoration-color:#000000;text-decoration-line:none;text-decoration-style:solid;text-indent:0;text-orientation:mixed;text-transform:none;white-space:normal"/><path d="m221.29 78.707h-138.56c-23.117 0-41.727 18.61-41.727 41.727v297.92c0 23.117 18.61 41.727 41.727 41.727h295.9c23.117 0 41.727-18.61 41.727-41.727v-139.71" fill="none" stroke="#000" stroke-linejoin="round" stroke-width="20"/></svg>
