<svg version="1.1" viewBox="0 0 500 500" xmlns="http://www.w3.org/2000/svg"><path d="m245.92 95.17c-155.37-.31012-244.34 111.28-244.68 148.23-.3895 41.789 90.2 152.29 250.88 151.96 149.48-.31011 247.16-109.16 247.47-149.48.31011-40.315-90.478-150.39-253.67-150.71zm4.0312 25.406a124.38 124.38 0 0 1 124.38 124.38 124.38 124.38 0 0 1-124.38 124.38 124.38 124.38 0 0 1-124.38-124.38 124.38 124.38 0 0 1 124.38-124.38zm0 47.232a77.147 77.147 0 0 0-77.146 77.146 77.147 77.147 0 0 0 77.146 77.146 77.147 77.147 0 0 0 77.146-77.146 77.147 77.147 0 0 0-77.146-77.146z" fill="#fff"/></svg>
