<svg version="1.1" viewBox="0 0 500 500" xmlns="http://www.w3.org/2000/svg"><defs><clipPath id="a"><path d="m219.41 79.943a16.126 16.126 0 0 0-9.8859 3.7452l-177.26 148.22a16.126 16.126 0 0 0-.04416 24.704l176.93 149.02a16.126 16.126 0 0 0 26.513-12.315l.10599-97.407 237.9 1.2967.57768-105.87-238.36-1.2985.10422-93.955a16.126 16.126 0 0 0-16.583-16.134z" color="#000000" color-rendering="auto" dominant-baseline="auto" fill="#0f0" image-rendering="auto" shape-rendering="auto" solid-color="#000000" style="font-feature-settings:normal;font-variant-alternates:normal;font-variant-caps:normal;font-variant-ligatures:normal;font-variant-numeric:normal;font-variant-position:normal;isolation:auto;mix-blend-mode:normal;shape-padding:0;text-decoration-color:#000000;text-decoration-line:none;text-decoration-style:solid;text-indent:0;text-orientation:mixed;text-transform:none;white-space:normal"/></clipPath></defs><path d="m219.41 79.943a16.126 16.126 0 0 0-9.8859 3.7452l-177.26 148.22a16.126 16.126 0 0 0-.04416 24.704l176.93 149.02a16.126 16.126 0 0 0 26.513-12.315l.10599-97.407 237.9 1.2967.57768-105.87-238.36-1.2985.10422-93.955a16.126 16.126 0 0 0-16.583-16.134z" clip-path="url(#a)" color="#000000" color-rendering="auto" dominant-baseline="auto" fill="#fff" fill-opacity=".19608" image-rendering="auto" shape-rendering="auto" solid-color="#000000" stroke="#fff" stroke-linecap="round" stroke-linejoin="round" stroke-width="40" style="font-feature-settings:normal;font-variant-alternates:normal;font-variant-caps:normal;font-variant-ligatures:normal;font-variant-numeric:normal;font-variant-position:normal;isolation:auto;mix-blend-mode:normal;shape-padding:0;text-decoration-color:#000000;text-decoration-line:none;text-decoration-style:solid;text-indent:0;text-orientation:mixed;text-transform:none;white-space:normal"/></svg>
