<svg version="1.1" viewBox="0 0 500 500" xmlns="http://www.w3.org/2000/svg"><path d="m1.5194 258.73s65.734-128.49 228.24-135.04c162.51-6.5472 269.02 124.4 269.02 124.4s-80.342 145.68-236.76 148.95c-156.42 3.2736-260.5-138.31-260.5-138.31z" fill="#fff" stroke-width="1.2682"/><path d="m361.42 243.84a117.41 117.41 0 0 1-117.41 117.41 117.41 117.41 0 0 1-117.41-117.41 117.41 117.41 0 0 1 117.41-117.41 117.41 117.41 0 0 1 117.41 117.41z" fill="#0008ff" stroke-width="1.4451" style="paint-order:normal"/><path d="m280.97 243.84a36.963 36.963 0 0 1-36.963 36.963 36.963 36.963 0 0 1-36.963-36.963 36.963 36.963 0 0 1 36.963-36.963 36.963 36.963 0 0 1 36.963 36.963z" stroke-width="1.4451" style="paint-order:normal"/></svg>
