<svg version="1.1" viewBox="0 0 500 500" xmlns="http://www.w3.org/2000/svg"><path d="m244.83 123.47c-4.9676-.05575-9.9918.0161-15.07.2207-162.49 6.5466-228.23 135.01-228.24 135.04.017834.02426 104.09 141.58 260.5 138.31 156.42-3.2677 236.76-148.95 236.76-148.95s-99.952-122.89-253.95-124.62zm-243.31 135.26-.0019532-.00195v.0039l.0019532-.00195zm242.48-132.3a117.41 117.41 0 0 1 117.41 117.41 117.41 117.41 0 0 1-117.41 117.41 117.41 117.41 0 0 1-117.41-117.41 117.41 117.41 0 0 1 117.41-117.41z" fill="#fff" stroke-width="1.2682"/><path d="m280.97 243.84a36.963 36.963 0 0 1-36.963 36.963 36.963 36.963 0 0 1-36.963-36.963 36.963 36.963 0 0 1 36.963-36.963 36.963 36.963 0 0 1 36.963 36.963z" stroke-width="1.4451" style="paint-order:normal"/></svg>
