<svg version="1.1" viewBox="0 0 500 500" xmlns="http://www.w3.org/2000/svg"><defs><clipPath id="a"><path d="m1140.4 351.84.137 42.742c.092 28.938-13.692 52.19-30.906 52.135l-469.81-1.5115c-17.214-.05536-31.147-23.397-31.24-52.334l-.13661-42.742c-.0924-28.938 13.692-52.19 30.906-52.135l469.81 1.5115c17.214.0554 31.147 23.397 31.24 52.334z" fill="#ff0" stroke="#0ff" stroke-width="27" style="paint-order:stroke markers fill"/></clipPath></defs><path transform="matrix(.70936 .70484 -.70938 .70483 0 0)" d="m330.52-299.05h42.74c28.938 0 52.235 13.859 52.235 31.073v469.8l-8.3352 2.6373-32.753-24.815-32.952 25.63-32.56-25.633-32.75 25.629-7.8592-3.4475v-469.8c0-17.214 23.297-31.073 52.235-31.073z" fill="#fff" fill-opacity=".19608" stroke-width="1.6303" style="paint-order:stroke markers fill"/><g><g fill="#fff"><rect transform="matrix(.70936 .70484 -.70938 .70483 0 0)" x="277.66" y="-234.58" width="148.45" height="21.353" style="paint-order:stroke markers fill"/><path d="m150.87 438.14-5.6301-40.576-41.556-5.1614-4.9131-41.017-41.452-4.9818m.03923-.0378-47.867 143.38 141.38-51.597" fill="#fff" fill-opacity=".19608" stroke="#fff" stroke-linecap="round" stroke-linejoin="round" stroke-width="15.438"/><path d="m30.869 426.44 44.554 44.001-62.916 18.38z" stroke-width="1.6303"/></g><path transform="rotate(-45 395.52 1024.6)" d="m541.2 297.99 561.82 1.5115c20.585.0554 37.247 23.397 37.358 52.334l.1634 42.742c.1106 28.938-16.374 52.19-36.959 52.135l-561.82-1.5115-3.19-9.1443 29.55-32.673-30.774-33.034 30.528-32.477-30.839-32.834z" clip-path="url(#a)" fill="none" stroke="#fff" stroke-width="29.525" style="paint-order:stroke markers fill"/></g></svg>
