<svg version="1.1" viewBox="0 0 500 500" xmlns="http://www.w3.org/2000/svg"><defs><clipPath id="a"><path d="m724.34-225.8h42.742c28.938 0 52.235 13.859 52.235 31.073v469.81c0 17.214-23.297 31.073-52.235 31.073h-42.742c-28.938 0-52.235-13.859-52.235-31.073v-469.81c0-17.214 23.297-31.073 52.235-31.073z" fill="#ff0" stroke="#0ff" stroke-width="27" style="paint-order:stroke markers fill"/></clipPath></defs><rect transform="matrix(.70936 .70484 -.70938 .70483 0 0)" x="278.28" y="-299.05" width="147.21" height="531.95" rx="52.235" ry="31.073" fill="#fff" fill-opacity=".19608" stroke-width="1.6303" style="paint-order:stroke markers fill"/><path transform="matrix(.70936 .70484 -.70938 .70483 -226.83 -328.65)" d="m672.1 275.08v-469.81c0-17.214 23.297-31.073 52.235-31.073h42.742c28.938 0 52.235 13.859 52.235 31.073v469.81l-9.1359 2.6384-32.753-24.815-32.952 25.629-32.56-25.633-32.752 25.684z" clip-path="url(#a)" fill="none" stroke="#fff" stroke-width="27" style="paint-order:stroke markers fill"/><g fill="#fff"><rect transform="matrix(.70936 .70484 -.70938 .70483 0 0)" x="277.66" y="-234.58" width="148.45" height="21.353" style="paint-order:stroke markers fill"/><path d="m150.87 438.14-5.6301-40.576-41.556-5.1614-4.9131-41.017-41.452-4.9818m.03923-.0378-47.867 143.38 141.38-51.597" fill-opacity=".19608" stroke="#fff" stroke-linecap="round" stroke-linejoin="round" stroke-width="15.438"/><path d="m30.869 426.44 44.554 44.001-62.916 18.38z" stroke-width="1.6303"/></g></svg>
