<svg version="1.1" viewBox="0 0 1500 500" xmlns="http://www.w3.org/2000/svg"><defs><clipPath id="a"><path d="m16 35a15.002 15.002 0 0 0-1.4961.0957 15.002 15.002 0 0 0-2.9277.63672 15.002 15.002 0 0 0-1.4004.53516 15.002 15.002 0 0 0-2.6074 1.4727 15.002 15.002 0 0 0-1.1816.92383 15.002 15.002 0 0 0-2.0566 2.1777 15.002 15.002 0 0 0-.85547 1.2324 15.002 15.002 0 0 0-.72656 1.3105 15.002 15.002 0 0 0-1.0469 2.8066 15.002 15.002 0 0 0-.30664 1.4688 15.002 15.002 0 0 0-.16016 1.4902 15.002 15.002 0 0 0 .41797 4.4648 15.002 15.002 0 0 0 1.0078 2.8203 15.002 15.002 0 0 0 1.5488 2.5645 15.002 15.002 0 0 0 .95898 1.1523 15.002 15.002 0 0 0 4.8262 3.5 15.002 15.002 0 0 0 2.8359.96289 15.002 15.002 0 0 0 2.9707.38086 15.002 15.002 0 0 0 .19922.003906h1468a15.002 15.002 0 0 0 1.4961-.0957 15.002 15.002 0 0 0 2.9277-.63672 15.002 15.002 0 0 0 4.0078-2.0078 15.002 15.002 0 0 0 1.1817-.92383 15.002 15.002 0 0 0 2.9121-3.4102 15.002 15.002 0 0 0 .7266-1.3105 15.002 15.002 0 0 0 1.3535-4.2754 15.002 15.002 0 0 0 .1601-1.4902 15.002 15.002 0 0 0 .01-1.5 15.002 15.002 0 0 0-1.4356-5.7852 15.002 15.002 0 0 0-.7109-1.3203 15.002 15.002 0 0 0-.8381-1.2441 15.002 15.002 0 0 0-2.0273-2.2051 15.002 15.002 0 0 0-1.168-.93945 15.002 15.002 0 0 0-1.2578-.81836 15.002 15.002 0 0 0-1.332-.68945 15.002 15.002 0 0 0-1.3926-.55273 15.002 15.002 0 0 0-1.4434-.41016 15.002 15.002 0 0 0-2.9707-.38086 15.002 15.002 0 0 0-.1992-.003906z" color="#000000" color-rendering="auto" dominant-baseline="auto" fill="#fff" fill-opacity=".19608" image-rendering="auto" shape-rendering="auto" solid-color="#000000" style="font-feature-settings:normal;font-variant-alternates:normal;font-variant-caps:normal;font-variant-ligatures:normal;font-variant-numeric:normal;font-variant-position:normal;isolation:auto;mix-blend-mode:normal;shape-padding:0;text-decoration-color:#000000;text-decoration-line:none;text-decoration-style:solid;text-indent:0;text-orientation:mixed;text-transform:none;white-space:normal"/></clipPath></defs><g fill="#fff" fill-opacity=".19608" shape-rendering="auto" stroke="#fff" stroke-linecap="round" stroke-linejoin="round" stroke-width="10"><path d="m16 35a15.002 15.002 0 0 0-1.4961.0957 15.002 15.002 0 0 0-2.9277.63672 15.002 15.002 0 0 0-1.4004.53516 15.002 15.002 0 0 0-2.6074 1.4727 15.002 15.002 0 0 0-1.1816.92383 15.002 15.002 0 0 0-2.0566 2.1777 15.002 15.002 0 0 0-.85547 1.2324 15.002 15.002 0 0 0-.72656 1.3105 15.002 15.002 0 0 0-1.0469 2.8066 15.002 15.002 0 0 0-.30664 1.4688 15.002 15.002 0 0 0-.16016 1.4902 15.002 15.002 0 0 0 .41797 4.4648 15.002 15.002 0 0 0 1.0078 2.8203 15.002 15.002 0 0 0 1.5488 2.5645 15.002 15.002 0 0 0 .95898 1.1523 15.002 15.002 0 0 0 4.8262 3.5 15.002 15.002 0 0 0 2.8359.96289 15.002 15.002 0 0 0 2.9707.38086 15.002 15.002 0 0 0 .19922.003906h1468a15.002 15.002 0 0 0 1.4961-.0957 15.002 15.002 0 0 0 2.9277-.63672 15.002 15.002 0 0 0 4.0078-2.0078 15.002 15.002 0 0 0 1.1817-.92383 15.002 15.002 0 0 0 2.9121-3.4102 15.002 15.002 0 0 0 .7266-1.3105 15.002 15.002 0 0 0 1.3535-4.2754 15.002 15.002 0 0 0 .1601-1.4902 15.002 15.002 0 0 0 .01-1.5 15.002 15.002 0 0 0-1.4356-5.7852 15.002 15.002 0 0 0-.7109-1.3203 15.002 15.002 0 0 0-.8381-1.2441 15.002 15.002 0 0 0-2.0273-2.2051 15.002 15.002 0 0 0-1.168-.93945 15.002 15.002 0 0 0-1.2578-.81836 15.002 15.002 0 0 0-1.332-.68945 15.002 15.002 0 0 0-1.3926-.55273 15.002 15.002 0 0 0-1.4434-.41016 15.002 15.002 0 0 0-2.9707-.38086 15.002 15.002 0 0 0-.1992-.003906z" clip-path="url(#a)" color="#000000" color-rendering="auto" dominant-baseline="auto" image-rendering="auto" solid-color="#000000" style="font-feature-settings:normal;font-variant-alternates:normal;font-variant-caps:normal;font-variant-ligatures:normal;font-variant-numeric:normal;font-variant-position:normal;isolation:auto;mix-blend-mode:normal;shape-padding:0;text-decoration-color:#000000;text-decoration-line:none;text-decoration-style:solid;text-indent:0;text-orientation:mixed;text-transform:none;white-space:normal"/><path transform="translate(0,100)" d="m16 35a15.002 15.002 0 0 0-1.4961.0957 15.002 15.002 0 0 0-2.9277.63672 15.002 15.002 0 0 0-1.4004.53516 15.002 15.002 0 0 0-2.6074 1.4727 15.002 15.002 0 0 0-1.1816.92383 15.002 15.002 0 0 0-2.0566 2.1777 15.002 15.002 0 0 0-.85547 1.2324 15.002 15.002 0 0 0-.72656 1.3105 15.002 15.002 0 0 0-1.0469 2.8066 15.002 15.002 0 0 0-.30664 1.4688 15.002 15.002 0 0 0-.16016 1.4902 15.002 15.002 0 0 0 .41797 4.4648 15.002 15.002 0 0 0 1.0078 2.8203 15.002 15.002 0 0 0 1.5488 2.5645 15.002 15.002 0 0 0 .95898 1.1523 15.002 15.002 0 0 0 4.8262 3.5 15.002 15.002 0 0 0 2.8359.96289 15.002 15.002 0 0 0 2.9707.38086 15.002 15.002 0 0 0 .19922.003906h1468a15.002 15.002 0 0 0 1.4961-.0957 15.002 15.002 0 0 0 2.9277-.63672 15.002 15.002 0 0 0 4.0078-2.0078 15.002 15.002 0 0 0 1.1817-.92383 15.002 15.002 0 0 0 2.9121-3.4102 15.002 15.002 0 0 0 .7266-1.3105 15.002 15.002 0 0 0 1.3535-4.2754 15.002 15.002 0 0 0 .1601-1.4902 15.002 15.002 0 0 0 .01-1.5 15.002 15.002 0 0 0-1.4356-5.7852 15.002 15.002 0 0 0-.7109-1.3203 15.002 15.002 0 0 0-.8381-1.2441 15.002 15.002 0 0 0-2.0273-2.2051 15.002 15.002 0 0 0-1.168-.93945 15.002 15.002 0 0 0-1.2578-.81836 15.002 15.002 0 0 0-1.332-.68945 15.002 15.002 0 0 0-1.3926-.55273 15.002 15.002 0 0 0-1.4434-.41016 15.002 15.002 0 0 0-2.9707-.38086 15.002 15.002 0 0 0-.1992-.003906z" clip-path="url(#a)" color="#000000" color-rendering="auto" dominant-baseline="auto" image-rendering="auto" solid-color="#000000" style="font-feature-settings:normal;font-variant-alternates:normal;font-variant-caps:normal;font-variant-ligatures:normal;font-variant-numeric:normal;font-variant-position:normal;isolation:auto;mix-blend-mode:normal;shape-padding:0;text-decoration-color:#000000;text-decoration-line:none;text-decoration-style:solid;text-indent:0;text-orientation:mixed;text-transform:none;white-space:normal"/><path transform="translate(0,200)" d="m16 35a15.002 15.002 0 0 0-1.4961.0957 15.002 15.002 0 0 0-2.9277.63672 15.002 15.002 0 0 0-1.4004.53516 15.002 15.002 0 0 0-2.6074 1.4727 15.002 15.002 0 0 0-1.1816.92383 15.002 15.002 0 0 0-2.0566 2.1777 15.002 15.002 0 0 0-.85547 1.2324 15.002 15.002 0 0 0-.72656 1.3105 15.002 15.002 0 0 0-1.0469 2.8066 15.002 15.002 0 0 0-.30664 1.4688 15.002 15.002 0 0 0-.16016 1.4902 15.002 15.002 0 0 0 .41797 4.4648 15.002 15.002 0 0 0 1.0078 2.8203 15.002 15.002 0 0 0 1.5488 2.5645 15.002 15.002 0 0 0 .95898 1.1523 15.002 15.002 0 0 0 4.8262 3.5 15.002 15.002 0 0 0 2.8359.96289 15.002 15.002 0 0 0 2.9707.38086 15.002 15.002 0 0 0 .19922.003906h1468a15.002 15.002 0 0 0 1.4961-.0957 15.002 15.002 0 0 0 2.9277-.63672 15.002 15.002 0 0 0 4.0078-2.0078 15.002 15.002 0 0 0 1.1817-.92383 15.002 15.002 0 0 0 2.9121-3.4102 15.002 15.002 0 0 0 .7266-1.3105 15.002 15.002 0 0 0 1.3535-4.2754 15.002 15.002 0 0 0 .1601-1.4902 15.002 15.002 0 0 0 .01-1.5 15.002 15.002 0 0 0-1.4356-5.7852 15.002 15.002 0 0 0-.7109-1.3203 15.002 15.002 0 0 0-.8381-1.2441 15.002 15.002 0 0 0-2.0273-2.2051 15.002 15.002 0 0 0-1.168-.93945 15.002 15.002 0 0 0-1.2578-.81836 15.002 15.002 0 0 0-1.332-.68945 15.002 15.002 0 0 0-1.3926-.55273 15.002 15.002 0 0 0-1.4434-.41016 15.002 15.002 0 0 0-2.9707-.38086 15.002 15.002 0 0 0-.1992-.003906z" clip-path="url(#a)" color="#000000" color-rendering="auto" dominant-baseline="auto" image-rendering="auto" solid-color="#000000" style="font-feature-settings:normal;font-variant-alternates:normal;font-variant-caps:normal;font-variant-ligatures:normal;font-variant-numeric:normal;font-variant-position:normal;isolation:auto;mix-blend-mode:normal;shape-padding:0;text-decoration-color:#000000;text-decoration-line:none;text-decoration-style:solid;text-indent:0;text-orientation:mixed;text-transform:none;white-space:normal"/><path transform="translate(0,300)" d="m16 35a15.002 15.002 0 0 0-1.4961.0957 15.002 15.002 0 0 0-2.9277.63672 15.002 15.002 0 0 0-1.4004.53516 15.002 15.002 0 0 0-2.6074 1.4727 15.002 15.002 0 0 0-1.1816.92383 15.002 15.002 0 0 0-2.0566 2.1777 15.002 15.002 0 0 0-.85547 1.2324 15.002 15.002 0 0 0-.72656 1.3105 15.002 15.002 0 0 0-1.0469 2.8066 15.002 15.002 0 0 0-.30664 1.4688 15.002 15.002 0 0 0-.16016 1.4902 15.002 15.002 0 0 0 .41797 4.4648 15.002 15.002 0 0 0 1.0078 2.8203 15.002 15.002 0 0 0 1.5488 2.5645 15.002 15.002 0 0 0 .95898 1.1523 15.002 15.002 0 0 0 4.8262 3.5 15.002 15.002 0 0 0 2.8359.96289 15.002 15.002 0 0 0 2.9707.38086 15.002 15.002 0 0 0 .19922.003906h1468a15.002 15.002 0 0 0 1.4961-.0957 15.002 15.002 0 0 0 2.9277-.63672 15.002 15.002 0 0 0 4.0078-2.0078 15.002 15.002 0 0 0 1.1817-.92383 15.002 15.002 0 0 0 2.9121-3.4102 15.002 15.002 0 0 0 .7266-1.3105 15.002 15.002 0 0 0 1.3535-4.2754 15.002 15.002 0 0 0 .1601-1.4902 15.002 15.002 0 0 0 .01-1.5 15.002 15.002 0 0 0-1.4356-5.7852 15.002 15.002 0 0 0-.7109-1.3203 15.002 15.002 0 0 0-.8381-1.2441 15.002 15.002 0 0 0-2.0273-2.2051 15.002 15.002 0 0 0-1.168-.93945 15.002 15.002 0 0 0-1.2578-.81836 15.002 15.002 0 0 0-1.332-.68945 15.002 15.002 0 0 0-1.3926-.55273 15.002 15.002 0 0 0-1.4434-.41016 15.002 15.002 0 0 0-2.9707-.38086 15.002 15.002 0 0 0-.1992-.003906z" clip-path="url(#a)" color="#000000" color-rendering="auto" dominant-baseline="auto" image-rendering="auto" solid-color="#000000" style="font-feature-settings:normal;font-variant-alternates:normal;font-variant-caps:normal;font-variant-ligatures:normal;font-variant-numeric:normal;font-variant-position:normal;isolation:auto;mix-blend-mode:normal;shape-padding:0;text-decoration-color:#000000;text-decoration-line:none;text-decoration-style:solid;text-indent:0;text-orientation:mixed;text-transform:none;white-space:normal"/><path transform="translate(0,400)" d="m16 35a15.002 15.002 0 0 0-1.4961.0957 15.002 15.002 0 0 0-2.9277.63672 15.002 15.002 0 0 0-1.4004.53516 15.002 15.002 0 0 0-2.6074 1.4727 15.002 15.002 0 0 0-1.1816.92383 15.002 15.002 0 0 0-2.0566 2.1777 15.002 15.002 0 0 0-.85547 1.2324 15.002 15.002 0 0 0-.72656 1.3105 15.002 15.002 0 0 0-1.0469 2.8066 15.002 15.002 0 0 0-.30664 1.4688 15.002 15.002 0 0 0-.16016 1.4902 15.002 15.002 0 0 0 .41797 4.4648 15.002 15.002 0 0 0 1.0078 2.8203 15.002 15.002 0 0 0 1.5488 2.5645 15.002 15.002 0 0 0 .95898 1.1523 15.002 15.002 0 0 0 4.8262 3.5 15.002 15.002 0 0 0 2.8359.96289 15.002 15.002 0 0 0 2.9707.38086 15.002 15.002 0 0 0 .19922.003906h1468a15.002 15.002 0 0 0 1.4961-.0957 15.002 15.002 0 0 0 2.9277-.63672 15.002 15.002 0 0 0 4.0078-2.0078 15.002 15.002 0 0 0 1.1817-.92383 15.002 15.002 0 0 0 2.9121-3.4102 15.002 15.002 0 0 0 .7266-1.3105 15.002 15.002 0 0 0 1.3535-4.2754 15.002 15.002 0 0 0 .1601-1.4902 15.002 15.002 0 0 0 .01-1.5 15.002 15.002 0 0 0-1.4356-5.7852 15.002 15.002 0 0 0-.7109-1.3203 15.002 15.002 0 0 0-.8381-1.2441 15.002 15.002 0 0 0-2.0273-2.2051 15.002 15.002 0 0 0-1.168-.93945 15.002 15.002 0 0 0-1.2578-.81836 15.002 15.002 0 0 0-1.332-.68945 15.002 15.002 0 0 0-1.3926-.55273 15.002 15.002 0 0 0-1.4434-.41016 15.002 15.002 0 0 0-2.9707-.38086 15.002 15.002 0 0 0-.1992-.003906z" clip-path="url(#a)" color="#000000" color-rendering="auto" dominant-baseline="auto" image-rendering="auto" solid-color="#000000" style="font-feature-settings:normal;font-variant-alternates:normal;font-variant-caps:normal;font-variant-ligatures:normal;font-variant-numeric:normal;font-variant-position:normal;isolation:auto;mix-blend-mode:normal;shape-padding:0;text-decoration-color:#000000;text-decoration-line:none;text-decoration-style:solid;text-indent:0;text-orientation:mixed;text-transform:none;white-space:normal"/></g></svg>
