<?xml version="1.0" encoding="UTF-8" standalone="no"?>
<svg
   xmlns:dc="http://purl.org/dc/elements/1.1/"
   xmlns:cc="http://creativecommons.org/ns#"
   xmlns:rdf="http://www.w3.org/1999/02/22-rdf-syntax-ns#"
   xmlns:svg="http://www.w3.org/2000/svg"
   xmlns="http://www.w3.org/2000/svg"
   xmlns:sodipodi="http://sodipodi.sourceforge.net/DTD/sodipodi-0.dtd"
   xmlns:inkscape="http://www.inkscape.org/namespaces/inkscape"
   version="1.1"
   viewBox="0 0 1500 500"
   id="svg821"
   sodipodi:docname="properties9.svg"
   inkscape:version="0.92.3 (2405546, 2018-03-11)"
   width="1500"
   height="500">
  <metadata
     id="metadata827">
    <rdf:RDF>
      <cc:Work
         rdf:about="">
        <dc:format>image/svg+xml</dc:format>
        <dc:type
           rdf:resource="http://purl.org/dc/dcmitype/StillImage" />
        <dc:title />
      </cc:Work>
    </rdf:RDF>
  </metadata>
  <defs
     id="defs825" />
  <sodipodi:namedview
     pagecolor="#ffffff"
     bordercolor="#666666"
     borderopacity="1"
     objecttolerance="10"
     gridtolerance="10"
     guidetolerance="10"
     inkscape:pageopacity="0"
     inkscape:pageshadow="2"
     inkscape:window-width="3000"
     inkscape:window-height="1895"
     id="namedview823"
     showgrid="false"
     inkscape:zoom="1.3092025"
     inkscape:cx="594.65092"
     inkscape:cy="277.07398"
     inkscape:window-x="-13"
     inkscape:window-y="-13"
     inkscape:window-maximized="1"
     inkscape:current-layer="svg821" />
  <path
     style="fill:none;stroke:#000000;stroke-width:30;stroke-linecap:round;stroke-linejoin:round;stroke-opacity:1;stroke-miterlimit:4;stroke-dasharray:none"
     d="M 50 50 L 1484 50 L 50 50 z M 50 150 L 1484 150 L 50 150 z M 50 250 L 1484 250 L 50 250 z M 50 350 L 1484 350 L 50 350 z M 50 450 L 1484 450 L 50 450 z "
     id="path2138" />
  <path
     style="fill:none;stroke:#000000;stroke-width:1px;stroke-linecap:butt;stroke-linejoin:miter;stroke-opacity:1"
     d="m 601.12932,621.44799 6.11061,-750.83881"
     id="path2148"
     inkscape:connector-curvature="0"
     sodipodi:nodetypes="cc" />
  <g
     transform="translate(1.9909639,0.10378628)"
     id="g3905">
    <path
       style="fill:#00ffff"
       inkscape:connector-curvature="0"
       d="m 254.99,499.43 c 53.942,1.1235 60.891,-42.634 60.705,-65.868 -0.25563,-31.95 -19.656,-42.806 -20.471,-70.165 -0.76667,-25.732 14.557,-46.917 48.47,-35.58 33.913,11.336 107.53,20.314 149.72,17.08 3.384,-20.519 14.08,-108.35 -4.8454,-117.18 -49.99,-23.313 -45.971,42.011 -133.39,34.009 -87.421,-8.0021 -44.464,-105.27 12.367,-108.2 48.297,-2.4917 49.432,22.582 108.21,19.512 24.227,-1.2651 28.53,-142.14 18.734,-162.39 -36.605,-8.94 -212.05,-18.533 -218.28,4.9933 -8.7343,32.994 29.68,36.604 27.42,79.282 -2.2609,42.678 -38.89,58.106 -78.079,56.772 -39.189,-1.3337 -59,-37.425 -46.942,-74.101 12.058,-36.676 30.923,-26.872 23.827,-64.227 -4.6098,-24.269 -144.28,-10.424 -198.86,16.354 -5.1676,39.375 -4.8439,129.27 18.706,139.79 42.518,18.98 41.279,-16.332 91.736,-15.145 34.516,0.81159 66.031,19.686 63.77,56.363 -2.2609,36.676 -17.769,63.196 -59.703,60.527 -41.202,-2.622 -40.961,-28.401 -83.581,-24.682 -28.132,2.4547 -33.854,117.98 -33.854,117.98 0,0 130.84,-10.992 168.81,-25.826 31.177,-12.18 58.95,-5.9188 55.429,18.882 -4.5833,32.282 -34.937,35.806 -37.042,78.832 -2.4515,50.113 32.146,62.255 67.141,62.984 z"
       id="path3903" />
  </g>
</svg>
