<svg version="1.1" viewBox="0 0 490.57 492.99" xmlns="http://www.w3.org/2000/svg"><g><rect x="18" y="18" width="454.57" height="456.99" rx="50" ry="50" fill="none"/><g transform="matrix(1.3401 0 0 1.3401 -83.412 -83.691)" stroke-width="27"><path d="m115.6 318.04c-11.823-21.287-18.556-45.791-18.556-71.868-5e-6-81.866 66.365-148.23 148.23-148.23" fill="none" stroke="#008000" style="paint-order:stroke markers fill"/><path d="m167.49 398.17-18.684-121.33-87.585 42.524z" fill="#008000"/></g><g transform="matrix(-1.3401 0 0 -1.3401 573.93 575.85)" stroke-width="27"><path d="m115.6 318.04c-11.823-21.287-18.556-45.791-18.556-71.868-5e-6-81.866 66.365-148.23 148.23-148.23" fill="none" stroke="#008000" style="paint-order:stroke markers fill"/><path d="m167.49 398.17-18.684-121.33-87.585 42.524z" fill="#008000"/></g></g><path d="m252.61 115.33c22.502 31.734 29.094 68.876 63.078 105l-30.779-3.8108c18.104 19.356 36.427 33.808 58.045 53.053l-32.557-4.4765c17.612 23.702 33.864 28.594 63.078 48.428-37.847-4.0694-71.287-6.7535-106.22-10.581l-1.2845 17.553-26.843-.12725-1.1732-17.426c-34.929 3.8274-68.369 6.5115-106.22 10.581 29.214-19.834 45.467-24.726 63.078-48.428l-32.557 4.4765c21.618-19.244 39.941-33.697 58.045-53.053l-30.779 3.8108c33.984-36.12 40.577-73.261 63.078-105" fill="#008000"/></svg>
