<svg version="1.1" viewBox="0 0 490.57 492.99" xmlns="http://www.w3.org/2000/svg"><g><path d="m147.69 354.37c-34.174 7.0721-71.619 11.394-70.892-41.647-35.991-1.1787-37.747-20.26-38.536-50.29-51.652-40.166-43.057-110.29-18.541-125.73-15.302-59.046 51.523-70.539 78.233-65.561 8.1493-41.745 45.958-43.876 94.09-43.27 30.061-25.228 117.53-50.961 156.69 12.18 81.948-.49004 104.46 14.625 101.43 60.506 55.296 19.966 41.445 85.651 26.539 141.83 16.723 44.397-2.5448 128.08-81.435 128.87-46.171 39.682-83.98 16.894-134.51-2.7503-66.529 51.076-113.06-14.144-113.06-14.144z"/><path d="m170.93 486.29c17.977-33.211 11.274-62.157 11.274-62.157s-45.704-26.203-54.235-42.961-22.242-29.25-22.242-29.25l27.422 2.7422c5.4963-2.2004-4.388-.79746-.91407 10.359 2.1939 7.0461 18.062 29.38 51.493 47.227.5938-21.535-20.11-44.485-20.11-44.485l18.586-1.8282 16.453 47.227 12.167-28.872c9.8585-.83693 12.318-23.285 29.88-12.566l32.297-17.063c-16.374 15.944-42.047 17.425-45.399 53.626 25.594-11.07 93.401-27.404 116.09-31.688 89.383-6.2415-90.588 21.236-109.08 49.969-21.551 39.108-7.5157 30.368-11.578 42.352l11.883 24.375c-9.4202-2.5493 4.4631 4.2228-30.469-8.5314-11.784-5.617-22.479-.33138-33.516 1.5235z"/></g><g><rect x="18" y="18" width="454.57" height="456.99" rx="50" ry="50" fill="none"/><g transform="matrix(.85738 0 0 .85738 34.98 28.28)" stroke-width="27"><path d="m115.6 270.24c-11.823-21.287-18.556-45.791-18.556-71.868-5e-6-81.866 66.365-148.23 148.23-148.23" fill="none" stroke="#fff" style="paint-order:stroke markers fill"/><path d="m167.49 350.37-18.684-121.33-87.585 42.524z" fill="#fffff9"/><path d="m374.92 126.32c11.823 21.287 18.556 45.791 18.556 71.868 0 81.866-66.365 148.23-148.23 148.23" fill="none" stroke="#fff" style="paint-order:stroke markers fill"/><path d="m323.03 46.195 18.684 121.33 87.585-42.524z" fill="#fffff9"/></g></g></svg>
