<svg version="1.1" viewBox="0 0 500 500" xmlns="http://www.w3.org/2000/svg"><defs><clipPath id="a"><path d="m7.1063 493.42c-15.639-6.6361 7.3648-53.107 35.577-101.89 2.1952-3.7957 126.13 24.71 10.687-19.121-12.193-4.6294 6.1596-14.102 12.581-23.995 8.4932-13.085 16.33-14.501 24.883-36.31 1.5892-4.0522 88.255 41.908 88.669 40.99 2.5734-5.694-60.242-52.809-74.678-54.954-13.252-1.9691 17.319-31.846 50.344-62.92 147.66 54.318 64.049 8.5761 10.158-9.5357 16.669-15.634 42.892-26.652 37.001-40.312-4.0017-9.28 77.34 25.596 81.843 26.476 9.4317 1.8442-61.839-43.834-64.831-42.143-25.431 14.368 71.399-87.775 94.936-86.722 23.538 1.0533 40.015 12.288 52.568 18.608 12.554 6.3198 60.414 17.204 72.183 35.813 5.4513 8.6193 11.574 31.021-7.0027 40.9-3.6522 1.9421-86.525-38.302-83.607-34.026 1.2812 1.8781 76.151 48.731 70.617 54.929-12.226 13.692-23.958 30.462-39.245 45.283-6.8947 6.6849-18.066 32.313-25.763 22.361-3.5741-4.6213-77.126-31.251-73.134-26.263.98872 1.2356 61.627 37.914 53.455 41.711-29.332 13.63-53.068 36.282-81.453 50.82-2.3318 1.1942-48.619-26.237-51.812-23.503-2.5007 2.1429 43.691 31.251 33.031 43.212-14.114 15.836-27.639 27.494-33.605 35.262-21.577 28.088-65.121 62.145-99.252 80.051-27.579 14.47-57.834 40.69-94.152 25.279z" fill="#ffac00" stroke-width="1.1071"/></clipPath></defs><g fill="#fff" stroke-width="1.1071"><path d="m365.67 99.478c12.946-9.8308 32.953-37.919 23.538-52.665-9.4152-14.746-2.7461-44.941-2.7461-44.941l25.892 1.0533-2.3538 37.919 3.1384 18.257s-2.7461 15.448-19.615 33.354c-16.869 17.906-19.615 21.066-19.615 21.066z"/><path d="m411.56 46.465c19.222-16.853 45.507-34.408 45.507-34.408l13.73 17.555-61.198 47.75s-22.174 26.929-27.273 34.654c-5.0999 7.7243-12.882-6.532-12.882-6.532z"/><path d="m396.27 122.66s14.123-15.097 25.108-18.257c10.984-3.1599 76.891-17.555 78.067-33.705 1.1768-16.151-4.3152-27.034-4.3152-27.034l-17.654-9.8308s1.5691 20.013-6.2768 25.279c-7.8459 5.2665-38.446 11.586-55.706 23.524-17.261 11.937-41.583 30.897-41.583 30.897z"/></g><path d="m7.1063 493.42c-15.639-6.6361 7.3648-53.107 35.577-101.89 2.1952-3.7957 126.13 24.71 10.687-19.121-12.193-4.6294 6.1596-14.102 12.581-23.995 8.4932-13.085 16.33-14.501 24.883-36.31 1.5892-4.0522 88.255 41.908 88.669 40.99 2.5734-5.694-60.242-52.809-74.678-54.954-13.252-1.9691 17.319-31.846 50.344-62.92 147.66 54.318 64.049 8.5761 10.158-9.5357 16.669-15.634 42.892-26.652 37.001-40.312-4.0017-9.28 77.34 25.596 81.843 26.476 9.4317 1.8442-61.839-43.834-64.831-42.143-25.431 14.368 71.399-87.775 94.936-86.722 23.538 1.0533 40.015 12.288 52.568 18.608 12.554 6.3198 60.414 17.204 72.183 35.813 5.4513 8.6193 11.574 31.021-7.0027 40.9-3.6522 1.9421-86.525-38.302-83.607-34.026 1.2812 1.8781 76.151 48.731 70.617 54.929-12.226 13.692-23.958 30.462-39.245 45.283-6.8947 6.6849-18.066 32.313-25.763 22.361-3.5741-4.6213-77.126-31.251-73.134-26.263.98872 1.2356 61.627 37.914 53.455 41.711-29.332 13.63-53.068 36.282-81.453 50.82-2.3318 1.1942-48.619-26.237-51.812-23.503-2.5007 2.1429 43.691 31.251 33.031 43.212-14.114 15.836-27.639 27.494-33.605 35.262-21.577 28.088-65.121 62.145-99.252 80.051-27.579 14.47-57.834 40.69-94.152 25.279z" clip-path="url(#a)" fill="#fff" fill-opacity=".19608" stroke="#ffc800" stroke-width="20"/></svg>
