<svg version="1.1" viewBox="0 0 2200 500" xmlns="http://www.w3.org/2000/svg"><path d="m258.67 231.85c4.7255 15.74 2.6494 33.363-7.1539 48.606l-90.746 141.1c-17.831 27.726-53.422 35.456-81.148 17.626-27.726-17.831-35.456-53.422-17.626-81.148l90.746-141.1c11.472-17.838 30.294-27.4 49.644-27.203l29.242-46c-44.87-12.514-94.785 4.8782-121.22 45.979l-90.746 141.1c-32.442 50.446-17.713 118.26 32.734 150.7 50.446 32.442 118.26 17.713 150.7-32.734l90.746-141.1c25.073-38.987 21.97-88.35-4.0205-123.74l-31.156 47.909" color="#000000" color-rendering="auto" dominant-baseline="auto" fill="#8fe1ff" image-rendering="auto" shape-rendering="auto" solid-color="#000000" stroke-width="1.6777" style="paint-order:stroke markers fill"/><path d="m270.24 364.06c44.722 12.21 94.329-5.2076 120.65-46.135l90.746-141.1c32.442-50.446 17.713-118.26-32.734-150.7-50.446-32.442-118.26-17.713-150.7 32.734l-90.746 141.1c-25.077 38.993-21.968 88.363 4.031 123.75l31.012-48.374c-4.5519-15.625-2.4214-33.057 7.2884-48.155l90.746-141.1c17.831-27.726 53.422-35.456 81.148-17.626s35.456 53.422 17.626 81.148l-90.746 141.1c-11.311 17.587-29.765 27.128-48.828 27.205l-29.491 46.155" color="#000000" color-rendering="auto" dominant-baseline="auto" fill="#8fe1ff" image-rendering="auto" shape-rendering="auto" solid-color="#000000" stroke-width="1.6777" style="paint-order:stroke markers fill"/><g transform="translate(868.77 -.68946)"><path d="m254.99 499.43c53.942 1.1235 60.891-42.634 60.705-65.868-0.25563-31.95-19.656-42.806-20.471-70.165-0.76667-25.732 14.557-46.917 48.47-35.58 33.913 11.336 107.53 20.314 149.72 17.08 3.384-20.519 14.08-108.35-4.8454-117.18-49.99-23.313-45.971 42.011-133.39 34.009-87.421-8.0021-44.464-105.27 12.367-108.2 48.297-2.4917 49.432 22.582 108.21 19.512 24.227-1.2651 28.53-142.14 18.734-162.39-36.605-8.94-212.05-18.533-218.28 4.9933-8.7343 32.994 29.68 36.604 27.42 79.282-2.2609 42.678-38.89 58.106-78.079 56.772-39.189-1.3337-59-37.425-46.942-74.101s30.923-26.872 23.827-64.227c-4.6098-24.269-144.28-10.424-198.86 16.354-5.1676 39.375-4.8439 129.27 18.706 139.79 42.518 18.98 41.279-16.332 91.736-15.145 34.516 0.81159 66.031 19.686 63.77 56.363-2.2609 36.676-17.769 63.196-59.703 60.527-41.202-2.622-40.961-28.401-83.581-24.682-28.132 2.4547-33.854 117.98-33.854 117.98s130.84-10.992 168.81-25.826c31.177-12.18 58.95-5.9188 55.429 18.882-4.5833 32.282-34.937 35.806-37.042 78.832-2.4515 50.113 32.146 62.255 67.141 62.984z" fill="#0ff"/></g><g transform="matrix(1.1703 0 0 1.0474 1666.6 -15.324)"><path d="m334.54 109.14c11.062-9.3859 28.158-36.203 20.113-50.282-8.0451-14.079-2.3465-42.907-2.3465-42.907l22.124 1.0056-2.0113 36.203 2.6817 17.431s-2.3465 14.749-16.761 31.845c-14.414 17.096-16.761 20.113-16.761 20.113z" fill="#1cc300"/><path d="m373.76 58.526c16.425-16.09 38.885-32.851 38.885-32.851l11.732 16.761-52.293 45.589s-19.778 34.862-24.135 42.237c-4.3578 7.3747-15.755-6.369-15.755-6.369z" fill="#c1ee00"/><path d="m360.69 131.27s12.068-14.414 21.454-17.431c9.3859-3.0169 65.702-16.761 66.707-32.18 1.0056-15.42-3.6873-25.811-3.6873-25.811l-15.085-9.3859s1.3408 19.107-5.3634 24.135c-6.7042 5.0282-32.851 11.062-47.6 22.459s-35.532 29.499-35.532 29.499z" fill="#63ff6b"/><path d="m28.158 485.25c-13.363-6.3358 6.2931-50.704 30.4-97.277 1.8758-3.6239 107.78 23.592 9.1318-18.256-10.419-4.4199 5.2633-13.464 10.75-22.909 7.2573-12.493 13.954-13.845 21.262-34.667 1.3579-3.8688 75.412 40.011 75.766 39.135 2.1989-5.4363-51.476-50.419-63.811-52.467-11.324-1.88 14.799-30.405 43.018-60.073 126.17 51.86 54.729 8.188 8.6794-9.1042 14.243-14.926 36.65-25.446 31.617-38.488-3.4194-8.86 66.086 24.438 69.933 25.278 8.0592 1.7607-52.84-41.85-55.397-40.236-21.73 13.718 61.009-83.803 81.121-82.797 20.113 1.0056 34.192 11.732 44.918 17.766 10.727 6.0338 51.623 16.425 61.679 34.192 4.658 8.2292 9.8901 29.617-5.9837 39.049-3.1207 1.8542-73.934-36.569-71.441-32.486 1.0948 1.7931 65.07 46.526 60.341 52.443-10.447 13.072-20.472 29.083-33.534 43.234-5.8914 6.3824-15.437 30.851-22.014 21.349-3.054-4.4122-65.903-29.837-62.492-25.074 0.84485 1.1797 52.659 36.198 45.676 39.823-25.064 13.013-45.346 34.64-69.6 48.52-1.9925 1.1402-41.544-25.05-44.272-22.439-2.1368 2.0459 37.333 29.837 28.224 41.256-12.06 15.119-23.617 26.25-28.715 33.666-18.437 26.817-55.645 59.333-84.809 76.428-23.566 13.815-49.418 38.849-80.451 24.135z" fill="#ffac00"/></g><path d="m751.9 246.79-94.991 79.16v-47.496h-79.16v-63.328h79.16v-47.496z" fill="#fff" stroke="#fff" stroke-width="9.4501" style="fill:#fff"/><path d="m1657.9 246.79-94.991 79.16v-47.496h-79.16v-63.328h79.16v-47.496z" fill="#fff" stroke="#fff" stroke-width="9.4501" style="fill:#fff"/></svg>
