<svg version="1.1" viewBox="0 0 500 500" xmlns="http://www.w3.org/2000/svg"><g fill="#674608"><path d="m24.523 368.2c-.40103.0711 32.605-90.265 52.391-112.1 17.874-19.721 58.94-44.441 94.492-59.696 34.44-14.779 49.976-25.005 83.265-52.4 29.7-24.441 33.68-60.36 33.68-60.36l-41.165 5.3063s-29.47 37.808-44.907 47.757c-15.437 9.9494-106.19 68.982-123.03 90.871-11.295 14.682-28.138 28.824-41.165 71.635-7.1316 23.438-13.566 68.982-13.566 68.982z"/><path d="m192.05 45.277s-9.5213 24.415-6.71 61.686c3.058 40.542 10.624 68.982 26.281 118.07 15.657 49.084-24.044 110.77-24.044 110.77s52.562-62.349 36.346-121.38c-16.216-59.033 7.7457-93.708 7.2692-127.35-.40359-28.494-19.571-29.185-15.657-41.787 3.9142-12.603-23.485 0-23.485 0z"/><path d="m172.5 115.71c18.179 37.36 56.922 78.688 101.35 102.36 49.325 26.276 102.83 30.84 141.62 61.763 0 0-31.675-54.598-103.15-77.561-64.016-20.566-96.251-95.544-96.251-95.544z"/><path d="m283.99 1.1842c2.073 55.567 10.547 113.84 36.957 172.07l-183.84 27.858s28.535-41.787 41.632-113.42c1.9592-10.715 3.7893-42.731 5.4799-83.963"/><path d="m206.41 75.169s19.179 45.767 93.088 71.635c73.909 25.868 100.57 4.643 152.96 28.522 52.391 23.878 44.907 30.511 44.907 30.511s-26.196-15.256-83.733-19.899c-57.537-4.643-80.926 13.929-126.77-3.3165-45.842-17.246-85.136-35.818-96.831-60.36-11.695-24.542 16.372-47.094 16.372-47.094z"/><path d="m110.32 221.06s7.0167 27.195-6.0811 55.053c-13.098 27.858-7.9523 83.575-7.9523 83.575s3.7422-50.41 12.162-68.319c8.42-17.909 21.518-44.441 19.647-64.339-1.8711-19.899-8.42-17.909-8.42-17.909z"/><path d="m138.45 181.32c.0656-.0676 7.0752 4.1765-41.493 5.4049-44.282 1.12-93.815 35.645-94.47 62.841-.43218 17.942 4.4374 42.412 4.4374 42.412s-.55663-42.379 13.851-56.968c14.407-14.589 38.49-22.22 50.132-22.122 11.642.0988 50.822-2.4475 58.744-8.6166 7.9213-6.1691 8.799-22.952 8.799-22.952z"/><path d="m208.56 177.08c-30.7 20.873-44.254 38.93-43.036 70.972 1.1842 31.158-18.711 62.349-18.711 62.349s28.535-38.471 28.535-60.36c0-21.889 38.358-48.42 38.358-48.42z"/><path d="m234.91 121.29-3.2745 55.053s-2.3389 29.185 7.9523 51.073c10.291 21.889 21.518 74.952 21.518 74.952s-1.8711-53.727-10.291-72.962c-8.42-19.235-5.1456-51.737 1.8711-73.625 7.0167-21.889-17.776-34.491-17.776-34.491z"/><path d="m295.3 213.53s24.325 28.522 11.695 92.198c20.582-19.899 18.711-66.329 13.098-80.922-5.6134-14.592-24.792-11.276-24.792-11.276z"/><path d="m354.25 185.54s22.921 11.939 36.487 27.195c13.566 15.256 26.663 55.716 26.663 55.716s-5.6134-45.104-16.372-60.36c-10.759-15.256-22.453-27.858-22.453-27.858z"/></g></svg>
