<svg version="1.1" viewBox="0 0 500 500" xmlns="http://www.w3.org/2000/svg"><rect x="9.3601" y="80.546" width="483.24" height="326.19" rx="36.243" ry="36.243" fill="#fff" fill-opacity=".19608" stroke="#fff" stroke-linecap="round" stroke-linejoin="round" stroke-width="12.081" style="paint-order:normal"/><rect x="55.142" y="124.86" width="391.68" height="237.55" rx="29.376" ry="26.395" fill="none" stroke="#fff" stroke-linecap="round" stroke-linejoin="round" stroke-width="12.081" style="paint-order:normal"/><g fill="#fff"><path d="m318.56 225.69a8.6761 12.494 0 0 0-8.6762 12.494v13.211a8.6761 12.494 0 0 0 8.6762 12.49h91.755a8.6761 12.494 0 0 0 8.6762-12.49v-13.211a8.6761 12.494 0 0 0-8.6762-12.494z" color="#000000" color-rendering="auto" dominant-baseline="auto" image-rendering="auto" shape-rendering="auto" solid-color="#000000" style="font-feature-settings:normal;font-variant-alternates:normal;font-variant-caps:normal;font-variant-ligatures:normal;font-variant-numeric:normal;font-variant-position:normal;isolation:auto;mix-blend-mode:normal;paint-order:normal;shape-padding:0;text-decoration-color:#000000;text-decoration-line:none;text-decoration-style:solid;text-indent:0;text-orientation:mixed;text-transform:none;white-space:normal"/><rect x="39.364" y="147.19" width="31.846" height="80.632" style="paint-order:normal"/><rect x="39.364" y="255.92" width="31.846" height="80.632" style="paint-order:normal"/></g><g shape-rendering="auto"><path d="m219.21 212.12c.52316 0 1.0418.0151 1.5586.041-.5171-.0246-1.0356-.041-1.5586-.041z" color="#000000" color-rendering="auto" dominant-baseline="auto" image-rendering="auto" solid-color="#000000" style="font-feature-settings:normal;font-variant-alternates:normal;font-variant-caps:normal;font-variant-ligatures:normal;font-variant-numeric:normal;font-variant-position:normal;isolation:auto;mix-blend-mode:normal;shape-padding:0;text-decoration-color:#000000;text-decoration-line:none;text-decoration-style:solid;text-indent:0;text-orientation:mixed;text-transform:none;white-space:normal"/><path d="m219.21 212.12c-.523 0-1.0434.0164-1.5606.041.51714-.0259 1.0371-.041 1.5606-.041z" color="#000000" color-rendering="auto" dominant-baseline="auto" image-rendering="auto" solid-color="#000000" style="font-feature-settings:normal;font-variant-alternates:normal;font-variant-caps:normal;font-variant-ligatures:normal;font-variant-numeric:normal;font-variant-position:normal;isolation:auto;mix-blend-mode:normal;shape-padding:0;text-decoration-color:#000000;text-decoration-line:none;text-decoration-style:solid;text-indent:0;text-orientation:mixed;text-transform:none;white-space:normal"/><path d="m209.24 213.69c-.39257.12684-.78392.25722-1.1699.39844.3861-.14183.77707-.27135 1.1699-.39844z" color="#000000" color-rendering="auto" dominant-baseline="auto" image-rendering="auto" solid-color="#000000" style="font-feature-settings:normal;font-variant-alternates:normal;font-variant-caps:normal;font-variant-ligatures:normal;font-variant-numeric:normal;font-variant-position:normal;isolation:auto;mix-blend-mode:normal;shape-padding:0;text-decoration-color:#000000;text-decoration-line:none;text-decoration-style:solid;text-indent:0;text-orientation:mixed;text-transform:none;white-space:normal"/><path d="m229.18 213.69c.39284.12709.78382.25661 1.1699.39844-.38601-.14122-.77736-.2716-1.1699-.39844z" color="#000000" color-rendering="auto" dominant-baseline="auto" image-rendering="auto" solid-color="#000000" style="font-feature-settings:normal;font-variant-alternates:normal;font-variant-caps:normal;font-variant-ligatures:normal;font-variant-numeric:normal;font-variant-position:normal;isolation:auto;mix-blend-mode:normal;shape-padding:0;text-decoration-color:#000000;text-decoration-line:none;text-decoration-style:solid;text-indent:0;text-orientation:mixed;text-transform:none;white-space:normal"/><path d="m207.33 214.38c-.21886.0862-.43969.16897-.65625.25977.21635-.0911.43759-.17323.65625-.25977z" color="#000000" color-rendering="auto" dominant-baseline="auto" image-rendering="auto" solid-color="#000000" style="font-feature-settings:normal;font-variant-alternates:normal;font-variant-caps:normal;font-variant-ligatures:normal;font-variant-numeric:normal;font-variant-position:normal;isolation:auto;mix-blend-mode:normal;shape-padding:0;text-decoration-color:#000000;text-decoration-line:none;text-decoration-style:solid;text-indent:0;text-orientation:mixed;text-transform:none;white-space:normal"/><path d="m231.09 214.38c.21866.0865.43991.16864.65625.25977-.21656-.0908-.43738-.17356-.65625-.25977z" color="#000000" color-rendering="auto" dominant-baseline="auto" image-rendering="auto" solid-color="#000000" style="font-feature-settings:normal;font-variant-alternates:normal;font-variant-caps:normal;font-variant-ligatures:normal;font-variant-numeric:normal;font-variant-position:normal;isolation:auto;mix-blend-mode:normal;shape-padding:0;text-decoration-color:#000000;text-decoration-line:none;text-decoration-style:solid;text-indent:0;text-orientation:mixed;text-transform:none;white-space:normal"/></g><g transform="matrix(1.44 0 0 1.44 -116.45 -107.68)" fill="#fff"><path d="m279.62 244.74a60.405 60.405 0 0 1-60.405 60.405 60.405 60.405 0 0 1-60.405-60.405 60.405 60.405 0 0 1 60.405-60.405 60.405 60.405 0 0 1 60.405 60.405z" fill-opacity=".39216" stroke="#fff" stroke-linecap="round" stroke-linejoin="round" stroke-width="12.081" style="paint-order:normal"/><path d="m216.19 184.33v27.932c-2.2799.21169-4.495.65399-6.6172 1.3144l-10.688-25.803-5.5801 2.3105 10.697 25.822c-1.9958 1.0597-3.8726 2.3172-5.5976 3.752l-19.771-19.771-4.2715 4.2715 19.771 19.771c-1.4348 1.7251-2.6922 3.6019-3.752 5.5976l-25.822-10.697-2.3105 5.5801 25.803 10.688c-.66046 2.1222-1.1028 4.3372-1.3144 6.6172h-27.932v6.041h27.932c.21163 2.2805.65384 4.4964 1.3144 6.6191l-25.803 10.688 2.3105 5.5801 25.824-10.695c1.0595 1.9949 2.3158 3.8694 3.75 5.5938l-19.771 19.771 4.2715 4.2715 19.771-19.771c1.7244 1.4342 3.6008 2.6905 5.5957 3.75l-10.695 25.824 5.5801 2.3125 10.689-25.805c2.1216.66015 4.3359 1.1028 6.6152 1.3144v27.932h6.041v-27.932c2.2798-.21157 4.495-.65414 6.6172-1.3144l10.689 25.805 5.5801-2.3125-10.697-25.822v-.002c1.9955-1.0596 3.8709-2.3154 5.5957-3.75l19.771 19.771 4.2715-4.2715-19.771-19.771c1.4346-1.7248 2.6904-3.6002 3.75-5.5957.00014-.00026.002.00027.002 0l25.822 10.697 2.3125-5.5801-25.805-10.689c.6603-2.1222 1.1029-4.3373 1.3144-6.6172h27.932v-6.041h-27.932c-.21163-2.2793-.6543-4.4936-1.3144-6.6152l25.805-10.689-2.3125-5.5801-25.822 10.697c-1.0597-1.9958-2.3172-3.8726-3.752-5.5976l19.771-19.771-4.2715-4.2715-19.771 19.771c-1.7251-1.4348-3.5999-2.6922-5.5957-3.752l10.697-25.822-5.5801-2.3105-10.688 25.803c-2.1227-.66061-4.3386-1.1028-6.6191-1.3144v-27.932zm3.0215 27.787c.52316 0 1.0418.0151 1.5586.041-.5171-.0246-1.0356-.041-1.5586-.041zc-.523 0-1.0434.0164-1.5606.041.51714-.0259 1.0371-.041 1.5606-.041zm-9.9688 1.5703c-.39257.12684-.78392.25722-1.1699.39844.3861-.14183.77707-.27135 1.1699-.39844zm19.938 0c.39284.12709.78382.25661 1.1699.39844-.38601-.14122-.77736-.2716-1.1699-.39844zm-21.846.6875c-.21886.0862-.43969.16897-.65625.25977.21635-.0911.43759-.17323.65625-.25977zm23.754 0c.21866.0865.43991.16864.65625.25977-.21656-.0908-.43738-.17356-.65625-.25977zm-11.877 8.6152c12.074 0 21.746 9.6717 21.746 21.746s-9.6717 21.746-21.746 21.746-21.746-9.6717-21.746-21.746 9.6717-21.746 21.746-21.746zm-30.102 9.2129c-.0908.21656-.17356.43739-.25977.65626.0865-.21867.16863-.43991.25977-.65626zm-.54883 1.3945c-.14122.386-.2716.77735-.39844 1.1699.12709-.39285.25661-.78382.39844-1.1699zm-1.9277 9.5781c-.0246.51715-.041 1.0376-.041 1.5606 0 .52295.0164 1.0415.041 1.5586-.0259-.51677-.041-1.0354-.041-1.5586 0-.52344.0151-1.0434.041-1.5606zm1.5137 11.482c.13276.41304.26931.82468.41797 1.2305-.14924-.40557-.28505-.81743-.41797-1.2305z" color="#000000" color-rendering="auto" dominant-baseline="auto" image-rendering="auto" shape-rendering="auto" solid-color="#000000" style="font-feature-settings:normal;font-variant-alternates:normal;font-variant-caps:normal;font-variant-ligatures:normal;font-variant-numeric:normal;font-variant-position:normal;isolation:auto;mix-blend-mode:normal;shape-padding:0;text-decoration-color:#000000;text-decoration-line:none;text-decoration-style:solid;text-indent:0;text-orientation:mixed;text-transform:none;white-space:normal"/><path d="m219.21 222.99c12.074 0 21.746 9.6717 21.746 21.746s-9.6717 21.746-21.746 21.746-21.746-9.6717-21.746-21.746 9.6717-21.746 21.746-21.746z" color="#000000" color-rendering="auto" dominant-baseline="auto" fill-opacity=".70588" image-rendering="auto" shape-rendering="auto" solid-color="#000000" style="font-feature-settings:normal;font-variant-alternates:normal;font-variant-caps:normal;font-variant-ligatures:normal;font-variant-numeric:normal;font-variant-position:normal;isolation:auto;mix-blend-mode:normal;shape-padding:0;text-decoration-color:#000000;text-decoration-line:none;text-decoration-style:solid;text-indent:0;text-orientation:mixed;text-transform:none;white-space:normal"/></g><g shape-rendering="auto"><path d="m189.11 232.2c-.0908.21656-.17356.43739-.25977.65626.0865-.21867.16863-.43991.25977-.65626z" color="#000000" color-rendering="auto" dominant-baseline="auto" image-rendering="auto" solid-color="#000000" style="font-feature-settings:normal;font-variant-alternates:normal;font-variant-caps:normal;font-variant-ligatures:normal;font-variant-numeric:normal;font-variant-position:normal;isolation:auto;mix-blend-mode:normal;shape-padding:0;text-decoration-color:#000000;text-decoration-line:none;text-decoration-style:solid;text-indent:0;text-orientation:mixed;text-transform:none;white-space:normal"/><path d="m188.56 233.6c-.14122.386-.2716.77735-.39844 1.1699.12709-.39285.25661-.78382.39844-1.1699z" color="#000000" color-rendering="auto" dominant-baseline="auto" image-rendering="auto" solid-color="#000000" style="font-feature-settings:normal;font-variant-alternates:normal;font-variant-caps:normal;font-variant-ligatures:normal;font-variant-numeric:normal;font-variant-position:normal;isolation:auto;mix-blend-mode:normal;shape-padding:0;text-decoration-color:#000000;text-decoration-line:none;text-decoration-style:solid;text-indent:0;text-orientation:mixed;text-transform:none;white-space:normal"/><path d="m186.63 243.18c-.0246.51715-.041 1.0376-.041 1.5606 0 .52295.0164 1.0415.041 1.5586-.0259-.51677-.041-1.0354-.041-1.5586 0-.52344.0151-1.0434.041-1.5606z" color="#000000" color-rendering="auto" dominant-baseline="auto" image-rendering="auto" solid-color="#000000" style="font-feature-settings:normal;font-variant-alternates:normal;font-variant-caps:normal;font-variant-ligatures:normal;font-variant-numeric:normal;font-variant-position:normal;isolation:auto;mix-blend-mode:normal;shape-padding:0;text-decoration-color:#000000;text-decoration-line:none;text-decoration-style:solid;text-indent:0;text-orientation:mixed;text-transform:none;white-space:normal"/><path d="m188.15 254.66c.13276.41304.26931.82468.41797 1.2305-.14924-.40557-.28505-.81743-.41797-1.2305z" color="#000000" color-rendering="auto" dominant-baseline="auto" image-rendering="auto" solid-color="#000000" style="font-feature-settings:normal;font-variant-alternates:normal;font-variant-caps:normal;font-variant-ligatures:normal;font-variant-numeric:normal;font-variant-position:normal;isolation:auto;mix-blend-mode:normal;shape-padding:0;text-decoration-color:#000000;text-decoration-line:none;text-decoration-style:solid;text-indent:0;text-orientation:mixed;text-transform:none;white-space:normal"/></g></svg>
