<svg version="1.1" viewBox="0 0 500 500" xmlns="http://www.w3.org/2000/svg"><rect x="9.36" y="80.54" width="483.24" height="326.19" rx="36.243" ry="36.243" fill="#fff" fill-opacity=".19608" stroke="#fff" stroke-linecap="round" stroke-linejoin="round" stroke-width="12.081" style="paint-order:normal"/><circle cx="303.29" cy="247.01" r="84.567" fill="none" stroke="#fff" stroke-linecap="round" stroke-linejoin="round" stroke-width="10" style="paint-order:normal"/><path d="m299.07 162.45v41.723c-8.6971.85407-16.647 4.3103-23.057 9.5801l-29.523-29.523-5.9785 5.9805 29.523 29.523c-5.2689 6.4103-8.7261 14.36-9.5801 23.057h-41.723v8.4551h41.723c.85361 8.6973 4.3108 16.646 9.5801 23.057l-29.523 29.523 5.9785 5.9805 29.523-29.523c6.4101 5.2695 14.36 8.7261 23.057 9.5801v41.723h8.457v-41.723c8.6971-.85399 16.647-4.3106 23.057-9.5801l29.523 29.523 5.9785-5.9805-29.523-29.523c5.2693-6.4104 8.7265-14.359 9.5801-23.057h41.723v-8.4551h-41.723c-.85393-8.6967-4.3112-16.646-9.5801-23.057l29.523-29.523-5.9785-5.9805-29.523 29.523c-6.4101-5.2698-14.36-8.726-23.057-9.5801v-41.723h-8.457zm4.2285 51.512c.69401 0 1.3813.02859 2.0645.07032.06729.00434.13398.01088.20117.01562.64921.04358 1.2915.10537 1.9297.18555.01106.00139.02215.0025.03321.00391 5.9792.75753 11.448 3.0981 15.979 6.5937.56041.43238 1.1059.88081 1.6367 1.3477 1.061.93313 2.0611 1.9331 2.9941 2.9941.46091.52415.90472 1.0642 1.332 1.6172.00338.00436.00791.00772.01172.01172.00199.00257.00387.00523.00586.00781 3.4957 4.5312 5.8343 10.001 6.5918 15.98.0014.01106.00252.02214.0039.0332.08019.63817.14198 1.2805.18555 1.9297.00474.06719.01128.13387.01563.20117.04172.68314.07031 1.3704.07031 2.0644 0 .69467-.02851 1.3826-.07031 2.0664-.0014.02153-.00235.043-.00391.06445-.00305.04842-.00846.09618-.01172.14454-.04419.65512-.108 1.3034-.18945 1.9473-8e-5.00064-4e-5.0013 0 .00195-8e-5.00065 8e-5.00132 0 .00196-.75716 5.9798-3.0962 11.449-6.5918 15.98-.42398.54958-.86529 1.0843-1.3223 1.6055-.00885.01009-.01654.02118-.02539.03126-.00579.00657-.01179.01295-.01758.01953-.92339 1.0488-1.9124 2.0374-2.9609 2.9609-.0135.0119-.02749.02329-.04102.03516-.51604.45304-1.0477.89004-1.5918 1.3106-.00692.00534-.01262.01224-.01953.01757-4.5309 3.4957-10.001 5.8343-15.98 6.5918-.01106.0014-.02215.00252-.03321.00391-.63815.08017-1.2805.14197-1.9297.18555-.06719.00474-.13387.01128-.20117.01562-.68314.04172-1.3704.07031-2.0645.07031-.694 0-1.3813-.02859-2.0644-.07031-.0673-.00434-.13399-.01089-.20117-.01562-.64923-.04358-1.2915-.10538-1.9297-.18555-.00646-.00081-.01307-.00114-.01953-.00195-.00454-.00059-.00914-.00138-.01367-.00196-5.9796-.75748-11.45-3.0961-15.98-6.5918-.00256-.00197-.00546-.00361-.00782-.00585-.00434-.00336-.00737-.00837-.01171-.01172-.53967-.41706-1.0659-.84978-1.5781-1.2988-.00451-.00396-.00916-.00776-.01367-.01172-.01353-.01187-.02751-.02326-.04102-.03516-.0045-.00397-.00916-.00774-.01367-.01172-1.0402-.91699-2.0205-1.8992-2.9375-2.9394-.00304-.00345-.00672-.00631-.00976-.00976-.01467-.01665-.02834-.03411-.04297-.05079-.4571-.52109-.89833-1.0559-1.3223-1.6055-3.4956-4.5311-5.8346-10.001-6.5918-15.98-.00016-.00128.00017-.00263 0-.00391-.08145-.6439-.14526-1.2921-.18945-1.9473-.00044-.00658-.00151-.01296-.00195-.01954-.00294-.04173-.00673-.08333-.00977-.125-.00136-.02155-.00258-.04288-.0039-.06445-.0418-.68377-.07032-1.3717-.07032-2.0664 0-.694.0286-1.3813.07032-2.0644.00434-.0673.01088-.13398.01562-.20117.04357-.64923.10538-1.2915.18555-1.9297.00081-.00646.00114-.01307.00195-.01953.00058-.00454.00138-.00913.00195-.01367.75749-5.9796 3.0961-11.449 6.5918-15.98.00535-.00693.01223-.0126.01758-.01953.42728-.55293.87116-1.0933 1.332-1.6172.93329-1.0609 1.9328-2.0612 2.9941-2.9941.53065-.46646 1.0765-.91544 1.6367-1.3477 4.5307-3.4956 9.9994-5.8362 15.979-6.5937.00453-.00058.00913-.00138.01367-.00196.00646-.00081.01307-.00114.01953-.00195.63815-.08018 1.2805-.14197 1.9297-.18555.06718-.00474.13387-.01128.20117-.01562.68313-.04173 1.3704-.07032 2.0644-.07032z" color="#000000" color-rendering="auto" dominant-baseline="auto" fill="#fff" image-rendering="auto" shape-rendering="auto" solid-color="#000000" style="font-feature-settings:normal;font-variant-alternates:normal;font-variant-caps:normal;font-variant-ligatures:normal;font-variant-numeric:normal;font-variant-position:normal;isolation:auto;mix-blend-mode:normal;shape-padding:0;text-decoration-color:#000000;text-decoration-line:none;text-decoration-style:solid;text-indent:0;text-orientation:mixed;text-transform:none;white-space:normal"/><rect x="55.141" y="124.87" width="391.68" height="237.55" rx="29.376" ry="26.395" fill="none" stroke="#fff" stroke-linecap="round" stroke-linejoin="round" stroke-width="12.081" style="paint-order:normal"/><g transform="matrix(1.4497 0 0 1.2081 -48.293 -47.87)" fill="#fff"><rect x="61.928" y="171.66" width="18.306" height="46.349" style="paint-order:normal"/><rect x="61.928" y="261.66" width="18.306" height="46.349" style="paint-order:normal"/></g><path d="m303.29 213.96c18.315 0 33.055 14.742 33.055 33.057 0 18.315-14.74 33.055-33.055 33.055s-33.055-14.74-33.055-33.055c0-18.315 14.74-33.057 33.055-33.057z" color="#000000" color-rendering="auto" dominant-baseline="auto" fill="#fff" image-rendering="auto" shape-rendering="auto" solid-color="#000000" style="font-feature-settings:normal;font-variant-alternates:normal;font-variant-caps:normal;font-variant-ligatures:normal;font-variant-numeric:normal;font-variant-position:normal;isolation:auto;mix-blend-mode:normal;paint-order:normal;shape-padding:0;text-decoration-color:#000000;text-decoration-line:none;text-decoration-style:solid;text-indent:0;text-orientation:mixed;text-transform:none;white-space:normal"/></svg>
