<svg version="1.1" viewBox="0 0 500 500" xmlns="http://www.w3.org/2000/svg"><defs><clipPath id="a"><path d="m174.13.80469c-43.868.12903-87.699 16.898-121.06 50.26-66.723 66.723-67.077 175.32-.67774 242.34 62.142 62.727 161.3 67.396 228.97 13.543l41.369 41.369a18.091 18.091 0 0 0-.10742 26.02l123.33 123.33 51.711-51.711-123.33-123.33a18.091 18.091 0 0 0-26.031.0996l-41.207-41.207c55.732-67.711 51.728-168.31-11.684-231.13-33.512-33.2-77.417-49.711-121.29-49.582zm.0957 35.949c34.559-.10347 69.143 12.998 95.727 39.334 53.171 52.675 53.772 137.94 1.3047 191.39a18.091 18.091 0 0 0-.29102.3164l-1.4824 1.457c-53.446 52.467-138.72 51.866-191.39-1.3047-52.672-53.168-52.403-138.34.55859-191.3 26.481-26.481 61.015-39.789 95.574-39.893z" color="#000000" color-rendering="auto" dominant-baseline="auto" fill="#0f0" image-rendering="auto" shape-rendering="auto" solid-color="#000000" style="font-feature-settings:normal;font-variant-alternates:normal;font-variant-caps:normal;font-variant-ligatures:normal;font-variant-numeric:normal;font-variant-position:normal;isolation:auto;mix-blend-mode:normal;shape-padding:0;text-decoration-color:#000000;text-decoration-line:none;text-decoration-style:solid;text-indent:0;text-orientation:mixed;text-transform:none;white-space:normal"/></clipPath></defs><path d="m174.13.80469c-43.868.12903-87.699 16.898-121.06 50.26-66.723 66.723-67.077 175.32-.67774 242.34 62.142 62.727 161.3 67.396 228.97 13.543l41.369 41.369a18.091 18.091 0 0 0-.10742 26.02l123.33 123.33 51.711-51.711-123.33-123.33a18.091 18.091 0 0 0-26.031.0996l-41.207-41.207c55.732-67.711 51.728-168.31-11.684-231.13-33.512-33.2-77.417-49.711-121.29-49.582zm.0957 35.949c34.559-.10347 69.143 12.998 95.727 39.334 53.171 52.675 53.772 137.94 1.3047 191.39a18.091 18.091 0 0 0-.29102.3164l-1.4824 1.457c-53.446 52.467-138.72 51.866-191.39-1.3047-52.672-53.168-52.403-138.34.55859-191.3 26.481-26.481 61.015-39.789 95.574-39.893z" clip-path="url(#a)" color="#000000" color-rendering="auto" dominant-baseline="auto" fill="#fff" fill-opacity=".19608" image-rendering="auto" shape-rendering="auto" solid-color="#000000" stroke="#fff" stroke-linecap="square" stroke-width="20" style="font-feature-settings:normal;font-variant-alternates:normal;font-variant-caps:normal;font-variant-ligatures:normal;font-variant-numeric:normal;font-variant-position:normal;isolation:auto;mix-blend-mode:normal;shape-padding:0;text-decoration-color:#000000;text-decoration-line:none;text-decoration-style:solid;text-indent:0;text-orientation:mixed;text-transform:none;white-space:normal"/></svg>
