<svg version="1.1" viewBox="0 0 500 500" xmlns="http://www.w3.org/2000/svg"><defs><clipPath id="a"><path d="m416.1.71875c-91.91-.099936-107.04 18.14-120.59 61.842-6.8774 22.178-13.917 53.822-8.1328 80.213l-170.16 182.72c-6.053-1.679-11.622-2.8712-16.113-3.543-27.702-4.1429-46.146-6.958-94.936 55.359-3.665 5.0009-6.2892 17.642-5.3926 22.955l71.701-29.133c20.87 9.8388 34.545 17.653 41.328 35.256 6.9918 18.147-6.2715 51.627-6.2715 51.627l-71.787 28.922c3.0401 4.4448 13.696 11.715 19.801 12.762 93.465 2.2926 107.36-12.795 119.71-52.652 4.0751-13.141 8.2126-30.172 8.7285-46.9l181.46-194.86c6.2797 1.6668 12.05 2.871 16.791 3.5801 32.4 4.8454 53.976 8.1385 111.04-64.746 4.2867-5.849 7.3532-20.633 6.3047-26.846l-83.863 34.07c-24.41-11.507-40.402-20.647-48.334-41.234-8.1777-21.223 7.334-60.381 7.334-60.381l83.963-33.824c-3.5557-5.1984-16.018-13.699-23.16-14.924-6.8321-.16757-13.3-.25701-19.428-.26367z" color="#000000" color-rendering="auto" dominant-baseline="auto" fill="#0ff" image-rendering="auto" shape-rendering="auto" solid-color="#000000" style="font-feature-settings:normal;font-variant-alternates:normal;font-variant-caps:normal;font-variant-ligatures:normal;font-variant-numeric:normal;font-variant-position:normal;isolation:auto;mix-blend-mode:normal;shape-padding:0;text-decoration-color:#000000;text-decoration-line:none;text-decoration-style:solid;text-indent:0;text-orientation:mixed;text-transform:none;white-space:normal"/></clipPath></defs><path d="m416.1.71875c-91.91-.099936-107.04 18.14-120.59 61.842-6.8774 22.178-13.917 53.822-8.1328 80.213l-170.16 182.72c-6.053-1.679-11.622-2.8712-16.113-3.543-27.702-4.1429-46.146-6.958-94.936 55.359-3.665 5.0009-6.2892 17.642-5.3926 22.955l71.701-29.133c20.87 9.8388 34.545 17.653 41.328 35.256 6.9918 18.147-6.2715 51.627-6.2715 51.627l-71.787 28.922c3.0401 4.4448 13.696 11.715 19.801 12.762 93.465 2.2926 107.36-12.795 119.71-52.652 4.0751-13.141 8.2126-30.172 8.7285-46.9l181.46-194.86c6.2797 1.6668 12.05 2.871 16.791 3.5801 32.4 4.8454 53.976 8.1385 111.04-64.746 4.2867-5.849 7.3532-20.633 6.3047-26.846l-83.863 34.07c-24.41-11.507-40.402-20.647-48.334-41.234-8.1777-21.223 7.334-60.381 7.334-60.381l83.963-33.824c-3.5557-5.1984-16.018-13.699-23.16-14.924-6.8321-.16757-13.3-.25701-19.428-.26367z" clip-path="url(#a)" color="#000000" color-rendering="auto" dominant-baseline="auto" fill="#0ff" image-rendering="auto" shape-rendering="auto" solid-color="#000000" stroke="#0f0" stroke-linejoin="round" stroke-width="20" style="font-feature-settings:normal;font-variant-alternates:normal;font-variant-caps:normal;font-variant-ligatures:normal;font-variant-numeric:normal;font-variant-position:normal;isolation:auto;mix-blend-mode:normal;shape-padding:0;text-decoration-color:#000000;text-decoration-line:none;text-decoration-style:solid;text-indent:0;text-orientation:mixed;text-transform:none;white-space:normal"/></svg>
