<svg version="1.1" viewBox="0 0 490.57 492.99" xmlns="http://www.w3.org/2000/svg"><rect x="18" y="18" width="454.57" height="456.99" rx="50" ry="50" stroke="#000" stroke-linecap="round" stroke-linejoin="round" stroke-width="36"/><path d="m333.48 158.62-176 176" fill="none" stroke="#fff" stroke-linejoin="round" stroke-width="72"/><g transform="matrix(.9 0 0 .9 6.736 42.498)" fill="#fff"><path d="m325.2 166.75c.0697.0649.13954.12957.20949.19414 11.936 11.018 27.322 17.743 48.847 20.413 60.714 7.5312 80.104-1.6356 98.705-80.48 1.3352-5.6597-1.0288-17.53-3.7492-21.785l-51.287 51.438s-36.83-1.1724-48.982-13.125l-.007-.007" style="paint-order:stroke markers fill"/><path d="m325.59 167.14c-.0649-.0697-.12957-.13954-.19414-.20949-11.018-11.936-17.743-27.322-20.413-48.847-7.5312-60.714 1.6356-80.104 80.48-98.705 5.6597-1.3352 17.53 1.0288 21.785 3.7492l-51.438 51.287s1.1724 36.83 13.125 48.982l.007.007" style="paint-order:stroke markers fill"/></g><g transform="matrix(-.81 0 0 -.81 445.38 445.75)" fill="#fff"><path d="m325.2 166.75c.0697.0649.13954.12957.20949.19414 11.936 11.018 27.322 17.743 48.847 20.413 60.714 7.5312 80.104-1.6356 98.705-80.48 1.3352-5.6597-1.0288-17.53-3.7492-21.785l-51.287 51.438s-36.83-1.1724-48.982-13.125l-.007-.007" style="paint-order:stroke markers fill"/><path d="m325.59 167.14c-.0649-.0697-.12957-.13954-.19414-.20949-11.018-11.936-17.743-27.322-20.413-48.847-7.5312-60.714 1.6356-80.104 80.48-98.705 5.6597-1.3352 17.53 1.0288 21.785 3.7492l-51.438 51.287s1.1724 36.83 13.125 48.982l.007.007" style="paint-order:stroke markers fill"/></g></svg>
