<svg version="1.1" viewBox="0 0 500 500" xmlns="http://www.w3.org/2000/svg"><g display="none"><g display="inline"><g transform="translate(155.34 -70.714)" fill="#3432a0"><path d="m94.661 70.714 50 60.006h-100z" fill="#3432a0"/></g><path d="m250 0v500" fill="none" stroke="#000" stroke-width="1px"/><g transform="rotate(10,250,250)"><g transform="rotate(45 257.69 472.87)" fill="#3432a0"><path d="m94.661 70.714 50 60.006h-100z" fill="#3432a0"/></g><path d="m426.78 73.223-353.55 353.55" fill="none" stroke="#000" stroke-width="1px"/></g><g transform="rotate(20 243.16 296.1)"><g transform="rotate(90 207.69 363.03)" fill="#3432a0"><path d="m94.661 70.714 50 60.006h-100z" fill="#3432a0"/></g><path d="m500 250h-500" fill="none" stroke="#000" stroke-width="1px"/></g><path d="m454.79 106.61c-80.464 56.241-204.38 146.75-204.74 219.97.48832-73.803 158.51-20.117 250.23 14.045" fill="none" stroke="#000" stroke-width="1px"/></g></g><g display="none"><g transform="translate(155.34 -70.714)" fill="#3432a0"><path d="m94.661 70.714 50 60.006h-100z" fill="#3432a0"/></g><path d="m250 0v500" fill="none" stroke="#000" stroke-width="1px"/><g transform="rotate(45 257.69 472.87)" fill="#3432a0"><path d="m94.661 70.714 50 60.006h-100z" fill="#3432a0"/></g><path d="m426.78 73.223-353.55 353.55" fill="none" stroke="#000" stroke-width="1px"/><g transform="rotate(90 207.69 363.03)" fill="#3432a0"><path d="m94.661 70.714 50 60.006h-100z" fill="#3432a0"/></g><g fill="none" stroke="#000" stroke-width="1px"><path d="m500 250h-500"/><path d="m426.78 73.223c-112.64 112.66-176.42 153.88-176.78 426.78"/><path d="m500 250c-139.61.11136-250.3 18.363-250 250"/></g></g><g display="none"><g transform="translate(155.34 -70.714)" fill="#3432a0"><path d="m94.661 70.714 50 60.006h-100z" fill="#3432a0"/></g><path d="m250 0v500" fill="none" stroke="#000" stroke-width="40"/><g transform="rotate(45 257.69 472.87)" fill="#3432a0"><path d="m94.661 70.714 50 60.006h-100z" fill="#3432a0"/></g><path d="m426.78 73.223c-112.64 112.66-176.42 153.88-176.78 426.78" fill="none" stroke="#000" stroke-width="40"/><g transform="rotate(90 207.69 363.03)" fill="#3432a0"><path d="m94.661 70.714 50 60.006h-100z" fill="#3432a0"/></g><path d="m500 250c-139.61.11136-250.3 18.363-250 250" fill="none" stroke="#000" stroke-width="40"/><g transform="matrix(-1 0 0 1 499 -3.4052e-7)"><g transform="rotate(45 257.69 472.87)" fill="#3432a0"><path d="m94.661 70.714 50 60.006h-100z" fill="#3432a0"/></g><path d="m426.78 73.223c-112.64 112.66-176.42 153.88-176.78 426.78" fill="none" stroke="#000" stroke-width="40"/></g><g transform="matrix(-1 0 0 1 499 0)"><g transform="rotate(90 207.69 363.03)" fill="#3432a0"><path d="m94.661 70.714 50 60.006h-100z" fill="#3432a0"/></g><path d="m500 250c-139.61.11136-250.3 18.363-250 250" fill="none" stroke="#000" stroke-width="40"/></g></g><g display="none"><g fill="none" stroke="#000" stroke-width="40"><path d="m250 52.001v448"/><path d="m387.75 111.82c-88.236 87.57-137.44 148.58-137.75 388.18"/><path d="m444.38 251.57c-112.27 7.5632-194.63 48.573-194.38 248.43"/><path d="m112.13 112.7c87.683 87.105 136.56 148.5 136.87 387.3"/><path d="m53.911 251.53c112.63 7.4381 195.35 48.198 195.09 248.47"/></g><path d="m250 0 50 60.006h-100z"/><path d="m426.78 73.223-7.0754 77.786-70.711-70.711z"/><path d="m500 250-60.006 50v-100z"/><path d="m72.224 73.223 7.0754 77.786 70.711-70.711z"/><path d="m-1.0016 250 60.006 50v-100z"/></g><g display="none"><g transform="rotate(180 249.95 250)"><path d="m250 0-73.205 87.855h53.205v151.28c-3.7428-5.8476-7.8109-11.55-12.193-17.115-22.565-28.653-52.777-54.186-89.59-80.949l30.838-44.039-113.96 9.5742 29.979 110.36 30.168-43.082c35.043 25.617 62.364 49.05 81.137 72.887 5.9245 7.5228 11.054 15.041 15.414 22.729-4.4716-.76151-9.0264-1.2338-13.615-1.3809-32.067-1.0275-69.368 9.2607-112.67 24.172l-18.381-50.502-57.52 98.838 107.6 38.742-17.947-49.309c41.898-13.987 76.307-22.646 97.641-21.963 13.371.42844 20.053 3.4608 24.523 8.4043 4.4708 4.9435 8.5521 14.608 8.5781 33.529v149.97h60v-149.97c.026-18.925 4.1054-28.596 8.5684-33.537 4.4629-4.9406 11.122-7.9682 24.477-8.3965 21.306-.68326 55.693 7.9747 97.584 21.961l-17.947 49.311 107.6-38.742-57.52-98.838-18.381 50.5c-43.29-14.91-80.566-25.198-112.61-24.17-4.582.14694-9.1303.62011-13.596 1.3809 4.355-7.691 9.4804-15.211 15.4-22.736 18.75-23.834 46.046-47.263 81.076-72.877l30.166 43.08 29.977-110.36-113.96-9.5742 30.838 44.041c-36.806 26.764-66.997 52.301-89.539 80.955-4.3594 5.5415-8.4057 11.219-12.131 17.041v-151.21h53.205z" color="#000000" color-rendering="auto" dominant-baseline="auto" image-rendering="auto" shape-rendering="auto" solid-color="#000000" style="font-feature-settings:normal;font-variant-alternates:normal;font-variant-caps:normal;font-variant-ligatures:normal;font-variant-numeric:normal;font-variant-position:normal;isolation:auto;mix-blend-mode:normal;shape-padding:0;text-decoration-color:#000000;text-decoration-line:none;text-decoration-style:solid;text-indent:0;text-orientation:mixed;text-transform:none;white-space:normal"/></g></g><g transform="matrix(1.0201 0 0 1.0201 -5.0254 -5.0497)"><path d="m375.76 18.343-54.82 75.1-52.41-38.289 22.438 122.23 122.91-16.051-52.561-38.398 54.906-75.219a250 250 0 0 0-40.461-29.377zm-251.91.28516a250 250 0 0 0-40.404 29.453l54.869 74.764-52.744 38.107 123.19 16.436 22.715-121.85-52.629 38.025zm-49.756 177.96 19.863 61.689-88.023 28.584a250 250 0 0 0 15.4 47.568l87.949-28.561 19.982 62.057 53.697-112.08zm351.98.14844-109.32 59.111 53.246 111.93 20.283-61.871 88.316 29a250 250 0 0 0 15.496-47.539l-88.236-28.973zm-176.08 107.39-90 85.229 65 .17187v93.346a250 250 0 0 0 25 1.2539 250 250 0 0 0 25-1.5137v-92.955l65 .17187z" fill="#0ff"/><g transform="matrix(.25 0 0 .25 189.53 169.53)"><path d="m219.46 433.04-.22657 66.225 64.361.40316-.67042-68.94z" fill="#bb3000" stroke="#ffaf46" stroke-width="7"/><path d="m249.58 2.538c46.247 74.717 59.795 162.17 129.64 247.22l-63.258-8.9724c37.208 45.573 74.866 79.6 119.3 124.91l-66.913-10.54c36.197 55.806 69.599 67.324 129.64 114.02-77.785-9.5813-146.51-15.901-218.31-24.913l-60.22-6e-4c-71.788 9.0115-140.52 15.331-218.31 24.913 60.042-46.699 93.446-58.217 129.64-114.02l-66.913 10.54c44.43-45.309 82.089-79.338 119.3-124.91l-63.258 8.9724c69.846-85.043 83.396-172.49 129.64-247.22" fill="#16b905"/></g></g></svg>
