<svg version="1.1" viewBox="0 0 500 500" xmlns="http://www.w3.org/2000/svg"><defs><clipPath id="b"><path d="m378.29 13.661-55.922 76.609-53.464-39.059 22.888 124.69 125.38-16.373-53.617-39.17 56.01-76.731a255.02 255.02 0 0 0-41.274-29.967zm-256.97.29089a255.02 255.02 0 0 0-41.216 30.045l55.972 76.266-53.804 38.873 125.66 16.766 23.171-124.3-53.687 38.79zm-50.756 181.53 20.263 62.929-89.793 29.159a255.02 255.02 0 0 0 15.71 48.524l89.717-29.135 20.384 63.304 54.777-114.33zm359.06.15142-111.52 60.299 54.316 114.18 20.691-63.115 90.092 29.583a255.02 255.02 0 0 0 15.808-48.495l-90.01-29.555zm-179.62 109.55-91.809 86.942 66.306.17532v95.222a255.02 255.02 0 0 0 25.502 1.2791 255.02 255.02 0 0 0 25.502-1.5441v-94.823l66.306.17533z" fill="#0ff"/></clipPath><clipPath id="a"><path d="m248.94 162.11-63.35 119h50.17v15.307h26.289v-15.307h50.246z" fill="#0f0" style="paint-order:stroke markers fill"/></clipPath></defs><path d="m378.29 13.661-55.922 76.609-53.464-39.059 22.888 124.69 125.38-16.373-53.617-39.17 56.01-76.731a255.02 255.02 0 0 0-41.274-29.967zm-256.97.29089a255.02 255.02 0 0 0-41.216 30.045l55.972 76.266-53.804 38.873 125.66 16.766 23.171-124.3-53.687 38.79zm-50.756 181.53 20.263 62.929-89.793 29.159a255.02 255.02 0 0 0 15.71 48.524l89.717-29.135 20.384 63.304 54.777-114.33zm359.06.15142-111.52 60.299 54.316 114.18 20.691-63.115 90.092 29.583a255.02 255.02 0 0 0 15.808-48.495l-90.01-29.555zm-179.62 109.55-91.809 86.942 66.306.17532v95.222a255.02 255.02 0 0 0 25.502 1.2791 255.02 255.02 0 0 0 25.502-1.5441v-94.823l66.306.17533z" clip-path="url(#b)" fill="#fff" fill-opacity=".19608" stroke="#fff" stroke-width="20"/><g display="none"><g display="inline"><g transform="translate(155.34 -70.714)" fill="#3432a0"><path d="m94.661 70.714 50 60.006h-100z" fill="#3432a0"/></g><path d="m250 0v500" fill="none" stroke="#000" stroke-width="1px"/><g transform="rotate(10,250,250)"><g transform="rotate(45 257.69 472.87)" fill="#3432a0"><path d="m94.661 70.714 50 60.006h-100z" fill="#3432a0"/></g><path d="m426.78 73.223-353.55 353.55" fill="none" stroke="#000" stroke-width="1px"/></g><g transform="rotate(20 243.16 296.1)"><g transform="rotate(90 207.69 363.03)" fill="#3432a0"><path d="m94.661 70.714 50 60.006h-100z" fill="#3432a0"/></g><path d="m500 250h-500" fill="none" stroke="#000" stroke-width="1px"/></g><path d="m454.79 106.61c-80.464 56.241-204.38 146.75-204.74 219.97.48832-73.803 158.51-20.117 250.23 14.045" fill="none" stroke="#000" stroke-width="1px"/></g></g><g display="none"><g transform="translate(155.34 -70.714)" fill="#3432a0"><path d="m94.661 70.714 50 60.006h-100z" fill="#3432a0"/></g><path d="m250 0v500" fill="none" stroke="#000" stroke-width="1px"/><g transform="rotate(45 257.69 472.87)" fill="#3432a0"><path d="m94.661 70.714 50 60.006h-100z" fill="#3432a0"/></g><path d="m426.78 73.223-353.55 353.55" fill="none" stroke="#000" stroke-width="1px"/><g transform="rotate(90 207.69 363.03)" fill="#3432a0"><path d="m94.661 70.714 50 60.006h-100z" fill="#3432a0"/></g><g fill="none" stroke="#000" stroke-width="1px"><path d="m500 250h-500"/><path d="m426.78 73.223c-112.64 112.66-176.42 153.88-176.78 426.78"/><path d="m500 250c-139.61.11136-250.3 18.363-250 250"/></g></g><g display="none"><g transform="translate(155.34 -70.714)" fill="#3432a0"><path d="m94.661 70.714 50 60.006h-100z" fill="#3432a0"/></g><path d="m250 0v500" fill="none" stroke="#000" stroke-width="40"/><g transform="rotate(45 257.69 472.87)" fill="#3432a0"><path d="m94.661 70.714 50 60.006h-100z" fill="#3432a0"/></g><path d="m426.78 73.223c-112.64 112.66-176.42 153.88-176.78 426.78" fill="none" stroke="#000" stroke-width="40"/><g transform="rotate(90 207.69 363.03)" fill="#3432a0"><path d="m94.661 70.714 50 60.006h-100z" fill="#3432a0"/></g><path d="m500 250c-139.61.11136-250.3 18.363-250 250" fill="none" stroke="#000" stroke-width="40"/><g transform="matrix(-1 0 0 1 499 -3.4052e-7)"><g transform="rotate(45 257.69 472.87)" fill="#3432a0"><path d="m94.661 70.714 50 60.006h-100z" fill="#3432a0"/></g><path d="m426.78 73.223c-112.64 112.66-176.42 153.88-176.78 426.78" fill="none" stroke="#000" stroke-width="40"/></g><g transform="matrix(-1 0 0 1 499 0)"><g transform="rotate(90 207.69 363.03)" fill="#3432a0"><path d="m94.661 70.714 50 60.006h-100z" fill="#3432a0"/></g><path d="m500 250c-139.61.11136-250.3 18.363-250 250" fill="none" stroke="#000" stroke-width="40"/></g></g><g display="none"><g fill="none" stroke="#000" stroke-width="40"><path d="m250 52.001v448"/><path d="m387.75 111.82c-88.236 87.57-137.44 148.58-137.75 388.18"/><path d="m444.38 251.57c-112.27 7.5632-194.63 48.573-194.38 248.43"/><path d="m112.13 112.7c87.683 87.105 136.56 148.5 136.87 387.3"/><path d="m53.911 251.53c112.63 7.4381 195.35 48.198 195.09 248.47"/></g><path d="m250 0 50 60.006h-100z"/><path d="m426.78 73.223-7.0754 77.786-70.711-70.711z"/><path d="m500 250-60.006 50v-100z"/><path d="m72.224 73.223 7.0754 77.786 70.711-70.711z"/><path d="m-1.0016 250 60.006 50v-100z"/></g><g display="none"><g transform="rotate(180 249.95 250)"><path d="m250 0-73.205 87.855h53.205v151.28c-3.7428-5.8476-7.8109-11.55-12.193-17.115-22.565-28.653-52.777-54.186-89.59-80.949l30.838-44.039-113.96 9.5742 29.979 110.36 30.168-43.082c35.043 25.617 62.364 49.05 81.137 72.887 5.9245 7.5228 11.054 15.041 15.414 22.729-4.4716-.76151-9.0264-1.2338-13.615-1.3809-32.067-1.0275-69.368 9.2607-112.67 24.172l-18.381-50.502-57.52 98.838 107.6 38.742-17.947-49.309c41.898-13.987 76.307-22.646 97.641-21.963 13.371.42844 20.053 3.4608 24.523 8.4043 4.4708 4.9435 8.5521 14.608 8.5781 33.529v149.97h60v-149.97c.026-18.925 4.1054-28.596 8.5684-33.537 4.4629-4.9406 11.122-7.9682 24.477-8.3965 21.306-.68326 55.693 7.9747 97.584 21.961l-17.947 49.311 107.6-38.742-57.52-98.838-18.381 50.5c-43.29-14.91-80.566-25.198-112.61-24.17-4.582.14694-9.1303.62011-13.596 1.3809 4.355-7.691 9.4804-15.211 15.4-22.736 18.75-23.834 46.046-47.263 81.076-72.877l30.166 43.08 29.977-110.36-113.96-9.5742 30.838 44.041c-36.806 26.764-66.997 52.301-89.539 80.955-4.3594 5.5415-8.4057 11.219-12.131 17.041v-151.21h53.205z" color="#000000" color-rendering="auto" dominant-baseline="auto" image-rendering="auto" shape-rendering="auto" solid-color="#000000" style="font-feature-settings:normal;font-variant-alternates:normal;font-variant-caps:normal;font-variant-ligatures:normal;font-variant-numeric:normal;font-variant-position:normal;isolation:auto;mix-blend-mode:normal;shape-padding:0;text-decoration-color:#000000;text-decoration-line:none;text-decoration-style:solid;text-indent:0;text-orientation:mixed;text-transform:none;white-space:normal"/></g></g><path d="m248.94 162.11-63.35 119h50.17v15.307h26.289v-15.307h50.246l-63.355-119z" clip-path="url(#a)" fill="#fff" fill-opacity=".19608" stroke="#fff" stroke-linecap="round" stroke-width="20" style="paint-order:stroke markers fill"/></svg>
