<svg version="1.1" viewBox="0 0 2e3 500" xmlns="http://www.w3.org/2000/svg"><defs><clipPath id="a"><path d="m142.73 383.35s-68.479-27.091-80.972-32.251c-34.884-14.41-11.085-182.04 15.783-225.76 17.07-27.773 85.775-44.603 102.24-42.544 16.469 2.0586 86.461 13.038 86.461 13.038z" fill="none" stroke="#000" stroke-width="1px"/></clipPath><clipPath id="b"><path d="m133.12 377.86c-37.741-24.703-9.291-209.79 19.9-240.17 33.624-34.996 108.42-48.034 122.14-38.427 13.724 9.6068 87.344 161.72 44.113 215.93s-149.1 90.114-186.16 62.666z" fill="none" stroke="#0f0" stroke-width="1px"/></clipPath></defs><g transform="translate(.77 -.68946)"><path d="m254.99 499.43c53.942 1.1235 60.891-42.634 60.705-65.868-0.25563-31.95-19.656-42.806-20.471-70.165-0.76667-25.732 14.557-46.917 48.47-35.58 33.913 11.336 107.53 20.314 149.72 17.08 3.384-20.519 14.08-108.35-4.8454-117.18-49.99-23.313-45.971 42.011-133.39 34.009-87.421-8.0021-44.464-105.27 12.367-108.2 48.297-2.4917 49.432 22.582 108.21 19.512 24.227-1.2651 28.53-142.14 18.734-162.39-36.605-8.94-212.05-18.533-218.28 4.9933-8.7343 32.994 29.68 36.604 27.42 79.282-2.2609 42.678-38.89 58.106-78.079 56.772-39.189-1.3337-59-37.425-46.942-74.101s30.923-26.872 23.827-64.227c-4.6098-24.269-144.28-10.424-198.86 16.354-5.1676 39.375-4.8439 129.27 18.706 139.79 42.518 18.98 41.279-16.332 91.736-15.145 34.516 0.81159 66.031 19.686 63.77 56.363-2.2609 36.676-17.769 63.196-59.703 60.527-41.202-2.622-40.961-28.401-83.581-24.682-28.132 2.4547-33.854 117.98-33.854 117.98s130.84-10.992 168.81-25.826c31.177-12.18 58.95-5.9188 55.429 18.882-4.5833 32.282-34.937 35.806-37.042 78.832-2.4515 50.113 32.146 62.255 67.141 62.984z" fill="#0ff"/></g><g transform="translate(699.72 -2.1995)"><rect transform="rotate(244.42)" x="-621.44" y="900.81" width="67.823" height="240.68" fill="#fff"/><g stroke="#fff"><path d="m865.06 284.51-37.516-78.363 214.44-102.66c23.265 13.135 43.02 30.505 37.516 78.363z" fill="#e4f5ff" stroke-linecap="round" stroke-linejoin="round" stroke-width="19.802"/><path transform="matrix(-.64875 -1.3551 1.3551 -.64875 603.62 681.45)" d="m142.73 383.35s-68.479-27.091-80.972-32.251c-34.884-14.41-11.085-182.04 15.783-225.76 17.07-27.773 85.775-44.603 102.24-42.544 16.469 2.0586 86.461 13.038 86.461 13.038z" clip-path="url(#a)" fill="#e4f5ff" stroke-width="20"/><path transform="matrix(-.64875 -1.3551 1.3551 -.64875 603.62 681.45)" d="m133.12 377.86c-37.741-24.703-9.291-209.79 19.9-240.17 33.624-34.996 108.42-48.034 122.14-38.427 13.724 9.6068 87.344 161.72 44.113 215.93s-149.1 90.114-186.16 62.666z" clip-path="url(#b)" stroke-width="20"/></g><path d="m911.21 285.42-42.231-38.075-15.206-108.16 42.231 38.075z" fill="#ff0" stroke-width="0"/><path d="m911.21 285.42 29.161-13.967-15.206-108.16-29.161 13.967z" fill="#ffdc00"/><path d="m853.77 139.18 42.231 38.075 29.161-13.967-45.05-36.945-26.342 12.837" fill="#ffb900"/><g transform="matrix(-.64875 -1.3551 1.3551 -.64875 748.33 706.42)"><path d="m326.47 171.69 31.97-13.164 63.312 20.059-31.97 13.164z" fill="#ff0" stroke-width="0"/><path d="m326.47 171.69 4e-3 19.66 63.312 20.059-4e-3 -19.66z" fill="#ffdc00"/><path d="m421.75 178.59-31.97 13.164 4e-3 19.66 32.09-15.006-0.12364-17.817" fill="#ffb900"/></g><path d="m676 284.44 60.616-29.026-15.206-108.16-60.616 29.026z" fill="#ffdc00"/><path d="m639.33 156.78 21.467 19.499 60.616-29.026-24.286-18.369-57.798 27.896" fill="#ffb900"/><path d="m676 284.44-21.467-19.499-15.206-108.16 21.467 19.499z" fill="#ff0" stroke-width="0"/></g><path d="m1072.2 254.25-189.98 158.32v-94.991h-158.32v-126.66h158.32v-94.991z" fill="#fff" fill-opacity=".19608" stroke="#fff" stroke-width="18.9"/></svg>
