<svg version="1.1" viewBox="0 0 1e3 800" xmlns="http://www.w3.org/2000/svg"><path d="m67.363 1.0777c-36.884 0-65.041 28.16-65.041 65.043v368.43c0 36.883 28.157 65.043 65.041 65.043h368.43c36.884 0 65.043-28.16 65.043-65.043v-368.43c0-36.884-28.16-65.043-65.043-65.043zm179.39 113.96h11.42c12.653 0 22.837 10.187 22.837 22.839v68.516c0 12.653-10.184 22.839-22.837 22.839h-11.42c-12.653 0-22.839-10.187-22.839-22.839v-68.516c0-12.653 10.187-22.839 22.839-22.839zm-145.82 199.94h54.924c10.143 0 18.306 8.1633 18.306 18.306v9.1544c0 10.143-8.1632 18.311-18.306 18.311h-54.924c-10.143 0-18.311-8.1685-18.311-18.311v-9.1544c0-10.143 8.1686-18.306 18.311-18.306zm246.66 0h54.926c10.143 0 18.306 8.1633 18.306 18.306v9.1544c0 10.143-8.1632 18.311-18.306 18.311h-54.926c-10.143 0-18.311-8.1685-18.311-18.311v-9.1544c0-10.143 8.1686-18.306 18.311-18.306z" style="color:#000000;fill:#0affff;stroke-width:21.502"/><path d="m756.02 19.205c-13.265 0-23.943 10.678-23.943 23.943v72.861h-148.55c-15.763 0-28.453 10.321-28.453 23.141v65.277c1e-5 12.819 12.69 23.141 28.453 23.141h148.55v87.26l-108.31 0.00196c-14.164 0-25.566 5.8477-25.566 13.111v20.697c0 7.2639 11.402 13.113 25.566 13.113h108.31v88.447c0 13.265 10.678 23.943 23.943 23.943h24.088v55.727c0 10.612 8.5423 19.154 19.154 19.154h14.029v16.662h-0.43554c-8.8437 0-15.963 6.9888-15.963 15.67s7.1196 15.67 15.963 15.67h0.43554v19.74h-0.43554c-8.8437 1e-5 -15.963 6.9892-15.963 15.67 0 8.6811 7.1196 15.67 15.963 15.67h0.43554v88.076h79.814v-88.098c8.6378-0.228 15.525-7.1124 15.525-15.648 0-8.5362-6.8875-15.421-15.525-15.648v-19.785c8.6378-0.228 15.525-7.1105 15.525-15.646 0-8.5362-6.8875-15.421-15.525-15.648v-16.684h13.43c10.612 0 19.156-8.5423 19.156-19.154v-55.795l2.3867 0.05273c38.967 0.858 70.338-33.79 70.338-77.686v-294.02c0-43.896-31.371-79.923-70.338-80.781l-78.516-1.7305c0.08388-0.23218 0.15844-0.47206 0.24414-0.70312h-93.787z" style="fill:#16bb05;stroke-opacity:.98607;stroke-width:15.963"/></svg>
