<svg version="1.1" viewBox="0 0 500 500" xmlns="http://www.w3.org/2000/svg"><rect x="52.967" y="58.239" width="387.84" height="385.58" style="fill:#fff;stroke-opacity:.98607;stroke-width:10.149"/><path d="m65.483 1.0501c-36.884 0-65.041 28.16-65.041 65.043v368.43c0 36.883 28.157 65.043 65.041 65.043h368.43c36.884 0 65.043-28.16 65.043-65.043v-368.43c0-36.884-28.16-65.043-65.043-65.043zm179.39 113.96h11.42c12.653 0 22.837 10.187 22.837 22.839v68.516c0 12.653-10.184 22.839-22.837 22.839h-11.42c-12.653 0-22.839-10.187-22.839-22.839v-68.516c0-12.653 10.187-22.839 22.839-22.839zm-145.82 199.94h54.924c10.143 0 18.306 8.1633 18.306 18.306v9.1544c0 10.143-8.1632 18.311-18.306 18.311h-54.924c-10.143 0-18.311-8.1685-18.311-18.311v-9.1544c0-10.143 8.1686-18.306 18.311-18.306zm246.66 0h54.926c10.143 0 18.306 8.1633 18.306 18.306v9.1544c0 10.143-8.1632 18.311-18.306 18.311h-54.926c-10.143 0-18.311-8.1685-18.311-18.311v-9.1544c0-10.143 8.1686-18.306 18.311-18.306z" style="color:#000000;fill:#f00;stroke-width:21.502"/></svg>
