<svg version="1.1" viewBox="0 0 500 500" xmlns="http://www.w3.org/2000/svg"><path d="m114.38 67.209c-27.094 0-47.778 20.684-47.778 47.778v270.64c0 27.094 20.684 47.778 47.778 47.778h270.64c27.094 0 47.778-20.684 47.778-47.778v-270.64c0-27.094-20.684-47.778-47.778-47.778zm131.77 83.714h8.3884c9.2944 0 16.777 7.4825 16.777 16.777v50.331c0 9.2945-7.4824 16.777-16.777 16.777h-8.3884c-9.2944 0-16.777-7.4824-16.777-16.777v-50.331c0-9.2943 7.4825-16.777 16.777-16.777zm-107.11 146.87h40.346c7.4507 0 13.448 5.997 13.448 13.448v6.7238c0 7.4507-5.997 13.451-13.448 13.451h-40.346c-7.4507 0-13.451-6.0003-13.451-13.451v-6.7238c0-7.4507 6.0003-13.448 13.451-13.448zm181.19 0h40.346c7.4507 0 13.448 5.997 13.448 13.448v6.7238c0 7.4507-5.997 13.451-13.448 13.451h-40.346c-7.4507 0-13.451-6.0003-13.451-13.451v-6.7238c0-7.4507 6.0003-13.448 13.451-13.448zm-214.26-296.35c-57.844 0-105.13 47.286-105.13 105.13v287.46c0 57.844 47.286 105.13 105.13 105.13h287.46c57.844 0 105.13-47.286 105.13-105.13v-287.46c0-57.844-47.286-105.13-105.13-105.13zm0 45.996h287.46c33.159 0 59.135 25.976 59.135 59.135v287.46c0 33.159-25.976 59.135-59.135 59.135h-287.46c-33.159 0-59.135-25.976-59.135-59.135v-287.46c0-33.159 25.976-59.135 59.135-59.135z" style="color:#000000;fill:#3432a0;stroke-width:15.795"/></svg>
