<svg enable-background="new" version="1.1" viewBox="0 0 500 500" xmlns="http://www.w3.org/2000/svg"><g><rect transform="rotate(-45)" x="187.23" y="320.96" width="132.13" height="66.065" fill="#fff" style="paint-order:normal"/><rect transform="rotate(-45)" x="-320.19" y="320.96" width="132.13" height="66.065" fill="#fff" style="paint-order:normal"/><path d="m21.614 292.15c-25.88 25.88-25.88 67.549 0 93.429l93.429 93.429c25.88 25.88 67.549 25.88 93.429 0l93.429-93.429-37.372-37.372-28.029 28.029c-10.352 10.352-27.02 10.352-37.372 0-10.352-10.352-10.352-27.02 0-37.372l28.029-28.029-37.372-37.372-28.029 28.029c-10.352 10.352-27.02 10.352-37.372 0-10.352-10.352-10.352-27.02 0-37.372l28.029-28.029-37.372-37.372z" fill="#0f0" style="paint-order:normal"/></g><g transform="matrix(.93429 -.93429 .93429 .93429 -361.45 114.63)"><rect x="250" y="340" width="100" height="40" rx="20" ry="20" fill="#fff" style="paint-order:normal"/><rect x="250" y="420" width="100" height="40" rx="20" ry="20" fill="#fff" style="paint-order:normal"/><path d="m400 300c27.7 0 50 22.3 50 50v100c0 27.7-22.3 50-50 50h-100v-200z" fill="#0f0" style="paint-order:normal"/></g></svg>
