<svg version="1.1" viewBox="0 0 1200 800" xmlns="http://www.w3.org/2000/svg"><defs><clipPath id="clipPath855"><path d="m67.363 1.0777c-36.884 0-65.041 28.16-65.041 65.043v368.43c0 36.883 28.157 65.043 65.041 65.043h368.43c36.884 0 65.043-28.16 65.043-65.043v-368.43c0-36.884-28.16-65.043-65.043-65.043zm179.39 113.96h11.42c12.653 0 22.837 10.187 22.837 22.839v68.516c0 12.653-10.184 22.839-22.837 22.839h-11.42c-12.653 0-22.839-10.187-22.839-22.839v-68.516c0-12.653 10.187-22.839 22.839-22.839zm-145.82 199.94h54.924c10.143 0 18.306 8.1633 18.306 18.306v9.1544c0 10.143-8.1632 18.311-18.306 18.311h-54.924c-10.143 0-18.311-8.1685-18.311-18.311v-9.1544c0-10.143 8.1686-18.306 18.311-18.306zm246.66 0h54.926c10.143 0 18.306 8.1633 18.306 18.306v9.1544c0 10.143-8.1632 18.311-18.306 18.311h-54.926c-10.143 0-18.311-8.1685-18.311-18.311v-9.1544c0-10.143 8.1686-18.306 18.311-18.306z" style="color:#000000;fill:#3432a0;stroke-width:21.502"/></clipPath><clipPath id="clipPath867"><path d="m849.81 19.206c-0.0857 0.23107-0.15931 0.4693-0.24319 0.70148l78.516 1.7303c38.967 0.8583 70.338 36.887 70.338 80.783v294.02c0 43.896-31.371 78.545-70.338 77.687l-2.3882-0.053v55.794c0 10.612-8.5432 19.155-19.155 19.155h-13.431v16.683c8.6379 0.22763 15.526 7.1118 15.526 15.648 0 8.536-6.8882 15.42-15.526 15.648v19.785c8.6379 0.22763 15.526 7.1118 15.526 15.648 0 8.536-6.8882 15.42-15.526 15.648v88.097h-79.813v-88.075h-0.43648c-8.8433 0-15.963-6.9889-15.963-15.67 0-8.6807 7.1193-15.67 15.963-15.67h0.43648v-19.741h-0.43648c-8.8433 0-15.963-6.9889-15.963-15.67s7.1193-15.67 15.963-15.67h0.43648v-16.661h-14.03c-10.612 0-19.155-8.5432-19.155-19.155v-55.726h-24.087c-13.265 0-23.944-10.679-23.944-23.944v-407.05c0-13.265 10.679-23.944 23.944-23.944z" style="fill:#16b905;stroke-opacity:.98607;stroke-width:15.963"/></clipPath><clipPath id="clipPath878"><path d="m583.53 116.01c-15.763 0-28.453 10.321-28.453 23.141v65.277c1e-5 12.819 12.69 23.141 28.453 23.141h164.31v-111.56zm162.42 191.77-120.94 2e-3c-13.807 0-24.922 7.6046-24.922 17.051v26.916c0 9.4466 11.115 17.053 24.922 17.053h120.94z" style="fill:#bf0;stroke-width:30;stroke:#000"/></clipPath></defs><rect x="46.591" y="60.247" width="405.26" height="347.02" style="fill:#5a5a5a;stroke-opacity:.98607;stroke-width:15"/><path transform="translate(106)" d="m583.53 116.01c-15.763 0-28.453 10.321-28.453 23.141v65.277c1e-5 12.819 12.69 23.141 28.453 23.141h164.31v-111.56zm162.42 191.77-120.94 2e-3c-13.807 0-24.922 7.6046-24.922 17.051v26.916c0 9.4466 11.115 17.053 24.922 17.053h120.94z" clip-path="url(#clipPath878)" style="fill:#bf0;stroke-width:30;stroke:#000"/><path d="m67.363 1.0777c-36.884 0-65.041 28.16-65.041 65.043v368.43c0 36.883 28.157 65.043 65.041 65.043h368.43c36.884 0 65.043-28.16 65.043-65.043v-368.43c0-36.884-28.16-65.043-65.043-65.043zm179.39 113.96h11.42c12.653 0 22.837 10.187 22.837 22.839v68.516c0 12.653-10.184 22.839-22.837 22.839h-11.42c-12.653 0-22.839-10.187-22.839-22.839v-68.516c0-12.653 10.187-22.839 22.839-22.839zm-145.82 199.94h54.924c10.143 0 18.306 8.1633 18.306 18.306v9.1544c0 10.143-8.1632 18.311-18.306 18.311h-54.924c-10.143 0-18.311-8.1685-18.311-18.311v-9.1544c0-10.143 8.1686-18.306 18.311-18.306zm246.66 0h54.926c10.143 0 18.306 8.1633 18.306 18.306v9.1544c0 10.143-8.1632 18.311-18.306 18.311h-54.926c-10.143 0-18.311-8.1685-18.311-18.311v-9.1544c0-10.143 8.1686-18.306 18.311-18.306z" clip-path="url(#clipPath855)" style="color:#000000;fill:#fff;stroke-width:30;stroke:#000"/><path transform="translate(108)" d="m849.81 19.206c-0.0857 0.23107-0.15931 0.4693-0.24319 0.70148l78.516 1.7303c38.967 0.8583 70.338 36.887 70.338 80.783v294.02c0 43.896-31.371 78.545-70.338 77.687l-2.3882-0.053v55.794c0 10.612-8.5432 19.155-19.155 19.155h-13.431v16.683c8.6379 0.22763 15.526 7.1118 15.526 15.648 0 8.536-6.8882 15.42-15.526 15.648v19.785c8.6379 0.22763 15.526 7.1118 15.526 15.648 0 8.536-6.8882 15.42-15.526 15.648v88.097h-79.813v-88.075h-0.43648c-8.8433 0-15.963-6.9889-15.963-15.67 0-8.6807 7.1193-15.67 15.963-15.67h0.43648v-19.741h-0.43648c-8.8433 0-15.963-6.9889-15.963-15.67s7.1193-15.67 15.963-15.67h0.43648v-16.661h-14.03c-10.612 0-19.155-8.5432-19.155-19.155v-55.726h-24.087c-13.265 0-23.944-10.679-23.944-23.944v-407.05c0-13.265 10.679-23.944 23.944-23.944z" clip-path="url(#clipPath867)" style="fill:#5a5a5a;stroke-width:30;stroke:#000"/><path d="m887.71 466.54 145.58-0.068" style="fill:none;stroke-width:15;stroke:#000"/><path d="m920.49 541.39h79.813" style="fill:none;stroke-width:15;stroke:#000"/></svg>
