<svg enable-background="new" version="1.1" viewBox="0 0 1600 500" xmlns="http://www.w3.org/2000/svg"><defs><clipPath id="f"><path d="m424.25 1.8555c-68.505 1.96e-5-123.66 55.149-123.66 123.65v247.31c0 68.506 55.151 123.66 123.66 123.66h247.31v-89.033h-131.63c-32.883 0-59.354-26.471-59.354-59.354s26.471-59.355 59.354-59.355h131.63v-79.141h-131.63c-32.883 0-59.354-26.471-59.354-59.354s26.471-59.355 59.354-59.355h131.63v-89.031z" fill="#0ff" style="paint-order:normal"/></clipPath><clipPath id="e"><path d="m1246.3 1.8545c68.505 0 123.66 55.151 123.66 123.66v247.31c0 68.505-55.151 123.66-123.66 123.66h-247.31v-494.62z" fill="#0ff" style="paint-order:normal"/></clipPath><clipPath id="d"><rect x="810.57" y="90.887" width="296.77" height="118.71" rx="59.355" ry="59.355" fill="#ff0" style="paint-order:normal"/></clipPath><clipPath id="c"><rect x="810.57" y="288.74" width="296.77" height="118.71" rx="59.355" ry="59.355" fill="#ff0" style="paint-order:normal"/></clipPath><clipPath id="b"><rect x="1362" y="187.34" width="300" height="123.66" fill="#f00" style="paint-order:normal"/></clipPath><clipPath id="a"><rect x="2" y="180.99" width="300" height="130" fill="#f00" style="paint-order:normal"/></clipPath></defs><g stroke-linejoin="round" stroke-width="20"><rect x="2" y="180.99" width="300" height="130" clip-path="url(#a)" fill="#d20000" stroke="#f00" style="paint-order:normal"/><rect x="1362" y="187.34" width="300" height="123.66" clip-path="url(#b)" fill="#d20000" stroke="#f00" style="paint-order:normal"/><rect x="810.57" y="288.74" width="296.77" height="118.71" rx="59.355" ry="59.355" clip-path="url(#c)" fill="#ffdc00" stroke="#ff0" style="paint-order:normal"/><rect x="810.57" y="90.887" width="296.77" height="118.71" rx="59.355" ry="59.355" clip-path="url(#d)" fill="#ffdc00" stroke="#ff0" style="paint-order:normal"/><path d="m424.25 1.8555c-68.505 1.96e-5-123.66 55.149-123.66 123.65v247.31c0 68.506 55.151 123.66 123.66 123.66h247.31v-89.033h-131.63c-32.883 0-59.354-26.471-59.354-59.354s26.471-59.355 59.354-59.355h131.63v-79.141h-131.63c-32.883 0-59.354-26.471-59.354-59.354s26.471-59.355 59.354-59.355h131.63v-89.031z" clip-path="url(#f)" fill="#00d2ff" stroke="#0ff" style="paint-order:normal"/><path d="m1246.3 1.8545c68.505 0 123.66 55.151 123.66 123.66v247.31c0 68.505-55.151 123.66-123.66 123.66h-247.31v-494.62z" clip-path="url(#e)" fill="#00d2ff" stroke="#0ff" style="paint-order:normal"/></g></svg>
