<svg version="1.1" viewBox="0 0 500 500" xmlns="http://www.w3.org/2000/svg"><g transform="matrix(1.0201 0 0 1.0201 .26255 .125)"><path d="m358.61 128.72-230.37 247.37" fill="none" stroke="#008006" stroke-linejoin="round" stroke-width="97.777"/><path d="m359.89 107.82c-8.0166-20.805 7.1907-59.191 7.1907-59.191l82.308-33.158c-3.4856-5.096-15.703-13.43-22.704-14.631-107.16-2.6283-123.09 14.669-137.26 60.366-8.5174 27.466-17.31 69.751-.65417 97.739 16.564 27.833 62.9 42.277 85.681 45.684 31.762 4.7499 52.911 7.9785 108.85-63.47 4.2022-5.7337 7.2093-20.227 6.1814-26.317l-82.21 33.4c-23.929-11.28-39.607-20.24-47.383-40.422z" fill="#008000" stroke-width="1.2222" style="paint-order:stroke markers fill"/><g transform="matrix(1.1596 -.040549 .040495 1.1612 -258.71 264.6)" fill="#008000"><path d="m314.68 126.09c5.3692 15.507-6.8154 43.346-6.8154 43.346l-61.464 22.269c2.436 3.8374 11.219 10.281 16.343 11.344 78.849 4.6888 91.021-7.6227 102.63-40.865 6.9777-19.98 14.539-50.852 2.9918-71.864-11.483-20.895-45.234-32.709-61.923-35.801-23.268-4.31-38.759-7.2283-81.789 43.878-3.2418 4.1086-5.8285 14.69-5.2279 19.196l61.398-22.449c17.332 8.9112 28.647 15.904 33.856 30.946z" fill="#008000" stroke-width=".9" style="paint-order:stroke markers fill"/></g></g></svg>
