<svg version="1.1" viewBox="0 0 500 500" xmlns="http://www.w3.org/2000/svg"><defs><clipPath id="a"><path d="m250 0-73.205 87.855h53.205v151.28c-3.7428-5.8476-7.8109-11.55-12.193-17.115-22.565-28.653-52.777-54.186-89.59-80.949l30.838-44.039-113.96 9.5742 29.979 110.36 30.168-43.082c35.043 25.617 62.364 49.05 81.137 72.887 5.9245 7.5228 11.054 15.041 15.414 22.729-4.4716-.76151-9.0264-1.2338-13.615-1.3809-32.067-1.0275-69.368 9.2607-112.67 24.172l-18.381-50.502-57.52 98.838 107.6 38.742-17.947-49.309c41.898-13.987 76.307-22.646 97.641-21.963 13.371.42844 20.053 3.4608 24.523 8.4043 4.4708 4.9435 8.5521 14.608 8.5781 33.529v149.97h60v-149.97c.026-18.925 4.1054-28.596 8.5684-33.537 4.4629-4.9406 11.122-7.9682 24.477-8.3965 21.306-.68326 55.693 7.9747 97.584 21.961l-17.947 49.311 107.6-38.742-57.52-98.838-18.381 50.5c-43.29-14.91-80.566-25.198-112.61-24.17-4.582.14694-9.1303.62011-13.596 1.3809 4.355-7.691 9.4804-15.211 15.4-22.736 18.75-23.834 46.046-47.263 81.076-72.877l30.166 43.08 29.977-110.36-113.96-9.5742 30.838 44.041c-36.806 26.764-66.997 52.301-89.539 80.955-4.3594 5.5415-8.4057 11.219-12.131 17.041v-151.21h53.205z" color="#000000" color-rendering="auto" dominant-baseline="auto" image-rendering="auto" shape-rendering="auto" solid-color="#000000" style="font-feature-settings:normal;font-variant-alternates:normal;font-variant-caps:normal;font-variant-ligatures:normal;font-variant-numeric:normal;font-variant-position:normal;isolation:auto;mix-blend-mode:normal;shape-padding:0;text-decoration-color:#000000;text-decoration-line:none;text-decoration-style:solid;text-indent:0;text-orientation:mixed;text-transform:none;white-space:normal"/></clipPath></defs><g><path d="m250 0-73.205 87.855h53.205v151.28c-3.7428-5.8476-7.8109-11.55-12.193-17.115-22.565-28.653-52.777-54.186-89.59-80.949l30.838-44.039-113.96 9.5742 29.979 110.36 30.168-43.082c35.043 25.617 62.364 49.05 81.137 72.887 5.9245 7.5228 11.054 15.041 15.414 22.729-4.4716-.76151-9.0264-1.2338-13.615-1.3809-32.067-1.0275-69.368 9.2607-112.67 24.172l-18.381-50.502-57.52 98.838 107.6 38.742-17.947-49.309c41.898-13.987 76.307-22.646 97.641-21.963 13.371.42844 20.053 3.4608 24.523 8.4043 4.4708 4.9435 8.5521 14.608 8.5781 33.529v149.97h60v-149.97c.026-18.925 4.1054-28.596 8.5684-33.537 4.4629-4.9406 11.122-7.9682 24.477-8.3965 21.306-.68326 55.693 7.9747 97.584 21.961l-17.947 49.311 107.6-38.742-57.52-98.838-18.381 50.5c-43.29-14.91-80.566-25.198-112.61-24.17-4.582.14694-9.1303.62011-13.596 1.3809 4.355-7.691 9.4804-15.211 15.4-22.736 18.75-23.834 46.046-47.263 81.076-72.877l30.166 43.08 29.977-110.36-113.96-9.5742 30.838 44.041c-36.806 26.764-66.997 52.301-89.539 80.955-4.3594 5.5415-8.4057 11.219-12.131 17.041v-151.21h53.205z" clip-path="url(#a)" color="#000000" color-rendering="auto" dominant-baseline="auto" fill="#00b900" image-rendering="auto" shape-rendering="auto" solid-color="#000000" stroke="#0f0" stroke-width="20" style="font-feature-settings:normal;font-variant-alternates:normal;font-variant-caps:normal;font-variant-ligatures:normal;font-variant-numeric:normal;font-variant-position:normal;isolation:auto;mix-blend-mode:normal;shape-padding:0;text-decoration-color:#000000;text-decoration-line:none;text-decoration-style:solid;text-indent:0;text-orientation:mixed;text-transform:none;white-space:normal"/></g></svg>
