<svg version="1.1" viewBox="0 0 500 500" xmlns="http://www.w3.org/2000/svg"><defs><clipPath id="a"><path d="m401.17 16.551-126.63 16.537 54.154 39.561-63.932 89.191 41.686 30.268 63.846-89.07 53.996 39.449zm-303.7 2.459-23.404 125.54 54.225-39.18 64.451 87.166 41.629-30.346-64.326-86.988 54.342-39.262zm-39.279 174.69-55.326 115.47 112.17 61.057-20.467-63.559 104.55-35.514-15.865-49.012-104.47 35.49zm384.54 1.0176-20.898 63.746-106.15-35.941-15.967 48.979 106.07 35.914-20.83 63.527 112.64-60.902zm-166.81 93.318-51.004.26563-.42969 111.54-66.307-.17578 91.807 87.428 91.809-86.943-66.305-.17383z" fill="#00b900"/></clipPath></defs><path d="m401.17 16.551-126.63 16.537 54.154 39.561-63.932 89.191 41.686 30.268 63.846-89.07 53.996 39.449-23.115-125.94zm-303.7 2.459-23.404 125.54 54.225-39.18 64.451 87.166 41.629-30.346-64.326-86.988 54.342-39.262-126.92-16.936zm-39.279 174.69-55.326 115.47 112.17 61.057-20.467-63.559 104.55-35.514-15.865-49.012-104.47 35.49-20.588-63.936zm384.54 1.0176-20.898 63.746-106.15-35.941-15.967 48.979 106.07 35.914-20.83 63.527 112.64-60.902-54.859-115.32zm-166.81 93.318-51.004.26563-.42969 111.54-66.307-.17578 91.807 87.428 91.809-86.943-66.305-.17383.42969-111.95z" clip-path="url(#a)" fill="#fff" fill-opacity=".19608" stroke="#fff" stroke-width="30"/><g display="none"><g display="inline"><g transform="translate(155.34 -70.714)" fill="#3432a0"><path d="m94.661 70.714 50 60.006h-100z" fill="#3432a0"/></g><path d="m250 0v500" fill="none" stroke="#000" stroke-width="1px"/><g transform="rotate(10,250,250)"><g transform="rotate(45 257.69 472.87)" fill="#3432a0"><path d="m94.661 70.714 50 60.006h-100z" fill="#3432a0"/></g><path d="m426.78 73.223-353.55 353.55" fill="none" stroke="#000" stroke-width="1px"/></g><g transform="rotate(20 243.16 296.1)"><g transform="rotate(90 207.69 363.03)" fill="#3432a0"><path d="m94.661 70.714 50 60.006h-100z" fill="#3432a0"/></g><path d="m500 250h-500" fill="none" stroke="#000" stroke-width="1px"/></g><path d="m454.79 106.61c-80.464 56.241-204.38 146.75-204.74 219.97.48832-73.803 158.51-20.117 250.23 14.045" fill="none" stroke="#000" stroke-width="1px"/></g></g><g display="none"><g transform="translate(155.34 -70.714)" fill="#3432a0"><path d="m94.661 70.714 50 60.006h-100z" fill="#3432a0"/></g><path d="m250 0v500" fill="none" stroke="#000" stroke-width="1px"/><g transform="rotate(45 257.69 472.87)" fill="#3432a0"><path d="m94.661 70.714 50 60.006h-100z" fill="#3432a0"/></g><path d="m426.78 73.223-353.55 353.55" fill="none" stroke="#000" stroke-width="1px"/><g transform="rotate(90 207.69 363.03)" fill="#3432a0"><path d="m94.661 70.714 50 60.006h-100z" fill="#3432a0"/></g><g fill="none" stroke="#000" stroke-width="1px"><path d="m500 250h-500"/><path d="m426.78 73.223c-112.64 112.66-176.42 153.88-176.78 426.78"/><path d="m500 250c-139.61.11136-250.3 18.363-250 250"/></g></g><g display="none"><g transform="translate(155.34 -70.714)" fill="#3432a0"><path d="m94.661 70.714 50 60.006h-100z" fill="#3432a0"/></g><path d="m250 0v500" fill="none" stroke="#000" stroke-width="40"/><g transform="rotate(45 257.69 472.87)" fill="#3432a0"><path d="m94.661 70.714 50 60.006h-100z" fill="#3432a0"/></g><path d="m426.78 73.223c-112.64 112.66-176.42 153.88-176.78 426.78" fill="none" stroke="#000" stroke-width="40"/><g transform="rotate(90 207.69 363.03)" fill="#3432a0"><path d="m94.661 70.714 50 60.006h-100z" fill="#3432a0"/></g><path d="m500 250c-139.61.11136-250.3 18.363-250 250" fill="none" stroke="#000" stroke-width="40"/><g transform="matrix(-1 0 0 1 499 -3.4052e-7)"><g transform="rotate(45 257.69 472.87)" fill="#3432a0"><path d="m94.661 70.714 50 60.006h-100z" fill="#3432a0"/></g><path d="m426.78 73.223c-112.64 112.66-176.42 153.88-176.78 426.78" fill="none" stroke="#000" stroke-width="40"/></g><g transform="matrix(-1 0 0 1 499 0)"><g transform="rotate(90 207.69 363.03)" fill="#3432a0"><path d="m94.661 70.714 50 60.006h-100z" fill="#3432a0"/></g><path d="m500 250c-139.61.11136-250.3 18.363-250 250" fill="none" stroke="#000" stroke-width="40"/></g></g><g display="none"><g fill="none" stroke="#000" stroke-width="40"><path d="m250 52.001v448"/><path d="m387.75 111.82c-88.236 87.57-137.44 148.58-137.75 388.18"/><path d="m444.38 251.57c-112.27 7.5632-194.63 48.573-194.38 248.43"/><path d="m112.13 112.7c87.683 87.105 136.56 148.5 136.87 387.3"/><path d="m53.911 251.53c112.63 7.4381 195.35 48.198 195.09 248.47"/></g><path d="m250 0 50 60.006h-100z"/><path d="m426.78 73.223-7.0754 77.786-70.711-70.711z"/><path d="m500 250-60.006 50v-100z"/><path d="m72.224 73.223 7.0754 77.786 70.711-70.711z"/><path d="m-1.0016 250 60.006 50v-100z"/></g><g display="none"><g transform="rotate(180 249.95 250)"><path d="m250 0-73.205 87.855h53.205v151.28c-3.7428-5.8476-7.8109-11.55-12.193-17.115-22.565-28.653-52.777-54.186-89.59-80.949l30.838-44.039-113.96 9.5742 29.979 110.36 30.168-43.082c35.043 25.617 62.364 49.05 81.137 72.887 5.9245 7.5228 11.054 15.041 15.414 22.729-4.4716-.76151-9.0264-1.2338-13.615-1.3809-32.067-1.0275-69.368 9.2607-112.67 24.172l-18.381-50.502-57.52 98.838 107.6 38.742-17.947-49.309c41.898-13.987 76.307-22.646 97.641-21.963 13.371.42844 20.053 3.4608 24.523 8.4043 4.4708 4.9435 8.5521 14.608 8.5781 33.529v149.97h60v-149.97c.026-18.925 4.1054-28.596 8.5684-33.537 4.4629-4.9406 11.122-7.9682 24.477-8.3965 21.306-.68326 55.693 7.9747 97.584 21.961l-17.947 49.311 107.6-38.742-57.52-98.838-18.381 50.5c-43.29-14.91-80.566-25.198-112.61-24.17-4.582.14694-9.1303.62011-13.596 1.3809 4.355-7.691 9.4804-15.211 15.4-22.736 18.75-23.834 46.046-47.263 81.076-72.877l30.166 43.08 29.977-110.36-113.96-9.5742 30.838 44.041c-36.806 26.764-66.997 52.301-89.539 80.955-4.3594 5.5415-8.4057 11.219-12.131 17.041v-151.21h53.205z" color="#000000" color-rendering="auto" dominant-baseline="auto" image-rendering="auto" shape-rendering="auto" solid-color="#000000" style="font-feature-settings:normal;font-variant-alternates:normal;font-variant-caps:normal;font-variant-ligatures:normal;font-variant-numeric:normal;font-variant-position:normal;isolation:auto;mix-blend-mode:normal;shape-padding:0;text-decoration-color:#000000;text-decoration-line:none;text-decoration-style:solid;text-indent:0;text-orientation:mixed;text-transform:none;white-space:normal"/></g></g></svg>
