<svg version="1.1" viewBox="0 0 500 500" xmlns="http://www.w3.org/2000/svg"><g fill="#fff" fill-opacity=".19608" stroke="#fff"><path transform="matrix(1.3612 0 0 1.3612 -182.25 -80.214)" d="m421.69 176.96v39.416c-35.751 12.369-251.19 22.698-287.8 26.208h.0389c36.582 3.5095 252.04 13.997 287.76 26.357v39.416l78.834-65.698z" stroke-width="7.3463"/><path d="m291.95 2.1797-133.05 42.543 45.271 28.797c-22.558 81.495-174.16 168.81-204.17 176.48 29.964 8.2855 181.72 95.2 204.28 176.7l-45.271 28.795 133.05 42.543 17.861-138.54-45.27 28.797c-32.548-50.547-130.47-112.88-227.21-138.29 96.731-25.389 194.54-87.508 227.1-138.07l45.27 28.795z" stroke-width="10"/></g></svg>
