<svg version="1.1" viewBox="0 0 500 500" xmlns="http://www.w3.org/2000/svg"><defs><clipPath id="c"><path d="m393.91 60.529-97.745 31.253 33.258 21.155c-16.571 59.869-124.22 87.124-148.47 93.099 2.4643 2.9872 4.6242 6.213 6.4474 9.6295 79.11-12.468 159.36-32.555 186.37-74.513l33.257 21.155z" fill="#fff" fill-opacity=".19608" stroke="#fff" stroke-width="20"/></clipPath><clipPath id="b"><path d="m418.75 176.96v39.416c-35.751 12.369-188.26 16.954-224.86 20.464.41549 3.8695.44159 7.7709.0779 11.646 36.582 3.5095 189.06 8.0953 224.78 20.456v39.416l78.834-65.698z" fill="#fff" fill-opacity=".19608" stroke="#fff" stroke-width="20"/></clipPath><clipPath id="a"><path d="m393.99 424.8-97.745-31.253 33.258-21.155c-16.571-59.869-124.22-87.124-148.47-93.099 2.4643-2.9872 4.6242-6.213 6.4474-9.6295 79.11 12.468 159.36 32.555 186.37 74.513l33.257-21.155z" fill="#fff" fill-opacity=".19608" stroke="#fff" stroke-width="20"/></clipPath></defs><g fill="#fff" fill-opacity=".19608" stroke="#fff" stroke-width="11.019"><path transform="matrix(1.3612 0 0 1.3612 -244.25 -80.214)" d="m393.99 424.8-97.745-31.253 33.258-21.155c-16.571-59.869-124.22-87.124-148.47-93.099 2.4643-2.9872 4.6242-6.213 6.4474-9.6295 79.11 12.468 159.36 32.555 186.37 74.513l33.257-21.155z" clip-path="url(#a)"/><path transform="matrix(1.3612 0 0 1.3612 -182.25 -80.214)" d="m418.75 176.96v39.416c-35.751 12.369-188.26 16.954-224.86 20.464.41549 3.8695.44159 7.7709.0779 11.646 36.582 3.5095 189.06 8.0953 224.78 20.456v39.416l78.834-65.698z" clip-path="url(#b)"/><path transform="matrix(1.3612 0 0 1.3612 -244.25 -80.214)" d="m393.91 60.529-97.745 31.253 33.258 21.155c-16.571 59.869-124.22 87.124-148.47 93.099 2.4643 2.9872 4.6242 6.213 6.4474 9.6295 79.11-12.468 159.36-32.555 186.37-74.513l33.257 21.155z" clip-path="url(#c)"/></g></svg>
