<svg version="1.1" viewBox="0 0 500 500" xmlns="http://www.w3.org/2000/svg"><path d="m145.27 136.02s33.873-18.148 87.854-18.92c38.839-.55557 84.327 28.28 84.327 28.28 59.731 104.69 142.91 76.041 143.95 211.92 5.6324 97.738-145.78 140.81-223.64 141.14-77.859.33132-203.93-11.496-199.78-123.25 5.7644-155.28 97.4-198.28 107.29-239.17z" fill="#fff"/><path d="m155.31 97.288s21.404-12.64 76.178-11.638c40.179.73555 73.381 17.401 73.381 17.401s12.412-38.21 39.911-43.179c27.499-4.9697 28.799-16.527-24.853-23.284-24.849 16.566-26.505-41.746-60.631-24.517-21.064 40.157-36.459-17.321-67.588-8.2829.58949 50.749-49.051 2.3805-60.299 17.228 13.253 37.107-15.629 10.276-57.767 29.306 37.553 9.1739 84.078 12.719 81.669 46.967z" fill="#fff"/><g transform="matrix(.48956 0 0 .47583 112.03 214.12)"><g fill="#16b905"><path d="m272.17 184.74-13.317-20.161s-36.382 32.606-88.386-30.79c-65.003-79.243-48.919-133.52-48.919-133.52 45.737 19.819 86.643 25.588 113.34 52.193s37.276 51.468 31.705 104.53c4.3186 9.3651 9.0352 15.513 9.0352 15.513z"/><path d="m52.45 478.83 6.4734-44.78s-51.916-16.378-57.478-57.478c-5.5624-41.1 23.177-98.578 23.177-98.578s41.1 20.396 47.59 59.333c6.4895 38.937-3.4689 63.984-7.1075 95.797-1.682 14.706-1.823 22.629-5.2333 41.064-1.5479 2.2383-7.4206 4.6434-7.4206 4.6434z"/><path d="m148.6 380.43 2.1913-37.508s-47.545 24.442-58.714-45.426c-13.892-86.901-16.74-158.91-25.34-186.65 0 0 119.13 36.794 126.08 126.39 5.2576 67.799-33.066 101.98-33.066 101.98l-1.8823 30.028z"/></g><path d="m7.314 495.69c223.12-105.34 278.83-281.69 308.68-494.42" fill="none" stroke="#ffaf46" stroke-width="40"/><g fill="#16b905"><path d="m123.69 445.55 22.828 1.6576s55.497-49.302 103.39-52.169c52.907-3.1666 138.57 16.322 145.06 39.19-37.649 8.7809-82.412 57.512-126.78 61.15-44.364 3.6382-106.54-13.252-117.66-38.592-23.333-.92275-44.443 3.6279-44.443 3.6279.0478-5.5785-4.701-11.671 17.598-14.865z"/><path d="m241.51 280.85 32.127-10.394s-5.2431-54.964 58.079-81.369 167.78-13.433 167.78-13.433-62.206 83.227-111.67 101.38-110.38 1.9478-110.38 1.9478l-44.34 18.628c.35537-5.4292-5.7478-10.555 8.4078-16.76z"/><path d="m296.68 129.81c8.7172.19297 15.383 2.3056 32.127-6.951.0191.0255-6.3934-42.825 49.94-78.239 56.845-35.735 96.583-22.079 115.5-43.798 0 0-13.339 112.99-61.268 134.88-54.158 24.727-98.802-3.0608-98.802-3.0608l-39.957 11.428c-2.9412-6.1623-1.253-10.589 2.46-14.256z"/></g><path d="m133.04 413.29c110.03-63.902 212.73-105.81 330.57-86.086" fill="none" stroke="#ffaf46" stroke-width="40"/></g></svg>
