<svg version="1.1" viewBox="0 0 500 500" xmlns="http://www.w3.org/2000/svg"><path d="m25.649 41.95 73.857-38.958 302.22-.8289 73.239 39.787z" fill="#a2ffff"/><path d="m25.649 41.95-23.177 455.89 494.13-.41447-21.632-455.47z" fill="#ffff02"/><path d="m25.649 41.95 73.857-38.958.30903 38.726z" fill="#00edff"/><path d="m474.97 41.95-73.239-39.787.92707 40.173z" fill="#00edff"/><path d="m145.67 379.65c-29.403-51.28-12.05-158.78 25.958-194.15 82.56-76.82 237.77-73.886 260.98-124.79 10.315 27.168 4.8821 128.45-14.643 192.19-19.457 63.516-52.022 137.87-126.23 152.53-74.207 14.651-129.01 3.0992-158.96 25.553-15.513 11.627-91.314 53.022-95.93 63.395v-40.084s102.95-31.092 118.63-63.158c26.569-54.334 62.72-101.11 100.68-134.17 38.573-33.603 110.21-53.621 131.54-96.038-28.932 39.013-104 58.592-146.22 94.557-35.536 30.283-72.034 68.745-95.812 124.17z" fill="#16b905" stroke-width=".89656"/></svg>
