<svg version="1.1" viewBox="0 0 500 500" xmlns="http://www.w3.org/2000/svg"><defs><clipPath id="b"><path d="m25.649 41.95-23.177 455.89 494.13-.41447-21.632-455.47z" fill="#ffff02"/></clipPath><clipPath id="a"><path d="m25.649 41.95 73.857-38.958 302.22-.8289 73.239 39.787z" fill="#fff" fill-opacity=".19608"/></clipPath></defs><g fill="#fff"><path d="m25.649 41.95 73.857-38.958 302.22-.8289 73.239 39.787z" fill-opacity=".19608"/><path d="m25.649 41.95 73.857-38.958.30903 38.726z"/><path d="m474.97 41.95-73.239-39.787.92707 40.173z"/><path d="m25.649 41.95-23.177 455.89 494.13-.41447-21.632-455.47z" clip-path="url(#b)" fill-opacity=".19608" stroke="#fff" stroke-width="20" style="paint-order:normal"/><path d="m159.18 90.654a29.622 29.622 0 0 0-29.623 29.623 29.622 29.622 0 0 0 11.006 23.01c.08234 13.397 1.5878 31.553 7.3965 50.113 5.7181 18.271 15.899 37.518 33.711 52.172 17.812 14.654 42.893 23.926 75.006 23.926 32.248 0 57.187-9.2113 74.643-23.955 17.456-14.744 26.941-34.132 31.898-52.418 4.9272-18.173 5.707-35.905 5.248-49.156a29.622 29.622 0 0 0 11.893-23.691 29.622 29.622 0 0 0-29.623-29.623 29.622 29.622 0 0 0-29.621 29.623 29.622 29.622 0 0 0 13.441 24.783c.37118 10.773-.16715 25.212-3.9648 39.219-3.7042 13.662-10.172 26.221-21.084 35.438-10.912 9.2169-26.755 15.979-52.83 15.979-25.871 0-42.058-6.7887-53.529-16.227-11.472-9.4378-18.591-22.313-22.926-36.164-4.1903-13.389-5.4864-27.093-5.7188-37.711a29.622 29.622 0 0 0 14.299-25.316 29.622 29.622 0 0 0-29.621-29.623z" stroke-width="1.1268" style="paint-order:normal"/></g><g display="none" fill="#a2ff24"><path d="m25.649 41.95 73.857-38.958 302.22-.8289 73.239 39.787z"/><path d="m25.649 41.95 73.857-38.958 302.22-.8289 73.239 39.787z"/></g><path d="m93.353 2.9918 314.53-.82846" clip-path="url(#a)" fill="none" stroke="#fff" stroke-width="25.497"/></svg>
