<svg version="1.1" viewBox="0 0 1000 500" xmlns="http://www.w3.org/2000/svg"><defs><clipPath id="d"><path d="m393.91 60.529-97.745 31.253 33.258 21.155c-16.571 59.869-124.22 87.124-148.47 93.099 2.4643 2.9872 4.6242 6.213 6.4474 9.6295 79.11-12.468 159.36-32.555 186.37-74.513l33.257 21.155z" fill="#fff" fill-opacity=".19608" stroke="#fff" stroke-width="20"/></clipPath><clipPath id="c"><path d="m418.75 176.96v39.416c-35.751 12.369-188.26 16.954-224.86 20.464.41549 3.8695.44159 7.7709.0779 11.646 36.582 3.5095 189.06 8.0953 224.78 20.456v39.416l78.834-65.698z" fill="#fff" fill-opacity=".19608" stroke="#fff" stroke-width="20"/></clipPath><clipPath id="b"><path d="m393.99 424.8-97.745-31.253 33.258-21.155c-16.571-59.869-124.22-87.124-148.47-93.099 2.4643-2.9872 4.6242-6.213 6.4474-9.6295 79.11 12.468 159.36 32.555 186.37 74.513l33.257-21.155z" fill="#fff" fill-opacity=".19608" stroke="#fff" stroke-width="20"/></clipPath><clipPath id="e"><path d="m254.99 499.43c53.942 1.1235 60.891-42.634 60.705-65.868-.25563-31.95-19.656-42.806-20.471-70.165-.76667-25.732 14.557-46.917 48.47-35.58 33.913 11.336 107.53 20.314 149.72 17.08 3.384-20.519 14.08-108.35-4.8454-117.18-49.99-23.313-45.971 42.011-133.39 34.009-87.421-8.0021-44.464-105.27 12.367-108.2 48.297-2.4917 49.432 22.582 108.21 19.512 24.227-1.2651 28.53-142.14 18.734-162.39-36.605-8.94-212.05-18.533-218.28 4.9933-8.7343 32.994 29.68 36.604 27.42 79.282-2.2609 42.678-38.89 58.106-78.079 56.772-39.189-1.3337-59-37.425-46.942-74.101s30.923-26.872 23.827-64.227c-4.6098-24.269-144.28-10.424-198.86 16.354-5.1676 39.375-4.8439 129.27 18.706 139.79 42.518 18.98 41.279-16.332 91.736-15.145 34.516.81159 66.031 19.686 63.77 56.363-2.2609 36.676-17.769 63.196-59.703 60.527-41.202-2.622-40.961-28.401-83.581-24.682-28.132 2.4547-33.854 117.98-33.854 117.98s130.84-10.992 168.81-25.826c31.177-12.18 58.95-5.9188 55.429 18.882-4.5833 32.282-34.937 35.806-37.042 78.832-2.4515 50.113 32.146 62.255 67.141 62.984z" fill="#0ff"/></clipPath></defs><g fill="#fff" stroke="#fff"><g fill-opacity=".19608" stroke-width="20"><path transform="matrix(1.3612 0 0 1.3612 319.75 -80.214)" d="m393.99 424.8-97.745-31.253 33.258-21.155c-16.571-59.869-124.22-87.124-148.47-93.099 2.4643-2.9872 4.6242-6.213 6.4474-9.6295 79.11 12.468 159.36 32.555 186.37 74.513l33.257-21.155z" clip-path="url(#b)"/><path transform="matrix(1.3612 0 0 1.3612 319.75 -80.214)" d="m418.75 176.96v39.416c-35.751 12.369-188.26 16.954-224.86 20.464.41549 3.8695.44159 7.7709.0779 11.646 36.582 3.5095 189.06 8.0953 224.78 20.456v39.416l78.834-65.698z" clip-path="url(#c)"/><path transform="matrix(1.3612 0 0 1.3612 319.75 -80.214)" d="m393.91 60.529-97.745 31.253 33.258 21.155c-16.571 59.869-124.22 87.124-148.47 93.099 2.4643 2.9872 4.6242 6.213 6.4474 9.6295 79.11-12.468 159.36-32.555 186.37-74.513l33.257 21.155z" clip-path="url(#d)"/></g><g transform="translate(.33067 .5359)" clip-path="url(#e)" fill-opacity=".19608" stroke-width="27"><path d="m254.99 499.43c53.942 1.1235 60.891-42.634 60.705-65.868-.25563-31.95-19.656-42.806-20.471-70.165-.76667-25.732 14.557-46.917 48.47-35.58 33.913 11.336 107.53 20.314 149.72 17.08 3.384-20.519 14.08-108.35-4.8454-117.18-49.99-23.313-45.971 42.011-133.39 34.009-87.421-8.0021-44.464-105.27 12.367-108.2 48.297-2.4917 49.432 22.582 108.21 19.512 24.227-1.2651 28.53-142.14 18.734-162.39-36.605-8.94-212.05-18.533-218.28 4.9933-8.7343 32.994 29.68 36.604 27.42 79.282-2.2609 42.678-38.89 58.106-78.079 56.772-39.189-1.3337-59-37.425-46.942-74.101s30.923-26.872 23.827-64.227c-4.6098-24.269-144.28-10.424-198.86 16.354-5.1676 39.375-4.8439 129.27 18.706 139.79 42.518 18.98 41.279-16.332 91.736-15.145 34.516.81159 66.031 19.686 63.77 56.363-2.2609 36.676-17.769 63.196-59.703 60.527-41.202-2.622-40.961-28.401-83.581-24.682-28.132 2.4547-33.854 117.98-33.854 117.98s130.84-10.992 168.81-25.826c31.177-12.18 58.95-5.9188 55.429 18.882-4.5833 32.282-34.937 35.806-37.042 78.832-2.4515 50.113 32.146 62.255 67.141 62.984z" fill="#fff" fill-opacity=".19608" stroke="#fff" stroke-width="27"/></g></g></svg>
