<svg version="1.1" viewBox="0 0 500 500" xmlns="http://www.w3.org/2000/svg"><defs><clipPath id="d"><g fill="#ff23ff" fill-opacity=".17647"><path transform="matrix(.35588 -.55947 -.55947 -.35588 212.03 108.24)" d="m155.4-384.48-188.7 60.336 64.205 40.84c8.0051 97.788-25.81 145.29-62.682 179.73a112.29 112.29 0 0 1 12.447 18.59c46.615-28.965 95.762-68.555 135.86-143.85l64.203 40.84z" fill="#ff23ff" fill-opacity=".17647"/></g></clipPath><clipPath id="c"><g fill="#ff23ff" fill-opacity=".17647"><path transform="matrix(.35588 -.55947 .55947 .35588 249.2 131.88)" d="m-18.557 19.039a112.29 112.29 0 0 1-12.281 18.975c36.505 34.37 69.682 81.901 61.744 178.86l-64.205 40.842 188.7 60.334 25.334-196.48-64.203 40.842c-39.874-74.884-88.701-114.45-135.09-143.37z" fill="#ff23ff" fill-opacity=".17647"/></g></clipPath><clipPath id="b"><g fill="#ff23ff" fill-opacity=".17647"><path transform="matrix(.66307 0 0 -.66307 246.7 136.34)" d="m203.35-159.69v76.094c-69.017 23.879-139.49 32.729-210.16 39.506a112.29 112.29 0 0 1 .15039 22.482c70.622 6.7752 141.04 15.628 210.01 39.49v76.094l152.19-126.83z" fill="#ff23ff" fill-opacity=".17647"/></g></clipPath><clipPath id="e"><path d="m254.99 499.43c53.942 1.1235 60.891-42.634 60.705-65.868-.25563-31.95-19.656-42.806-20.471-70.165-.76667-25.732 14.557-46.917 48.47-35.58 33.913 11.336 107.53 20.314 149.72 17.08 3.384-20.519 14.08-108.35-4.8454-117.18-49.99-23.313-45.971 42.011-133.39 34.009-87.421-8.0021-44.464-105.27 12.367-108.2 48.297-2.4917 49.432 22.582 108.21 19.512 24.227-1.2651 28.53-142.14 18.734-162.39-36.605-8.94-212.05-18.533-218.28 4.9933-8.7343 32.994 29.68 36.604 27.42 79.282-2.2609 42.678-38.89 58.106-78.079 56.772-39.189-1.3337-59-37.425-46.942-74.101s30.923-26.872 23.827-64.227c-4.6098-24.269-144.28-10.424-198.86 16.354-5.1676 39.375-4.8439 129.27 18.706 139.79 42.518 18.98 41.279-16.332 91.736-15.145 34.516.81159 66.031 19.686 63.77 56.363-2.2609 36.676-17.769 63.196-59.703 60.527-41.202-2.622-40.961-28.401-83.581-24.682-28.132 2.4547-33.854 117.98-33.854 117.98s130.84-10.992 168.81-25.826c31.177-12.18 58.95-5.9188 55.429 18.882-4.5833 32.282-34.937 35.806-37.042 78.832-2.4515 50.113 32.146 62.255 67.141 62.984z" fill="#0ff"/></clipPath></defs><g fill="#00c800" stroke="#0f0" stroke-linecap="round" stroke-width="18.748"><g transform="matrix(.78121 0 0 -.78121 120.69 366.19)" clip-path="url(#b)"><path transform="matrix(.66307 0 0 -.66307 246.7 136.34)" d="m203.35-159.69v76.094c-69.017 23.879-139.49 32.729-210.16 39.506a112.29 112.29 0 0 1 .15039 22.482c70.622 6.7752 141.04 15.628 210.01 39.49v76.094l152.19-126.83z" fill="#00c800" stroke="#0f0" stroke-linecap="round" stroke-width="28.275"/></g><g transform="matrix(.41929 .65915 -.65915 .41929 295.86 40.128)" clip-path="url(#c)"><path transform="matrix(.35588 -.55947 .55947 .35588 249.2 131.88)" d="m-18.557 19.039a112.29 112.29 0 0 1-12.281 18.975c36.505 34.37 69.682 81.901 61.744 178.86l-64.205 40.842 188.7 60.334 25.334-196.48-64.203 40.842c-39.874-74.884-88.701-114.45-135.09-143.37z" fill="#00c800" stroke="#0f0" stroke-linecap="round" stroke-width="28.275"/></g><g transform="matrix(.41929 -.65915 -.65915 -.41929 295.86 444.83)" clip-path="url(#d)"><path transform="matrix(.35588 -.55947 -.55947 -.35588 212.03 108.24)" d="m155.4-384.48-188.7 60.336 64.205 40.84c8.0051 97.788-25.81 145.29-62.682 179.73a112.29 112.29 0 0 1 12.447 18.59c46.615-28.965 95.762-68.555 135.86-143.85l64.203 40.84z" fill="#00c800" stroke="#0f0" stroke-linecap="round" stroke-width="28.275"/></g></g><g transform="matrix(.53091 0 0 .53091 4.9611 130.27)" clip-path="url(#e)" fill="#0ff"><path d="m254.99 499.43c53.942 1.1235 60.891-42.634 60.705-65.868-.25563-31.95-19.656-42.806-20.471-70.165-.76667-25.732 14.557-46.917 48.47-35.58 33.913 11.336 107.53 20.314 149.72 17.08 3.384-20.519 14.08-108.35-4.8454-117.18-49.99-23.313-45.971 42.011-133.39 34.009-87.421-8.0021-44.464-105.27 12.367-108.2 48.297-2.4917 49.432 22.582 108.21 19.512 24.227-1.2651 28.53-142.14 18.734-162.39-36.605-8.94-212.05-18.533-218.28 4.9933-8.7343 32.994 29.68 36.604 27.42 79.282-2.2609 42.678-38.89 58.106-78.079 56.772-39.189-1.3337-59-37.425-46.942-74.101s30.923-26.872 23.827-64.227c-4.6098-24.269-144.28-10.424-198.86 16.354-5.1676 39.375-4.8439 129.27 18.706 139.79 42.518 18.98 41.279-16.332 91.736-15.145 34.516.81159 66.031 19.686 63.77 56.363-2.2609 36.676-17.769 63.196-59.703 60.527-41.202-2.622-40.961-28.401-83.581-24.682-28.132 2.4547-33.854 117.98-33.854 117.98s130.84-10.992 168.81-25.826c31.177-12.18 58.95-5.9188 55.429 18.882-4.5833 32.282-34.937 35.806-37.042 78.832-2.4515 50.113 32.146 62.255 67.141 62.984z" fill="#0ff"/></g></svg>
