<svg enable-background="new" version="1.1" viewBox="0 0 500 500" xmlns="http://www.w3.org/2000/svg"><defs><filter id="a" color-interpolation-filters="sRGB"><feBlend in2="BackgroundImage" mode="multiply"/></filter></defs><g filter="url(#a)" opacity=".15"><circle cx="249.72" cy="249.93" r="127.56" filter="url(#a)" opacity="1" style="paint-order:stroke markers fill"/></g><path d="m250 .58983a31.176 31.176 0 0 0-2.6622.13274 31.176 31.176 0 0 0-1.5296.18632 31.176 31.176 0 0 0-1.5539.23384 31.176 31.176 0 0 0-1.5247.34343 31.176 31.176 0 0 0-1.4943.38117 31.176 31.176 0 0 0-1.4979.4981 31.176 31.176 0 0 0-1.448.52854 31.176 31.176 0 0 0-1.4188.63448 31.176 31.176 0 0 0-1.4127.68197 31.176 31.176 0 0 0-1.3347.76602 31.176 31.176 0 0 0-1.3384.82082 31.176 31.176 0 0 0-1.2774.91337 31.176 31.176 0 0 0-1.224.93163 31.176 31.176 0 0 0-1.18 1.0351 31.176 31.176 0 0 0-1.135 1.0571 31.176 31.176 0 0 0-1.0571 1.135 31.176 31.176 0 0 0-1.0352 1.1801 31.176 31.176 0 0 0-.93165 1.2239 31.176 31.176 0 0 0-.91337 1.2775 31.176 31.176 0 0 0-.82077 1.3384 31.176 31.176 0 0 0-.76604 1.3347 31.176 31.176 0 0 0-.68197 1.4127 31.176 31.176 0 0 0-.6345 1.4188 31.176 31.176 0 0 0-.52851 1.448 31.176 31.176 0 0 0-.4981 1.4979 31.176 31.176 0 0 0-.38119 1.4943 31.176 31.176 0 0 0-.34342 1.5247 31.176 31.176 0 0 0-.23385 1.5539 31.176 31.176 0 0 0-.1863 1.5296 31.176 31.176 0 0 0-.13275 2.6622 31.176 31.176 0 0 0 .13275 2.6622 31.176 31.176 0 0 0 .18386 1.515 31.176 31.176 0 0 0 .23994 1.582 31.176 31.176 0 0 0 .33124 1.4724 31.176 31.176 0 0 0 .39457 1.5491 31.176 31.176 0 0 0 .48102 1.4443 31.176 31.176 0 0 0 .54683 1.5004 31.176 31.176 0 0 0 .61378 1.37 31.176 31.176 0 0 0 .70512 1.4602 31.176 31.176 0 0 0 .73923 1.2897 31.176 31.176 0 0 0 .84757 1.3822 31.176 31.176 0 0 0 .88538 1.2373 31.176 31.176 0 0 0 .95963 1.2629 31.176 31.176 0 0 0 .99982 1.1387 31.176 31.176 0 0 0 1.101 1.1813 31.176 31.176 0 0 0 1.0777 1.0023 31.176 31.176 0 0 0 1.2385 1.0887 31.176 31.176 0 0 0 1.1533.87683 31.176 31.176 0 0 0 1.3579.97061 31.176 31.176 0 0 0 1.2446.76236 31.176 31.176 0 0 0 1.4297.82081 31.176 31.176 0 0 0 1.3238.63936 31.176 31.176 0 0 0 1.5016.67224 31.176 31.176 0 0 0 1.3713.50053 31.176 31.176 0 0 0 1.5771.52366 31.176 31.176 0 0 0 2.5039.63936v56.9c-31.429 1.4782-59.983 14.066-81.812 33.924l-40.283-40.283a31.176 31.176 0 0 0-3.9397-39.21 31.176 31.176 0 0 0-44.089 0 31.176 31.176 0 0 0 0 44.089 31.176 31.176 0 0 0 39.233 3.9628l40.26 40.26c-19.858 21.829-32.445 50.383-33.924 81.812h-56.932a31.176 31.176 0 0 0-30.513-24.941 31.176 31.176 0 0 0-31.176 31.176 31.176 31.176 0 0 0 31.176 31.176 31.176 31.176 0 0 0 30.544-24.941h56.9c1.4782 31.429 14.066 59.983 33.924 81.812l-40.283 40.283a31.176 31.176 0 0 0-39.21 3.9397 31.176 31.176 0 0 0 0 44.089 31.176 31.176 0 0 0 44.089 0 31.176 31.176 0 0 0 3.9628-39.233l40.26-40.26c21.829 19.858 50.383 32.445 81.812 33.924v56.932a31.176 31.176 0 0 0-2.9934.76846 31.176 31.176 0 0 0-.0828.0267 31.176 31.176 0 0 0-2.8326 1.0388 31.176 31.176 0 0 0-.11083.0499 31.176 31.176 0 0 0-2.6768 1.297 31.176 31.176 0 0 0-.16321.0937 31.176 31.176 0 0 0-2.477 1.5235 31.176 31.176 0 0 0-.21069.15097 31.176 31.176 0 0 0-2.2372 1.705 31.176 31.176 0 0 0-.29956.26303 31.176 31.176 0 0 0-1.9656 1.8365 31.176 31.176 0 0 0-.33368.35802 31.176 31.176 0 0 0-1.7098 1.9522 31.176 31.176 0 0 0-.35439.46642 31.176 31.176 0 0 0-1.4492 2.0326 31.176 31.176 0 0 0-.369.6028 31.176 31.176 0 0 0-1.1679 2.0423 31.176 31.176 0 0 0-.38604.79769 31.176 31.176 0 0 0-.89025 1.9972 31.176 31.176 0 0 0-.3483.95357 31.176 31.176 0 0 0-.64908 1.9619 31.176 31.176 0 0 0-.2789 1.0936 31.176 31.176 0 0 0-.42258 1.8937 31.176 31.176 0 0 0-.19242 1.2751 31.176 31.176 0 0 0-.21066 1.7586 31.176 31.176 0 0 0-.12912 2.5732 31.176 31.176 0 0 0 .13278 2.6622 31.176 31.176 0 0 0 .18629 1.5296 31.176 31.176 0 0 0 .23383 1.5539 31.176 31.176 0 0 0 .34344 1.5247 31.176 31.176 0 0 0 .38119 1.4943 31.176 31.176 0 0 0 .49809 1.4979 31.176 31.176 0 0 0 .52852 1.448 31.176 31.176 0 0 0 .6345 1.4187 31.176 31.176 0 0 0 .68198 1.4127 31.176 31.176 0 0 0 .76602 1.3347 31.176 31.176 0 0 0 .82076 1.3384 31.176 31.176 0 0 0 .91338 1.2775 31.176 31.176 0 0 0 .93166 1.2239 31.176 31.176 0 0 0 1.0352 1.1801 31.176 31.176 0 0 0 1.0571 1.135 31.176 31.176 0 0 0 1.135 1.0571 31.176 31.176 0 0 0 1.1801 1.0351 31.176 31.176 0 0 0 1.2239.93166 31.176 31.176 0 0 0 1.2774.91339 31.176 31.176 0 0 0 1.3384.82082 31.176 31.176 0 0 0 1.3347.76605 31.176 31.176 0 0 0 1.4127.68191 31.176 31.176 0 0 0 1.4187.63447 31.176 31.176 0 0 0 1.448.52856 31.176 31.176 0 0 0 1.498.49809 31.176 31.176 0 0 0 1.4943.38116 31.176 31.176 0 0 0 1.5247.34348 31.176 31.176 0 0 0 1.554.2338 31.176 31.176 0 0 0 1.5296.18633 31.176 31.176 0 0 0 2.6622.13274 31.176 31.176 0 0 0 2.6622-.13275 31.176 31.176 0 0 0 1.5296-.18632 31.176 31.176 0 0 0 1.5539-.23381 31.176 31.176 0 0 0 1.5247-.34347 31.176 31.176 0 0 0 1.4943-.38116 31.176 31.176 0 0 0 1.4979-.4981 31.176 31.176 0 0 0 1.448-.52855 31.176 31.176 0 0 0 1.4187-.63448 31.176 31.176 0 0 0 1.4127-.68191 31.176 31.176 0 0 0 1.3347-.76605 31.176 31.176 0 0 0 1.3384-.82081 31.176 31.176 0 0 0 1.2774-.9134 31.176 31.176 0 0 0 1.2239-.93165 31.176 31.176 0 0 0 1.1801-1.0351 31.176 31.176 0 0 0 1.135-1.0571 31.176 31.176 0 0 0 1.057-1.135 31.176 31.176 0 0 0 1.0352-1.1801 31.176 31.176 0 0 0 .93164-1.2239 31.176 31.176 0 0 0 .91337-1.2775 31.176 31.176 0 0 0 .82078-1.3384 31.176 31.176 0 0 0 .76604-1.3347 31.176 31.176 0 0 0 .68197-1.4127 31.176 31.176 0 0 0 .6345-1.4187 31.176 31.176 0 0 0 .52851-1.448 31.176 31.176 0 0 0 .4981-1.4979 31.176 31.176 0 0 0 .38118-1.4943 31.176 31.176 0 0 0 .34343-1.5247 31.176 31.176 0 0 0 .23383-1.5539 31.176 31.176 0 0 0 .18631-1.5296 31.176 31.176 0 0 0 .13276-2.6622 31.176 31.176 0 0 0-.13276-2.6621 31.176 31.176 0 0 0-.18385-1.515 31.176 31.176 0 0 0-.23995-1.582 31.176 31.176 0 0 0-.33123-1.4723 31.176 31.176 0 0 0-.39458-1.5491 31.176 31.176 0 0 0-.48101-1.4443 31.176 31.176 0 0 0-.54683-1.5004 31.176 31.176 0 0 0-.61378-1.37 31.176 31.176 0 0 0-.70513-1.4602 31.176 31.176 0 0 0-.73922-1.2897 31.176 31.176 0 0 0-.84758-1.3822 31.176 31.176 0 0 0-.88538-1.2373 31.176 31.176 0 0 0-.95963-1.2629 31.176 31.176 0 0 0-.99983-1.1386 31.176 31.176 0 0 0-1.1009-1.1813 31.176 31.176 0 0 0-1.0778-1.0022 31.176 31.176 0 0 0-1.2385-1.0887 31.176 31.176 0 0 0-1.1533-.87685 31.176 31.176 0 0 0-1.3578-.97062 31.176 31.176 0 0 0-1.2446-.76235 31.176 31.176 0 0 0-1.4297-.82082 31.176 31.176 0 0 0-1.3238-.63933 31.176 31.176 0 0 0-1.5016-.67221 31.176 31.176 0 0 0-1.3713-.50056 31.176 31.176 0 0 0-1.5771-.52367 31.176 31.176 0 0 0-2.4783-.63325 31.176 31.176 0 0 0-.0253-.01v-56.9c31.429-1.4783 59.983-14.066 81.812-33.924l40.283 40.283a31.176 31.176 0 0 0 3.9397 39.21 31.176 31.176 0 0 0 44.089 0 31.176 31.176 0 0 0 0-44.089 31.176 31.176 0 0 0-39.233-3.9628l-40.26-40.26c19.858-21.829 32.445-50.383 33.924-81.812h56.932a31.176 31.176 0 0 0 30.513 24.944 31.176 31.176 0 0 0 31.176-31.175 31.176 31.176 0 0 0-31.176-31.176 31.176 31.176 0 0 0-30.544 24.941h-56.9c-1.4782-31.429-14.066-59.983-33.924-81.812l40.283-40.283a31.176 31.176 0 0 0 39.21-3.9397 31.176 31.176 0 0 0 0-44.089 31.176 31.176 0 0 0-44.089 0 31.176 31.176 0 0 0-3.9628 39.233l-40.26 40.26c-21.829-19.858-50.383-32.445-81.812-33.924v-56.932a31.176 31.176 0 0 0 2.9934-.76845 31.176 31.176 0 0 0 .0827-.02678 31.176 31.176 0 0 0 2.8326-1.0388 31.176 31.176 0 0 0 .11083-.04994 31.176 31.176 0 0 0 2.6768-1.297 31.176 31.176 0 0 0 .16319-.09375 31.176 31.176 0 0 0 2.477-1.5235 31.176 31.176 0 0 0 .21069-.15101 31.176 31.176 0 0 0 2.2372-1.705 31.176 31.176 0 0 0 .29957-.26305 31.176 31.176 0 0 0 1.9655-1.8365 31.176 31.176 0 0 0 .33368-.35804 31.176 31.176 0 0 0 1.7098-1.9522 31.176 31.176 0 0 0 .35441-.46643 31.176 31.176 0 0 0 1.4492-2.0325 31.176 31.176 0 0 0 .36899-.60282 31.176 31.176 0 0 0 1.1679-2.0423 31.176 31.176 0 0 0 .38605-.79767 31.176 31.176 0 0 0 .89025-1.9972 31.176 31.176 0 0 0 .3483-.95356 31.176 31.176 0 0 0 .6491-1.9619 31.176 31.176 0 0 0 .27888-1.0936 31.176 31.176 0 0 0 .42258-1.8937 31.176 31.176 0 0 0 .19242-1.2751 31.176 31.176 0 0 0 .21066-1.7585 31.176 31.176 0 0 0 .12911-2.5733 31.176 31.176 0 0 0-.13277-2.6622 31.176 31.176 0 0 0-.1863-1.5296 31.176 31.176 0 0 0-.23382-1.5539 31.176 31.176 0 0 0-.34345-1.5247 31.176 31.176 0 0 0-.38119-1.4943 31.176 31.176 0 0 0-.49808-1.4979 31.176 31.176 0 0 0-.52852-1.448 31.176 31.176 0 0 0-.63451-1.4188 31.176 31.176 0 0 0-.68197-1.4127 31.176 31.176 0 0 0-.76602-1.3347 31.176 31.176 0 0 0-.82077-1.3384 31.176 31.176 0 0 0-.91336-1.2775 31.176 31.176 0 0 0-.93165-1.2239 31.176 31.176 0 0 0-1.0352-1.1801 31.176 31.176 0 0 0-1.057-1.135 31.176 31.176 0 0 0-1.135-1.0571 31.176 31.176 0 0 0-1.1801-1.0351 31.176 31.176 0 0 0-1.2239-.93163 31.176 31.176 0 0 0-1.2774-.91337 31.176 31.176 0 0 0-1.3384-.82082 31.176 31.176 0 0 0-1.3347-.76602 31.176 31.176 0 0 0-1.4127-.68197 31.176 31.176 0 0 0-1.4187-.63448 31.176 31.176 0 0 0-1.448-.52853 31.176 31.176 0 0 0-1.498-.4981 31.176 31.176 0 0 0-1.4943-.38116 31.176 31.176 0 0 0-1.5247-.34343 31.176 31.176 0 0 0-1.554-.23384 31.176 31.176 0 0 0-1.5296-.18632 31.176 31.176 0 0 0-2.662-.13276zm0 130.94c65.503 0 118.47 52.967 118.47 118.47s-52.967 118.47-118.47 118.47-118.47-52.967-118.47-118.47 52.967-118.47 118.47-118.47z" color="#000000" color-rendering="auto" dominant-baseline="auto" fill="#f0f" image-rendering="auto" shape-rendering="auto" solid-color="#000000" style="font-feature-settings:normal;font-variant-alternates:normal;font-variant-caps:normal;font-variant-ligatures:normal;font-variant-numeric:normal;font-variant-position:normal;isolation:auto;mix-blend-mode:normal;paint-order:stroke markers fill;shape-padding:0;text-decoration-color:#000000;text-decoration-line:none;text-decoration-style:solid;text-indent:0;text-orientation:mixed;text-transform:none;white-space:normal"/><g transform="matrix(.31208 0 0 .31208 171.3 183.72)"><path d="m254.99 499.43c53.942 1.1235 60.891-42.634 60.705-65.868-.25563-31.95-19.656-42.806-20.471-70.165-.76667-25.732 14.557-46.917 48.47-35.58 33.913 11.336 107.53 20.314 149.72 17.08 3.384-20.519 14.08-108.35-4.8454-117.18-49.99-23.313-45.971 42.011-133.39 34.009-87.421-8.0021-44.464-105.27 12.367-108.2 48.297-2.4917 49.432 22.582 108.21 19.512 24.227-1.2651 28.53-142.14 18.734-162.39-36.605-8.94-212.05-18.533-218.28 4.9933-8.7343 32.994 29.68 36.604 27.42 79.282-2.2609 42.678-38.89 58.106-78.079 56.772-39.189-1.3337-59-37.425-46.942-74.101s30.923-26.872 23.827-64.227c-4.6098-24.269-144.28-10.424-198.86 16.354-5.1676 39.375-4.8439 129.27 18.706 139.79 42.518 18.98 41.279-16.332 91.736-15.145 34.516.81159 66.031 19.686 63.77 56.363-2.2609 36.676-17.769 63.196-59.703 60.527-41.202-2.622-40.961-28.401-83.581-24.682-28.132 2.4547-33.854 117.98-33.854 117.98s130.84-10.992 168.81-25.826c31.177-12.18 58.95-5.9188 55.429 18.882-4.5833 32.282-34.937 35.806-37.042 78.832-2.4515 50.113 32.146 62.255 67.141 62.984z" fill="#0ff"/></g></svg>
