<svg version="1.1" viewBox="0 0 500 500" xmlns="http://www.w3.org/2000/svg"><defs><clipPath id="a"><path d="m245.72 3.1191c-79.13.37818-168.63 38.285-244.49 136.23l78.117 60.5c77.511-100.08 142.52-107.82 200.89-94.125 28.837 6.7679 56.554 22.284 78.791 38.508l-56.318 51.971 196.02 25.783-9.9863-197.45-54.682 50.461c-33.271-27.606-77.35-52.816-131.24-65.465-16.98-3.9852-34.862-6.2169-53.334-6.4062-1.2507-.012818-2.5037-.015768-3.7598-.00977z"/></clipPath></defs><path d="m245.72 3.1191c-79.13.37818-168.63 38.285-244.49 136.23l78.117 60.5c77.511-100.08 142.52-107.82 200.89-94.125 28.837 6.7679 56.554 22.284 78.791 38.508l-56.318 51.971 196.02 25.783-9.9863-197.45-54.682 50.461c-33.271-27.606-77.35-52.816-131.24-65.465-16.98-3.9852-34.862-6.2169-53.334-6.4062-1.2507-.012818-2.5037-.015768-3.7598-.0097656z" clip-path="url(#a)" fill="#fff" fill-opacity=".19608" stroke="#fff" stroke-width="27"/><path transform="rotate(180 249.76 249.78)" d="m245.72 3.1191c-79.13.37818-168.63 38.285-244.49 136.23l78.117 60.5c77.511-100.08 142.52-107.82 200.89-94.125 28.837 6.7679 56.554 22.284 78.791 38.508l-56.318 51.971 196.02 25.783-9.9863-197.45-54.682 50.461c-33.271-27.606-77.35-52.816-131.24-65.465-16.98-3.9852-34.862-6.2169-53.334-6.4062-1.2507-.012818-2.5037-.015768-3.7598-.00977z" clip-path="url(#a)" fill="#fff" fill-opacity=".19608" stroke="#fff" stroke-width="27"/></svg>
