<svg version="1.1" viewBox="0 0 500 440" xmlns="http://www.w3.org/2000/svg"><defs><clipPath id="b"><path d="m254.99 499.43c53.942 1.1235 60.891-42.634 60.705-65.868-.25563-31.95-19.656-42.806-20.471-70.165-.76667-25.732 14.557-46.917 48.47-35.58 33.913 11.336 107.53 20.314 149.72 17.08 3.384-20.519 14.08-108.35-4.8454-117.18-49.99-23.313-45.971 42.011-133.39 34.009-87.421-8.0021-44.464-105.27 12.367-108.2 48.297-2.4917 49.432 22.582 108.21 19.512 24.227-1.2651 28.53-142.14 18.734-162.39-36.605-8.94-212.05-18.533-218.28 4.9933-8.7343 32.994 29.68 36.604 27.42 79.282-2.2609 42.678-38.89 58.106-78.079 56.772-39.189-1.3337-59-37.425-46.942-74.101s30.923-26.872 23.827-64.227c-4.6098-24.269-144.28-10.424-198.86 16.354-5.1676 39.375-4.8439 129.27 18.706 139.79 42.518 18.98 41.279-16.332 91.736-15.145 34.516.81159 66.031 19.686 63.77 56.363-2.2609 36.676-17.769 63.196-59.703 60.527-41.202-2.622-40.961-28.401-83.581-24.682-28.132 2.4547-33.854 117.98-33.854 117.98s130.84-10.992 168.81-25.826c31.177-12.18 58.95-5.9188 55.429 18.882-4.5833 32.282-34.937 35.806-37.042 78.832-2.4515 50.113 32.146 62.255 67.141 62.984z" fill="#0ff"/></clipPath><clipPath id="a"><path d="m264.92 21.326c-1.288-.0181-2.5725-.01667-3.8535.0039-37.058.59522-71.205 15.428-92.523 37.121l-17.744-14.959.70703 54.279 53.576-8.5137-15.508-13.074c15.694-14.566 43.332-27.095 71.93-27.555 32.769-.52633 66.458 12.572 90.898 53.947l23.508-13.885c-28.061-47.505-71.061-66.804-110.99-67.365z" color="#000000" color-rendering="auto" dominant-baseline="auto" fill="#fff" fill-opacity=".19608" image-rendering="auto" shape-rendering="auto" solid-color="#000000" stroke="#fff" stroke-opacity=".5098" stroke-width="8.6606" style="font-feature-settings:normal;font-variant-alternates:normal;font-variant-caps:normal;font-variant-ligatures:normal;font-variant-numeric:normal;font-variant-position:normal;isolation:auto;mix-blend-mode:normal;shape-padding:0;text-decoration-color:#000000;text-decoration-line:none;text-decoration-style:solid;text-indent:0;text-orientation:mixed;text-transform:none;white-space:normal"/></clipPath></defs><g transform="matrix(.3157 0 0 .3157 339.78 154.41)" clip-path="url(#b)" fill="#fff" fill-opacity=".098039" stroke="#fff" stroke-opacity=".5098" stroke-width="28.508"><path d="m254.99 499.43c53.942 1.1235 60.891-42.634 60.705-65.868-.25563-31.95-19.656-42.806-20.471-70.165-.76667-25.732 14.557-46.917 48.47-35.58 33.913 11.336 107.53 20.314 149.72 17.08 3.384-20.519 14.08-108.35-4.8454-117.18-49.99-23.313-45.971 42.011-133.39 34.009-87.421-8.0021-44.464-105.27 12.367-108.2 48.297-2.4917 49.432 22.582 108.21 19.512 24.227-1.2651 28.53-142.14 18.734-162.39-36.605-8.94-212.05-18.533-218.28 4.9933-8.7343 32.994 29.68 36.604 27.42 79.282-2.2609 42.678-38.89 58.106-78.079 56.772-39.189-1.3337-59-37.425-46.942-74.101s30.923-26.872 23.827-64.227c-4.6098-24.269-144.28-10.424-198.86 16.354-5.1676 39.375-4.8439 129.27 18.706 139.79 42.518 18.98 41.279-16.332 91.736-15.145 34.516.81159 66.031 19.686 63.77 56.363-2.2609 36.676-17.769 63.196-59.703 60.527-41.202-2.622-40.961-28.401-83.581-24.682-28.132 2.4547-33.854 117.98-33.854 117.98s130.84-10.992 168.81-25.826c31.177-12.18 58.95-5.9188 55.429 18.882-4.5833 32.282-34.937 35.806-37.042 78.832-2.4515 50.113 32.146 62.255 67.141 62.984z" fill="#fff" fill-opacity=".098039" stroke="#fff" stroke-opacity=".5098" stroke-width="28.508"/></g><g transform="matrix(.41726 0 0 .41726 .53803 128.01)"><path d="m254.99 499.43c53.942 1.1235 60.891-42.634 60.705-65.868-.25563-31.95-19.656-42.806-20.471-70.165-.76667-25.732 14.557-46.917 48.47-35.58 33.913 11.336 107.53 20.314 149.72 17.08 3.384-20.519 14.08-108.35-4.8454-117.18-49.99-23.313-45.971 42.011-133.39 34.009-87.421-8.0021-44.464-105.27 12.367-108.2 48.297-2.4917 49.432 22.582 108.21 19.512 24.227-1.2651 28.53-142.14 18.734-162.39-36.605-8.94-212.05-18.533-218.28 4.9933-8.7343 32.994 29.68 36.604 27.42 79.282-2.2609 42.678-38.89 58.106-78.079 56.772-39.189-1.3337-59-37.425-46.942-74.101s30.923-26.872 23.827-64.227c-4.6098-24.269-144.28-10.424-198.86 16.354-5.1676 39.375-4.8439 129.27 18.706 139.79 42.518 18.98 41.279-16.332 91.736-15.145 34.516.81159 66.031 19.686 63.77 56.363-2.2609 36.676-17.769 63.196-59.703 60.527-41.202-2.622-40.961-28.401-83.581-24.682-28.132 2.4547-33.854 117.98-33.854 117.98s130.84-10.992 168.81-25.826c31.177-12.18 58.95-5.9188 55.429 18.882-4.5833 32.282-34.937 35.806-37.042 78.832-2.4515 50.113 32.146 62.255 67.141 62.984z" fill="#0ff"/></g><path transform="translate(0,-20)" d="m264.92 21.326c-1.288-.0181-2.5725-.01667-3.8535.0039-37.058.59522-71.205 15.428-92.523 37.121l-17.744-14.959.70703 54.279 53.576-8.5137-15.508-13.074c15.694-14.566 43.332-27.095 71.93-27.555 32.769-.52633 66.458 12.572 90.898 53.947l23.508-13.885c-28.061-47.505-71.061-66.804-110.99-67.365z" clip-path="url(#a)" color="#000000" color-rendering="auto" dominant-baseline="auto" fill="#fff" fill-opacity=".19608" image-rendering="auto" shape-rendering="auto" solid-color="#000000" stroke="#fff" stroke-opacity=".5098" stroke-width="9" style="font-feature-settings:normal;font-variant-alternates:normal;font-variant-caps:normal;font-variant-ligatures:normal;font-variant-numeric:normal;font-variant-position:normal;isolation:auto;mix-blend-mode:normal;shape-padding:0;text-decoration-color:#000000;text-decoration-line:none;text-decoration-style:solid;text-indent:0;text-orientation:mixed;text-transform:none;white-space:normal"/><path transform="rotate(180 263.35 228.94)" d="m264.92 21.326c-1.288-.0181-2.5725-.01667-3.8535.0039-37.058.59522-71.205 15.428-92.523 37.121l-17.744-14.959.70703 54.279 53.576-8.5137-15.508-13.074c15.694-14.566 43.332-27.095 71.93-27.555 32.769-.52633 66.458 12.572 90.898 53.947l23.508-13.885c-28.061-47.505-71.061-66.804-110.99-67.365z" clip-path="url(#a)" color="#000000" color-rendering="auto" dominant-baseline="auto" fill="#fff" fill-opacity=".19608" image-rendering="auto" shape-rendering="auto" solid-color="#000000" stroke="#fff" stroke-opacity=".5098" stroke-width="9" style="font-feature-settings:normal;font-variant-alternates:normal;font-variant-caps:normal;font-variant-ligatures:normal;font-variant-numeric:normal;font-variant-position:normal;isolation:auto;mix-blend-mode:normal;shape-padding:0;text-decoration-color:#000000;text-decoration-line:none;text-decoration-style:solid;text-indent:0;text-orientation:mixed;text-transform:none;white-space:normal"/></svg>
