<svg version="1.1" viewBox="0 0 500 500" xmlns="http://www.w3.org/2000/svg"><defs><clipPath id="a"><path d="m254.99 499.43c53.942 1.1235 60.891-42.634 60.705-65.868-.25563-31.95-19.656-42.806-20.471-70.165-.76667-25.732 14.557-46.917 48.47-35.58 33.913 11.336 107.53 20.314 149.72 17.08 3.384-20.519 14.08-108.35-4.8454-117.18-49.99-23.313-45.971 42.011-133.39 34.009-87.421-8.0021-44.464-105.27 12.367-108.2 48.297-2.4917 49.432 22.582 108.21 19.512 24.227-1.2651 28.53-142.14 18.734-162.39-36.605-8.94-212.05-18.533-218.28 4.9933-8.7343 32.994 29.68 36.604 27.42 79.282-2.2609 42.678-38.89 58.106-78.079 56.772-39.189-1.3337-59-37.425-46.942-74.101s30.923-26.872 23.827-64.227c-4.6098-24.269-144.28-10.424-198.86 16.354-5.1676 39.375-4.8439 129.27 18.706 139.79 42.518 18.98 41.279-16.332 91.736-15.145 34.516.81159 66.031 19.686 63.77 56.363-2.2609 36.676-17.769 63.196-59.703 60.527-41.202-2.622-40.961-28.401-83.581-24.682-28.132 2.4547-33.854 117.98-33.854 117.98s130.84-10.992 168.81-25.826c31.177-12.18 58.95-5.9188 55.429 18.882-4.5833 32.282-34.937 35.806-37.042 78.832-2.4515 50.113 32.146 62.255 67.141 62.984z" fill="#0ff"/></clipPath></defs><g transform="matrix(.3157 0 0 .3157 339.78 174.41)" clip-path="url(#a)" fill="#fff" fill-opacity=".19608" stroke="#fff" stroke-width="31.045"><path d="m254.99 499.43c53.942 1.1235 60.891-42.634 60.705-65.868-.25563-31.95-19.656-42.806-20.471-70.165-.76667-25.732 14.557-46.917 48.47-35.58 33.913 11.336 107.53 20.314 149.72 17.08 3.384-20.519 14.08-108.35-4.8454-117.18-49.99-23.313-45.971 42.011-133.39 34.009-87.421-8.0021-44.464-105.27 12.367-108.2 48.297-2.4917 49.432 22.582 108.21 19.512 24.227-1.2651 28.53-142.14 18.734-162.39-36.605-8.94-212.05-18.533-218.28 4.9933-8.7343 32.994 29.68 36.604 27.42 79.282-2.2609 42.678-38.89 58.106-78.079 56.772-39.189-1.3337-59-37.425-46.942-74.101s30.923-26.872 23.827-64.227c-4.6098-24.269-144.28-10.424-198.86 16.354-5.1676 39.375-4.8439 129.27 18.706 139.79 42.518 18.98 41.279-16.332 91.736-15.145 34.516.81159 66.031 19.686 63.77 56.363-2.2609 36.676-17.769 63.196-59.703 60.527-41.202-2.622-40.961-28.401-83.581-24.682-28.132 2.4547-33.854 117.98-33.854 117.98s130.84-10.992 168.81-25.826c31.177-12.18 58.95-5.9188 55.429 18.882-4.5833 32.282-34.937 35.806-37.042 78.832-2.4515 50.113 32.146 62.255 67.141 62.984z" fill="#fff" fill-opacity=".19608" stroke="#fff" stroke-width="31.045"/></g><g transform="matrix(.41726 0 0 .41726 .53803 148.01)"><path d="m254.99 499.43c53.942 1.1235 60.891-42.634 60.705-65.868-.25563-31.95-19.656-42.806-20.471-70.165-.76667-25.732 14.557-46.917 48.47-35.58 33.913 11.336 107.53 20.314 149.72 17.08 3.384-20.519 14.08-108.35-4.8454-117.18-49.99-23.313-45.971 42.011-133.39 34.009-87.421-8.0021-44.464-105.27 12.367-108.2 48.297-2.4917 49.432 22.582 108.21 19.512 24.227-1.2651 28.53-142.14 18.734-162.39-36.605-8.94-212.05-18.533-218.28 4.9933-8.7343 32.994 29.68 36.604 27.42 79.282-2.2609 42.678-38.89 58.106-78.079 56.772-39.189-1.3337-59-37.425-46.942-74.101s30.923-26.872 23.827-64.227c-4.6098-24.269-144.28-10.424-198.86 16.354-5.1676 39.375-4.8439 129.27 18.706 139.79 42.518 18.98 41.279-16.332 91.736-15.145 34.516.81159 66.031 19.686 63.77 56.363-2.2609 36.676-17.769 63.196-59.703 60.527-41.202-2.622-40.961-28.401-83.581-24.682-28.132 2.4547-33.854 117.98-33.854 117.98s130.84-10.992 168.81-25.826c31.177-12.18 58.95-5.9188 55.429 18.882-4.5833 32.282-34.937 35.806-37.042 78.832-2.4515 50.113 32.146 62.255 67.141 62.984z" fill="#0ff"/></g><g transform="matrix(.78568 0 0 .78568 57.972 2.9354)" stroke="#fff" stroke-opacity=".5098"><path d="m96.871 49.072 1.0353 79.523 78.493-12.474z" color="#000000" color-rendering="auto" dominant-baseline="auto" fill="#fff" fill-opacity=".19608" image-rendering="auto" shape-rendering="auto" solid-color="#000000" stroke-width="12.688" style="font-feature-settings:normal;font-variant-alternates:normal;font-variant-caps:normal;font-variant-ligatures:normal;font-variant-numeric:normal;font-variant-position:normal;isolation:auto;mix-blend-mode:normal;shape-padding:0;text-decoration-color:#000000;text-decoration-line:none;text-decoration-style:solid;text-indent:0;text-orientation:mixed;text-transform:none;white-space:normal"/><path d="m129.17 93.943c55.033-90.096 211.55-114.98 280.28 31.52" fill="none" stroke-width="40"/></g><g transform="matrix(-.78568 0 0 -.78568 464.88 500.55)" stroke="#fff" stroke-opacity=".5098"><path d="m96.871 49.072 1.0353 79.523 78.493-12.474z" color="#000000" color-rendering="auto" dominant-baseline="auto" fill="#fff" fill-opacity=".19608" image-rendering="auto" shape-rendering="auto" solid-color="#000000" stroke-width="12.688" style="font-feature-settings:normal;font-variant-alternates:normal;font-variant-caps:normal;font-variant-ligatures:normal;font-variant-numeric:normal;font-variant-position:normal;isolation:auto;mix-blend-mode:normal;shape-padding:0;text-decoration-color:#000000;text-decoration-line:none;text-decoration-style:solid;text-indent:0;text-orientation:mixed;text-transform:none;white-space:normal"/><path d="m129.17 93.943c55.033-90.096 211.55-114.98 280.28 31.52" fill="none" stroke-width="40"/></g></svg>
