<svg version="1.1" viewBox="0 0 500 500" xmlns="http://www.w3.org/2000/svg"><defs><clipPath id="a"><path d="m254.99 499.43c53.942 1.1235 60.891-42.634 60.705-65.868-.25563-31.95-19.656-42.806-20.471-70.165-.76667-25.732 14.557-46.917 48.47-35.58 33.913 11.336 107.53 20.314 149.72 17.08 3.384-20.519 14.08-108.35-4.8454-117.18-49.99-23.313-45.971 42.011-133.39 34.009-87.421-8.0021-44.464-105.27 12.367-108.2 48.297-2.4917 49.432 22.582 108.21 19.512 24.227-1.2651 28.53-142.14 18.734-162.39-36.605-8.94-212.05-18.533-218.28 4.9933-8.7343 32.994 29.68 36.604 27.42 79.282-2.2609 42.678-38.89 58.106-78.079 56.772-39.189-1.3337-59-37.425-46.942-74.101s30.923-26.872 23.827-64.227c-4.6098-24.269-144.28-10.424-198.86 16.354-5.1676 39.375-4.8439 129.27 18.706 139.79 42.518 18.98 41.279-16.332 91.736-15.145 34.516.81159 66.031 19.686 63.77 56.363-2.2609 36.676-17.769 63.196-59.703 60.527-41.202-2.622-40.961-28.401-83.581-24.682-28.132 2.4547-33.854 117.98-33.854 117.98s130.84-10.992 168.81-25.826c31.177-12.18 58.95-5.9188 55.429 18.882-4.5833 32.282-34.937 35.806-37.042 78.832-2.4515 50.113 32.146 62.255 67.141 62.984z" fill="#0ff"/></clipPath><clipPath id="b"><path d="m155.51 58.932-16.412 51.742 53.533 8.7812-13.043-21.266c21.397-9.9447 45.22-15.51 70.414-15.51 52.981-1e-6 100.08 24.551 130.75 62.9l6.6699 8.3398 16.682-13.34-6.6699-8.3418c-34.566-43.22-87.838-70.918-147.43-70.918-29.212 0-56.938 6.6607-81.654 18.541zm168.08 312.85 15.713 19.738c-25.836 16.344-56.415 25.801-89.297 25.801-34.675 0-66.786-10.51-93.482-28.529l-8.8535-5.9746-11.949 17.703 8.8516 5.9746c30.097 20.314 66.433 32.186 105.43 32.186 37.817 0 73.122-11.164 102.67-30.361l15.133 19.01 9.9824-53.357z" color="#000000" color-rendering="auto" dominant-baseline="auto" fill="#fff" fill-opacity=".19608" image-rendering="auto" shape-rendering="auto" solid-color="#000000" stroke="#fff" stroke-opacity=".5098" stroke-width="9" style="font-feature-settings:normal;font-variant-alternates:normal;font-variant-caps:normal;font-variant-ligatures:normal;font-variant-numeric:normal;font-variant-position:normal;isolation:auto;mix-blend-mode:normal;shape-padding:0;text-decoration-color:#000000;text-decoration-line:none;text-decoration-style:solid;text-indent:0;text-orientation:mixed;text-transform:none;white-space:normal"/></clipPath></defs><g transform="matrix(.3157 0 0 .3157 339.78 186.41)" clip-path="url(#a)" fill="#fff" fill-opacity=".098039" stroke="#fff" stroke-opacity=".5098" stroke-width="28.508"><path d="m254.99 499.43c53.942 1.1235 60.891-42.634 60.705-65.868-.25563-31.95-19.656-42.806-20.471-70.165-.76667-25.732 14.557-46.917 48.47-35.58 33.913 11.336 107.53 20.314 149.72 17.08 3.384-20.519 14.08-108.35-4.8454-117.18-49.99-23.313-45.971 42.011-133.39 34.009-87.421-8.0021-44.464-105.27 12.367-108.2 48.297-2.4917 49.432 22.582 108.21 19.512 24.227-1.2651 28.53-142.14 18.734-162.39-36.605-8.94-212.05-18.533-218.28 4.9933-8.7343 32.994 29.68 36.604 27.42 79.282-2.2609 42.678-38.89 58.106-78.079 56.772-39.189-1.3337-59-37.425-46.942-74.101s30.923-26.872 23.827-64.227c-4.6098-24.269-144.28-10.424-198.86 16.354-5.1676 39.375-4.8439 129.27 18.706 139.79 42.518 18.98 41.279-16.332 91.736-15.145 34.516.81159 66.031 19.686 63.77 56.363-2.2609 36.676-17.769 63.196-59.703 60.527-41.202-2.622-40.961-28.401-83.581-24.682-28.132 2.4547-33.854 117.98-33.854 117.98s130.84-10.992 168.81-25.826c31.177-12.18 58.95-5.9188 55.429 18.882-4.5833 32.282-34.937 35.806-37.042 78.832-2.4515 50.113 32.146 62.255 67.141 62.984z" fill="#fff" fill-opacity=".098039" stroke="#fff" stroke-opacity=".5098" stroke-width="28.508"/></g><g transform="matrix(.41726 0 0 .41726 .53803 154.01)"><path d="m254.99 499.43c53.942 1.1235 60.891-42.634 60.705-65.868-.25563-31.95-19.656-42.806-20.471-70.165-.76667-25.732 14.557-46.917 48.47-35.58 33.913 11.336 107.53 20.314 149.72 17.08 3.384-20.519 14.08-108.35-4.8454-117.18-49.99-23.313-45.971 42.011-133.39 34.009-87.421-8.0021-44.464-105.27 12.367-108.2 48.297-2.4917 49.432 22.582 108.21 19.512 24.227-1.2651 28.53-142.14 18.734-162.39-36.605-8.94-212.05-18.533-218.28 4.9933-8.7343 32.994 29.68 36.604 27.42 79.282-2.2609 42.678-38.89 58.106-78.079 56.772-39.189-1.3337-59-37.425-46.942-74.101s30.923-26.872 23.827-64.227c-4.6098-24.269-144.28-10.424-198.86 16.354-5.1676 39.375-4.8439 129.27 18.706 139.79 42.518 18.98 41.279-16.332 91.736-15.145 34.516.81159 66.031 19.686 63.77 56.363-2.2609 36.676-17.769 63.196-59.703 60.527-41.202-2.622-40.961-28.401-83.581-24.682-28.132 2.4547-33.854 117.98-33.854 117.98s130.84-10.992 168.81-25.826c31.177-12.18 58.95-5.9188 55.429 18.882-4.5833 32.282-34.937 35.806-37.042 78.832-2.4515 50.113 32.146 62.255 67.141 62.984z" fill="#0ff"/></g><path d="m155.51 58.932-16.412 51.742 53.533 8.7812-13.043-21.266c21.397-9.9447 45.22-15.51 70.414-15.51 52.981-1e-6 100.08 24.551 130.75 62.9l6.6699 8.3398 16.682-13.34-6.6699-8.3418c-34.566-43.22-87.838-70.918-147.43-70.918-29.212 0-56.938 6.6607-81.654 18.541l-12.838-20.93zm168.08 312.85 15.713 19.738c-25.836 16.344-56.415 25.801-89.297 25.801-34.675 0-66.786-10.51-93.482-28.529l-8.8535-5.9746-11.949 17.703 8.8516 5.9746c30.097 20.314 66.433 32.186 105.43 32.186 37.817 0 73.122-11.164 102.67-30.361l15.133 19.01 9.9824-53.357-54.205-2.1894z" clip-path="url(#b)" color="#000000" color-rendering="auto" dominant-baseline="auto" fill="#fff" fill-opacity=".19608" image-rendering="auto" shape-rendering="auto" solid-color="#000000" stroke="#fff" stroke-opacity=".5098" stroke-width="9" style="font-feature-settings:normal;font-variant-alternates:normal;font-variant-caps:normal;font-variant-ligatures:normal;font-variant-numeric:normal;font-variant-position:normal;isolation:auto;mix-blend-mode:normal;shape-padding:0;text-decoration-color:#000000;text-decoration-line:none;text-decoration-style:solid;text-indent:0;text-orientation:mixed;text-transform:none;white-space:normal"/></svg>
