<svg version="1.1" viewBox="0 0 500 500" xmlns="http://www.w3.org/2000/svg"><defs><clipPath id="a"><path d="m3.8948 295.58c.8644 7.33 4.6039 13.62 10.116 18.04l99.808 74.388c5.2252 3.8979 11.948 5.8593 19.009 5.0266l302.23-35.641c14.774-1.7422 25.265-15.038 23.523-29.812l-19.917-168.89c-1.7422-14.774-15.038-25.265-29.812-23.523l-279.3 32.937c-10.718-24.404-24.437-44.867-39.348-59.227-8.1348-7.8345-16.641-13.929-25.841-17.541-9.2006-3.612-19.668-4.5895-29.215-.7284-9.5469 3.8611-16.391 11.841-20.494 20.833-4.103 8.9924-5.9811 19.285-6.3826 30.572-.803 22.574 4.4469 49.381 15.527 76.777 3.624 8.9606 7.6593 17.431 12.009 25.337l-25.858 30.994c-4.573 5.6077-6.9517 12.85-6.0541 20.461zm32.099-134.52c-.79216-6.533-1.0832-12.623-.88872-18.09.31113-8.7463 1.902-15.833 3.9775-20.382 2.0755-4.5489 4.1203-6.2726 6.1333-7.0868 2.013-.81413 4.6817-.99706 9.3359.83009 4.6542 1.8272 10.721 5.8171 17.025 11.888 10.276 9.8968 21.126 25.132 30.13 43.637-5.0329 1.5653-9.355 4.5176-12.541 8.3106l-25.179 30.182.02544.0516c8.9105 19.77 20.325 36.106 29.937 45.364.86883.83676 1.7135 1.5883 2.5418 2.2984 1.5286-.46899 3.0959-.8007 4.6835-.99062 14.728-1.7368 28.075 8.7946 29.812 23.522 1.7368 14.728-8.7946 28.075-23.522 29.812-14.728 1.7368-28.075-8.7946-29.812-23.523-.91082-7.8214 1.6573-15.648 7.0248-21.41-.01404-.0135-.02755-.0256-.04158-.0391-10.26-9.8817-21.159-25.226-30.154-43.692-2.0332-4.1819-3.9734-8.5277-5.79-13.019-6.7824-16.77-10.955-33.292-12.697-47.664z" fill="#ff6400"/></clipPath></defs><path d="m152.79 400.37c3.7685 2.0436 8.103 3.2096 12.722 3.2155l304.32.38652c14.876.0189 26.868-11.943 26.887-26.819l.21655-170.06c.0189-14.876-11.942-26.867-26.818-26.886l-15.054-.0184 18.125 153.7c1.8494 15.683-9.2871 29.797-24.97 31.646z" fill="#0ff"/><path d="m3.8948 295.58c.8644 7.33 4.6039 13.62 10.116 18.04l99.808 74.388c5.2252 3.8979 11.948 5.8593 19.009 5.0266l302.23-35.641c14.774-1.7422 25.265-15.038 23.523-29.812l-19.917-168.89c-1.7422-14.774-15.038-25.265-29.812-23.523l-279.3 32.937c-10.718-24.404-24.437-44.867-39.348-59.227-8.1348-7.8345-16.641-13.929-25.841-17.541-9.2006-3.612-19.668-4.5895-29.215-.7284-9.5469 3.8611-16.391 11.841-20.494 20.833-4.103 8.9924-5.9811 19.285-6.3826 30.572-.803 22.574 4.4469 49.381 15.527 76.777 3.624 8.9606 7.6593 17.431 12.009 25.337l-25.858 30.994c-4.573 5.6077-6.9517 12.85-6.0541 20.461zm32.099-134.52c-.79216-6.533-1.0832-12.623-.88872-18.09.31113-8.7463 1.902-15.833 3.9775-20.382 2.0755-4.5489 4.1203-6.2726 6.1333-7.0868 2.013-.81413 4.6817-.99706 9.3359.83009 4.6542 1.8272 10.721 5.8171 17.025 11.888 10.276 9.8968 21.126 25.132 30.13 43.637-5.0329 1.5653-9.355 4.5176-12.541 8.3106l-25.179 30.182.02544.0516c8.9105 19.77 20.325 36.106 29.937 45.364.86883.83676 1.7135 1.5883 2.5418 2.2984 1.5286-.46899 3.0959-.8007 4.6835-.99062 14.728-1.7368 28.075 8.7946 29.812 23.522 1.7368 14.728-8.7946 28.075-23.522 29.812-14.728 1.7368-28.075-8.7946-29.812-23.523-.91082-7.8214 1.6573-15.648 7.0248-21.41-.01404-.0135-.02755-.0256-.04158-.0391-10.26-9.8817-21.159-25.226-30.154-43.692-2.0332-4.1819-3.9734-8.5277-5.79-13.019-6.7824-16.77-10.955-33.292-12.697-47.664z" clip-path="url(#a)" fill="#009d00" stroke="#0f0" stroke-width="20"/><path d="m455.96 187.8 17.229 146.09c1.8494 15.683-9.2878 29.797-24.971 31.646l-258.56 30.486 274.32.34961c13.865.0175 25.043-11.133 25.061-24.998l.20117-158.51c.0175-13.865-11.131-25.043-24.996-25.061l-8.2891-.00976z" fill="#c000ff" stroke-width=".93207"/></svg>
