<svg version="1.1" viewBox="0 0 500 500" xmlns="http://www.w3.org/2000/svg"><defs><clipPath id="a"><path d="m3.8948 295.58c.8644 7.33 4.6039 13.62 10.116 18.04l99.808 74.388c5.2252 3.8979 11.948 5.8593 19.009 5.0266l302.23-35.641c14.774-1.7422 25.265-15.038 23.523-29.812l-19.917-168.89c-1.7422-14.774-15.038-25.265-29.812-23.523l-279.3 32.937c-10.718-24.404-24.437-44.867-39.348-59.227-8.1348-7.8345-16.641-13.929-25.841-17.541-9.2006-3.612-19.668-4.5895-29.215-.7284-9.5469 3.8611-16.391 11.841-20.494 20.833-4.103 8.9924-5.9811 19.285-6.3826 30.572-.803 22.574 4.4469 49.381 15.527 76.777 3.624 8.9606 7.6593 17.431 12.009 25.337l-25.858 30.994c-4.573 5.6077-6.9517 12.85-6.0541 20.461zm32.099-134.52c-.79216-6.533-1.0832-12.623-.88872-18.09.31113-8.7463 1.902-15.833 3.9775-20.382 2.0755-4.5489 4.1203-6.2726 6.1333-7.0868 2.013-.81413 4.6817-.99706 9.3359.83009 4.6542 1.8272 10.721 5.8171 17.025 11.888 10.276 9.8968 21.126 25.132 30.13 43.637-5.0329 1.5653-9.355 4.5176-12.541 8.3106l-25.179 30.182.02544.0516c8.9105 19.77 20.325 36.106 29.937 45.364.86883.83676 1.7135 1.5883 2.5418 2.2984 1.5286-.46899 3.0959-.8007 4.6835-.99062 14.728-1.7368 28.075 8.7946 29.812 23.522 1.7368 14.728-8.7946 28.075-23.522 29.812-14.728 1.7368-28.075-8.7946-29.812-23.523-.91082-7.8214 1.6573-15.648 7.0248-21.41-.01404-.0135-.02755-.0256-.04158-.0391-10.26-9.8817-21.159-25.226-30.154-43.692-2.0332-4.1819-3.9734-8.5277-5.79-13.019-6.7824-16.77-10.955-33.292-12.697-47.664z" fill="#ff6400"/></clipPath></defs><g fill="#fff"><path d="m455.06 180.19.89649 7.6074 8.2891.00976c13.865.0177 25.014 11.195 24.996 25.061l-.20117 158.51c-.0177 13.865-11.195 25.016-25.061 24.998l-274.32-.34961h-.00195l-36.871 4.3477c3.7685 2.0436 8.1037 3.2109 12.723 3.2168l304.32.38672c14.876.0189 26.868-11.944 26.887-26.82l.2168-170.06c.0189-14.876-11.942-26.868-26.818-26.887l-15.053-.01758zm18.26 155.16c.13075 1.9468.06283 3.864-.1875 5.7305.25035-1.8665.31825-3.7836.1875-5.7305zm-.1875 5.7305c-.12517.93323-.29551 1.8545-.50977 2.7598.21427-.90531.38459-1.8265.50977-2.7598zm-1.2812 5.4277c-.29923.87215-.63946 1.7248-1.0195 2.5586.38009-.83379.72029-1.6864 1.0195-2.5586zm-1.6191 3.7949c-1.0474 2.0316-2.3354 3.9262-3.8301 5.6445 1.4948-1.7184 2.7826-3.6129 3.8301-5.6445zm-3.8301 5.6445c-.29895.34367-.60658.68059-.92187 1.0098.31564-.3295.62261-.66575.92187-1.0098zm-7.4102 6.0644c-.80514.45707-1.6352.87634-2.4902 1.2559.85509-.37953 1.6851-.79878 2.4902-1.2559zm-5.127 2.2715c-.9009.29676-1.823.55099-2.7656.75977.94199-.20864 1.8653-.46326 2.7656-.75977z"/><path d="m3.8948 295.58c.8644 7.33 4.6039 13.62 10.116 18.04l99.808 74.388c5.2252 3.8979 11.948 5.8593 19.009 5.0266l302.23-35.641c14.774-1.7422 25.265-15.038 23.523-29.812l-19.917-168.89c-1.7422-14.774-15.038-25.265-29.812-23.523l-279.3 32.937c-10.718-24.404-24.437-44.867-39.348-59.227-8.1348-7.8345-16.641-13.929-25.841-17.541-9.2006-3.612-19.668-4.5895-29.215-.7284-9.5469 3.8611-16.391 11.841-20.494 20.833-4.103 8.9924-5.9811 19.285-6.3826 30.572-.803 22.574 4.4469 49.381 15.527 76.777 3.624 8.9606 7.6593 17.431 12.009 25.337l-25.858 30.994c-4.573 5.6077-6.9517 12.85-6.0541 20.461zm32.099-134.52c-.79216-6.533-1.0832-12.623-.88872-18.09.31113-8.7463 1.902-15.833 3.9775-20.382 2.0755-4.5489 4.1203-6.2726 6.1333-7.0868 2.013-.81413 4.6817-.99706 9.3359.83009 4.6542 1.8272 10.721 5.8171 17.025 11.888 10.276 9.8968 21.126 25.132 30.13 43.637-5.0329 1.5653-9.355 4.5176-12.541 8.3106l-25.179 30.182.02544.0516c8.9105 19.77 20.325 36.106 29.937 45.364.86883.83676 1.7135 1.5883 2.5418 2.2984 1.5286-.46899 3.0959-.8007 4.6835-.99062 14.728-1.7368 28.075 8.7946 29.812 23.522 1.7368 14.728-8.7946 28.075-23.522 29.812-14.728 1.7368-28.075-8.7946-29.812-23.523-.91082-7.8214 1.6573-15.648 7.0248-21.41-.01404-.0135-.02755-.0256-.04158-.0391-10.26-9.8817-21.159-25.226-30.154-43.692-2.0332-4.1819-3.9734-8.5277-5.79-13.019-6.7824-16.77-10.955-33.292-12.697-47.664z" clip-path="url(#a)" fill-opacity=".19608" stroke="#fff" stroke-width="20"/><path d="m455.96 187.8 17.229 146.09c1.8494 15.683-9.2878 29.797-24.971 31.646l-258.56 30.486 274.32.34961c13.865.0175 25.043-11.133 25.061-24.998l.20117-158.51c.0175-13.865-11.131-25.043-24.996-25.061l-8.2891-.00976z" fill-opacity=".19608"/></g></svg>
