<svg version="1.1" viewBox="0 0 500 500" xmlns="http://www.w3.org/2000/svg"><g transform="matrix(.37979 -.95775 .95775 .37979 -90.236 409.01)"><path d="m128.62 136.76c-2.4469 3.4693-4.0964 7.5969-4.6379 12.139l-35.675 299.25c-1.7439 14.628 8.6291 27.81 23.257 29.554l167.23 19.937c14.628 1.7439 27.808-8.6291 29.552-23.257l1.7641-14.804h-153.26c-15.638 0-28.228-12.59-28.228-28.228z" fill="#0ff"/><path d="m248.95 2.4815c-7.3092 0-13.929 2.9481-18.915 7.8563l-84.735 89.532c-4.4395 4.6869-7.1482 11.071-7.1482 18.112v301.37c0 14.732 11.86 26.592 26.592 26.592h168.41c14.732 0 26.592-11.86 26.592-26.592v-278.5c25.244-7.7108 46.96-18.83 62.812-31.828 8.6485-7.0918 15.629-14.75 20.248-23.38 4.6194-8.6297 6.7948-18.811 4.1047-28.648-2.6901-9.837-9.7441-17.494-18.112-22.572-8.368-5.0781-18.273-8.119-29.327-9.8229-22.108-3.4078-49.081-1.3537-77.309 6.3657-9.2329 2.5249-18.031 5.5111-26.311 8.8725l-27.483-29.026c-4.9847-5.1478-11.832-8.3272-19.421-8.3272zm128.58 47.171c6.517-.02138 12.54.39874 17.894 1.224 8.5658 1.3204 15.351 3.7068 19.584 6.2757 4.2331 2.5688 5.6912 4.7797 6.2584 6.8539.56722 2.0742.43762 4.72-1.8992 9.0854-2.3368 4.3655-6.9644 9.8691-13.666 15.365-10.925 8.9587-27.167 17.862-46.411 24.571-.95569-5.1313-3.358-9.7245-6.7189-13.298l-26.763-28.264-.0537.01904c-20.477 6.4704-37.867 15.802-48.086 24.182-.9237.75743-1.7608 1.501-2.5553 2.2333.28396 1.5577.42841 3.1377.43107 4.721 0 14.686-11.905 26.592-26.592 26.592-14.686 0-26.592-11.905-26.592-26.592 0-14.686 11.905-26.592 26.592-26.592 7.7978.01134 15.198 3.4448 20.241 9.3919.0149-.01224.0284-.02412.0433-.03636 10.908-8.9449 27.263-17.884 46.468-24.589 4.3486-1.5146 8.8477-2.9187 13.476-4.1844 17.28-4.7254 34.012-6.9125 48.35-6.9595z" fill="#ff6400"/></g></svg>
