<svg version="1.1" viewBox="0 0 500 500" xmlns="http://www.w3.org/2000/svg"><g fill="#0f0"><path d="m458.12 1.2978-75.967 65.902 8.8528 41.792 41.792 8.8528 65.902-75.967-34.006-6.5754z"/><path d="m213.33 78.193c-115.62 0-209.72 93.818-209.72 209.09 0 115.27 94.103 209.09 209.72 209.09 115.62 0 209.72-93.82 209.72-209.09 0-47.864-16.237-92.02-43.49-127.31l-24.864 24.864c20.947 28.722 33.298 64.104 33.298 102.44 0 96.382-77.993 174.14-174.67 174.14s-174.67-77.758-174.67-174.14c2e-6-96.382 77.993-174.14 174.67-174.14 37.945 0 73.009 11.982 101.61 32.366l24.876-24.876c-35.191-26.618-79.022-42.44-126.49-42.44z" color="#000000" color-rendering="auto" dominant-baseline="auto" image-rendering="auto" shape-rendering="auto" solid-color="#000000" style="font-feature-settings:normal;font-variant-alternates:normal;font-variant-caps:normal;font-variant-ligatures:normal;font-variant-numeric:normal;font-variant-position:normal;isolation:auto;mix-blend-mode:normal;paint-order:normal;shape-padding:0;text-decoration-color:#000000;text-decoration-line:none;text-decoration-style:solid;text-indent:0;text-orientation:mixed;text-transform:none;white-space:normal"/><path d="m213.33 157.46c-71.705 0-130.21 58.328-130.21 129.82 1e-6 71.489 58.504 129.82 130.21 129.82 71.705-1e-5 130.21-58.328 130.21-129.82 0-25.908-7.6893-50.083-20.9-70.384l-25.417 25.417c7.1876 13.364 11.261 28.668 11.261 44.967 0 52.6-42.395 94.867-95.154 94.867-52.759 0-95.153-42.267-95.153-94.867 1e-5-52.6 42.393-94.867 95.153-94.867 15.916 0 30.886 3.853 44.036 10.67l25.477-25.477c-20.137-12.746-43.987-20.143-69.514-20.143z" color="#000000" color-rendering="auto" dominant-baseline="auto" image-rendering="auto" shape-rendering="auto" solid-color="#000000" style="font-feature-settings:normal;font-variant-alternates:normal;font-variant-caps:normal;font-variant-ligatures:normal;font-variant-numeric:normal;font-variant-position:normal;isolation:auto;mix-blend-mode:normal;paint-order:normal;shape-padding:0;text-decoration-color:#000000;text-decoration-line:none;text-decoration-style:solid;text-indent:0;text-orientation:mixed;text-transform:none;white-space:normal"/></g><ellipse cx="213.33" cy="287.28" rx="48.049" ry="47.904" fill="#e60000" style="paint-order:normal"/><path d="m213.33 286.66 256.32-256.32" fill="none" stroke="#000" stroke-linecap="round" stroke-width="25"/></svg>
