<svg version="1.1" viewBox="0 0 500 500" xmlns="http://www.w3.org/2000/svg"><g fill="#0ff"><path d="m440.58 1.9495-110.83 96.147 12.916 60.972 60.972 12.916 96.147-110.83-49.613-9.5932z"/><path d="m204.3 97.17c-111.06 0-201.46 90.121-201.46 200.85 0 110.73 90.395 200.85 201.46 200.85 111.06 0 201.46-90.123 201.46-200.85 0-45.978-15.597-88.394-41.777-122.29l-23.884 23.884c20.121 27.591 31.986 61.578 31.986 98.405 0 92.584-74.92 167.28-167.78 167.28s-167.78-74.694-167.78-167.28c2e-6-92.584 74.92-167.28 167.78-167.28 36.45 0 70.132 11.51 97.608 31.09l23.896-23.896c-33.804-25.569-75.908-40.768-121.5-40.768z" color="#000000" color-rendering="auto" dominant-baseline="auto" image-rendering="auto" shape-rendering="auto" solid-color="#000000" style="font-feature-settings:normal;font-variant-alternates:normal;font-variant-caps:normal;font-variant-ligatures:normal;font-variant-numeric:normal;font-variant-position:normal;isolation:auto;mix-blend-mode:normal;paint-order:normal;shape-padding:0;text-decoration-color:#000000;text-decoration-line:none;text-decoration-style:solid;text-indent:0;text-orientation:mixed;text-transform:none;white-space:normal"/><path d="m204.3 173.32c-68.88 0-125.08 56.03-125.08 124.7 1e-6 68.672 56.198 124.7 125.08 124.7 68.88-1e-5 125.08-56.03 125.08-124.7 0-24.887-7.3863-48.109-20.077-67.61l-24.415 24.415c6.9044 12.837 10.818 27.539 10.818 43.195 0 50.528-40.725 91.129-91.405 91.129-50.68 0-91.403-40.601-91.403-91.129 1e-5-50.528 40.723-91.129 91.403-91.129 15.289 0 29.669 3.7012 42.301 10.249l24.473-24.473c-19.343-12.244-42.254-19.349-66.774-19.349z" color="#000000" color-rendering="auto" dominant-baseline="auto" image-rendering="auto" shape-rendering="auto" solid-color="#000000" style="font-feature-settings:normal;font-variant-alternates:normal;font-variant-caps:normal;font-variant-ligatures:normal;font-variant-numeric:normal;font-variant-position:normal;isolation:auto;mix-blend-mode:normal;paint-order:normal;shape-padding:0;text-decoration-color:#000000;text-decoration-line:none;text-decoration-style:solid;text-indent:0;text-orientation:mixed;text-transform:none;white-space:normal"/></g><ellipse cx="204.3" cy="298.02" rx="46.155" ry="46.016" fill="#e60000" style="paint-order:normal"/><path d="m204.3 297.43 246.22-246.22" fill="none" stroke="#000" stroke-linecap="round" stroke-width="24.015"/></svg>
