<svg version="1.1" viewBox="0 0 500 500" xmlns="http://www.w3.org/2000/svg"><g transform="matrix(.93207 0 0 .93207 3.6202 30.347)"><path d="m487.63-31.166-81.504 70.705 9.498 44.838 44.838 9.498 70.705-81.504-36.484-7.0547z" fill="#0ff"/><g transform="matrix(.94028 0 0 .93745 -.0080308 31.269)"><path transform="matrix(1.0635 0 0 1.0667 .0085409 -33.355)" d="m225 51.334c-124.05 0-225.01 100.66-225.01 224.33 0 123.67 100.96 224.33 225.01 224.33s225.01-100.66 225.01-224.33c0-51.352-17.421-98.727-46.66-136.58l-26.676 26.676c22.474 30.816 35.725 68.777 35.725 109.91 0 103.41-83.677 186.83-187.4 186.83-103.72 0-187.4-83.426-187.4-186.83 2e-6-103.41 83.677-186.83 187.4-186.83 40.711 0 78.331 12.856 109.02 34.725l26.689-26.689c-37.756-28.558-84.781-45.533-135.71-45.533z" color="#000000" color-rendering="auto" dominant-baseline="auto" fill="#0ff" image-rendering="auto" shape-rendering="auto" solid-color="#000000" style="font-feature-settings:normal;font-variant-alternates:normal;font-variant-caps:normal;font-variant-ligatures:normal;font-variant-numeric:normal;font-variant-position:normal;isolation:auto;mix-blend-mode:normal;paint-order:normal;shape-padding:0;text-decoration-color:#000000;text-decoration-line:none;text-decoration-style:solid;text-indent:0;text-orientation:mixed;text-transform:none;white-space:normal"/><path transform="matrix(1.0635 0 0 1.0667 .0085409 -33.355)" d="m225 136.38c-76.931 0-139.7 62.58-139.7 139.28 1e-6 76.699 62.768 139.28 139.7 139.28 76.931-1e-5 139.7-62.58 139.7-139.28 0-27.796-8.2498-53.733-22.424-75.514l-27.27 27.27c7.7114 14.338 12.082 30.758 12.082 48.244 0 56.434-45.485 101.78-102.09 101.78-56.605 0-102.09-45.347-102.09-101.78 1e-5-56.434 45.483-101.78 102.09-101.78 17.076 0 33.137 4.1339 47.246 11.447l27.334-27.334c-21.604-13.675-47.193-21.611-74.58-21.611z" color="#000000" color-rendering="auto" dominant-baseline="auto" fill="#0ff" image-rendering="auto" shape-rendering="auto" solid-color="#000000" style="font-feature-settings:normal;font-variant-alternates:normal;font-variant-caps:normal;font-variant-ligatures:normal;font-variant-numeric:normal;font-variant-position:normal;isolation:auto;mix-blend-mode:normal;paint-order:normal;shape-padding:0;text-decoration-color:#000000;text-decoration-line:none;text-decoration-style:solid;text-indent:0;text-orientation:mixed;text-transform:none;white-space:normal"/><circle cx="239.3" cy="260.7" r="54.825" fill="#f00" style="paint-order:normal"/></g><path d="M 225,275 500,0" fill="none" stroke="#000" stroke-linecap="round" stroke-width="20"/></g></svg>
