<svg version="1.1" viewBox="0 0 500 500" xmlns="http://www.w3.org/2000/svg"><defs><clipPath id="b"><path d="m204.31 97.164-.008.0059c-111.06 0-201.46 90.121-201.46 200.85 0 110.73 90.396 200.85 201.46 200.85 111.06 0 201.46-90.123 201.46-200.85 0-45.978-15.597-88.393-41.777-122.29l-23.883 23.883c20.121 27.591 31.986 61.579 31.986 98.406 0 92.584-74.921 167.28-167.78 167.28s-167.78-74.693-167.78-167.28c2e-6-92.584 74.919-167.28 167.78-167.28 36.45 0 70.131 11.51 97.607 31.09l23.896-23.895c-33.804-25.569-75.908-40.77-121.5-40.77zm-.008 76.154v.002c-68.88 0-125.08 56.029-125.08 124.7 1e-6 68.672 56.198 124.7 125.08 124.7 68.88-1e-5 125.08-56.031 125.08-124.7 0-24.887-7.3874-48.108-20.078-67.609l-24.414 24.414c6.9044 12.837 10.816 27.539 10.816 43.195 0 50.528-40.724 91.129-91.404 91.129s-91.402-40.601-91.402-91.129c1e-5-50.528 40.722-91.129 91.402-91.129 15.289 0 29.669 3.7022 42.301 10.25l24.473-24.473c-19.343-12.244-42.253-19.35-66.773-19.35z" color="#000000" color-rendering="auto" dominant-baseline="auto" fill="#0ff" image-rendering="auto" shape-rendering="auto" solid-color="#000000" style="font-feature-settings:normal;font-variant-alternates:normal;font-variant-caps:normal;font-variant-ligatures:normal;font-variant-numeric:normal;font-variant-position:normal;isolation:auto;mix-blend-mode:normal;paint-order:normal;shape-padding:0;text-decoration-color:#000000;text-decoration-line:none;text-decoration-style:solid;text-indent:0;text-orientation:mixed;text-transform:none;white-space:normal"/></clipPath><clipPath id="a"><path d="m440.58 1.9492-110.83 96.146 9.9473 46.955-143.89 143.89a12.009 12.009 0 1 0 16.982 16.98l143.88-143.88 46.963 9.9492 96.146-110.83-37.486-7.248a12.009 12.009 0 0 0-12.016-14.82 12.009 12.009 0 0 0-2.459.33398z"/></clipPath></defs><g fill="#fff"><path d="m440.58 1.9492-110.83 96.146 9.9473 46.955-143.89 143.89a12.009 12.009 0 1 0 16.982 16.98l143.88-143.88 46.963 9.9492 96.146-110.83-37.486-7.248a12.009 12.009 0 0 0-12.016-14.82 12.009 12.009 0 0 0-2.459.33398l-7.2441-37.471z" clip-path="url(#a)" fill-opacity=".19608" stroke="#fff" stroke-width="20"/><path d="m204.31 97.164-.00781.00586c-111.06 0-201.46 90.121-201.46 200.85 0 110.73 90.396 200.85 201.46 200.85 111.06 0 201.46-90.123 201.46-200.85 0-45.978-15.597-88.393-41.777-122.29l-23.883 23.883c20.121 27.591 31.986 61.579 31.986 98.406 0 92.584-74.921 167.28-167.78 167.28s-167.78-74.693-167.78-167.28c2e-6-92.584 74.919-167.28 167.78-167.28 36.45 0 70.131 11.51 97.607 31.09l23.896-23.895c-33.804-25.569-75.908-40.77-121.5-40.77zm-.00781 76.154v.00195c-68.88 0-125.08 56.029-125.08 124.7 1e-6 68.672 56.198 124.7 125.08 124.7 68.88-1e-5 125.08-56.031 125.08-124.7 0-24.887-7.3874-48.108-20.078-67.609l-24.414 24.414c6.9044 12.837 10.816 27.539 10.816 43.195 0 50.528-40.724 91.129-91.404 91.129s-91.402-40.601-91.402-91.129c1e-5-50.528 40.722-91.129 91.402-91.129 15.289 0 29.669 3.7022 42.301 10.25l24.473-24.473c-19.343-12.244-42.253-19.35-66.773-19.35z" clip-path="url(#b)" color="#000000" color-rendering="auto" dominant-baseline="auto" fill-opacity=".19608" image-rendering="auto" shape-rendering="auto" solid-color="#000000" stroke="#fff" stroke-width="20" style="font-feature-settings:normal;font-variant-alternates:normal;font-variant-caps:normal;font-variant-ligatures:normal;font-variant-numeric:normal;font-variant-position:normal;isolation:auto;mix-blend-mode:normal;paint-order:normal;shape-padding:0;text-decoration-color:#000000;text-decoration-line:none;text-decoration-style:solid;text-indent:0;text-orientation:mixed;text-transform:none;white-space:normal"/><ellipse cx="204.3" cy="298.02" rx="46.155" ry="46.016" style="paint-order:normal"/></g></svg>
