<svg version="1.1" viewBox="0 0 500 500" xmlns="http://www.w3.org/2000/svg"><path d="m34.229 260.05c116.89-4.1289 65.807 16.448 91.567 10.855 17.905-3.8872 40.161-50.552 50.084-73.352 22.624-51.981 56.399-68.679 78.024-107.16 8.4599-15.053 11.887-30.668 16.163-47.768 6.2276-24.908 2.3588-35.447 14.687-40.378 19.943-7.977 46.511 14.984 47.32 46.234.72615 28.037 4.4136 48.308-16.66 83.564-15.523 25.97-37.668 56.518 7.6817 58.393 49.4 2.0422 92.902 5.98 104.88 7.3095 11.966 1.3295 39.208 15.933 40.415 38.541 1.9163 35.871-11.945 23.776-11.034 43.217.20675 4.4092 13.692 14.621 12.833 38.411-.71526 19.791-19.47 32.907-19.963 39.862-1.1146 15.695 9.4285 4.6705 7.4927 28.429-2.3172 28.441-22.113 32.74-22.113 42.046 0 9.3065 5.138 14.87 2.479 29.495-2.6591 14.625-27.3 37.526-103.03 41.324-112.64 5.6485-152.41-23.226-203.08-24.434-27.379-.65248 19.84 18.452-98.858 12.43z" fill="#00cd00"/></svg>
