<svg version="1.1" viewBox="0 0 500 500" xmlns="http://www.w3.org/2000/svg"><path d="m320.48.66211c-2.6367.074549-5.2337.58686-7.7266 1.584-12.328 4.931-8.4599 15.471-14.688 40.379-4.276 17.1-7.7022 32.715-16.162 47.768-21.625 38.481-55.399 55.179-78.023 107.16-9.923 22.8-32.179 69.464-50.084 73.352-4.746 1.0304-10.983 1.1643-12.044.73632l.39289 204.05c1.4268-1.1058 12.311-1.1795 17.829-1.048 50.67 1.208 90.44 30.082 203.08 24.434 75.73-3.798 100.37-26.699 103.03-41.324 2.659-14.625-2.4805-20.188-2.4805-29.494 0-9.306 19.796-13.606 22.113-42.047 1.9358-23.758-8.6068-12.733-7.4922-28.428.493-6.955 19.248-20.072 19.963-39.863.859-23.79-12.625-34.001-12.832-38.41-.911-19.441 12.95-7.3458 11.033-43.217-1.207-22.608-28.448-37.212-40.414-38.541-11.978-1.3295-55.481-5.2684-104.88-7.3106-45.35-1.875-23.205-32.423-7.6816-58.393 21.074-35.256 17.386-55.527 16.66-83.564-.70788-27.344-21.137-48.34-39.594-47.818z" fill="#0f0"/><path d="m150.59 476.3-4.7188-204.66c2.6603-12.315-42.987-19.638-141.64-11.59l-1.1113 227.02c106.97-1.3814 144.63 2.0537 147.47-10.764z" fill="#f2ac4a"/></svg>
