<svg version="1.1" viewBox="0 0 500 500" xmlns="http://www.w3.org/2000/svg"><defs><clipPath id="a"><path d="m447.18 56.691a51.26 51.26 0 0 0-35.223 15.533l-246.63 247-76.982-77.031a51.26 51.26 0 0 0-36.773-15.543 51.26 51.26 0 0 0-35.736 88.004l107.3 107.37a51.26 51.26 0 0 0 41.613 21.451 51.26 51.26 0 0 0 1.5977.0332 51.26 51.26 0 0 0 .11132-.006 51.26 51.26 0 0 0 41.01-21.393l277.04-277.45a51.26 51.26 0 0 0-37.316-87.965z" color="#000000" color-rendering="auto" dominant-baseline="auto" fill="#fffffd" image-rendering="auto" shape-rendering="auto" solid-color="#000000" style="font-feature-settings:normal;font-variant-alternates:normal;font-variant-caps:normal;font-variant-ligatures:normal;font-variant-numeric:normal;font-variant-position:normal;isolation:auto;mix-blend-mode:normal;shape-padding:0;text-decoration-color:#000000;text-decoration-line:none;text-decoration-style:solid;text-indent:0;text-orientation:mixed;text-transform:none;white-space:normal"/></clipPath></defs><path d="m447.18 56.691a51.26 51.26 0 0 0-35.223 15.533l-246.63 247-76.982-77.031a51.26 51.26 0 0 0-36.773-15.543 51.26 51.26 0 0 0-35.736 88.004l107.3 107.37a51.26 51.26 0 0 0 41.613 21.451 51.26 51.26 0 0 0 1.5977.0332 51.26 51.26 0 0 0 .11132-.00586 51.26 51.26 0 0 0 41.01-21.393l277.04-277.45a51.26 51.26 0 0 0-37.316-87.965z" clip-path="url(#a)" color="#000000" color-rendering="auto" dominant-baseline="auto" fill="#fff" fill-opacity=".19608" image-rendering="auto" shape-rendering="auto" solid-color="#000000" stroke="#fffffd" stroke-linecap="round" stroke-linejoin="round" stroke-width="30" style="font-feature-settings:normal;font-variant-alternates:normal;font-variant-caps:normal;font-variant-ligatures:normal;font-variant-numeric:normal;font-variant-position:normal;isolation:auto;mix-blend-mode:normal;shape-padding:0;text-decoration-color:#000000;text-decoration-line:none;text-decoration-style:solid;text-indent:0;text-orientation:mixed;text-transform:none;white-space:normal"/></svg>
