<svg enable-background="new" version="1.1" viewBox="0 0 500 500" xmlns="http://www.w3.org/2000/svg"><path d="m250 25.531a28.058 28.058 0 0 0-2.396.11947 28.058 28.058 0 0 0-1.3766.16769 28.058 28.058 0 0 0-1.3985.21046 28.058 28.058 0 0 0-1.3722.30909 28.058 28.058 0 0 0-1.3449.34305 28.058 28.058 0 0 0-1.3481.44829 28.058 28.058 0 0 0-1.3032.47569 28.058 28.058 0 0 0-1.2769.57103 28.058 28.058 0 0 0-1.2714.61377 28.058 28.058 0 0 0-1.2012.68942 28.058 28.058 0 0 0-1.2046.73874 28.058 28.058 0 0 0-1.1497.82203 28.058 28.058 0 0 0-1.1016.83847 28.058 28.058 0 0 0-1.062.93159 28.058 28.058 0 0 0-1.0215.95139 28.058 28.058 0 0 0-.95139 1.0215 28.058 28.058 0 0 0-.93168 1.0621 28.058 28.058 0 0 0-.83849 1.1015 28.058 28.058 0 0 0-.82203 1.1498 28.058 28.058 0 0 0-.73869 1.2046 28.058 28.058 0 0 0-.68944 1.2012 28.058 28.058 0 0 0-.61377 1.2714 28.058 28.058 0 0 0-.57105 1.2769 28.058 28.058 0 0 0-.47566 1.3032 28.058 28.058 0 0 0-.44829 1.3481 28.058 28.058 0 0 0-.34307 1.3449 28.058 28.058 0 0 0-.30908 1.3722 28.058 28.058 0 0 0-.21047 1.3985 28.058 28.058 0 0 0-.16767 1.3766 28.058 28.058 0 0 0-.11947 2.396 28.058 28.058 0 0 0 .11947 2.396 28.058 28.058 0 0 0 .16548 1.3635 28.058 28.058 0 0 0 .21594 1.4238 28.058 28.058 0 0 0 .29812 1.3252 28.058 28.058 0 0 0 .35511 1.3942 28.058 28.058 0 0 0 .43292 1.2999 28.058 28.058 0 0 0 .49215 1.3504 28.058 28.058 0 0 0 .5524 1.233 28.058 28.058 0 0 0 .63461 1.3142 28.058 28.058 0 0 0 .6653 1.1607 28.058 28.058 0 0 0 .76282 1.244 28.058 28.058 0 0 0 .79684 1.1136 28.058 28.058 0 0 0 .86367 1.1366 28.058 28.058 0 0 0 .89983 1.0248 28.058 28.058 0 0 0 .9909 1.0632 28.058 28.058 0 0 0 .96993.90207 28.058 28.058 0 0 0 1.1146.97983 28.058 28.058 0 0 0 1.038.78915 28.058 28.058 0 0 0 1.2221.87355 28.058 28.058 0 0 0 1.1201.68612 28.058 28.058 0 0 0 1.2867.73873 28.058 28.058 0 0 0 1.1914.57542 28.058 28.058 0 0 0 1.3514.60502 28.058 28.058 0 0 0 1.2342.45048 28.058 28.058 0 0 0 1.4194.47129 28.058 28.058 0 0 0 2.2535.57542v51.21c-28.286 1.3304-53.985 12.659-73.631 30.532l-36.255-36.255a28.058 28.058 0 0 0-3.5457-35.289 28.058 28.058 0 0 0-39.68 0 28.058 28.058 0 0 0 0 39.68 28.058 28.058 0 0 0 35.31 3.5665l36.234 36.234c-17.872 19.646-29.2 45.345-30.532 73.631h-51.239a28.058 28.058 0 0 0-27.462-22.447 28.058 28.058 0 0 0-28.058 28.058 28.058 28.058 0 0 0 28.058 28.058 28.058 28.058 0 0 0 27.49-22.447h51.21c1.3304 28.286 12.659 53.985 30.532 73.631l-36.255 36.255a28.058 28.058 0 0 0-35.289 3.5457 28.058 28.058 0 0 0 0 39.68 28.058 28.058 0 0 0 39.68 0 28.058 28.058 0 0 0 3.5665-35.31l36.234-36.234c19.646 17.872 45.345 29.2 73.631 30.532v51.239a28.058 28.058 0 0 0-2.6941.69162 28.058 28.058 0 0 0-.0745.024 28.058 28.058 0 0 0-2.5493.93492 28.058 28.058 0 0 0-.0997.0449 28.058 28.058 0 0 0-2.4091 1.1673 28.058 28.058 0 0 0-.14689.0843 28.058 28.058 0 0 0-2.2293 1.3712 28.058 28.058 0 0 0-.18962.13587 28.058 28.058 0 0 0-2.0135 1.5345 28.058 28.058 0 0 0-.26961.23673 28.058 28.058 0 0 0-1.769 1.6528 28.058 28.058 0 0 0-.30031.32221 28.058 28.058 0 0 0-1.5388 1.757 28.058 28.058 0 0 0-.31895.41978 28.058 28.058 0 0 0-1.3043 1.8293 28.058 28.058 0 0 0-.3321.54252 28.058 28.058 0 0 0-1.0511 1.8381 28.058 28.058 0 0 0-.34744.71792 28.058 28.058 0 0 0-.80122 1.7975 28.058 28.058 0 0 0-.31347.85822 28.058 28.058 0 0 0-.58417 1.7657 28.058 28.058 0 0 0-.25101.98424 28.058 28.058 0 0 0-.38032 1.7043 28.058 28.058 0 0 0-.17318 1.1476 28.058 28.058 0 0 0-.1896 1.5827 28.058 28.058 0 0 0-.1162 2.3159 28.058 28.058 0 0 0 .1195 2.396 28.058 28.058 0 0 0 .16766 1.3766 28.058 28.058 0 0 0 .21045 1.3985 28.058 28.058 0 0 0 .30909 1.3722 28.058 28.058 0 0 0 .34307 1.3449 28.058 28.058 0 0 0 .44828 1.3481 28.058 28.058 0 0 0 .47567 1.3032 28.058 28.058 0 0 0 .57105 1.2768 28.058 28.058 0 0 0 .61378 1.2714 28.058 28.058 0 0 0 .68942 1.2012 28.058 28.058 0 0 0 .73869 1.2046 28.058 28.058 0 0 0 .82204 1.1498 28.058 28.058 0 0 0 .83849 1.1015 28.058 28.058 0 0 0 .93168 1.0621 28.058 28.058 0 0 0 .95139 1.0215 28.058 28.058 0 0 0 1.0215.95139 28.058 28.058 0 0 0 1.0621.93159 28.058 28.058 0 0 0 1.1015.83849 28.058 28.058 0 0 0 1.1497.82205 28.058 28.058 0 0 0 1.2046.73874 28.058 28.058 0 0 0 1.2012.68944 28.058 28.058 0 0 0 1.2714.61372 28.058 28.058 0 0 0 1.2768.57103 28.058 28.058 0 0 0 1.3032.4757 28.058 28.058 0 0 0 1.3482.44828 28.058 28.058 0 0 0 1.3449.34304 28.058 28.058 0 0 0 1.3722.30914 28.058 28.058 0 0 0 1.3986.21042 28.058 28.058 0 0 0 1.3766.16769 28.058 28.058 0 0 0 2.396.11947 28.058 28.058 0 0 0 2.396-.11948 28.058 28.058 0 0 0 1.3766-.16768 28.058 28.058 0 0 0 1.3985-.21043 28.058 28.058 0 0 0 1.3722-.30913 28.058 28.058 0 0 0 1.3449-.34304 28.058 28.058 0 0 0 1.3481-.44829 28.058 28.058 0 0 0 1.3032-.47569 28.058 28.058 0 0 0 1.2768-.57104 28.058 28.058 0 0 0 1.2714-.61372 28.058 28.058 0 0 0 1.2012-.68944 28.058 28.058 0 0 0 1.2046-.73873 28.058 28.058 0 0 0 1.1497-.82206 28.058 28.058 0 0 0 1.1015-.83848 28.058 28.058 0 0 0 1.0621-.93159 28.058 28.058 0 0 0 1.0215-.95139 28.058 28.058 0 0 0 .9513-1.0215 28.058 28.058 0 0 0 .93168-1.0621 28.058 28.058 0 0 0 .83848-1.1015 28.058 28.058 0 0 0 .82203-1.1498 28.058 28.058 0 0 0 .7387-1.2046 28.058 28.058 0 0 0 .68944-1.2012 28.058 28.058 0 0 0 .61377-1.2714 28.058 28.058 0 0 0 .57105-1.2768 28.058 28.058 0 0 0 .47566-1.3032 28.058 28.058 0 0 0 .44829-1.3481 28.058 28.058 0 0 0 .34306-1.3449 28.058 28.058 0 0 0 .30909-1.3722 28.058 28.058 0 0 0 .21045-1.3985 28.058 28.058 0 0 0 .16768-1.3766 28.058 28.058 0 0 0 .11948-2.396 28.058 28.058 0 0 0-.11948-2.3959 28.058 28.058 0 0 0-.16547-1.3635 28.058 28.058 0 0 0-.21595-1.4238 28.058 28.058 0 0 0-.29811-1.3251 28.058 28.058 0 0 0-.35512-1.3942 28.058 28.058 0 0 0-.43291-1.2999 28.058 28.058 0 0 0-.49215-1.3504 28.058 28.058 0 0 0-.5524-1.233 28.058 28.058 0 0 0-.63462-1.3142 28.058 28.058 0 0 0-.6653-1.1607 28.058 28.058 0 0 0-.76282-1.244 28.058 28.058 0 0 0-.79684-1.1136 28.058 28.058 0 0 0-.86367-1.1366 28.058 28.058 0 0 0-.89984-1.0247 28.058 28.058 0 0 0-.99081-1.0632 28.058 28.058 0 0 0-.97002-.90198 28.058 28.058 0 0 0-1.1146-.97983 28.058 28.058 0 0 0-1.038-.78917 28.058 28.058 0 0 0-1.222-.87356 28.058 28.058 0 0 0-1.1201-.68611 28.058 28.058 0 0 0-1.2867-.73874 28.058 28.058 0 0 0-1.1914-.5754 28.058 28.058 0 0 0-1.3514-.60499 28.058 28.058 0 0 0-1.2342-.4505 28.058 28.058 0 0 0-1.4194-.4713 28.058 28.058 0 0 0-2.2305-.56993 28.058 28.058 0 0 0-.0228-.009v-51.21c28.286-1.3305 53.985-12.659 73.631-30.532l36.255 36.255a28.058 28.058 0 0 0 3.5457 35.289 28.058 28.058 0 0 0 39.68 0 28.058 28.058 0 0 0 0-39.68 28.058 28.058 0 0 0-35.31-3.5665l-36.234-36.234c17.872-19.646 29.2-45.345 30.532-73.631h51.239a28.058 28.058 0 0 0 27.462 22.45 28.058 28.058 0 0 0 28.058-28.058 28.058 28.058 0 0 0-28.058-28.058 28.058 28.058 0 0 0-27.49 22.447h-51.21c-1.3304-28.286-12.659-53.985-30.532-73.631l36.255-36.255a28.058 28.058 0 0 0 35.289-3.5457 28.058 28.058 0 0 0 0-39.68 28.058 28.058 0 0 0-39.68 0 28.058 28.058 0 0 0-3.5665 35.31l-36.234 36.234c-19.646-17.872-45.345-29.2-73.631-30.532v-51.239a28.058 28.058 0 0 0 2.6941-.6916 28.058 28.058 0 0 0 .0744-.0241 28.058 28.058 0 0 0 2.5493-.93492 28.058 28.058 0 0 0 .0997-.04495 28.058 28.058 0 0 0 2.4091-1.1673 28.058 28.058 0 0 0 .14687-.08437 28.058 28.058 0 0 0 2.2293-1.3712 28.058 28.058 0 0 0 .18962-.13591 28.058 28.058 0 0 0 2.0135-1.5345 28.058 28.058 0 0 0 .26962-.23674 28.058 28.058 0 0 0 1.769-1.6528 28.058 28.058 0 0 0 .30031-.32224 28.058 28.058 0 0 0 1.5388-1.757 28.058 28.058 0 0 0 .31897-.41979 28.058 28.058 0 0 0 1.3043-1.8292 28.058 28.058 0 0 0 .33209-.54254 28.058 28.058 0 0 0 1.0511-1.8381 28.058 28.058 0 0 0 .34744-.7179 28.058 28.058 0 0 0 .80123-1.7975 28.058 28.058 0 0 0 .31347-.8582 28.058 28.058 0 0 0 .58419-1.7657 28.058 28.058 0 0 0 .25099-.98424 28.058 28.058 0 0 0 .38032-1.7043 28.058 28.058 0 0 0 .17318-1.1476 28.058 28.058 0 0 0 .1896-1.5826 28.058 28.058 0 0 0 .11619-2.316 28.058 28.058 0 0 0-.11949-2.396 28.058 28.058 0 0 0-.16767-1.3766 28.058 28.058 0 0 0-.21044-1.3985 28.058 28.058 0 0 0-.3091-1.3722 28.058 28.058 0 0 0-.34307-1.3449 28.058 28.058 0 0 0-.44827-1.3481 28.058 28.058 0 0 0-.47567-1.3032 28.058 28.058 0 0 0-.57106-1.2769 28.058 28.058 0 0 0-.61377-1.2714 28.058 28.058 0 0 0-.68942-1.2012 28.058 28.058 0 0 0-.7387-1.2046 28.058 28.058 0 0 0-.82202-1.1498 28.058 28.058 0 0 0-.83848-1.1015 28.058 28.058 0 0 0-.93168-1.0621 28.058 28.058 0 0 0-.9513-1.0215 28.058 28.058 0 0 0-1.0215-.95139 28.058 28.058 0 0 0-1.0621-.93159 28.058 28.058 0 0 0-1.1015-.83847 28.058 28.058 0 0 0-1.1497-.82203 28.058 28.058 0 0 0-1.2046-.73874 28.058 28.058 0 0 0-1.2012-.68942 28.058 28.058 0 0 0-1.2714-.61377 28.058 28.058 0 0 0-1.2768-.57103 28.058 28.058 0 0 0-1.3032-.47568 28.058 28.058 0 0 0-1.3482-.44829 28.058 28.058 0 0 0-1.3449-.34304 28.058 28.058 0 0 0-1.3722-.30909 28.058 28.058 0 0 0-1.3986-.21046 28.058 28.058 0 0 0-1.3766-.16769 28.058 28.058 0 0 0-2.3958-.11948zm0 117.85c58.953 0 106.62 47.67 106.62 106.62s-47.67 106.62-106.62 106.62-106.62-47.67-106.62-106.62 47.67-106.62 106.62-106.62z" color="#000000" color-rendering="auto" dominant-baseline="auto" fill="#fff" image-rendering="auto" shape-rendering="auto" solid-color="#000000" stroke-width=".9" style="font-feature-settings:normal;font-variant-alternates:normal;font-variant-caps:normal;font-variant-ligatures:normal;font-variant-numeric:normal;font-variant-position:normal;isolation:auto;mix-blend-mode:normal;paint-order:stroke markers fill;shape-padding:0;text-decoration-color:#000000;text-decoration-line:none;text-decoration-style:solid;text-indent:0;text-orientation:mixed;text-transform:none;white-space:normal"/><path d="m250 132a118 118 0 0 0-118 118 118 118 0 0 0 118 118 118 118 0 0 0 118-118 118 118 0 0 0-118-118zm0 11.496a106.51 106.51 0 0 1 106.51 106.51 106.51 106.51 0 0 1-106.51 106.51 106.51 106.51 0 0 1-106.51-106.51 106.51 106.51 0 0 1 106.51-106.51z" fill="#0f0" style="paint-order:stroke markers fill"/><path d="m303.75 307.1-107.6-.20922 53.926-136.71z" fill="#0f0" stroke-width="1.1521" style="paint-order:normal"/></svg>
