<svg version="1.1" viewBox="0 0 800 500" xmlns="http://www.w3.org/2000/svg"><path d="m578.03 296.42-.1337 39.079 37.979.2379-.39562-40.681z" fill="#bb3000" stroke="#ffaf46" stroke-width="4.5896"/><path d="m595.81 42.384c27.29 44.09 35.285 95.693 76.502 145.88l-37.328-5.2946c21.956 26.893 44.178 46.971 70.398 73.709l-39.485-6.2196c21.359 32.93 41.07 39.728 76.502 67.284-45.9-5.6539-86.455-9.3831-128.82-14.701l-35.535-.00035c-42.361 5.3176-82.921 9.0468-128.82 14.701 35.431-27.557 55.142-34.353 76.502-67.284l-39.485 6.2196c26.218-26.736 48.44-46.817 70.398-73.709l-37.328 5.2946c41.215-50.184 49.211-101.78 76.502-145.88" fill="#168c05" stroke-width=".65566"/><path d="m424.78 350.56-.16512 48.261 46.903.2938-.48857-50.24z" fill="#bb3000" stroke="#ffaf46" stroke-width="5.6681"/><path d="m446.73 36.831c33.702 54.45 43.576 118.18 94.479 180.16l-46.099-6.5387c27.115 33.212 54.559 58.009 86.94 91.03l-48.763-7.6811c26.378 40.669 50.721 49.063 94.479 83.094-56.686-6.9824-106.77-11.588-159.1-18.156l-43.886-.00044c-52.316 6.5672-102.41 11.173-159.1 18.156 43.756-34.032 68.099-42.426 94.479-83.094l-48.763 7.6811c32.379-33.019 59.823-57.818 86.94-91.03l-46.099 6.5387c50.9-61.976 60.775-125.7 94.479-180.16" fill="#0f0" stroke-width=".80973"/><path d="m233.55 413.97-.20391 59.602 57.925.36284-.60338-62.046z" fill="#bb3000" stroke="#ffaf46" stroke-width="7"/><path d="m260.66 26.52c41.622 67.245 53.816 145.95 116.68 222.5l-56.932-8.0752c33.487 41.016 67.379 71.64 107.37 112.42l-60.222-9.486c32.577 50.225 62.639 60.592 116.68 102.62-70.006-8.6232-131.86-14.311-196.48-22.422l-54.198-.00054c-64.609 8.1104-126.47 13.798-196.48 22.422 54.038-42.029 84.101-52.395 116.68-102.62l-60.222 9.486c39.987-40.778 73.88-71.404 107.37-112.42l-56.932 8.0752c62.861-76.539 75.056-155.24 116.68-222.5" fill="#16b905"/></svg>
