<svg version="1.1" viewBox="0 0 500 500" xmlns="http://www.w3.org/2000/svg"><g><path d="m154.34 195.69c-32.659 3.827-45.359 70.301-73.758 55.42-34.396-.63786-40.501-16.769-41.255-33.02-49.363-21.736-35.772-113.87-12.343-122.22-14.624-31.953 54.299-56.141 79.825-53.447 7.7881-22.59 43.921-23.743 89.919-23.415 28.729-13.652 112.32-27.577 149.74 6.5912 78.316-.26518 110.9 19.248 108 44.077 52.845 10.805 38.659 93.345 24.414 123.75-12.156 13.138-10.022 52.724-68.022 60.892-44.124 21.474-100.18-40.341-148.47-50.972-63.58 27.64-108.05-7.654-108.05-7.654z" fill="#15ab0a" stroke-width=".71914"/><path d="m202.24 346.46c4.1351-7.5763-15.216-43.907-17.547-61.935-3.2426-25.072-12.329-29.065-25.246-38.718-49.314-36.854-118.94-74.695-101.95-67.466 10.344 4.401 21.894-.97513 21.894-.97513 3.197 11.386 54.54 23.219 129.6 70.782.32781-11.79-38.149-125.64-35.37-135.02 6.2662-21.159 8.0709 11.479 23.789.4486-8.5902-16.463 21.799 90.67 30.018 116.23 5.4423-.45821 70.453-131.87 80.148-126l7.7096 6.9683c-9.0391 8.7292-62.198 103.78-64.048 123.6 14.129-6.0607 130.54-52.312 143.06-54.657 4.4246 16.025-20.491 21.712-38.37 31.955-22.775 13.048-101.33 56.741-98.993 76.632 2.1517 18.336 25.104 175.34 33.757 206.3-27.871.30895-54.095-.77405-78.331-.79587z" fill="#955c1e" stroke-width=".54976"/><path d="m106.81 42.426c52.082 54.649 53.423 28.503 44.037 68.393-9.3859 39.89-6.7042 77.099-30.839 66.037-24.135-11.062-63.355-13.073-80.451-3.0169-17.096 10.056-32.516 14.079-29.499-13.408 3.0169-27.487 22.459-85.479 31.175-89.837s65.577-28.167 65.577-28.167z" fill="#15d70a"/><path d="m193.08 36.067c20.113 38.885-9.7211 45.589 30.84 58.327 40.561 12.738 46.259-6.0338 75.087-4.0225 28.828 2.0113 39.22 8.0451 42.907-20.113 3.6873-28.158 51.287-36.873-10.392-46.259-61.679-9.3859-138.44 12.068-138.44 12.068z" fill="#15870a"/><path d="m399.24 71.934c-17.431 34.862-88.161 13.073-40.896 65.366 47.265 52.293 43.242 63.355 69.724 52.293 26.482-11.062 32.851-20.113 41.901-41.901 9.0507-21.789 35.197-22.794 5.3634-43.578-29.834-20.783-8.3803-27.487-37.544-42.572-29.163-15.085-36.873 11.732-36.873 11.732z" fill="#15c60a"/></g></svg>
