<svg version="1.1" viewBox="0 0 1500 500" xmlns="http://www.w3.org/2000/svg"><defs><clipPath id="a"><path d="m249.58 2.538c46.247 74.717 59.795 162.17 129.64 247.22l-63.258-8.9724c37.208 45.573 74.866 79.6 119.3 124.91l-66.913-10.54c36.197 55.806 69.599 67.324 129.64 114.02-77.785-9.5813-146.51-15.901-218.31-24.913l-60.22-6e-4c-71.788 9.0115-140.52 15.331-218.31 24.913 60.042-46.699 93.446-58.217 129.64-114.02l-66.913 10.54c44.43-45.309 82.089-79.338 119.3-124.91l-63.258 8.9724c69.846-85.043 83.396-172.49 129.64-247.22" fill="#16b905"/></clipPath></defs><path d="m16 50h1468-1468zm0 100h1468-1468zm0 100h1468-1468zm0 100h1468-1468zm0 100h1468-1468z" fill="none" stroke="#fff" stroke-linecap="round" stroke-linejoin="round" stroke-opacity=".19608" stroke-width="30"/><g transform="translate(-571.34 27.498)"><path d="m791.81 403.1-.22657 66.225 64.361.40316-.67042-68.94z" fill="#bb3000" stroke="#ffee46" stroke-width="7"/><path transform="translate(572.35 -29.938)" d="m249.58 2.538c46.247 74.717 59.795 162.17 129.64 247.22l-63.258-8.9724c37.208 45.573 74.866 79.6 119.3 124.91l-66.913-10.54c36.197 55.806 69.599 67.324 129.64 114.02-77.785-9.5813-146.51-15.901-218.31-24.913l-60.22-6e-4c-71.788 9.0115-140.52 15.331-218.31 24.913 60.042-46.699 93.446-58.217 129.64-114.02l-66.913 10.54c44.43-45.309 82.089-79.338 119.3-124.91l-63.258 8.9724c69.846-85.043 83.396-172.49 129.64-247.22" clip-path="url(#a)" fill="#00b900" stroke="#0f0" stroke-width="27"/></g></svg>
