<svg version="1.1" viewBox="0 0 500 500" xmlns="http://www.w3.org/2000/svg"><g><path d="m249.84 14.328c-12.779 14.962-32.485 59.791-112.84 60.984-41.398.61482-72.811-13.662-86.605-22.945-15.117 19.095-39.63 56.593-38.039 175.93 1.5912 119.34 138.1 247.39 237.49 261.52 91.492-17.04 235.89-142.18 237.48-261.52 1.5912-119.34-22.923-156.84-38.039-175.93-8.8073 4.7118-45.208 23.56-86.605 22.945-80.356-1.1934-98.814-47.269-112.84-60.984zm116.92 126.2a28.906 28.906 0 0 1 21.043 49.604l-159.52 159.76a28.906 28.906 0 0 1-40.896.008l-63.863-63.904a28.906 28.906 0 1 1 40.889-40.861l43.41 43.438 139.08-139.28a28.906 28.906 0 0 1 19.861-8.7598z" fill="#fff" fill-opacity=".19608"/></g><g><path d="m12.354 228.3c-1.5912-119.34 22.923-156.84 38.04-175.93 13.795 9.2834 45.207 23.559 86.605 22.945 80.356-1.1934 100.06-46.022 112.84-60.984 14.026 13.715 32.484 59.791 112.84 60.984 41.398.61482 77.797-18.233 86.605-22.945 15.117 19.095 39.631 56.592 38.04 175.93-1.5912 119.34-145.99 244.48-237.49 261.52-99.389-14.131-235.89-142.18-237.49-261.52z" fill="none" stroke="#fff" stroke-width="19.02"/></g></svg>
