<svg version="1.1" viewBox="0 0 500 500" xmlns="http://www.w3.org/2000/svg"><g transform="matrix(1.0141 0 0 1.0141 1.4736 1.5962)" fill="none" stroke="#fff" stroke-width="24.652"><g transform="matrix(.9025 0 0 .9025 23.901 23.871)" fill="none" stroke="#fff" stroke-width="27.316"><path d="m424.19 201.98h17.342c12.844 0 23.184 7.5766 23.184 16.988v228.4c0 9.4114-10.34 16.988-23.184 16.988h-312.77c-12.844 0-23.184-7.5766-23.184-16.988v-71.356" style="paint-order:stroke markers fill"/><path d="m384.47 113.26h16.647c12.844 0 23.184 7.5766 23.184 16.988v228.4c0 9.4114-10.34 16.988-23.184 16.988h-312.77c-12.844 0-23.184-7.5766-23.184-16.988v-71.26" style="paint-order:stroke markers fill"/><rect x="25.56" y="25.296" width="359.14" height="262.38" rx="23.184" ry="16.988" style="paint-order:stroke markers fill"/></g></g></svg>
