<svg version="1.1" viewBox="0 0 500 500" xmlns="http://www.w3.org/2000/svg"><path d="m251.48 3.8398a27.127 27.021 0 0 0-24.766 13.477l-222.02 383.05a27.127 27.021 0 0 0 23.491 40.528h444.03a27.127 27.021 0 0 0 23.491-40.528l-222.02-383.05a27.127 27.021 0 0 0-22.215-13.477z" color="#000000" color-rendering="auto" dominant-baseline="auto" fill="#d20000" image-rendering="auto" shape-rendering="auto" solid-color="#000000" style="font-feature-settings:normal;font-variant-alternates:normal;font-variant-caps:normal;font-variant-ligatures:normal;font-variant-numeric:normal;font-variant-position:normal;isolation:auto;mix-blend-mode:normal;paint-order:stroke markers fill;shape-padding:0;text-decoration-color:#000000;text-decoration-line:none;text-decoration-style:solid;text-indent:0;text-orientation:mixed;text-transform:none;white-space:normal"/><path d="m250.21 59.711 197.24 340.3h-394.47z" color="#000000" color-rendering="auto" dominant-baseline="auto" fill="#fff" image-rendering="auto" shape-rendering="auto" solid-color="#000000" style="font-feature-settings:normal;font-variant-alternates:normal;font-variant-caps:normal;font-variant-ligatures:normal;font-variant-numeric:normal;font-variant-position:normal;isolation:auto;mix-blend-mode:normal;paint-order:stroke markers fill;shape-padding:0;text-decoration-color:#000000;text-decoration-line:none;text-decoration-style:solid;text-indent:0;text-orientation:mixed;text-transform:none;white-space:normal"/><g transform="matrix(.44319 0 0 .44319 150.08 155.71)"><path d="m250.55 304.36a249.72 97.311 0 0 0-249.72 97.311 249.72 97.311 0 0 0 249.72 97.311 249.72 97.311 0 0 0 249.72-97.311 249.72 97.311 0 0 0-249.72-97.311zm-87.862 54.717a106.73 41.731 0 0 1 106.73 41.73 106.73 41.731 0 0 1-106.73 41.73 106.73 41.731 0 0 1-106.73-41.73 106.73 41.731 0 0 1 106.73-41.73z" fill="#0f0" style="paint-order:normal"/><path d="m147.95 125.97c7.6372 1.0106 13.881 3.2039 31.703 2.7677l-.0408 293.5c-10.618 3.1129-21.236 2.6587-31.854 0z" fill="#ff6400" style="paint-order:normal"/><path d="m147.95 2.314c29.916 22.946 76.455 39.445 132.45 52.279-29.84 33.29-79.861 64.852-132.45 51.78z" fill="#0f0"/></g></svg>
