<?xml version="1.0" standalone="no"?>
<!DOCTYPE svg PUBLIC "-//W3C//DTD SVG 20010904//EN"
 "http://www.w3.org/TR/2001/REC-SVG-20010904/DTD/svg10.dtd">
<svg version="1.0" xmlns="http://www.w3.org/2000/svg"
 width="700.000000pt" height="700.000000pt" viewBox="0 0 700.000000 700.000000"
 preserveAspectRatio="xMidYMid meet">
<metadata>
Created by potrace 1.11, written by Peter Selinger 2001-2013
</metadata>
<g transform="translate(0.000000,700.000000) scale(0.100000,-0.100000)"
fill="#000000" stroke="none">
<path d="M6020 6055 l0 -175 -362 0 c-385 0 -568 -12 -759 -50 -520 -101 -900
-366 -1174 -819 -31 -51 -112 -199 -179 -330 -121 -232 -165 -312 -216 -381
-121 -169 -262 -268 -456 -321 -185 -51 -197 -51 -922 -56 l-683 -4 -84 80
c-66 63 -102 89 -177 124 -51 25 -118 51 -148 58 -79 20 -260 17 -340 -5 -194
-53 -356 -187 -444 -368 -101 -206 -100 -407 1 -618 39 -81 58 -108 132 -180
145 -144 286 -203 486 -204 133 -1 191 12 313 70 74 36 109 60 175 125 l82 80
680 -4 c748 -4 769 -5 966 -68 188 -59 327 -167 444 -344 31 -47 114 -197 184
-333 206 -396 301 -540 473 -709 135 -134 244 -212 410 -294 177 -89 417 -157
661 -190 45 -6 274 -13 510 -16 l427 -5 0 -174 0 -173 485 381 c267 210 484
386 482 391 -1 5 -219 179 -482 386 l-480 377 -3 -174 -2 -174 -413 5 c-303 4
-433 9 -492 20 -321 59 -489 163 -641 394 -32 48 -115 199 -186 336 -71 136
-139 264 -152 285 -12 20 -28 47 -35 60 l-12 22 966 0 965 0 0 -175 0 -174
485 381 c267 209 485 384 485 388 0 8 -954 760 -964 760 -3 0 -6 -76 -6 -170
l0 -170 -966 0 c-531 0 -963 3 -961 8 2 4 20 34 39 67 20 33 93 170 162 305
70 134 152 283 184 330 115 173 254 280 441 339 178 57 246 63 694 68 l407 5
0 -176 0 -175 485 381 c267 209 485 384 485 388 0 4 -177 146 -392 316 -216
169 -435 341 -485 382 l-93 73 0 -176z m-5175 -2196 c83 -31 183 -130 214
-213 59 -159 24 -315 -97 -428 -151 -141 -373 -141 -524 0 -157 146 -168 382
-26 537 28 31 69 67 92 80 99 58 226 67 341 24z"/>
</g>
</svg>
