<?xml version="1.0" standalone="no"?>
<!DOCTYPE svg PUBLIC "-//W3C//DTD SVG 20010904//EN"
 "http://www.w3.org/TR/2001/REC-SVG-20010904/DTD/svg10.dtd">
<svg version="1.0" xmlns="http://www.w3.org/2000/svg"
 width="700.000000pt" height="700.000000pt" viewBox="0 0 700.000000 700.000000"
 preserveAspectRatio="xMidYMid meet">
<metadata>
Created by potrace 1.11, written by Peter Selinger 2001-2013
</metadata>
<g transform="translate(0.000000,700.000000) scale(0.100000,-0.100000)"
fill="#000000" stroke="none">
<path d="M6020 6055 l0 -175 -327 -1 c-384 0 -525 -6 -633 -23 -14 -3 -59 -10
-100 -16 -140 -22 -335 -78 -470 -137 -76 -32 -243 -124 -280 -153 -120 -94
-155 -125 -223 -195 -166 -168 -247 -295 -484 -755 -87 -168 -109 -206 -163
-284 -120 -173 -246 -269 -435 -330 -163 -53 -231 -58 -751 -63 l-481 -5 -46
69 c-111 167 -280 293 -471 352 -100 31 -111 33 -231 36 -271 9 -490 -83 -679
-286 -336 -361 -297 -947 84 -1259 30 -25 57 -48 60 -51 3 -4 43 -27 90 -52
80 -43 182 -80 260 -95 48 -9 245 -9 302 1 229 37 450 181 584 381 l46 68 476
-5 c263 -2 495 -7 517 -11 91 -14 211 -38 230 -46 11 -4 51 -20 88 -35 198
-80 334 -227 495 -535 33 -63 94 -182 137 -265 208 -400 402 -619 720 -812
106 -64 368 -163 495 -187 14 -3 36 -7 50 -10 76 -17 198 -35 275 -42 134 -11
194 -13 523 -13 l342 -1 0 -170 c0 -93 3 -170 8 -170 8 1 18 8 78 57 21 18
158 125 304 239 146 114 317 248 380 299 63 50 134 105 158 124 23 18 42 36
42 41 0 4 -57 52 -126 106 -69 55 -176 139 -237 187 -126 99 -109 86 -352 276
-99 78 -196 154 -215 170 l-35 29 -3 -174 -2 -175 -368 2 c-371 2 -485 8 -612
34 -14 3 -34 7 -45 9 -78 15 -216 75 -292 128 -114 78 -237 237 -348 453 -153
295 -193 369 -250 468 l-16 27 966 0 965 0 0 -175 0 -175 111 88 c61 48 123
96 138 107 14 11 60 47 102 80 41 33 91 71 109 85 18 14 38 30 44 35 15 14
143 115 177 140 87 64 289 228 289 235 0 7 -134 117 -270 220 -18 14 -182 142
-364 286 l-331 261 -3 -174 -2 -173 -966 0 -965 0 12 23 c7 12 20 33 29 47 10
14 57 102 105 195 191 370 223 425 311 535 131 163 312 259 557 296 15 2 42 7
60 10 17 3 218 8 445 11 l412 5 0 -176 0 -176 183 143 c395 311 673 530 702
553 17 13 45 34 63 47 l33 25 -38 31 c-21 17 -119 94 -218 172 -99 77 -193
151 -210 164 -16 13 -91 72 -165 130 -74 58 -142 111 -150 118 -8 7 -57 45
-107 85 l-93 72 0 -175z m-5040 -2140 c19 -3 59 -17 89 -31 149 -67 240 -202
246 -364 14 -323 -309 -538 -601 -399 -192 91 -286 315 -218 517 68 197 273
316 484 277z"/>
</g>
</svg>
